<?xml version="1.0" encoding="UTF-8"?>
<!DOCTYPE xmeml>
<xmeml version="5">
    <sequence>
        <name>Timeline 1 (Resolve)</name>
        <duration>10167</duration>
        <rate>
            <timebase>24</timebase>
            <ntsc>FALSE</ntsc>
        </rate>
        <in>-1</in>
        <out>-1</out>
        <timecode>
            <string>01:00:00:00</string>
            <frame>86400</frame>
            <displayformat>NDF</displayformat>
            <rate>
                <timebase>24</timebase>
                <ntsc>FALSE</ntsc>
            </rate>
        </timecode>
        <media>
            <video>
                <track>
                    <clipitem id="Interstaller.mp4 0">
                        <name>Interstaller.mp4</name>
                        <duration>243353</duration>
                        <rate>
                            <timebase>24</timebase>
                            <ntsc>FALSE</ntsc>
                        </rate>
                        <start>0</start>
                        <end>92</end>
                        <enabled>TRUE</enabled>
                        <in>163972</in>
                        <out>164064</out>
                        <file id="Interstaller.mp4 2">
                            <duration>243353</duration>
                            <rate>
                                <timebase>24</timebase>
                                <ntsc>FALSE</ntsc>
                            </rate>
                            <name>Interstaller.mp4</name>
                            <pathurl>file://localhost/E:/Interstaller.mp4</pathurl>
                            <timecode>
                                <string>00:00:00:00</string>
                                <displayformat>NDF</displayformat>
                                <rate>
                                    <timebase>24</timebase>
                                    <ntsc>FALSE</ntsc>
                                </rate>
                            </timecode>
                            <media>
                                <video>
                                    <duration>243353</duration>
                                    <samplecharacteristics>
                                        <width>1920</width>
                                        <height>1080</height>
                                    </samplecharacteristics>
                                </video>
                                <audio>
                                    <channelcount>2</channelcount>
                                </audio>
                            </media>
                        </file>
                        <compositemode>normal</compositemode>
                        <filter>
                            <enabled>TRUE</enabled>
                            <start>0</start>
                            <end>243353</end>
                            <effect>
                                <name>Basic Motion</name>
                                <effectid>basic</effectid>
                                <effecttype>motion</effecttype>
                                <mediatype>video</mediatype>
                                <effectcategory>motion</effectcategory>
                                <parameter>
                                    <name>Scale</name>
                                    <parameterid>scale</parameterid>
                                    <value>100</value>
                                    <valuemin>0</valuemin>
                                    <valuemax>10000</valuemax>
                                </parameter>
                                <parameter>
                                    <name>Center</name>
                                    <parameterid>center</parameterid>
                                    <value>
                                        <horiz>0</horiz>
                                        <vert>0</vert>
                                    </value>
                                </parameter>
                                <parameter>
                                    <name>Rotation</name>
                                    <parameterid>rotation</parameterid>
                                    <value>0</value>
                                    <valuemin>-100000</valuemin>
                                    <valuemax>100000</valuemax>
                                </parameter>
                                <parameter>
                                    <name>Anchor Point</name>
                                    <parameterid>centerOffset</parameterid>
                                    <value>
                                        <horiz>0</horiz>
                                        <vert>0</vert>
                                    </value>
                                </parameter>
                            </effect>
                        </filter>
                        <filter>
                            <enabled>TRUE</enabled>
                            <start>0</start>
                            <end>243353</end>
                            <effect>
                                <name>Crop</name>
                                <effectid>crop</effectid>
                                <effecttype>motion</effecttype>
                                <mediatype>video</mediatype>
                                <effectcategory>motion</effectcategory>
                                <parameter>
                                    <name>left</name>
                                    <parameterid>left</parameterid>
                                    <value>0</value>
                                    <valuemin>0</valuemin>
                                    <valuemax>100</valuemax>
                                </parameter>
                                <parameter>
                                    <name>right</name>
                                    <parameterid>right</parameterid>
                                    <value>0</value>
                                    <valuemin>0</valuemin>
                                    <valuemax>100</valuemax>
                                </parameter>
                                <parameter>
                                    <name>top</name>
                                    <parameterid>top</parameterid>
                                    <value>0</value>
                                    <valuemin>0</valuemin>
                                    <valuemax>100</valuemax>
                                </parameter>
                                <parameter>
                                    <name>bottom</name>
                                    <parameterid>bottom</parameterid>
                                    <value>0</value>
                                    <valuemin>0</valuemin>
                                    <valuemax>100</valuemax>
                                </parameter>
                            </effect>
                        </filter>
                        <filter>
                            <enabled>TRUE</enabled>
                            <start>0</start>
                            <end>243353</end>
                            <effect>
                                <name>Opacity</name>
                                <effectid>opacity</effectid>
                                <effecttype>motion</effecttype>
                                <mediatype>video</mediatype>
                                <effectcategory>motion</effectcategory>
                                <parameter>
                                    <name>opacity</name>
                                    <parameterid>opacity</parameterid>
                                    <value>100</value>
                                    <valuemin>0</valuemin>
                                    <valuemax>100</valuemax>
                                </parameter>
                            </effect>
                        </filter>
                        <link>
                            <linkclipref>Interstaller.mp4 0</linkclipref>
                        </link>
                        <link>
                            <linkclipref>Interstaller.mp4 245</linkclipref>
                        </link>
                        <comments/>
                    </clipitem>
                    <clipitem id="Interstaller.mp4 3">
                        <name>Interstaller.mp4</name>
                        <duration>243353</duration>
                        <rate>
                            <timebase>24</timebase>
                            <ntsc>FALSE</ntsc>
                        </rate>
                        <start>92</start>
                        <end>206</end>
                        <enabled>TRUE</enabled>
                        <in>164064</in>
                        <out>164178</out>
                        <file id="Interstaller.mp4 2"/>
                        <compositemode>normal</compositemode>
                        <filter>
                            <enabled>TRUE</enabled>
                            <start>0</start>
                            <end>243353</end>
                            <effect>
                                <name>Basic Motion</name>
                                <effectid>basic</effectid>
                                <effecttype>motion</effecttype>
                                <mediatype>video</mediatype>
                                <effectcategory>motion</effectcategory>
                                <parameter>
                                    <name>Scale</name>
                                    <parameterid>scale</parameterid>
                                    <value>100</value>
                                    <valuemin>0</valuemin>
                                    <valuemax>10000</valuemax>
                                </parameter>
                                <parameter>
                                    <name>Center</name>
                                    <parameterid>center</parameterid>
                                    <value>
                                        <horiz>0</horiz>
                                        <vert>0</vert>
                                    </value>
                                </parameter>
                                <parameter>
                                    <name>Rotation</name>
                                    <parameterid>rotation</parameterid>
                                    <value>0</value>
                                    <valuemin>-100000</valuemin>
                                    <valuemax>100000</valuemax>
                                </parameter>
                                <parameter>
                                    <name>Anchor Point</name>
                                    <parameterid>centerOffset</parameterid>
                                    <value>
                                        <horiz>0</horiz>
                                        <vert>0</vert>
                                    </value>
                                </parameter>
                            </effect>
                        </filter>
                        <filter>
                            <enabled>TRUE</enabled>
                            <start>0</start>
                            <end>243353</end>
                            <effect>
                                <name>Crop</name>
                                <effectid>crop</effectid>
                                <effecttype>motion</effecttype>
                                <mediatype>video</mediatype>
                                <effectcategory>motion</effectcategory>
                                <parameter>
                                    <name>left</name>
                                    <parameterid>left</parameterid>
                                    <value>0</value>
                                    <valuemin>0</valuemin>
                                    <valuemax>100</valuemax>
                                </parameter>
                                <parameter>
                                    <name>right</name>
                                    <parameterid>right</parameterid>
                                    <value>0</value>
                                    <valuemin>0</valuemin>
                                    <valuemax>100</valuemax>
                                </parameter>
                                <parameter>
                                    <name>top</name>
                                    <parameterid>top</parameterid>
                                    <value>0</value>
                                    <valuemin>0</valuemin>
                                    <valuemax>100</valuemax>
                                </parameter>
                                <parameter>
                                    <name>bottom</name>
                                    <parameterid>bottom</parameterid>
                                    <value>0</value>
                                    <valuemin>0</valuemin>
                                    <valuemax>100</valuemax>
                                </parameter>
                            </effect>
                        </filter>
                        <filter>
                            <enabled>TRUE</enabled>
                            <start>0</start>
                            <end>243353</end>
                            <effect>
                                <name>Opacity</name>
                                <effectid>opacity</effectid>
                                <effecttype>motion</effecttype>
                                <mediatype>video</mediatype>
                                <effectcategory>motion</effectcategory>
                                <parameter>
                                    <name>opacity</name>
                                    <parameterid>opacity</parameterid>
                                    <value>100</value>
                                    <valuemin>0</valuemin>
                                    <valuemax>100</valuemax>
                                </parameter>
                            </effect>
                        </filter>
                        <link>
                            <linkclipref>Interstaller.mp4 3</linkclipref>
                        </link>
                        <link>
                            <linkclipref>Interstaller.mp4 246</linkclipref>
                        </link>
                        <comments/>
                    </clipitem>
                    <clipitem id="Interstaller.mp4 5">
                        <name>Interstaller.mp4</name>
                        <duration>243353</duration>
                        <rate>
                            <timebase>24</timebase>
                            <ntsc>FALSE</ntsc>
                        </rate>
                        <start>206</start>
                        <end>274</end>
                        <enabled>TRUE</enabled>
                        <in>164178</in>
                        <out>164246</out>
                        <file id="Interstaller.mp4 2"/>
                        <compositemode>normal</compositemode>
                        <filter>
                            <enabled>TRUE</enabled>
                            <start>0</start>
                            <end>243353</end>
                            <effect>
                                <name>Basic Motion</name>
                                <effectid>basic</effectid>
                                <effecttype>motion</effecttype>
                                <mediatype>video</mediatype>
                                <effectcategory>motion</effectcategory>
                                <parameter>
                                    <name>Scale</name>
                                    <parameterid>scale</parameterid>
                                    <value>100</value>
                                    <valuemin>0</valuemin>
                                    <valuemax>10000</valuemax>
                                </parameter>
                                <parameter>
                                    <name>Center</name>
                                    <parameterid>center</parameterid>
                                    <value>
                                        <horiz>0</horiz>
                                        <vert>0</vert>
                                    </value>
                                </parameter>
                                <parameter>
                                    <name>Rotation</name>
                                    <parameterid>rotation</parameterid>
                                    <value>0</value>
                                    <valuemin>-100000</valuemin>
                                    <valuemax>100000</valuemax>
                                </parameter>
                                <parameter>
                                    <name>Anchor Point</name>
                                    <parameterid>centerOffset</parameterid>
                                    <value>
                                        <horiz>0</horiz>
                                        <vert>0</vert>
                                    </value>
                                </parameter>
                            </effect>
                        </filter>
                        <filter>
                            <enabled>TRUE</enabled>
                            <start>0</start>
                            <end>243353</end>
                            <effect>
                                <name>Crop</name>
                                <effectid>crop</effectid>
                                <effecttype>motion</effecttype>
                                <mediatype>video</mediatype>
                                <effectcategory>motion</effectcategory>
                                <parameter>
                                    <name>left</name>
                                    <parameterid>left</parameterid>
                                    <value>0</value>
                                    <valuemin>0</valuemin>
                                    <valuemax>100</valuemax>
                                </parameter>
                                <parameter>
                                    <name>right</name>
                                    <parameterid>right</parameterid>
                                    <value>0</value>
                                    <valuemin>0</valuemin>
                                    <valuemax>100</valuemax>
                                </parameter>
                                <parameter>
                                    <name>top</name>
                                    <parameterid>top</parameterid>
                                    <value>0</value>
                                    <valuemin>0</valuemin>
                                    <valuemax>100</valuemax>
                                </parameter>
                                <parameter>
                                    <name>bottom</name>
                                    <parameterid>bottom</parameterid>
                                    <value>0</value>
                                    <valuemin>0</valuemin>
                                    <valuemax>100</valuemax>
                                </parameter>
                            </effect>
                        </filter>
                        <filter>
                            <enabled>TRUE</enabled>
                            <start>0</start>
                            <end>243353</end>
                            <effect>
                                <name>Opacity</name>
                                <effectid>opacity</effectid>
                                <effecttype>motion</effecttype>
                                <mediatype>video</mediatype>
                                <effectcategory>motion</effectcategory>
                                <parameter>
                                    <name>opacity</name>
                                    <parameterid>opacity</parameterid>
                                    <value>100</value>
                                    <valuemin>0</valuemin>
                                    <valuemax>100</valuemax>
                                </parameter>
                            </effect>
                        </filter>
                        <link>
                            <linkclipref>Interstaller.mp4 5</linkclipref>
                        </link>
                        <link>
                            <linkclipref>Interstaller.mp4 247</linkclipref>
                        </link>
                        <comments/>
                    </clipitem>
                    <clipitem id="Interstaller.mp4 7">
                        <name>Interstaller.mp4</name>
                        <duration>243353</duration>
                        <rate>
                            <timebase>24</timebase>
                            <ntsc>FALSE</ntsc>
                        </rate>
                        <start>274</start>
                        <end>411</end>
                        <enabled>TRUE</enabled>
                        <in>164246</in>
                        <out>164383</out>
                        <file id="Interstaller.mp4 2"/>
                        <compositemode>normal</compositemode>
                        <filter>
                            <enabled>TRUE</enabled>
                            <start>0</start>
                            <end>243353</end>
                            <effect>
                                <name>Basic Motion</name>
                                <effectid>basic</effectid>
                                <effecttype>motion</effecttype>
                                <mediatype>video</mediatype>
                                <effectcategory>motion</effectcategory>
                                <parameter>
                                    <name>Scale</name>
                                    <parameterid>scale</parameterid>
                                    <value>100</value>
                                    <valuemin>0</valuemin>
                                    <valuemax>10000</valuemax>
                                </parameter>
                                <parameter>
                                    <name>Center</name>
                                    <parameterid>center</parameterid>
                                    <value>
                                        <horiz>0</horiz>
                                        <vert>0</vert>
                                    </value>
                                </parameter>
                                <parameter>
                                    <name>Rotation</name>
                                    <parameterid>rotation</parameterid>
                                    <value>0</value>
                                    <valuemin>-100000</valuemin>
                                    <valuemax>100000</valuemax>
                                </parameter>
                                <parameter>
                                    <name>Anchor Point</name>
                                    <parameterid>centerOffset</parameterid>
                                    <value>
                                        <horiz>0</horiz>
                                        <vert>0</vert>
                                    </value>
                                </parameter>
                            </effect>
                        </filter>
                        <filter>
                            <enabled>TRUE</enabled>
                            <start>0</start>
                            <end>243353</end>
                            <effect>
                                <name>Crop</name>
                                <effectid>crop</effectid>
                                <effecttype>motion</effecttype>
                                <mediatype>video</mediatype>
                                <effectcategory>motion</effectcategory>
                                <parameter>
                                    <name>left</name>
                                    <parameterid>left</parameterid>
                                    <value>0</value>
                                    <valuemin>0</valuemin>
                                    <valuemax>100</valuemax>
                                </parameter>
                                <parameter>
                                    <name>right</name>
                                    <parameterid>right</parameterid>
                                    <value>0</value>
                                    <valuemin>0</valuemin>
                                    <valuemax>100</valuemax>
                                </parameter>
                                <parameter>
                                    <name>top</name>
                                    <parameterid>top</parameterid>
                                    <value>0</value>
                                    <valuemin>0</valuemin>
                                    <valuemax>100</valuemax>
                                </parameter>
                                <parameter>
                                    <name>bottom</name>
                                    <parameterid>bottom</parameterid>
                                    <value>0</value>
                                    <valuemin>0</valuemin>
                                    <valuemax>100</valuemax>
                                </parameter>
                            </effect>
                        </filter>
                        <filter>
                            <enabled>TRUE</enabled>
                            <start>0</start>
                            <end>243353</end>
                            <effect>
                                <name>Opacity</name>
                                <effectid>opacity</effectid>
                                <effecttype>motion</effecttype>
                                <mediatype>video</mediatype>
                                <effectcategory>motion</effectcategory>
                                <parameter>
                                    <name>opacity</name>
                                    <parameterid>opacity</parameterid>
                                    <value>100</value>
                                    <valuemin>0</valuemin>
                                    <valuemax>100</valuemax>
                                </parameter>
                            </effect>
                        </filter>
                        <link>
                            <linkclipref>Interstaller.mp4 7</linkclipref>
                        </link>
                        <link>
                            <linkclipref>Interstaller.mp4 248</linkclipref>
                        </link>
                        <comments/>
                    </clipitem>
                    <clipitem id="Interstaller.mp4 9">
                        <name>Interstaller.mp4</name>
                        <duration>243353</duration>
                        <rate>
                            <timebase>24</timebase>
                            <ntsc>FALSE</ntsc>
                        </rate>
                        <start>411</start>
                        <end>460</end>
                        <enabled>TRUE</enabled>
                        <in>164383</in>
                        <out>164432</out>
                        <file id="Interstaller.mp4 2"/>
                        <compositemode>normal</compositemode>
                        <filter>
                            <enabled>TRUE</enabled>
                            <start>0</start>
                            <end>243353</end>
                            <effect>
                                <name>Basic Motion</name>
                                <effectid>basic</effectid>
                                <effecttype>motion</effecttype>
                                <mediatype>video</mediatype>
                                <effectcategory>motion</effectcategory>
                                <parameter>
                                    <name>Scale</name>
                                    <parameterid>scale</parameterid>
                                    <value>100</value>
                                    <valuemin>0</valuemin>
                                    <valuemax>10000</valuemax>
                                </parameter>
                                <parameter>
                                    <name>Center</name>
                                    <parameterid>center</parameterid>
                                    <value>
                                        <horiz>0</horiz>
                                        <vert>0</vert>
                                    </value>
                                </parameter>
                                <parameter>
                                    <name>Rotation</name>
                                    <parameterid>rotation</parameterid>
                                    <value>0</value>
                                    <valuemin>-100000</valuemin>
                                    <valuemax>100000</valuemax>
                                </parameter>
                                <parameter>
                                    <name>Anchor Point</name>
                                    <parameterid>centerOffset</parameterid>
                                    <value>
                                        <horiz>0</horiz>
                                        <vert>0</vert>
                                    </value>
                                </parameter>
                            </effect>
                        </filter>
                        <filter>
                            <enabled>TRUE</enabled>
                            <start>0</start>
                            <end>243353</end>
                            <effect>
                                <name>Crop</name>
                                <effectid>crop</effectid>
                                <effecttype>motion</effecttype>
                                <mediatype>video</mediatype>
                                <effectcategory>motion</effectcategory>
                                <parameter>
                                    <name>left</name>
                                    <parameterid>left</parameterid>
                                    <value>0</value>
                                    <valuemin>0</valuemin>
                                    <valuemax>100</valuemax>
                                </parameter>
                                <parameter>
                                    <name>right</name>
                                    <parameterid>right</parameterid>
                                    <value>0</value>
                                    <valuemin>0</valuemin>
                                    <valuemax>100</valuemax>
                                </parameter>
                                <parameter>
                                    <name>top</name>
                                    <parameterid>top</parameterid>
                                    <value>0</value>
                                    <valuemin>0</valuemin>
                                    <valuemax>100</valuemax>
                                </parameter>
                                <parameter>
                                    <name>bottom</name>
                                    <parameterid>bottom</parameterid>
                                    <value>0</value>
                                    <valuemin>0</valuemin>
                                    <valuemax>100</valuemax>
                                </parameter>
                            </effect>
                        </filter>
                        <filter>
                            <enabled>TRUE</enabled>
                            <start>0</start>
                            <end>243353</end>
                            <effect>
                                <name>Opacity</name>
                                <effectid>opacity</effectid>
                                <effecttype>motion</effecttype>
                                <mediatype>video</mediatype>
                                <effectcategory>motion</effectcategory>
                                <parameter>
                                    <name>opacity</name>
                                    <parameterid>opacity</parameterid>
                                    <value>100</value>
                                    <valuemin>0</valuemin>
                                    <valuemax>100</valuemax>
                                </parameter>
                            </effect>
                        </filter>
                        <link>
                            <linkclipref>Interstaller.mp4 9</linkclipref>
                        </link>
                        <link>
                            <linkclipref>Interstaller.mp4 249</linkclipref>
                        </link>
                        <comments/>
                    </clipitem>
                    <clipitem id="Interstaller.mp4 11">
                        <name>Interstaller.mp4</name>
                        <duration>243353</duration>
                        <rate>
                            <timebase>24</timebase>
                            <ntsc>FALSE</ntsc>
                        </rate>
                        <start>460</start>
                        <end>566</end>
                        <enabled>TRUE</enabled>
                        <in>164432</in>
                        <out>164538</out>
                        <file id="Interstaller.mp4 2"/>
                        <compositemode>normal</compositemode>
                        <filter>
                            <enabled>TRUE</enabled>
                            <start>0</start>
                            <end>243353</end>
                            <effect>
                                <name>Basic Motion</name>
                                <effectid>basic</effectid>
                                <effecttype>motion</effecttype>
                                <mediatype>video</mediatype>
                                <effectcategory>motion</effectcategory>
                                <parameter>
                                    <name>Scale</name>
                                    <parameterid>scale</parameterid>
                                    <value>100</value>
                                    <valuemin>0</valuemin>
                                    <valuemax>10000</valuemax>
                                </parameter>
                                <parameter>
                                    <name>Center</name>
                                    <parameterid>center</parameterid>
                                    <value>
                                        <horiz>0</horiz>
                                        <vert>0</vert>
                                    </value>
                                </parameter>
                                <parameter>
                                    <name>Rotation</name>
                                    <parameterid>rotation</parameterid>
                                    <value>0</value>
                                    <valuemin>-100000</valuemin>
                                    <valuemax>100000</valuemax>
                                </parameter>
                                <parameter>
                                    <name>Anchor Point</name>
                                    <parameterid>centerOffset</parameterid>
                                    <value>
                                        <horiz>0</horiz>
                                        <vert>0</vert>
                                    </value>
                                </parameter>
                            </effect>
                        </filter>
                        <filter>
                            <enabled>TRUE</enabled>
                            <start>0</start>
                            <end>243353</end>
                            <effect>
                                <name>Crop</name>
                                <effectid>crop</effectid>
                                <effecttype>motion</effecttype>
                                <mediatype>video</mediatype>
                                <effectcategory>motion</effectcategory>
                                <parameter>
                                    <name>left</name>
                                    <parameterid>left</parameterid>
                                    <value>0</value>
                                    <valuemin>0</valuemin>
                                    <valuemax>100</valuemax>
                                </parameter>
                                <parameter>
                                    <name>right</name>
                                    <parameterid>right</parameterid>
                                    <value>0</value>
                                    <valuemin>0</valuemin>
                                    <valuemax>100</valuemax>
                                </parameter>
                                <parameter>
                                    <name>top</name>
                                    <parameterid>top</parameterid>
                                    <value>0</value>
                                    <valuemin>0</valuemin>
                                    <valuemax>100</valuemax>
                                </parameter>
                                <parameter>
                                    <name>bottom</name>
                                    <parameterid>bottom</parameterid>
                                    <value>0</value>
                                    <valuemin>0</valuemin>
                                    <valuemax>100</valuemax>
                                </parameter>
                            </effect>
                        </filter>
                        <filter>
                            <enabled>TRUE</enabled>
                            <start>0</start>
                            <end>243353</end>
                            <effect>
                                <name>Opacity</name>
                                <effectid>opacity</effectid>
                                <effecttype>motion</effecttype>
                                <mediatype>video</mediatype>
                                <effectcategory>motion</effectcategory>
                                <parameter>
                                    <name>opacity</name>
                                    <parameterid>opacity</parameterid>
                                    <value>100</value>
                                    <valuemin>0</valuemin>
                                    <valuemax>100</valuemax>
                                </parameter>
                            </effect>
                        </filter>
                        <link>
                            <linkclipref>Interstaller.mp4 11</linkclipref>
                        </link>
                        <link>
                            <linkclipref>Interstaller.mp4 250</linkclipref>
                        </link>
                        <comments/>
                    </clipitem>
                    <clipitem id="Interstaller.mp4 13">
                        <name>Interstaller.mp4</name>
                        <duration>243353</duration>
                        <rate>
                            <timebase>24</timebase>
                            <ntsc>FALSE</ntsc>
                        </rate>
                        <start>566</start>
                        <end>607</end>
                        <enabled>TRUE</enabled>
                        <in>164538</in>
                        <out>164579</out>
                        <file id="Interstaller.mp4 2"/>
                        <compositemode>normal</compositemode>
                        <filter>
                            <enabled>TRUE</enabled>
                            <start>0</start>
                            <end>243353</end>
                            <effect>
                                <name>Basic Motion</name>
                                <effectid>basic</effectid>
                                <effecttype>motion</effecttype>
                                <mediatype>video</mediatype>
                                <effectcategory>motion</effectcategory>
                                <parameter>
                                    <name>Scale</name>
                                    <parameterid>scale</parameterid>
                                    <value>100</value>
                                    <valuemin>0</valuemin>
                                    <valuemax>10000</valuemax>
                                </parameter>
                                <parameter>
                                    <name>Center</name>
                                    <parameterid>center</parameterid>
                                    <value>
                                        <horiz>0</horiz>
                                        <vert>0</vert>
                                    </value>
                                </parameter>
                                <parameter>
                                    <name>Rotation</name>
                                    <parameterid>rotation</parameterid>
                                    <value>0</value>
                                    <valuemin>-100000</valuemin>
                                    <valuemax>100000</valuemax>
                                </parameter>
                                <parameter>
                                    <name>Anchor Point</name>
                                    <parameterid>centerOffset</parameterid>
                                    <value>
                                        <horiz>0</horiz>
                                        <vert>0</vert>
                                    </value>
                                </parameter>
                            </effect>
                        </filter>
                        <filter>
                            <enabled>TRUE</enabled>
                            <start>0</start>
                            <end>243353</end>
                            <effect>
                                <name>Crop</name>
                                <effectid>crop</effectid>
                                <effecttype>motion</effecttype>
                                <mediatype>video</mediatype>
                                <effectcategory>motion</effectcategory>
                                <parameter>
                                    <name>left</name>
                                    <parameterid>left</parameterid>
                                    <value>0</value>
                                    <valuemin>0</valuemin>
                                    <valuemax>100</valuemax>
                                </parameter>
                                <parameter>
                                    <name>right</name>
                                    <parameterid>right</parameterid>
                                    <value>0</value>
                                    <valuemin>0</valuemin>
                                    <valuemax>100</valuemax>
                                </parameter>
                                <parameter>
                                    <name>top</name>
                                    <parameterid>top</parameterid>
                                    <value>0</value>
                                    <valuemin>0</valuemin>
                                    <valuemax>100</valuemax>
                                </parameter>
                                <parameter>
                                    <name>bottom</name>
                                    <parameterid>bottom</parameterid>
                                    <value>0</value>
                                    <valuemin>0</valuemin>
                                    <valuemax>100</valuemax>
                                </parameter>
                            </effect>
                        </filter>
                        <filter>
                            <enabled>TRUE</enabled>
                            <start>0</start>
                            <end>243353</end>
                            <effect>
                                <name>Opacity</name>
                                <effectid>opacity</effectid>
                                <effecttype>motion</effecttype>
                                <mediatype>video</mediatype>
                                <effectcategory>motion</effectcategory>
                                <parameter>
                                    <name>opacity</name>
                                    <parameterid>opacity</parameterid>
                                    <value>100</value>
                                    <valuemin>0</valuemin>
                                    <valuemax>100</valuemax>
                                </parameter>
                            </effect>
                        </filter>
                        <link>
                            <linkclipref>Interstaller.mp4 13</linkclipref>
                        </link>
                        <link>
                            <linkclipref>Interstaller.mp4 251</linkclipref>
                        </link>
                        <comments/>
                    </clipitem>
                    <clipitem id="Interstaller.mp4 15">
                        <name>Interstaller.mp4</name>
                        <duration>243353</duration>
                        <rate>
                            <timebase>24</timebase>
                            <ntsc>FALSE</ntsc>
                        </rate>
                        <start>607</start>
                        <end>640</end>
                        <enabled>TRUE</enabled>
                        <in>164579</in>
                        <out>164612</out>
                        <file id="Interstaller.mp4 2"/>
                        <compositemode>normal</compositemode>
                        <filter>
                            <enabled>TRUE</enabled>
                            <start>0</start>
                            <end>243353</end>
                            <effect>
                                <name>Basic Motion</name>
                                <effectid>basic</effectid>
                                <effecttype>motion</effecttype>
                                <mediatype>video</mediatype>
                                <effectcategory>motion</effectcategory>
                                <parameter>
                                    <name>Scale</name>
                                    <parameterid>scale</parameterid>
                                    <value>100</value>
                                    <valuemin>0</valuemin>
                                    <valuemax>10000</valuemax>
                                </parameter>
                                <parameter>
                                    <name>Center</name>
                                    <parameterid>center</parameterid>
                                    <value>
                                        <horiz>0</horiz>
                                        <vert>0</vert>
                                    </value>
                                </parameter>
                                <parameter>
                                    <name>Rotation</name>
                                    <parameterid>rotation</parameterid>
                                    <value>0</value>
                                    <valuemin>-100000</valuemin>
                                    <valuemax>100000</valuemax>
                                </parameter>
                                <parameter>
                                    <name>Anchor Point</name>
                                    <parameterid>centerOffset</parameterid>
                                    <value>
                                        <horiz>0</horiz>
                                        <vert>0</vert>
                                    </value>
                                </parameter>
                            </effect>
                        </filter>
                        <filter>
                            <enabled>TRUE</enabled>
                            <start>0</start>
                            <end>243353</end>
                            <effect>
                                <name>Crop</name>
                                <effectid>crop</effectid>
                                <effecttype>motion</effecttype>
                                <mediatype>video</mediatype>
                                <effectcategory>motion</effectcategory>
                                <parameter>
                                    <name>left</name>
                                    <parameterid>left</parameterid>
                                    <value>0</value>
                                    <valuemin>0</valuemin>
                                    <valuemax>100</valuemax>
                                </parameter>
                                <parameter>
                                    <name>right</name>
                                    <parameterid>right</parameterid>
                                    <value>0</value>
                                    <valuemin>0</valuemin>
                                    <valuemax>100</valuemax>
                                </parameter>
                                <parameter>
                                    <name>top</name>
                                    <parameterid>top</parameterid>
                                    <value>0</value>
                                    <valuemin>0</valuemin>
                                    <valuemax>100</valuemax>
                                </parameter>
                                <parameter>
                                    <name>bottom</name>
                                    <parameterid>bottom</parameterid>
                                    <value>0</value>
                                    <valuemin>0</valuemin>
                                    <valuemax>100</valuemax>
                                </parameter>
                            </effect>
                        </filter>
                        <filter>
                            <enabled>TRUE</enabled>
                            <start>0</start>
                            <end>243353</end>
                            <effect>
                                <name>Opacity</name>
                                <effectid>opacity</effectid>
                                <effecttype>motion</effecttype>
                                <mediatype>video</mediatype>
                                <effectcategory>motion</effectcategory>
                                <parameter>
                                    <name>opacity</name>
                                    <parameterid>opacity</parameterid>
                                    <value>100</value>
                                    <valuemin>0</valuemin>
                                    <valuemax>100</valuemax>
                                </parameter>
                            </effect>
                        </filter>
                        <link>
                            <linkclipref>Interstaller.mp4 15</linkclipref>
                        </link>
                        <link>
                            <linkclipref>Interstaller.mp4 252</linkclipref>
                        </link>
                        <comments/>
                    </clipitem>
                    <clipitem id="Interstaller.mp4 17">
                        <name>Interstaller.mp4</name>
                        <duration>243353</duration>
                        <rate>
                            <timebase>24</timebase>
                            <ntsc>FALSE</ntsc>
                        </rate>
                        <start>640</start>
                        <end>711</end>
                        <enabled>TRUE</enabled>
                        <in>164612</in>
                        <out>164683</out>
                        <file id="Interstaller.mp4 2"/>
                        <compositemode>normal</compositemode>
                        <filter>
                            <enabled>TRUE</enabled>
                            <start>0</start>
                            <end>243353</end>
                            <effect>
                                <name>Basic Motion</name>
                                <effectid>basic</effectid>
                                <effecttype>motion</effecttype>
                                <mediatype>video</mediatype>
                                <effectcategory>motion</effectcategory>
                                <parameter>
                                    <name>Scale</name>
                                    <parameterid>scale</parameterid>
                                    <value>100</value>
                                    <valuemin>0</valuemin>
                                    <valuemax>10000</valuemax>
                                </parameter>
                                <parameter>
                                    <name>Center</name>
                                    <parameterid>center</parameterid>
                                    <value>
                                        <horiz>0</horiz>
                                        <vert>0</vert>
                                    </value>
                                </parameter>
                                <parameter>
                                    <name>Rotation</name>
                                    <parameterid>rotation</parameterid>
                                    <value>0</value>
                                    <valuemin>-100000</valuemin>
                                    <valuemax>100000</valuemax>
                                </parameter>
                                <parameter>
                                    <name>Anchor Point</name>
                                    <parameterid>centerOffset</parameterid>
                                    <value>
                                        <horiz>0</horiz>
                                        <vert>0</vert>
                                    </value>
                                </parameter>
                            </effect>
                        </filter>
                        <filter>
                            <enabled>TRUE</enabled>
                            <start>0</start>
                            <end>243353</end>
                            <effect>
                                <name>Crop</name>
                                <effectid>crop</effectid>
                                <effecttype>motion</effecttype>
                                <mediatype>video</mediatype>
                                <effectcategory>motion</effectcategory>
                                <parameter>
                                    <name>left</name>
                                    <parameterid>left</parameterid>
                                    <value>0</value>
                                    <valuemin>0</valuemin>
                                    <valuemax>100</valuemax>
                                </parameter>
                                <parameter>
                                    <name>right</name>
                                    <parameterid>right</parameterid>
                                    <value>0</value>
                                    <valuemin>0</valuemin>
                                    <valuemax>100</valuemax>
                                </parameter>
                                <parameter>
                                    <name>top</name>
                                    <parameterid>top</parameterid>
                                    <value>0</value>
                                    <valuemin>0</valuemin>
                                    <valuemax>100</valuemax>
                                </parameter>
                                <parameter>
                                    <name>bottom</name>
                                    <parameterid>bottom</parameterid>
                                    <value>0</value>
                                    <valuemin>0</valuemin>
                                    <valuemax>100</valuemax>
                                </parameter>
                            </effect>
                        </filter>
                        <filter>
                            <enabled>TRUE</enabled>
                            <start>0</start>
                            <end>243353</end>
                            <effect>
                                <name>Opacity</name>
                                <effectid>opacity</effectid>
                                <effecttype>motion</effecttype>
                                <mediatype>video</mediatype>
                                <effectcategory>motion</effectcategory>
                                <parameter>
                                    <name>opacity</name>
                                    <parameterid>opacity</parameterid>
                                    <value>100</value>
                                    <valuemin>0</valuemin>
                                    <valuemax>100</valuemax>
                                </parameter>
                            </effect>
                        </filter>
                        <link>
                            <linkclipref>Interstaller.mp4 17</linkclipref>
                        </link>
                        <link>
                            <linkclipref>Interstaller.mp4 253</linkclipref>
                        </link>
                        <comments/>
                    </clipitem>
                    <clipitem id="Interstaller.mp4 19">
                        <name>Interstaller.mp4</name>
                        <duration>243353</duration>
                        <rate>
                            <timebase>24</timebase>
                            <ntsc>FALSE</ntsc>
                        </rate>
                        <start>711</start>
                        <end>882</end>
                        <enabled>TRUE</enabled>
                        <in>164683</in>
                        <out>164854</out>
                        <file id="Interstaller.mp4 2"/>
                        <compositemode>normal</compositemode>
                        <filter>
                            <enabled>TRUE</enabled>
                            <start>0</start>
                            <end>243353</end>
                            <effect>
                                <name>Basic Motion</name>
                                <effectid>basic</effectid>
                                <effecttype>motion</effecttype>
                                <mediatype>video</mediatype>
                                <effectcategory>motion</effectcategory>
                                <parameter>
                                    <name>Scale</name>
                                    <parameterid>scale</parameterid>
                                    <value>100</value>
                                    <valuemin>0</valuemin>
                                    <valuemax>10000</valuemax>
                                </parameter>
                                <parameter>
                                    <name>Center</name>
                                    <parameterid>center</parameterid>
                                    <value>
                                        <horiz>0</horiz>
                                        <vert>0</vert>
                                    </value>
                                </parameter>
                                <parameter>
                                    <name>Rotation</name>
                                    <parameterid>rotation</parameterid>
                                    <value>0</value>
                                    <valuemin>-100000</valuemin>
                                    <valuemax>100000</valuemax>
                                </parameter>
                                <parameter>
                                    <name>Anchor Point</name>
                                    <parameterid>centerOffset</parameterid>
                                    <value>
                                        <horiz>0</horiz>
                                        <vert>0</vert>
                                    </value>
                                </parameter>
                            </effect>
                        </filter>
                        <filter>
                            <enabled>TRUE</enabled>
                            <start>0</start>
                            <end>243353</end>
                            <effect>
                                <name>Crop</name>
                                <effectid>crop</effectid>
                                <effecttype>motion</effecttype>
                                <mediatype>video</mediatype>
                                <effectcategory>motion</effectcategory>
                                <parameter>
                                    <name>left</name>
                                    <parameterid>left</parameterid>
                                    <value>0</value>
                                    <valuemin>0</valuemin>
                                    <valuemax>100</valuemax>
                                </parameter>
                                <parameter>
                                    <name>right</name>
                                    <parameterid>right</parameterid>
                                    <value>0</value>
                                    <valuemin>0</valuemin>
                                    <valuemax>100</valuemax>
                                </parameter>
                                <parameter>
                                    <name>top</name>
                                    <parameterid>top</parameterid>
                                    <value>0</value>
                                    <valuemin>0</valuemin>
                                    <valuemax>100</valuemax>
                                </parameter>
                                <parameter>
                                    <name>bottom</name>
                                    <parameterid>bottom</parameterid>
                                    <value>0</value>
                                    <valuemin>0</valuemin>
                                    <valuemax>100</valuemax>
                                </parameter>
                            </effect>
                        </filter>
                        <filter>
                            <enabled>TRUE</enabled>
                            <start>0</start>
                            <end>243353</end>
                            <effect>
                                <name>Opacity</name>
                                <effectid>opacity</effectid>
                                <effecttype>motion</effecttype>
                                <mediatype>video</mediatype>
                                <effectcategory>motion</effectcategory>
                                <parameter>
                                    <name>opacity</name>
                                    <parameterid>opacity</parameterid>
                                    <value>100</value>
                                    <valuemin>0</valuemin>
                                    <valuemax>100</valuemax>
                                </parameter>
                            </effect>
                        </filter>
                        <link>
                            <linkclipref>Interstaller.mp4 19</linkclipref>
                        </link>
                        <link>
                            <linkclipref>Interstaller.mp4 254</linkclipref>
                        </link>
                        <comments/>
                    </clipitem>
                    <clipitem id="Interstaller.mp4 21">
                        <name>Interstaller.mp4</name>
                        <duration>243353</duration>
                        <rate>
                            <timebase>24</timebase>
                            <ntsc>FALSE</ntsc>
                        </rate>
                        <start>882</start>
                        <end>1026</end>
                        <enabled>TRUE</enabled>
                        <in>164854</in>
                        <out>164998</out>
                        <file id="Interstaller.mp4 2"/>
                        <compositemode>normal</compositemode>
                        <filter>
                            <enabled>TRUE</enabled>
                            <start>0</start>
                            <end>243353</end>
                            <effect>
                                <name>Basic Motion</name>
                                <effectid>basic</effectid>
                                <effecttype>motion</effecttype>
                                <mediatype>video</mediatype>
                                <effectcategory>motion</effectcategory>
                                <parameter>
                                    <name>Scale</name>
                                    <parameterid>scale</parameterid>
                                    <value>100</value>
                                    <valuemin>0</valuemin>
                                    <valuemax>10000</valuemax>
                                </parameter>
                                <parameter>
                                    <name>Center</name>
                                    <parameterid>center</parameterid>
                                    <value>
                                        <horiz>0</horiz>
                                        <vert>0</vert>
                                    </value>
                                </parameter>
                                <parameter>
                                    <name>Rotation</name>
                                    <parameterid>rotation</parameterid>
                                    <value>0</value>
                                    <valuemin>-100000</valuemin>
                                    <valuemax>100000</valuemax>
                                </parameter>
                                <parameter>
                                    <name>Anchor Point</name>
                                    <parameterid>centerOffset</parameterid>
                                    <value>
                                        <horiz>0</horiz>
                                        <vert>0</vert>
                                    </value>
                                </parameter>
                            </effect>
                        </filter>
                        <filter>
                            <enabled>TRUE</enabled>
                            <start>0</start>
                            <end>243353</end>
                            <effect>
                                <name>Crop</name>
                                <effectid>crop</effectid>
                                <effecttype>motion</effecttype>
                                <mediatype>video</mediatype>
                                <effectcategory>motion</effectcategory>
                                <parameter>
                                    <name>left</name>
                                    <parameterid>left</parameterid>
                                    <value>0</value>
                                    <valuemin>0</valuemin>
                                    <valuemax>100</valuemax>
                                </parameter>
                                <parameter>
                                    <name>right</name>
                                    <parameterid>right</parameterid>
                                    <value>0</value>
                                    <valuemin>0</valuemin>
                                    <valuemax>100</valuemax>
                                </parameter>
                                <parameter>
                                    <name>top</name>
                                    <parameterid>top</parameterid>
                                    <value>0</value>
                                    <valuemin>0</valuemin>
                                    <valuemax>100</valuemax>
                                </parameter>
                                <parameter>
                                    <name>bottom</name>
                                    <parameterid>bottom</parameterid>
                                    <value>0</value>
                                    <valuemin>0</valuemin>
                                    <valuemax>100</valuemax>
                                </parameter>
                            </effect>
                        </filter>
                        <filter>
                            <enabled>TRUE</enabled>
                            <start>0</start>
                            <end>243353</end>
                            <effect>
                                <name>Opacity</name>
                                <effectid>opacity</effectid>
                                <effecttype>motion</effecttype>
                                <mediatype>video</mediatype>
                                <effectcategory>motion</effectcategory>
                                <parameter>
                                    <name>opacity</name>
                                    <parameterid>opacity</parameterid>
                                    <value>100</value>
                                    <valuemin>0</valuemin>
                                    <valuemax>100</valuemax>
                                </parameter>
                            </effect>
                        </filter>
                        <link>
                            <linkclipref>Interstaller.mp4 21</linkclipref>
                        </link>
                        <link>
                            <linkclipref>Interstaller.mp4 255</linkclipref>
                        </link>
                        <comments/>
                    </clipitem>
                    <clipitem id="Interstaller.mp4 23">
                        <name>Interstaller.mp4</name>
                        <duration>243353</duration>
                        <rate>
                            <timebase>24</timebase>
                            <ntsc>FALSE</ntsc>
                        </rate>
                        <start>1026</start>
                        <end>1072</end>
                        <enabled>TRUE</enabled>
                        <in>164998</in>
                        <out>165044</out>
                        <file id="Interstaller.mp4 2"/>
                        <compositemode>normal</compositemode>
                        <filter>
                            <enabled>TRUE</enabled>
                            <start>0</start>
                            <end>243353</end>
                            <effect>
                                <name>Basic Motion</name>
                                <effectid>basic</effectid>
                                <effecttype>motion</effecttype>
                                <mediatype>video</mediatype>
                                <effectcategory>motion</effectcategory>
                                <parameter>
                                    <name>Scale</name>
                                    <parameterid>scale</parameterid>
                                    <value>100</value>
                                    <valuemin>0</valuemin>
                                    <valuemax>10000</valuemax>
                                </parameter>
                                <parameter>
                                    <name>Center</name>
                                    <parameterid>center</parameterid>
                                    <value>
                                        <horiz>0</horiz>
                                        <vert>0</vert>
                                    </value>
                                </parameter>
                                <parameter>
                                    <name>Rotation</name>
                                    <parameterid>rotation</parameterid>
                                    <value>0</value>
                                    <valuemin>-100000</valuemin>
                                    <valuemax>100000</valuemax>
                                </parameter>
                                <parameter>
                                    <name>Anchor Point</name>
                                    <parameterid>centerOffset</parameterid>
                                    <value>
                                        <horiz>0</horiz>
                                        <vert>0</vert>
                                    </value>
                                </parameter>
                            </effect>
                        </filter>
                        <filter>
                            <enabled>TRUE</enabled>
                            <start>0</start>
                            <end>243353</end>
                            <effect>
                                <name>Crop</name>
                                <effectid>crop</effectid>
                                <effecttype>motion</effecttype>
                                <mediatype>video</mediatype>
                                <effectcategory>motion</effectcategory>
                                <parameter>
                                    <name>left</name>
                                    <parameterid>left</parameterid>
                                    <value>0</value>
                                    <valuemin>0</valuemin>
                                    <valuemax>100</valuemax>
                                </parameter>
                                <parameter>
                                    <name>right</name>
                                    <parameterid>right</parameterid>
                                    <value>0</value>
                                    <valuemin>0</valuemin>
                                    <valuemax>100</valuemax>
                                </parameter>
                                <parameter>
                                    <name>top</name>
                                    <parameterid>top</parameterid>
                                    <value>0</value>
                                    <valuemin>0</valuemin>
                                    <valuemax>100</valuemax>
                                </parameter>
                                <parameter>
                                    <name>bottom</name>
                                    <parameterid>bottom</parameterid>
                                    <value>0</value>
                                    <valuemin>0</valuemin>
                                    <valuemax>100</valuemax>
                                </parameter>
                            </effect>
                        </filter>
                        <filter>
                            <enabled>TRUE</enabled>
                            <start>0</start>
                            <end>243353</end>
                            <effect>
                                <name>Opacity</name>
                                <effectid>opacity</effectid>
                                <effecttype>motion</effecttype>
                                <mediatype>video</mediatype>
                                <effectcategory>motion</effectcategory>
                                <parameter>
                                    <name>opacity</name>
                                    <parameterid>opacity</parameterid>
                                    <value>100</value>
                                    <valuemin>0</valuemin>
                                    <valuemax>100</valuemax>
                                </parameter>
                            </effect>
                        </filter>
                        <link>
                            <linkclipref>Interstaller.mp4 23</linkclipref>
                        </link>
                        <link>
                            <linkclipref>Interstaller.mp4 256</linkclipref>
                        </link>
                        <comments/>
                    </clipitem>
                    <clipitem id="Interstaller.mp4 25">
                        <name>Interstaller.mp4</name>
                        <duration>243353</duration>
                        <rate>
                            <timebase>24</timebase>
                            <ntsc>FALSE</ntsc>
                        </rate>
                        <start>1072</start>
                        <end>1099</end>
                        <enabled>TRUE</enabled>
                        <in>165044</in>
                        <out>165071</out>
                        <file id="Interstaller.mp4 2"/>
                        <compositemode>normal</compositemode>
                        <filter>
                            <enabled>TRUE</enabled>
                            <start>0</start>
                            <end>243353</end>
                            <effect>
                                <name>Basic Motion</name>
                                <effectid>basic</effectid>
                                <effecttype>motion</effecttype>
                                <mediatype>video</mediatype>
                                <effectcategory>motion</effectcategory>
                                <parameter>
                                    <name>Scale</name>
                                    <parameterid>scale</parameterid>
                                    <value>100</value>
                                    <valuemin>0</valuemin>
                                    <valuemax>10000</valuemax>
                                </parameter>
                                <parameter>
                                    <name>Center</name>
                                    <parameterid>center</parameterid>
                                    <value>
                                        <horiz>0</horiz>
                                        <vert>0</vert>
                                    </value>
                                </parameter>
                                <parameter>
                                    <name>Rotation</name>
                                    <parameterid>rotation</parameterid>
                                    <value>0</value>
                                    <valuemin>-100000</valuemin>
                                    <valuemax>100000</valuemax>
                                </parameter>
                                <parameter>
                                    <name>Anchor Point</name>
                                    <parameterid>centerOffset</parameterid>
                                    <value>
                                        <horiz>0</horiz>
                                        <vert>0</vert>
                                    </value>
                                </parameter>
                            </effect>
                        </filter>
                        <filter>
                            <enabled>TRUE</enabled>
                            <start>0</start>
                            <end>243353</end>
                            <effect>
                                <name>Crop</name>
                                <effectid>crop</effectid>
                                <effecttype>motion</effecttype>
                                <mediatype>video</mediatype>
                                <effectcategory>motion</effectcategory>
                                <parameter>
                                    <name>left</name>
                                    <parameterid>left</parameterid>
                                    <value>0</value>
                                    <valuemin>0</valuemin>
                                    <valuemax>100</valuemax>
                                </parameter>
                                <parameter>
                                    <name>right</name>
                                    <parameterid>right</parameterid>
                                    <value>0</value>
                                    <valuemin>0</valuemin>
                                    <valuemax>100</valuemax>
                                </parameter>
                                <parameter>
                                    <name>top</name>
                                    <parameterid>top</parameterid>
                                    <value>0</value>
                                    <valuemin>0</valuemin>
                                    <valuemax>100</valuemax>
                                </parameter>
                                <parameter>
                                    <name>bottom</name>
                                    <parameterid>bottom</parameterid>
                                    <value>0</value>
                                    <valuemin>0</valuemin>
                                    <valuemax>100</valuemax>
                                </parameter>
                            </effect>
                        </filter>
                        <filter>
                            <enabled>TRUE</enabled>
                            <start>0</start>
                            <end>243353</end>
                            <effect>
                                <name>Opacity</name>
                                <effectid>opacity</effectid>
                                <effecttype>motion</effecttype>
                                <mediatype>video</mediatype>
                                <effectcategory>motion</effectcategory>
                                <parameter>
                                    <name>opacity</name>
                                    <parameterid>opacity</parameterid>
                                    <value>100</value>
                                    <valuemin>0</valuemin>
                                    <valuemax>100</valuemax>
                                </parameter>
                            </effect>
                        </filter>
                        <link>
                            <linkclipref>Interstaller.mp4 25</linkclipref>
                        </link>
                        <link>
                            <linkclipref>Interstaller.mp4 257</linkclipref>
                        </link>
                        <comments/>
                    </clipitem>
                    <clipitem id="Interstaller.mp4 27">
                        <name>Interstaller.mp4</name>
                        <duration>243353</duration>
                        <rate>
                            <timebase>24</timebase>
                            <ntsc>FALSE</ntsc>
                        </rate>
                        <start>1099</start>
                        <end>1206</end>
                        <enabled>TRUE</enabled>
                        <in>165071</in>
                        <out>165178</out>
                        <file id="Interstaller.mp4 2"/>
                        <compositemode>normal</compositemode>
                        <filter>
                            <enabled>TRUE</enabled>
                            <start>0</start>
                            <end>243353</end>
                            <effect>
                                <name>Basic Motion</name>
                                <effectid>basic</effectid>
                                <effecttype>motion</effecttype>
                                <mediatype>video</mediatype>
                                <effectcategory>motion</effectcategory>
                                <parameter>
                                    <name>Scale</name>
                                    <parameterid>scale</parameterid>
                                    <value>100</value>
                                    <valuemin>0</valuemin>
                                    <valuemax>10000</valuemax>
                                </parameter>
                                <parameter>
                                    <name>Center</name>
                                    <parameterid>center</parameterid>
                                    <value>
                                        <horiz>0</horiz>
                                        <vert>0</vert>
                                    </value>
                                </parameter>
                                <parameter>
                                    <name>Rotation</name>
                                    <parameterid>rotation</parameterid>
                                    <value>0</value>
                                    <valuemin>-100000</valuemin>
                                    <valuemax>100000</valuemax>
                                </parameter>
                                <parameter>
                                    <name>Anchor Point</name>
                                    <parameterid>centerOffset</parameterid>
                                    <value>
                                        <horiz>0</horiz>
                                        <vert>0</vert>
                                    </value>
                                </parameter>
                            </effect>
                        </filter>
                        <filter>
                            <enabled>TRUE</enabled>
                            <start>0</start>
                            <end>243353</end>
                            <effect>
                                <name>Crop</name>
                                <effectid>crop</effectid>
                                <effecttype>motion</effecttype>
                                <mediatype>video</mediatype>
                                <effectcategory>motion</effectcategory>
                                <parameter>
                                    <name>left</name>
                                    <parameterid>left</parameterid>
                                    <value>0</value>
                                    <valuemin>0</valuemin>
                                    <valuemax>100</valuemax>
                                </parameter>
                                <parameter>
                                    <name>right</name>
                                    <parameterid>right</parameterid>
                                    <value>0</value>
                                    <valuemin>0</valuemin>
                                    <valuemax>100</valuemax>
                                </parameter>
                                <parameter>
                                    <name>top</name>
                                    <parameterid>top</parameterid>
                                    <value>0</value>
                                    <valuemin>0</valuemin>
                                    <valuemax>100</valuemax>
                                </parameter>
                                <parameter>
                                    <name>bottom</name>
                                    <parameterid>bottom</parameterid>
                                    <value>0</value>
                                    <valuemin>0</valuemin>
                                    <valuemax>100</valuemax>
                                </parameter>
                            </effect>
                        </filter>
                        <filter>
                            <enabled>TRUE</enabled>
                            <start>0</start>
                            <end>243353</end>
                            <effect>
                                <name>Opacity</name>
                                <effectid>opacity</effectid>
                                <effecttype>motion</effecttype>
                                <mediatype>video</mediatype>
                                <effectcategory>motion</effectcategory>
                                <parameter>
                                    <name>opacity</name>
                                    <parameterid>opacity</parameterid>
                                    <value>100</value>
                                    <valuemin>0</valuemin>
                                    <valuemax>100</valuemax>
                                </parameter>
                            </effect>
                        </filter>
                        <link>
                            <linkclipref>Interstaller.mp4 27</linkclipref>
                        </link>
                        <link>
                            <linkclipref>Interstaller.mp4 258</linkclipref>
                        </link>
                        <comments/>
                    </clipitem>
                    <clipitem id="Interstaller.mp4 29">
                        <name>Interstaller.mp4</name>
                        <duration>243353</duration>
                        <rate>
                            <timebase>24</timebase>
                            <ntsc>FALSE</ntsc>
                        </rate>
                        <start>1206</start>
                        <end>1277</end>
                        <enabled>TRUE</enabled>
                        <in>165178</in>
                        <out>165249</out>
                        <file id="Interstaller.mp4 2"/>
                        <compositemode>normal</compositemode>
                        <filter>
                            <enabled>TRUE</enabled>
                            <start>0</start>
                            <end>243353</end>
                            <effect>
                                <name>Basic Motion</name>
                                <effectid>basic</effectid>
                                <effecttype>motion</effecttype>
                                <mediatype>video</mediatype>
                                <effectcategory>motion</effectcategory>
                                <parameter>
                                    <name>Scale</name>
                                    <parameterid>scale</parameterid>
                                    <value>100</value>
                                    <valuemin>0</valuemin>
                                    <valuemax>10000</valuemax>
                                </parameter>
                                <parameter>
                                    <name>Center</name>
                                    <parameterid>center</parameterid>
                                    <value>
                                        <horiz>0</horiz>
                                        <vert>0</vert>
                                    </value>
                                </parameter>
                                <parameter>
                                    <name>Rotation</name>
                                    <parameterid>rotation</parameterid>
                                    <value>0</value>
                                    <valuemin>-100000</valuemin>
                                    <valuemax>100000</valuemax>
                                </parameter>
                                <parameter>
                                    <name>Anchor Point</name>
                                    <parameterid>centerOffset</parameterid>
                                    <value>
                                        <horiz>0</horiz>
                                        <vert>0</vert>
                                    </value>
                                </parameter>
                            </effect>
                        </filter>
                        <filter>
                            <enabled>TRUE</enabled>
                            <start>0</start>
                            <end>243353</end>
                            <effect>
                                <name>Crop</name>
                                <effectid>crop</effectid>
                                <effecttype>motion</effecttype>
                                <mediatype>video</mediatype>
                                <effectcategory>motion</effectcategory>
                                <parameter>
                                    <name>left</name>
                                    <parameterid>left</parameterid>
                                    <value>0</value>
                                    <valuemin>0</valuemin>
                                    <valuemax>100</valuemax>
                                </parameter>
                                <parameter>
                                    <name>right</name>
                                    <parameterid>right</parameterid>
                                    <value>0</value>
                                    <valuemin>0</valuemin>
                                    <valuemax>100</valuemax>
                                </parameter>
                                <parameter>
                                    <name>top</name>
                                    <parameterid>top</parameterid>
                                    <value>0</value>
                                    <valuemin>0</valuemin>
                                    <valuemax>100</valuemax>
                                </parameter>
                                <parameter>
                                    <name>bottom</name>
                                    <parameterid>bottom</parameterid>
                                    <value>0</value>
                                    <valuemin>0</valuemin>
                                    <valuemax>100</valuemax>
                                </parameter>
                            </effect>
                        </filter>
                        <filter>
                            <enabled>TRUE</enabled>
                            <start>0</start>
                            <end>243353</end>
                            <effect>
                                <name>Opacity</name>
                                <effectid>opacity</effectid>
                                <effecttype>motion</effecttype>
                                <mediatype>video</mediatype>
                                <effectcategory>motion</effectcategory>
                                <parameter>
                                    <name>opacity</name>
                                    <parameterid>opacity</parameterid>
                                    <value>100</value>
                                    <valuemin>0</valuemin>
                                    <valuemax>100</valuemax>
                                </parameter>
                            </effect>
                        </filter>
                        <link>
                            <linkclipref>Interstaller.mp4 29</linkclipref>
                        </link>
                        <link>
                            <linkclipref>Interstaller.mp4 259</linkclipref>
                        </link>
                        <comments/>
                    </clipitem>
                    <clipitem id="Interstaller.mp4 31">
                        <name>Interstaller.mp4</name>
                        <duration>243353</duration>
                        <rate>
                            <timebase>24</timebase>
                            <ntsc>FALSE</ntsc>
                        </rate>
                        <start>1277</start>
                        <end>1364</end>
                        <enabled>TRUE</enabled>
                        <in>165249</in>
                        <out>165336</out>
                        <file id="Interstaller.mp4 2"/>
                        <compositemode>normal</compositemode>
                        <filter>
                            <enabled>TRUE</enabled>
                            <start>0</start>
                            <end>243353</end>
                            <effect>
                                <name>Basic Motion</name>
                                <effectid>basic</effectid>
                                <effecttype>motion</effecttype>
                                <mediatype>video</mediatype>
                                <effectcategory>motion</effectcategory>
                                <parameter>
                                    <name>Scale</name>
                                    <parameterid>scale</parameterid>
                                    <value>100</value>
                                    <valuemin>0</valuemin>
                                    <valuemax>10000</valuemax>
                                </parameter>
                                <parameter>
                                    <name>Center</name>
                                    <parameterid>center</parameterid>
                                    <value>
                                        <horiz>0</horiz>
                                        <vert>0</vert>
                                    </value>
                                </parameter>
                                <parameter>
                                    <name>Rotation</name>
                                    <parameterid>rotation</parameterid>
                                    <value>0</value>
                                    <valuemin>-100000</valuemin>
                                    <valuemax>100000</valuemax>
                                </parameter>
                                <parameter>
                                    <name>Anchor Point</name>
                                    <parameterid>centerOffset</parameterid>
                                    <value>
                                        <horiz>0</horiz>
                                        <vert>0</vert>
                                    </value>
                                </parameter>
                            </effect>
                        </filter>
                        <filter>
                            <enabled>TRUE</enabled>
                            <start>0</start>
                            <end>243353</end>
                            <effect>
                                <name>Crop</name>
                                <effectid>crop</effectid>
                                <effecttype>motion</effecttype>
                                <mediatype>video</mediatype>
                                <effectcategory>motion</effectcategory>
                                <parameter>
                                    <name>left</name>
                                    <parameterid>left</parameterid>
                                    <value>0</value>
                                    <valuemin>0</valuemin>
                                    <valuemax>100</valuemax>
                                </parameter>
                                <parameter>
                                    <name>right</name>
                                    <parameterid>right</parameterid>
                                    <value>0</value>
                                    <valuemin>0</valuemin>
                                    <valuemax>100</valuemax>
                                </parameter>
                                <parameter>
                                    <name>top</name>
                                    <parameterid>top</parameterid>
                                    <value>0</value>
                                    <valuemin>0</valuemin>
                                    <valuemax>100</valuemax>
                                </parameter>
                                <parameter>
                                    <name>bottom</name>
                                    <parameterid>bottom</parameterid>
                                    <value>0</value>
                                    <valuemin>0</valuemin>
                                    <valuemax>100</valuemax>
                                </parameter>
                            </effect>
                        </filter>
                        <filter>
                            <enabled>TRUE</enabled>
                            <start>0</start>
                            <end>243353</end>
                            <effect>
                                <name>Opacity</name>
                                <effectid>opacity</effectid>
                                <effecttype>motion</effecttype>
                                <mediatype>video</mediatype>
                                <effectcategory>motion</effectcategory>
                                <parameter>
                                    <name>opacity</name>
                                    <parameterid>opacity</parameterid>
                                    <value>100</value>
                                    <valuemin>0</valuemin>
                                    <valuemax>100</valuemax>
                                </parameter>
                            </effect>
                        </filter>
                        <link>
                            <linkclipref>Interstaller.mp4 31</linkclipref>
                        </link>
                        <link>
                            <linkclipref>Interstaller.mp4 260</linkclipref>
                        </link>
                        <comments/>
                    </clipitem>
                    <clipitem id="Interstaller.mp4 33">
                        <name>Interstaller.mp4</name>
                        <duration>243353</duration>
                        <rate>
                            <timebase>24</timebase>
                            <ntsc>FALSE</ntsc>
                        </rate>
                        <start>1364</start>
                        <end>1391</end>
                        <enabled>TRUE</enabled>
                        <in>165336</in>
                        <out>165363</out>
                        <file id="Interstaller.mp4 2"/>
                        <compositemode>normal</compositemode>
                        <filter>
                            <enabled>TRUE</enabled>
                            <start>0</start>
                            <end>243353</end>
                            <effect>
                                <name>Basic Motion</name>
                                <effectid>basic</effectid>
                                <effecttype>motion</effecttype>
                                <mediatype>video</mediatype>
                                <effectcategory>motion</effectcategory>
                                <parameter>
                                    <name>Scale</name>
                                    <parameterid>scale</parameterid>
                                    <value>100</value>
                                    <valuemin>0</valuemin>
                                    <valuemax>10000</valuemax>
                                </parameter>
                                <parameter>
                                    <name>Center</name>
                                    <parameterid>center</parameterid>
                                    <value>
                                        <horiz>0</horiz>
                                        <vert>0</vert>
                                    </value>
                                </parameter>
                                <parameter>
                                    <name>Rotation</name>
                                    <parameterid>rotation</parameterid>
                                    <value>0</value>
                                    <valuemin>-100000</valuemin>
                                    <valuemax>100000</valuemax>
                                </parameter>
                                <parameter>
                                    <name>Anchor Point</name>
                                    <parameterid>centerOffset</parameterid>
                                    <value>
                                        <horiz>0</horiz>
                                        <vert>0</vert>
                                    </value>
                                </parameter>
                            </effect>
                        </filter>
                        <filter>
                            <enabled>TRUE</enabled>
                            <start>0</start>
                            <end>243353</end>
                            <effect>
                                <name>Crop</name>
                                <effectid>crop</effectid>
                                <effecttype>motion</effecttype>
                                <mediatype>video</mediatype>
                                <effectcategory>motion</effectcategory>
                                <parameter>
                                    <name>left</name>
                                    <parameterid>left</parameterid>
                                    <value>0</value>
                                    <valuemin>0</valuemin>
                                    <valuemax>100</valuemax>
                                </parameter>
                                <parameter>
                                    <name>right</name>
                                    <parameterid>right</parameterid>
                                    <value>0</value>
                                    <valuemin>0</valuemin>
                                    <valuemax>100</valuemax>
                                </parameter>
                                <parameter>
                                    <name>top</name>
                                    <parameterid>top</parameterid>
                                    <value>0</value>
                                    <valuemin>0</valuemin>
                                    <valuemax>100</valuemax>
                                </parameter>
                                <parameter>
                                    <name>bottom</name>
                                    <parameterid>bottom</parameterid>
                                    <value>0</value>
                                    <valuemin>0</valuemin>
                                    <valuemax>100</valuemax>
                                </parameter>
                            </effect>
                        </filter>
                        <filter>
                            <enabled>TRUE</enabled>
                            <start>0</start>
                            <end>243353</end>
                            <effect>
                                <name>Opacity</name>
                                <effectid>opacity</effectid>
                                <effecttype>motion</effecttype>
                                <mediatype>video</mediatype>
                                <effectcategory>motion</effectcategory>
                                <parameter>
                                    <name>opacity</name>
                                    <parameterid>opacity</parameterid>
                                    <value>100</value>
                                    <valuemin>0</valuemin>
                                    <valuemax>100</valuemax>
                                </parameter>
                            </effect>
                        </filter>
                        <link>
                            <linkclipref>Interstaller.mp4 33</linkclipref>
                        </link>
                        <link>
                            <linkclipref>Interstaller.mp4 261</linkclipref>
                        </link>
                        <comments/>
                    </clipitem>
                    <clipitem id="Interstaller.mp4 35">
                        <name>Interstaller.mp4</name>
                        <duration>243353</duration>
                        <rate>
                            <timebase>24</timebase>
                            <ntsc>FALSE</ntsc>
                        </rate>
                        <start>1391</start>
                        <end>1409</end>
                        <enabled>TRUE</enabled>
                        <in>165363</in>
                        <out>165381</out>
                        <file id="Interstaller.mp4 2"/>
                        <compositemode>normal</compositemode>
                        <filter>
                            <enabled>TRUE</enabled>
                            <start>0</start>
                            <end>243353</end>
                            <effect>
                                <name>Basic Motion</name>
                                <effectid>basic</effectid>
                                <effecttype>motion</effecttype>
                                <mediatype>video</mediatype>
                                <effectcategory>motion</effectcategory>
                                <parameter>
                                    <name>Scale</name>
                                    <parameterid>scale</parameterid>
                                    <value>100</value>
                                    <valuemin>0</valuemin>
                                    <valuemax>10000</valuemax>
                                </parameter>
                                <parameter>
                                    <name>Center</name>
                                    <parameterid>center</parameterid>
                                    <value>
                                        <horiz>0</horiz>
                                        <vert>0</vert>
                                    </value>
                                </parameter>
                                <parameter>
                                    <name>Rotation</name>
                                    <parameterid>rotation</parameterid>
                                    <value>0</value>
                                    <valuemin>-100000</valuemin>
                                    <valuemax>100000</valuemax>
                                </parameter>
                                <parameter>
                                    <name>Anchor Point</name>
                                    <parameterid>centerOffset</parameterid>
                                    <value>
                                        <horiz>0</horiz>
                                        <vert>0</vert>
                                    </value>
                                </parameter>
                            </effect>
                        </filter>
                        <filter>
                            <enabled>TRUE</enabled>
                            <start>0</start>
                            <end>243353</end>
                            <effect>
                                <name>Crop</name>
                                <effectid>crop</effectid>
                                <effecttype>motion</effecttype>
                                <mediatype>video</mediatype>
                                <effectcategory>motion</effectcategory>
                                <parameter>
                                    <name>left</name>
                                    <parameterid>left</parameterid>
                                    <value>0</value>
                                    <valuemin>0</valuemin>
                                    <valuemax>100</valuemax>
                                </parameter>
                                <parameter>
                                    <name>right</name>
                                    <parameterid>right</parameterid>
                                    <value>0</value>
                                    <valuemin>0</valuemin>
                                    <valuemax>100</valuemax>
                                </parameter>
                                <parameter>
                                    <name>top</name>
                                    <parameterid>top</parameterid>
                                    <value>0</value>
                                    <valuemin>0</valuemin>
                                    <valuemax>100</valuemax>
                                </parameter>
                                <parameter>
                                    <name>bottom</name>
                                    <parameterid>bottom</parameterid>
                                    <value>0</value>
                                    <valuemin>0</valuemin>
                                    <valuemax>100</valuemax>
                                </parameter>
                            </effect>
                        </filter>
                        <filter>
                            <enabled>TRUE</enabled>
                            <start>0</start>
                            <end>243353</end>
                            <effect>
                                <name>Opacity</name>
                                <effectid>opacity</effectid>
                                <effecttype>motion</effecttype>
                                <mediatype>video</mediatype>
                                <effectcategory>motion</effectcategory>
                                <parameter>
                                    <name>opacity</name>
                                    <parameterid>opacity</parameterid>
                                    <value>100</value>
                                    <valuemin>0</valuemin>
                                    <valuemax>100</valuemax>
                                </parameter>
                            </effect>
                        </filter>
                        <link>
                            <linkclipref>Interstaller.mp4 35</linkclipref>
                        </link>
                        <link>
                            <linkclipref>Interstaller.mp4 262</linkclipref>
                        </link>
                        <comments/>
                    </clipitem>
                    <clipitem id="Interstaller.mp4 37">
                        <name>Interstaller.mp4</name>
                        <duration>243353</duration>
                        <rate>
                            <timebase>24</timebase>
                            <ntsc>FALSE</ntsc>
                        </rate>
                        <start>1409</start>
                        <end>1453</end>
                        <enabled>TRUE</enabled>
                        <in>165381</in>
                        <out>165425</out>
                        <file id="Interstaller.mp4 2"/>
                        <compositemode>normal</compositemode>
                        <filter>
                            <enabled>TRUE</enabled>
                            <start>0</start>
                            <end>243353</end>
                            <effect>
                                <name>Basic Motion</name>
                                <effectid>basic</effectid>
                                <effecttype>motion</effecttype>
                                <mediatype>video</mediatype>
                                <effectcategory>motion</effectcategory>
                                <parameter>
                                    <name>Scale</name>
                                    <parameterid>scale</parameterid>
                                    <value>100</value>
                                    <valuemin>0</valuemin>
                                    <valuemax>10000</valuemax>
                                </parameter>
                                <parameter>
                                    <name>Center</name>
                                    <parameterid>center</parameterid>
                                    <value>
                                        <horiz>0</horiz>
                                        <vert>0</vert>
                                    </value>
                                </parameter>
                                <parameter>
                                    <name>Rotation</name>
                                    <parameterid>rotation</parameterid>
                                    <value>0</value>
                                    <valuemin>-100000</valuemin>
                                    <valuemax>100000</valuemax>
                                </parameter>
                                <parameter>
                                    <name>Anchor Point</name>
                                    <parameterid>centerOffset</parameterid>
                                    <value>
                                        <horiz>0</horiz>
                                        <vert>0</vert>
                                    </value>
                                </parameter>
                            </effect>
                        </filter>
                        <filter>
                            <enabled>TRUE</enabled>
                            <start>0</start>
                            <end>243353</end>
                            <effect>
                                <name>Crop</name>
                                <effectid>crop</effectid>
                                <effecttype>motion</effecttype>
                                <mediatype>video</mediatype>
                                <effectcategory>motion</effectcategory>
                                <parameter>
                                    <name>left</name>
                                    <parameterid>left</parameterid>
                                    <value>0</value>
                                    <valuemin>0</valuemin>
                                    <valuemax>100</valuemax>
                                </parameter>
                                <parameter>
                                    <name>right</name>
                                    <parameterid>right</parameterid>
                                    <value>0</value>
                                    <valuemin>0</valuemin>
                                    <valuemax>100</valuemax>
                                </parameter>
                                <parameter>
                                    <name>top</name>
                                    <parameterid>top</parameterid>
                                    <value>0</value>
                                    <valuemin>0</valuemin>
                                    <valuemax>100</valuemax>
                                </parameter>
                                <parameter>
                                    <name>bottom</name>
                                    <parameterid>bottom</parameterid>
                                    <value>0</value>
                                    <valuemin>0</valuemin>
                                    <valuemax>100</valuemax>
                                </parameter>
                            </effect>
                        </filter>
                        <filter>
                            <enabled>TRUE</enabled>
                            <start>0</start>
                            <end>243353</end>
                            <effect>
                                <name>Opacity</name>
                                <effectid>opacity</effectid>
                                <effecttype>motion</effecttype>
                                <mediatype>video</mediatype>
                                <effectcategory>motion</effectcategory>
                                <parameter>
                                    <name>opacity</name>
                                    <parameterid>opacity</parameterid>
                                    <value>100</value>
                                    <valuemin>0</valuemin>
                                    <valuemax>100</valuemax>
                                </parameter>
                            </effect>
                        </filter>
                        <link>
                            <linkclipref>Interstaller.mp4 37</linkclipref>
                        </link>
                        <link>
                            <linkclipref>Interstaller.mp4 263</linkclipref>
                        </link>
                        <comments/>
                    </clipitem>
                    <clipitem id="Interstaller.mp4 39">
                        <name>Interstaller.mp4</name>
                        <duration>243353</duration>
                        <rate>
                            <timebase>24</timebase>
                            <ntsc>FALSE</ntsc>
                        </rate>
                        <start>1453</start>
                        <end>1530</end>
                        <enabled>TRUE</enabled>
                        <in>165425</in>
                        <out>165502</out>
                        <file id="Interstaller.mp4 2"/>
                        <compositemode>normal</compositemode>
                        <filter>
                            <enabled>TRUE</enabled>
                            <start>0</start>
                            <end>243353</end>
                            <effect>
                                <name>Basic Motion</name>
                                <effectid>basic</effectid>
                                <effecttype>motion</effecttype>
                                <mediatype>video</mediatype>
                                <effectcategory>motion</effectcategory>
                                <parameter>
                                    <name>Scale</name>
                                    <parameterid>scale</parameterid>
                                    <value>100</value>
                                    <valuemin>0</valuemin>
                                    <valuemax>10000</valuemax>
                                </parameter>
                                <parameter>
                                    <name>Center</name>
                                    <parameterid>center</parameterid>
                                    <value>
                                        <horiz>0</horiz>
                                        <vert>0</vert>
                                    </value>
                                </parameter>
                                <parameter>
                                    <name>Rotation</name>
                                    <parameterid>rotation</parameterid>
                                    <value>0</value>
                                    <valuemin>-100000</valuemin>
                                    <valuemax>100000</valuemax>
                                </parameter>
                                <parameter>
                                    <name>Anchor Point</name>
                                    <parameterid>centerOffset</parameterid>
                                    <value>
                                        <horiz>0</horiz>
                                        <vert>0</vert>
                                    </value>
                                </parameter>
                            </effect>
                        </filter>
                        <filter>
                            <enabled>TRUE</enabled>
                            <start>0</start>
                            <end>243353</end>
                            <effect>
                                <name>Crop</name>
                                <effectid>crop</effectid>
                                <effecttype>motion</effecttype>
                                <mediatype>video</mediatype>
                                <effectcategory>motion</effectcategory>
                                <parameter>
                                    <name>left</name>
                                    <parameterid>left</parameterid>
                                    <value>0</value>
                                    <valuemin>0</valuemin>
                                    <valuemax>100</valuemax>
                                </parameter>
                                <parameter>
                                    <name>right</name>
                                    <parameterid>right</parameterid>
                                    <value>0</value>
                                    <valuemin>0</valuemin>
                                    <valuemax>100</valuemax>
                                </parameter>
                                <parameter>
                                    <name>top</name>
                                    <parameterid>top</parameterid>
                                    <value>0</value>
                                    <valuemin>0</valuemin>
                                    <valuemax>100</valuemax>
                                </parameter>
                                <parameter>
                                    <name>bottom</name>
                                    <parameterid>bottom</parameterid>
                                    <value>0</value>
                                    <valuemin>0</valuemin>
                                    <valuemax>100</valuemax>
                                </parameter>
                            </effect>
                        </filter>
                        <filter>
                            <enabled>TRUE</enabled>
                            <start>0</start>
                            <end>243353</end>
                            <effect>
                                <name>Opacity</name>
                                <effectid>opacity</effectid>
                                <effecttype>motion</effecttype>
                                <mediatype>video</mediatype>
                                <effectcategory>motion</effectcategory>
                                <parameter>
                                    <name>opacity</name>
                                    <parameterid>opacity</parameterid>
                                    <value>100</value>
                                    <valuemin>0</valuemin>
                                    <valuemax>100</valuemax>
                                </parameter>
                            </effect>
                        </filter>
                        <link>
                            <linkclipref>Interstaller.mp4 39</linkclipref>
                        </link>
                        <link>
                            <linkclipref>Interstaller.mp4 264</linkclipref>
                        </link>
                        <comments/>
                    </clipitem>
                    <clipitem id="Interstaller.mp4 41">
                        <name>Interstaller.mp4</name>
                        <duration>243353</duration>
                        <rate>
                            <timebase>24</timebase>
                            <ntsc>FALSE</ntsc>
                        </rate>
                        <start>1530</start>
                        <end>1549</end>
                        <enabled>TRUE</enabled>
                        <in>165502</in>
                        <out>165521</out>
                        <file id="Interstaller.mp4 2"/>
                        <compositemode>normal</compositemode>
                        <filter>
                            <enabled>TRUE</enabled>
                            <start>0</start>
                            <end>243353</end>
                            <effect>
                                <name>Basic Motion</name>
                                <effectid>basic</effectid>
                                <effecttype>motion</effecttype>
                                <mediatype>video</mediatype>
                                <effectcategory>motion</effectcategory>
                                <parameter>
                                    <name>Scale</name>
                                    <parameterid>scale</parameterid>
                                    <value>100</value>
                                    <valuemin>0</valuemin>
                                    <valuemax>10000</valuemax>
                                </parameter>
                                <parameter>
                                    <name>Center</name>
                                    <parameterid>center</parameterid>
                                    <value>
                                        <horiz>0</horiz>
                                        <vert>0</vert>
                                    </value>
                                </parameter>
                                <parameter>
                                    <name>Rotation</name>
                                    <parameterid>rotation</parameterid>
                                    <value>0</value>
                                    <valuemin>-100000</valuemin>
                                    <valuemax>100000</valuemax>
                                </parameter>
                                <parameter>
                                    <name>Anchor Point</name>
                                    <parameterid>centerOffset</parameterid>
                                    <value>
                                        <horiz>0</horiz>
                                        <vert>0</vert>
                                    </value>
                                </parameter>
                            </effect>
                        </filter>
                        <filter>
                            <enabled>TRUE</enabled>
                            <start>0</start>
                            <end>243353</end>
                            <effect>
                                <name>Crop</name>
                                <effectid>crop</effectid>
                                <effecttype>motion</effecttype>
                                <mediatype>video</mediatype>
                                <effectcategory>motion</effectcategory>
                                <parameter>
                                    <name>left</name>
                                    <parameterid>left</parameterid>
                                    <value>0</value>
                                    <valuemin>0</valuemin>
                                    <valuemax>100</valuemax>
                                </parameter>
                                <parameter>
                                    <name>right</name>
                                    <parameterid>right</parameterid>
                                    <value>0</value>
                                    <valuemin>0</valuemin>
                                    <valuemax>100</valuemax>
                                </parameter>
                                <parameter>
                                    <name>top</name>
                                    <parameterid>top</parameterid>
                                    <value>0</value>
                                    <valuemin>0</valuemin>
                                    <valuemax>100</valuemax>
                                </parameter>
                                <parameter>
                                    <name>bottom</name>
                                    <parameterid>bottom</parameterid>
                                    <value>0</value>
                                    <valuemin>0</valuemin>
                                    <valuemax>100</valuemax>
                                </parameter>
                            </effect>
                        </filter>
                        <filter>
                            <enabled>TRUE</enabled>
                            <start>0</start>
                            <end>243353</end>
                            <effect>
                                <name>Opacity</name>
                                <effectid>opacity</effectid>
                                <effecttype>motion</effecttype>
                                <mediatype>video</mediatype>
                                <effectcategory>motion</effectcategory>
                                <parameter>
                                    <name>opacity</name>
                                    <parameterid>opacity</parameterid>
                                    <value>100</value>
                                    <valuemin>0</valuemin>
                                    <valuemax>100</valuemax>
                                </parameter>
                            </effect>
                        </filter>
                        <link>
                            <linkclipref>Interstaller.mp4 41</linkclipref>
                        </link>
                        <link>
                            <linkclipref>Interstaller.mp4 265</linkclipref>
                        </link>
                        <comments/>
                    </clipitem>
                    <clipitem id="Interstaller.mp4 43">
                        <name>Interstaller.mp4</name>
                        <duration>243353</duration>
                        <rate>
                            <timebase>24</timebase>
                            <ntsc>FALSE</ntsc>
                        </rate>
                        <start>1549</start>
                        <end>1575</end>
                        <enabled>TRUE</enabled>
                        <in>165521</in>
                        <out>165547</out>
                        <file id="Interstaller.mp4 2"/>
                        <compositemode>normal</compositemode>
                        <filter>
                            <enabled>TRUE</enabled>
                            <start>0</start>
                            <end>243353</end>
                            <effect>
                                <name>Basic Motion</name>
                                <effectid>basic</effectid>
                                <effecttype>motion</effecttype>
                                <mediatype>video</mediatype>
                                <effectcategory>motion</effectcategory>
                                <parameter>
                                    <name>Scale</name>
                                    <parameterid>scale</parameterid>
                                    <value>100</value>
                                    <valuemin>0</valuemin>
                                    <valuemax>10000</valuemax>
                                </parameter>
                                <parameter>
                                    <name>Center</name>
                                    <parameterid>center</parameterid>
                                    <value>
                                        <horiz>0</horiz>
                                        <vert>0</vert>
                                    </value>
                                </parameter>
                                <parameter>
                                    <name>Rotation</name>
                                    <parameterid>rotation</parameterid>
                                    <value>0</value>
                                    <valuemin>-100000</valuemin>
                                    <valuemax>100000</valuemax>
                                </parameter>
                                <parameter>
                                    <name>Anchor Point</name>
                                    <parameterid>centerOffset</parameterid>
                                    <value>
                                        <horiz>0</horiz>
                                        <vert>0</vert>
                                    </value>
                                </parameter>
                            </effect>
                        </filter>
                        <filter>
                            <enabled>TRUE</enabled>
                            <start>0</start>
                            <end>243353</end>
                            <effect>
                                <name>Crop</name>
                                <effectid>crop</effectid>
                                <effecttype>motion</effecttype>
                                <mediatype>video</mediatype>
                                <effectcategory>motion</effectcategory>
                                <parameter>
                                    <name>left</name>
                                    <parameterid>left</parameterid>
                                    <value>0</value>
                                    <valuemin>0</valuemin>
                                    <valuemax>100</valuemax>
                                </parameter>
                                <parameter>
                                    <name>right</name>
                                    <parameterid>right</parameterid>
                                    <value>0</value>
                                    <valuemin>0</valuemin>
                                    <valuemax>100</valuemax>
                                </parameter>
                                <parameter>
                                    <name>top</name>
                                    <parameterid>top</parameterid>
                                    <value>0</value>
                                    <valuemin>0</valuemin>
                                    <valuemax>100</valuemax>
                                </parameter>
                                <parameter>
                                    <name>bottom</name>
                                    <parameterid>bottom</parameterid>
                                    <value>0</value>
                                    <valuemin>0</valuemin>
                                    <valuemax>100</valuemax>
                                </parameter>
                            </effect>
                        </filter>
                        <filter>
                            <enabled>TRUE</enabled>
                            <start>0</start>
                            <end>243353</end>
                            <effect>
                                <name>Opacity</name>
                                <effectid>opacity</effectid>
                                <effecttype>motion</effecttype>
                                <mediatype>video</mediatype>
                                <effectcategory>motion</effectcategory>
                                <parameter>
                                    <name>opacity</name>
                                    <parameterid>opacity</parameterid>
                                    <value>100</value>
                                    <valuemin>0</valuemin>
                                    <valuemax>100</valuemax>
                                </parameter>
                            </effect>
                        </filter>
                        <link>
                            <linkclipref>Interstaller.mp4 43</linkclipref>
                        </link>
                        <link>
                            <linkclipref>Interstaller.mp4 266</linkclipref>
                        </link>
                        <comments/>
                    </clipitem>
                    <clipitem id="Interstaller.mp4 45">
                        <name>Interstaller.mp4</name>
                        <duration>243353</duration>
                        <rate>
                            <timebase>24</timebase>
                            <ntsc>FALSE</ntsc>
                        </rate>
                        <start>1575</start>
                        <end>1581</end>
                        <enabled>TRUE</enabled>
                        <in>165547</in>
                        <out>165553</out>
                        <file id="Interstaller.mp4 2"/>
                        <compositemode>normal</compositemode>
                        <filter>
                            <enabled>TRUE</enabled>
                            <start>0</start>
                            <end>243353</end>
                            <effect>
                                <name>Basic Motion</name>
                                <effectid>basic</effectid>
                                <effecttype>motion</effecttype>
                                <mediatype>video</mediatype>
                                <effectcategory>motion</effectcategory>
                                <parameter>
                                    <name>Scale</name>
                                    <parameterid>scale</parameterid>
                                    <value>100</value>
                                    <valuemin>0</valuemin>
                                    <valuemax>10000</valuemax>
                                </parameter>
                                <parameter>
                                    <name>Center</name>
                                    <parameterid>center</parameterid>
                                    <value>
                                        <horiz>0</horiz>
                                        <vert>0</vert>
                                    </value>
                                </parameter>
                                <parameter>
                                    <name>Rotation</name>
                                    <parameterid>rotation</parameterid>
                                    <value>0</value>
                                    <valuemin>-100000</valuemin>
                                    <valuemax>100000</valuemax>
                                </parameter>
                                <parameter>
                                    <name>Anchor Point</name>
                                    <parameterid>centerOffset</parameterid>
                                    <value>
                                        <horiz>0</horiz>
                                        <vert>0</vert>
                                    </value>
                                </parameter>
                            </effect>
                        </filter>
                        <filter>
                            <enabled>TRUE</enabled>
                            <start>0</start>
                            <end>243353</end>
                            <effect>
                                <name>Crop</name>
                                <effectid>crop</effectid>
                                <effecttype>motion</effecttype>
                                <mediatype>video</mediatype>
                                <effectcategory>motion</effectcategory>
                                <parameter>
                                    <name>left</name>
                                    <parameterid>left</parameterid>
                                    <value>0</value>
                                    <valuemin>0</valuemin>
                                    <valuemax>100</valuemax>
                                </parameter>
                                <parameter>
                                    <name>right</name>
                                    <parameterid>right</parameterid>
                                    <value>0</value>
                                    <valuemin>0</valuemin>
                                    <valuemax>100</valuemax>
                                </parameter>
                                <parameter>
                                    <name>top</name>
                                    <parameterid>top</parameterid>
                                    <value>0</value>
                                    <valuemin>0</valuemin>
                                    <valuemax>100</valuemax>
                                </parameter>
                                <parameter>
                                    <name>bottom</name>
                                    <parameterid>bottom</parameterid>
                                    <value>0</value>
                                    <valuemin>0</valuemin>
                                    <valuemax>100</valuemax>
                                </parameter>
                            </effect>
                        </filter>
                        <filter>
                            <enabled>TRUE</enabled>
                            <start>0</start>
                            <end>243353</end>
                            <effect>
                                <name>Opacity</name>
                                <effectid>opacity</effectid>
                                <effecttype>motion</effecttype>
                                <mediatype>video</mediatype>
                                <effectcategory>motion</effectcategory>
                                <parameter>
                                    <name>opacity</name>
                                    <parameterid>opacity</parameterid>
                                    <value>100</value>
                                    <valuemin>0</valuemin>
                                    <valuemax>100</valuemax>
                                </parameter>
                            </effect>
                        </filter>
                        <link>
                            <linkclipref>Interstaller.mp4 45</linkclipref>
                        </link>
                        <link>
                            <linkclipref>Interstaller.mp4 267</linkclipref>
                        </link>
                        <comments/>
                    </clipitem>
                    <clipitem id="Interstaller.mp4 47">
                        <name>Interstaller.mp4</name>
                        <duration>243353</duration>
                        <rate>
                            <timebase>24</timebase>
                            <ntsc>FALSE</ntsc>
                        </rate>
                        <start>1581</start>
                        <end>1613</end>
                        <enabled>TRUE</enabled>
                        <in>165553</in>
                        <out>165585</out>
                        <file id="Interstaller.mp4 2"/>
                        <compositemode>normal</compositemode>
                        <filter>
                            <enabled>TRUE</enabled>
                            <start>0</start>
                            <end>243353</end>
                            <effect>
                                <name>Basic Motion</name>
                                <effectid>basic</effectid>
                                <effecttype>motion</effecttype>
                                <mediatype>video</mediatype>
                                <effectcategory>motion</effectcategory>
                                <parameter>
                                    <name>Scale</name>
                                    <parameterid>scale</parameterid>
                                    <value>100</value>
                                    <valuemin>0</valuemin>
                                    <valuemax>10000</valuemax>
                                </parameter>
                                <parameter>
                                    <name>Center</name>
                                    <parameterid>center</parameterid>
                                    <value>
                                        <horiz>0</horiz>
                                        <vert>0</vert>
                                    </value>
                                </parameter>
                                <parameter>
                                    <name>Rotation</name>
                                    <parameterid>rotation</parameterid>
                                    <value>0</value>
                                    <valuemin>-100000</valuemin>
                                    <valuemax>100000</valuemax>
                                </parameter>
                                <parameter>
                                    <name>Anchor Point</name>
                                    <parameterid>centerOffset</parameterid>
                                    <value>
                                        <horiz>0</horiz>
                                        <vert>0</vert>
                                    </value>
                                </parameter>
                            </effect>
                        </filter>
                        <filter>
                            <enabled>TRUE</enabled>
                            <start>0</start>
                            <end>243353</end>
                            <effect>
                                <name>Crop</name>
                                <effectid>crop</effectid>
                                <effecttype>motion</effecttype>
                                <mediatype>video</mediatype>
                                <effectcategory>motion</effectcategory>
                                <parameter>
                                    <name>left</name>
                                    <parameterid>left</parameterid>
                                    <value>0</value>
                                    <valuemin>0</valuemin>
                                    <valuemax>100</valuemax>
                                </parameter>
                                <parameter>
                                    <name>right</name>
                                    <parameterid>right</parameterid>
                                    <value>0</value>
                                    <valuemin>0</valuemin>
                                    <valuemax>100</valuemax>
                                </parameter>
                                <parameter>
                                    <name>top</name>
                                    <parameterid>top</parameterid>
                                    <value>0</value>
                                    <valuemin>0</valuemin>
                                    <valuemax>100</valuemax>
                                </parameter>
                                <parameter>
                                    <name>bottom</name>
                                    <parameterid>bottom</parameterid>
                                    <value>0</value>
                                    <valuemin>0</valuemin>
                                    <valuemax>100</valuemax>
                                </parameter>
                            </effect>
                        </filter>
                        <filter>
                            <enabled>TRUE</enabled>
                            <start>0</start>
                            <end>243353</end>
                            <effect>
                                <name>Opacity</name>
                                <effectid>opacity</effectid>
                                <effecttype>motion</effecttype>
                                <mediatype>video</mediatype>
                                <effectcategory>motion</effectcategory>
                                <parameter>
                                    <name>opacity</name>
                                    <parameterid>opacity</parameterid>
                                    <value>100</value>
                                    <valuemin>0</valuemin>
                                    <valuemax>100</valuemax>
                                </parameter>
                            </effect>
                        </filter>
                        <link>
                            <linkclipref>Interstaller.mp4 47</linkclipref>
                        </link>
                        <link>
                            <linkclipref>Interstaller.mp4 268</linkclipref>
                        </link>
                        <comments/>
                    </clipitem>
                    <clipitem id="Interstaller.mp4 49">
                        <name>Interstaller.mp4</name>
                        <duration>243353</duration>
                        <rate>
                            <timebase>24</timebase>
                            <ntsc>FALSE</ntsc>
                        </rate>
                        <start>1613</start>
                        <end>1625</end>
                        <enabled>TRUE</enabled>
                        <in>165585</in>
                        <out>165597</out>
                        <file id="Interstaller.mp4 2"/>
                        <compositemode>normal</compositemode>
                        <filter>
                            <enabled>TRUE</enabled>
                            <start>0</start>
                            <end>243353</end>
                            <effect>
                                <name>Basic Motion</name>
                                <effectid>basic</effectid>
                                <effecttype>motion</effecttype>
                                <mediatype>video</mediatype>
                                <effectcategory>motion</effectcategory>
                                <parameter>
                                    <name>Scale</name>
                                    <parameterid>scale</parameterid>
                                    <value>100</value>
                                    <valuemin>0</valuemin>
                                    <valuemax>10000</valuemax>
                                </parameter>
                                <parameter>
                                    <name>Center</name>
                                    <parameterid>center</parameterid>
                                    <value>
                                        <horiz>0</horiz>
                                        <vert>0</vert>
                                    </value>
                                </parameter>
                                <parameter>
                                    <name>Rotation</name>
                                    <parameterid>rotation</parameterid>
                                    <value>0</value>
                                    <valuemin>-100000</valuemin>
                                    <valuemax>100000</valuemax>
                                </parameter>
                                <parameter>
                                    <name>Anchor Point</name>
                                    <parameterid>centerOffset</parameterid>
                                    <value>
                                        <horiz>0</horiz>
                                        <vert>0</vert>
                                    </value>
                                </parameter>
                            </effect>
                        </filter>
                        <filter>
                            <enabled>TRUE</enabled>
                            <start>0</start>
                            <end>243353</end>
                            <effect>
                                <name>Crop</name>
                                <effectid>crop</effectid>
                                <effecttype>motion</effecttype>
                                <mediatype>video</mediatype>
                                <effectcategory>motion</effectcategory>
                                <parameter>
                                    <name>left</name>
                                    <parameterid>left</parameterid>
                                    <value>0</value>
                                    <valuemin>0</valuemin>
                                    <valuemax>100</valuemax>
                                </parameter>
                                <parameter>
                                    <name>right</name>
                                    <parameterid>right</parameterid>
                                    <value>0</value>
                                    <valuemin>0</valuemin>
                                    <valuemax>100</valuemax>
                                </parameter>
                                <parameter>
                                    <name>top</name>
                                    <parameterid>top</parameterid>
                                    <value>0</value>
                                    <valuemin>0</valuemin>
                                    <valuemax>100</valuemax>
                                </parameter>
                                <parameter>
                                    <name>bottom</name>
                                    <parameterid>bottom</parameterid>
                                    <value>0</value>
                                    <valuemin>0</valuemin>
                                    <valuemax>100</valuemax>
                                </parameter>
                            </effect>
                        </filter>
                        <filter>
                            <enabled>TRUE</enabled>
                            <start>0</start>
                            <end>243353</end>
                            <effect>
                                <name>Opacity</name>
                                <effectid>opacity</effectid>
                                <effecttype>motion</effecttype>
                                <mediatype>video</mediatype>
                                <effectcategory>motion</effectcategory>
                                <parameter>
                                    <name>opacity</name>
                                    <parameterid>opacity</parameterid>
                                    <value>100</value>
                                    <valuemin>0</valuemin>
                                    <valuemax>100</valuemax>
                                </parameter>
                            </effect>
                        </filter>
                        <link>
                            <linkclipref>Interstaller.mp4 49</linkclipref>
                        </link>
                        <link>
                            <linkclipref>Interstaller.mp4 269</linkclipref>
                        </link>
                        <comments/>
                    </clipitem>
                    <clipitem id="Interstaller.mp4 51">
                        <name>Interstaller.mp4</name>
                        <duration>243353</duration>
                        <rate>
                            <timebase>24</timebase>
                            <ntsc>FALSE</ntsc>
                        </rate>
                        <start>1625</start>
                        <end>1637</end>
                        <enabled>TRUE</enabled>
                        <in>165597</in>
                        <out>165609</out>
                        <file id="Interstaller.mp4 2"/>
                        <compositemode>normal</compositemode>
                        <filter>
                            <enabled>TRUE</enabled>
                            <start>0</start>
                            <end>243353</end>
                            <effect>
                                <name>Basic Motion</name>
                                <effectid>basic</effectid>
                                <effecttype>motion</effecttype>
                                <mediatype>video</mediatype>
                                <effectcategory>motion</effectcategory>
                                <parameter>
                                    <name>Scale</name>
                                    <parameterid>scale</parameterid>
                                    <value>100</value>
                                    <valuemin>0</valuemin>
                                    <valuemax>10000</valuemax>
                                </parameter>
                                <parameter>
                                    <name>Center</name>
                                    <parameterid>center</parameterid>
                                    <value>
                                        <horiz>0</horiz>
                                        <vert>0</vert>
                                    </value>
                                </parameter>
                                <parameter>
                                    <name>Rotation</name>
                                    <parameterid>rotation</parameterid>
                                    <value>0</value>
                                    <valuemin>-100000</valuemin>
                                    <valuemax>100000</valuemax>
                                </parameter>
                                <parameter>
                                    <name>Anchor Point</name>
                                    <parameterid>centerOffset</parameterid>
                                    <value>
                                        <horiz>0</horiz>
                                        <vert>0</vert>
                                    </value>
                                </parameter>
                            </effect>
                        </filter>
                        <filter>
                            <enabled>TRUE</enabled>
                            <start>0</start>
                            <end>243353</end>
                            <effect>
                                <name>Crop</name>
                                <effectid>crop</effectid>
                                <effecttype>motion</effecttype>
                                <mediatype>video</mediatype>
                                <effectcategory>motion</effectcategory>
                                <parameter>
                                    <name>left</name>
                                    <parameterid>left</parameterid>
                                    <value>0</value>
                                    <valuemin>0</valuemin>
                                    <valuemax>100</valuemax>
                                </parameter>
                                <parameter>
                                    <name>right</name>
                                    <parameterid>right</parameterid>
                                    <value>0</value>
                                    <valuemin>0</valuemin>
                                    <valuemax>100</valuemax>
                                </parameter>
                                <parameter>
                                    <name>top</name>
                                    <parameterid>top</parameterid>
                                    <value>0</value>
                                    <valuemin>0</valuemin>
                                    <valuemax>100</valuemax>
                                </parameter>
                                <parameter>
                                    <name>bottom</name>
                                    <parameterid>bottom</parameterid>
                                    <value>0</value>
                                    <valuemin>0</valuemin>
                                    <valuemax>100</valuemax>
                                </parameter>
                            </effect>
                        </filter>
                        <filter>
                            <enabled>TRUE</enabled>
                            <start>0</start>
                            <end>243353</end>
                            <effect>
                                <name>Opacity</name>
                                <effectid>opacity</effectid>
                                <effecttype>motion</effecttype>
                                <mediatype>video</mediatype>
                                <effectcategory>motion</effectcategory>
                                <parameter>
                                    <name>opacity</name>
                                    <parameterid>opacity</parameterid>
                                    <value>100</value>
                                    <valuemin>0</valuemin>
                                    <valuemax>100</valuemax>
                                </parameter>
                            </effect>
                        </filter>
                        <link>
                            <linkclipref>Interstaller.mp4 51</linkclipref>
                        </link>
                        <link>
                            <linkclipref>Interstaller.mp4 270</linkclipref>
                        </link>
                        <comments/>
                    </clipitem>
                    <clipitem id="Interstaller.mp4 53">
                        <name>Interstaller.mp4</name>
                        <duration>243353</duration>
                        <rate>
                            <timebase>24</timebase>
                            <ntsc>FALSE</ntsc>
                        </rate>
                        <start>1637</start>
                        <end>1657</end>
                        <enabled>TRUE</enabled>
                        <in>165609</in>
                        <out>165629</out>
                        <file id="Interstaller.mp4 2"/>
                        <compositemode>normal</compositemode>
                        <filter>
                            <enabled>TRUE</enabled>
                            <start>0</start>
                            <end>243353</end>
                            <effect>
                                <name>Basic Motion</name>
                                <effectid>basic</effectid>
                                <effecttype>motion</effecttype>
                                <mediatype>video</mediatype>
                                <effectcategory>motion</effectcategory>
                                <parameter>
                                    <name>Scale</name>
                                    <parameterid>scale</parameterid>
                                    <value>100</value>
                                    <valuemin>0</valuemin>
                                    <valuemax>10000</valuemax>
                                </parameter>
                                <parameter>
                                    <name>Center</name>
                                    <parameterid>center</parameterid>
                                    <value>
                                        <horiz>0</horiz>
                                        <vert>0</vert>
                                    </value>
                                </parameter>
                                <parameter>
                                    <name>Rotation</name>
                                    <parameterid>rotation</parameterid>
                                    <value>0</value>
                                    <valuemin>-100000</valuemin>
                                    <valuemax>100000</valuemax>
                                </parameter>
                                <parameter>
                                    <name>Anchor Point</name>
                                    <parameterid>centerOffset</parameterid>
                                    <value>
                                        <horiz>0</horiz>
                                        <vert>0</vert>
                                    </value>
                                </parameter>
                            </effect>
                        </filter>
                        <filter>
                            <enabled>TRUE</enabled>
                            <start>0</start>
                            <end>243353</end>
                            <effect>
                                <name>Crop</name>
                                <effectid>crop</effectid>
                                <effecttype>motion</effecttype>
                                <mediatype>video</mediatype>
                                <effectcategory>motion</effectcategory>
                                <parameter>
                                    <name>left</name>
                                    <parameterid>left</parameterid>
                                    <value>0</value>
                                    <valuemin>0</valuemin>
                                    <valuemax>100</valuemax>
                                </parameter>
                                <parameter>
                                    <name>right</name>
                                    <parameterid>right</parameterid>
                                    <value>0</value>
                                    <valuemin>0</valuemin>
                                    <valuemax>100</valuemax>
                                </parameter>
                                <parameter>
                                    <name>top</name>
                                    <parameterid>top</parameterid>
                                    <value>0</value>
                                    <valuemin>0</valuemin>
                                    <valuemax>100</valuemax>
                                </parameter>
                                <parameter>
                                    <name>bottom</name>
                                    <parameterid>bottom</parameterid>
                                    <value>0</value>
                                    <valuemin>0</valuemin>
                                    <valuemax>100</valuemax>
                                </parameter>
                            </effect>
                        </filter>
                        <filter>
                            <enabled>TRUE</enabled>
                            <start>0</start>
                            <end>243353</end>
                            <effect>
                                <name>Opacity</name>
                                <effectid>opacity</effectid>
                                <effecttype>motion</effecttype>
                                <mediatype>video</mediatype>
                                <effectcategory>motion</effectcategory>
                                <parameter>
                                    <name>opacity</name>
                                    <parameterid>opacity</parameterid>
                                    <value>100</value>
                                    <valuemin>0</valuemin>
                                    <valuemax>100</valuemax>
                                </parameter>
                            </effect>
                        </filter>
                        <link>
                            <linkclipref>Interstaller.mp4 53</linkclipref>
                        </link>
                        <link>
                            <linkclipref>Interstaller.mp4 271</linkclipref>
                        </link>
                        <comments/>
                    </clipitem>
                    <clipitem id="Interstaller.mp4 55">
                        <name>Interstaller.mp4</name>
                        <duration>243353</duration>
                        <rate>
                            <timebase>24</timebase>
                            <ntsc>FALSE</ntsc>
                        </rate>
                        <start>1657</start>
                        <end>1683</end>
                        <enabled>TRUE</enabled>
                        <in>165629</in>
                        <out>165655</out>
                        <file id="Interstaller.mp4 2"/>
                        <compositemode>normal</compositemode>
                        <filter>
                            <enabled>TRUE</enabled>
                            <start>0</start>
                            <end>243353</end>
                            <effect>
                                <name>Basic Motion</name>
                                <effectid>basic</effectid>
                                <effecttype>motion</effecttype>
                                <mediatype>video</mediatype>
                                <effectcategory>motion</effectcategory>
                                <parameter>
                                    <name>Scale</name>
                                    <parameterid>scale</parameterid>
                                    <value>100</value>
                                    <valuemin>0</valuemin>
                                    <valuemax>10000</valuemax>
                                </parameter>
                                <parameter>
                                    <name>Center</name>
                                    <parameterid>center</parameterid>
                                    <value>
                                        <horiz>0</horiz>
                                        <vert>0</vert>
                                    </value>
                                </parameter>
                                <parameter>
                                    <name>Rotation</name>
                                    <parameterid>rotation</parameterid>
                                    <value>0</value>
                                    <valuemin>-100000</valuemin>
                                    <valuemax>100000</valuemax>
                                </parameter>
                                <parameter>
                                    <name>Anchor Point</name>
                                    <parameterid>centerOffset</parameterid>
                                    <value>
                                        <horiz>0</horiz>
                                        <vert>0</vert>
                                    </value>
                                </parameter>
                            </effect>
                        </filter>
                        <filter>
                            <enabled>TRUE</enabled>
                            <start>0</start>
                            <end>243353</end>
                            <effect>
                                <name>Crop</name>
                                <effectid>crop</effectid>
                                <effecttype>motion</effecttype>
                                <mediatype>video</mediatype>
                                <effectcategory>motion</effectcategory>
                                <parameter>
                                    <name>left</name>
                                    <parameterid>left</parameterid>
                                    <value>0</value>
                                    <valuemin>0</valuemin>
                                    <valuemax>100</valuemax>
                                </parameter>
                                <parameter>
                                    <name>right</name>
                                    <parameterid>right</parameterid>
                                    <value>0</value>
                                    <valuemin>0</valuemin>
                                    <valuemax>100</valuemax>
                                </parameter>
                                <parameter>
                                    <name>top</name>
                                    <parameterid>top</parameterid>
                                    <value>0</value>
                                    <valuemin>0</valuemin>
                                    <valuemax>100</valuemax>
                                </parameter>
                                <parameter>
                                    <name>bottom</name>
                                    <parameterid>bottom</parameterid>
                                    <value>0</value>
                                    <valuemin>0</valuemin>
                                    <valuemax>100</valuemax>
                                </parameter>
                            </effect>
                        </filter>
                        <filter>
                            <enabled>TRUE</enabled>
                            <start>0</start>
                            <end>243353</end>
                            <effect>
                                <name>Opacity</name>
                                <effectid>opacity</effectid>
                                <effecttype>motion</effecttype>
                                <mediatype>video</mediatype>
                                <effectcategory>motion</effectcategory>
                                <parameter>
                                    <name>opacity</name>
                                    <parameterid>opacity</parameterid>
                                    <value>100</value>
                                    <valuemin>0</valuemin>
                                    <valuemax>100</valuemax>
                                </parameter>
                            </effect>
                        </filter>
                        <link>
                            <linkclipref>Interstaller.mp4 55</linkclipref>
                        </link>
                        <link>
                            <linkclipref>Interstaller.mp4 272</linkclipref>
                        </link>
                        <comments/>
                    </clipitem>
                    <clipitem id="Interstaller.mp4 57">
                        <name>Interstaller.mp4</name>
                        <duration>243353</duration>
                        <rate>
                            <timebase>24</timebase>
                            <ntsc>FALSE</ntsc>
                        </rate>
                        <start>1683</start>
                        <end>1755</end>
                        <enabled>TRUE</enabled>
                        <in>165655</in>
                        <out>165727</out>
                        <file id="Interstaller.mp4 2"/>
                        <compositemode>normal</compositemode>
                        <filter>
                            <enabled>TRUE</enabled>
                            <start>0</start>
                            <end>243353</end>
                            <effect>
                                <name>Basic Motion</name>
                                <effectid>basic</effectid>
                                <effecttype>motion</effecttype>
                                <mediatype>video</mediatype>
                                <effectcategory>motion</effectcategory>
                                <parameter>
                                    <name>Scale</name>
                                    <parameterid>scale</parameterid>
                                    <value>100</value>
                                    <valuemin>0</valuemin>
                                    <valuemax>10000</valuemax>
                                </parameter>
                                <parameter>
                                    <name>Center</name>
                                    <parameterid>center</parameterid>
                                    <value>
                                        <horiz>0</horiz>
                                        <vert>0</vert>
                                    </value>
                                </parameter>
                                <parameter>
                                    <name>Rotation</name>
                                    <parameterid>rotation</parameterid>
                                    <value>0</value>
                                    <valuemin>-100000</valuemin>
                                    <valuemax>100000</valuemax>
                                </parameter>
                                <parameter>
                                    <name>Anchor Point</name>
                                    <parameterid>centerOffset</parameterid>
                                    <value>
                                        <horiz>0</horiz>
                                        <vert>0</vert>
                                    </value>
                                </parameter>
                            </effect>
                        </filter>
                        <filter>
                            <enabled>TRUE</enabled>
                            <start>0</start>
                            <end>243353</end>
                            <effect>
                                <name>Crop</name>
                                <effectid>crop</effectid>
                                <effecttype>motion</effecttype>
                                <mediatype>video</mediatype>
                                <effectcategory>motion</effectcategory>
                                <parameter>
                                    <name>left</name>
                                    <parameterid>left</parameterid>
                                    <value>0</value>
                                    <valuemin>0</valuemin>
                                    <valuemax>100</valuemax>
                                </parameter>
                                <parameter>
                                    <name>right</name>
                                    <parameterid>right</parameterid>
                                    <value>0</value>
                                    <valuemin>0</valuemin>
                                    <valuemax>100</valuemax>
                                </parameter>
                                <parameter>
                                    <name>top</name>
                                    <parameterid>top</parameterid>
                                    <value>0</value>
                                    <valuemin>0</valuemin>
                                    <valuemax>100</valuemax>
                                </parameter>
                                <parameter>
                                    <name>bottom</name>
                                    <parameterid>bottom</parameterid>
                                    <value>0</value>
                                    <valuemin>0</valuemin>
                                    <valuemax>100</valuemax>
                                </parameter>
                            </effect>
                        </filter>
                        <filter>
                            <enabled>TRUE</enabled>
                            <start>0</start>
                            <end>243353</end>
                            <effect>
                                <name>Opacity</name>
                                <effectid>opacity</effectid>
                                <effecttype>motion</effecttype>
                                <mediatype>video</mediatype>
                                <effectcategory>motion</effectcategory>
                                <parameter>
                                    <name>opacity</name>
                                    <parameterid>opacity</parameterid>
                                    <value>100</value>
                                    <valuemin>0</valuemin>
                                    <valuemax>100</valuemax>
                                </parameter>
                            </effect>
                        </filter>
                        <link>
                            <linkclipref>Interstaller.mp4 57</linkclipref>
                        </link>
                        <link>
                            <linkclipref>Interstaller.mp4 273</linkclipref>
                        </link>
                        <comments/>
                    </clipitem>
                    <clipitem id="Interstaller.mp4 59">
                        <name>Interstaller.mp4</name>
                        <duration>243353</duration>
                        <rate>
                            <timebase>24</timebase>
                            <ntsc>FALSE</ntsc>
                        </rate>
                        <start>1755</start>
                        <end>1782</end>
                        <enabled>TRUE</enabled>
                        <in>165727</in>
                        <out>165754</out>
                        <file id="Interstaller.mp4 2"/>
                        <compositemode>normal</compositemode>
                        <filter>
                            <enabled>TRUE</enabled>
                            <start>0</start>
                            <end>243353</end>
                            <effect>
                                <name>Basic Motion</name>
                                <effectid>basic</effectid>
                                <effecttype>motion</effecttype>
                                <mediatype>video</mediatype>
                                <effectcategory>motion</effectcategory>
                                <parameter>
                                    <name>Scale</name>
                                    <parameterid>scale</parameterid>
                                    <value>100</value>
                                    <valuemin>0</valuemin>
                                    <valuemax>10000</valuemax>
                                </parameter>
                                <parameter>
                                    <name>Center</name>
                                    <parameterid>center</parameterid>
                                    <value>
                                        <horiz>0</horiz>
                                        <vert>0</vert>
                                    </value>
                                </parameter>
                                <parameter>
                                    <name>Rotation</name>
                                    <parameterid>rotation</parameterid>
                                    <value>0</value>
                                    <valuemin>-100000</valuemin>
                                    <valuemax>100000</valuemax>
                                </parameter>
                                <parameter>
                                    <name>Anchor Point</name>
                                    <parameterid>centerOffset</parameterid>
                                    <value>
                                        <horiz>0</horiz>
                                        <vert>0</vert>
                                    </value>
                                </parameter>
                            </effect>
                        </filter>
                        <filter>
                            <enabled>TRUE</enabled>
                            <start>0</start>
                            <end>243353</end>
                            <effect>
                                <name>Crop</name>
                                <effectid>crop</effectid>
                                <effecttype>motion</effecttype>
                                <mediatype>video</mediatype>
                                <effectcategory>motion</effectcategory>
                                <parameter>
                                    <name>left</name>
                                    <parameterid>left</parameterid>
                                    <value>0</value>
                                    <valuemin>0</valuemin>
                                    <valuemax>100</valuemax>
                                </parameter>
                                <parameter>
                                    <name>right</name>
                                    <parameterid>right</parameterid>
                                    <value>0</value>
                                    <valuemin>0</valuemin>
                                    <valuemax>100</valuemax>
                                </parameter>
                                <parameter>
                                    <name>top</name>
                                    <parameterid>top</parameterid>
                                    <value>0</value>
                                    <valuemin>0</valuemin>
                                    <valuemax>100</valuemax>
                                </parameter>
                                <parameter>
                                    <name>bottom</name>
                                    <parameterid>bottom</parameterid>
                                    <value>0</value>
                                    <valuemin>0</valuemin>
                                    <valuemax>100</valuemax>
                                </parameter>
                            </effect>
                        </filter>
                        <filter>
                            <enabled>TRUE</enabled>
                            <start>0</start>
                            <end>243353</end>
                            <effect>
                                <name>Opacity</name>
                                <effectid>opacity</effectid>
                                <effecttype>motion</effecttype>
                                <mediatype>video</mediatype>
                                <effectcategory>motion</effectcategory>
                                <parameter>
                                    <name>opacity</name>
                                    <parameterid>opacity</parameterid>
                                    <value>100</value>
                                    <valuemin>0</valuemin>
                                    <valuemax>100</valuemax>
                                </parameter>
                            </effect>
                        </filter>
                        <link>
                            <linkclipref>Interstaller.mp4 59</linkclipref>
                        </link>
                        <link>
                            <linkclipref>Interstaller.mp4 274</linkclipref>
                        </link>
                        <comments/>
                    </clipitem>
                    <clipitem id="Interstaller.mp4 61">
                        <name>Interstaller.mp4</name>
                        <duration>243353</duration>
                        <rate>
                            <timebase>24</timebase>
                            <ntsc>FALSE</ntsc>
                        </rate>
                        <start>1782</start>
                        <end>2020</end>
                        <enabled>TRUE</enabled>
                        <in>165754</in>
                        <out>165992</out>
                        <file id="Interstaller.mp4 2"/>
                        <compositemode>normal</compositemode>
                        <filter>
                            <enabled>TRUE</enabled>
                            <start>0</start>
                            <end>243353</end>
                            <effect>
                                <name>Basic Motion</name>
                                <effectid>basic</effectid>
                                <effecttype>motion</effecttype>
                                <mediatype>video</mediatype>
                                <effectcategory>motion</effectcategory>
                                <parameter>
                                    <name>Scale</name>
                                    <parameterid>scale</parameterid>
                                    <value>100</value>
                                    <valuemin>0</valuemin>
                                    <valuemax>10000</valuemax>
                                </parameter>
                                <parameter>
                                    <name>Center</name>
                                    <parameterid>center</parameterid>
                                    <value>
                                        <horiz>0</horiz>
                                        <vert>0</vert>
                                    </value>
                                </parameter>
                                <parameter>
                                    <name>Rotation</name>
                                    <parameterid>rotation</parameterid>
                                    <value>0</value>
                                    <valuemin>-100000</valuemin>
                                    <valuemax>100000</valuemax>
                                </parameter>
                                <parameter>
                                    <name>Anchor Point</name>
                                    <parameterid>centerOffset</parameterid>
                                    <value>
                                        <horiz>0</horiz>
                                        <vert>0</vert>
                                    </value>
                                </parameter>
                            </effect>
                        </filter>
                        <filter>
                            <enabled>TRUE</enabled>
                            <start>0</start>
                            <end>243353</end>
                            <effect>
                                <name>Crop</name>
                                <effectid>crop</effectid>
                                <effecttype>motion</effecttype>
                                <mediatype>video</mediatype>
                                <effectcategory>motion</effectcategory>
                                <parameter>
                                    <name>left</name>
                                    <parameterid>left</parameterid>
                                    <value>0</value>
                                    <valuemin>0</valuemin>
                                    <valuemax>100</valuemax>
                                </parameter>
                                <parameter>
                                    <name>right</name>
                                    <parameterid>right</parameterid>
                                    <value>0</value>
                                    <valuemin>0</valuemin>
                                    <valuemax>100</valuemax>
                                </parameter>
                                <parameter>
                                    <name>top</name>
                                    <parameterid>top</parameterid>
                                    <value>0</value>
                                    <valuemin>0</valuemin>
                                    <valuemax>100</valuemax>
                                </parameter>
                                <parameter>
                                    <name>bottom</name>
                                    <parameterid>bottom</parameterid>
                                    <value>0</value>
                                    <valuemin>0</valuemin>
                                    <valuemax>100</valuemax>
                                </parameter>
                            </effect>
                        </filter>
                        <filter>
                            <enabled>TRUE</enabled>
                            <start>0</start>
                            <end>243353</end>
                            <effect>
                                <name>Opacity</name>
                                <effectid>opacity</effectid>
                                <effecttype>motion</effecttype>
                                <mediatype>video</mediatype>
                                <effectcategory>motion</effectcategory>
                                <parameter>
                                    <name>opacity</name>
                                    <parameterid>opacity</parameterid>
                                    <value>100</value>
                                    <valuemin>0</valuemin>
                                    <valuemax>100</valuemax>
                                </parameter>
                            </effect>
                        </filter>
                        <link>
                            <linkclipref>Interstaller.mp4 61</linkclipref>
                        </link>
                        <link>
                            <linkclipref>Interstaller.mp4 275</linkclipref>
                        </link>
                        <comments/>
                    </clipitem>
                    <clipitem id="Interstaller.mp4 63">
                        <name>Interstaller.mp4</name>
                        <duration>243353</duration>
                        <rate>
                            <timebase>24</timebase>
                            <ntsc>FALSE</ntsc>
                        </rate>
                        <start>2020</start>
                        <end>2155</end>
                        <enabled>TRUE</enabled>
                        <in>165992</in>
                        <out>166127</out>
                        <file id="Interstaller.mp4 2"/>
                        <compositemode>normal</compositemode>
                        <filter>
                            <enabled>TRUE</enabled>
                            <start>0</start>
                            <end>243353</end>
                            <effect>
                                <name>Basic Motion</name>
                                <effectid>basic</effectid>
                                <effecttype>motion</effecttype>
                                <mediatype>video</mediatype>
                                <effectcategory>motion</effectcategory>
                                <parameter>
                                    <name>Scale</name>
                                    <parameterid>scale</parameterid>
                                    <value>100</value>
                                    <valuemin>0</valuemin>
                                    <valuemax>10000</valuemax>
                                </parameter>
                                <parameter>
                                    <name>Center</name>
                                    <parameterid>center</parameterid>
                                    <value>
                                        <horiz>0</horiz>
                                        <vert>0</vert>
                                    </value>
                                </parameter>
                                <parameter>
                                    <name>Rotation</name>
                                    <parameterid>rotation</parameterid>
                                    <value>0</value>
                                    <valuemin>-100000</valuemin>
                                    <valuemax>100000</valuemax>
                                </parameter>
                                <parameter>
                                    <name>Anchor Point</name>
                                    <parameterid>centerOffset</parameterid>
                                    <value>
                                        <horiz>0</horiz>
                                        <vert>0</vert>
                                    </value>
                                </parameter>
                            </effect>
                        </filter>
                        <filter>
                            <enabled>TRUE</enabled>
                            <start>0</start>
                            <end>243353</end>
                            <effect>
                                <name>Crop</name>
                                <effectid>crop</effectid>
                                <effecttype>motion</effecttype>
                                <mediatype>video</mediatype>
                                <effectcategory>motion</effectcategory>
                                <parameter>
                                    <name>left</name>
                                    <parameterid>left</parameterid>
                                    <value>0</value>
                                    <valuemin>0</valuemin>
                                    <valuemax>100</valuemax>
                                </parameter>
                                <parameter>
                                    <name>right</name>
                                    <parameterid>right</parameterid>
                                    <value>0</value>
                                    <valuemin>0</valuemin>
                                    <valuemax>100</valuemax>
                                </parameter>
                                <parameter>
                                    <name>top</name>
                                    <parameterid>top</parameterid>
                                    <value>0</value>
                                    <valuemin>0</valuemin>
                                    <valuemax>100</valuemax>
                                </parameter>
                                <parameter>
                                    <name>bottom</name>
                                    <parameterid>bottom</parameterid>
                                    <value>0</value>
                                    <valuemin>0</valuemin>
                                    <valuemax>100</valuemax>
                                </parameter>
                            </effect>
                        </filter>
                        <filter>
                            <enabled>TRUE</enabled>
                            <start>0</start>
                            <end>243353</end>
                            <effect>
                                <name>Opacity</name>
                                <effectid>opacity</effectid>
                                <effecttype>motion</effecttype>
                                <mediatype>video</mediatype>
                                <effectcategory>motion</effectcategory>
                                <parameter>
                                    <name>opacity</name>
                                    <parameterid>opacity</parameterid>
                                    <value>100</value>
                                    <valuemin>0</valuemin>
                                    <valuemax>100</valuemax>
                                </parameter>
                            </effect>
                        </filter>
                        <link>
                            <linkclipref>Interstaller.mp4 63</linkclipref>
                        </link>
                        <link>
                            <linkclipref>Interstaller.mp4 276</linkclipref>
                        </link>
                        <comments/>
                    </clipitem>
                    <clipitem id="Interstaller.mp4 65">
                        <name>Interstaller.mp4</name>
                        <duration>243353</duration>
                        <rate>
                            <timebase>24</timebase>
                            <ntsc>FALSE</ntsc>
                        </rate>
                        <start>2155</start>
                        <end>2212</end>
                        <enabled>TRUE</enabled>
                        <in>166127</in>
                        <out>166184</out>
                        <file id="Interstaller.mp4 2"/>
                        <compositemode>normal</compositemode>
                        <filter>
                            <enabled>TRUE</enabled>
                            <start>0</start>
                            <end>243353</end>
                            <effect>
                                <name>Basic Motion</name>
                                <effectid>basic</effectid>
                                <effecttype>motion</effecttype>
                                <mediatype>video</mediatype>
                                <effectcategory>motion</effectcategory>
                                <parameter>
                                    <name>Scale</name>
                                    <parameterid>scale</parameterid>
                                    <value>100</value>
                                    <valuemin>0</valuemin>
                                    <valuemax>10000</valuemax>
                                </parameter>
                                <parameter>
                                    <name>Center</name>
                                    <parameterid>center</parameterid>
                                    <value>
                                        <horiz>0</horiz>
                                        <vert>0</vert>
                                    </value>
                                </parameter>
                                <parameter>
                                    <name>Rotation</name>
                                    <parameterid>rotation</parameterid>
                                    <value>0</value>
                                    <valuemin>-100000</valuemin>
                                    <valuemax>100000</valuemax>
                                </parameter>
                                <parameter>
                                    <name>Anchor Point</name>
                                    <parameterid>centerOffset</parameterid>
                                    <value>
                                        <horiz>0</horiz>
                                        <vert>0</vert>
                                    </value>
                                </parameter>
                            </effect>
                        </filter>
                        <filter>
                            <enabled>TRUE</enabled>
                            <start>0</start>
                            <end>243353</end>
                            <effect>
                                <name>Crop</name>
                                <effectid>crop</effectid>
                                <effecttype>motion</effecttype>
                                <mediatype>video</mediatype>
                                <effectcategory>motion</effectcategory>
                                <parameter>
                                    <name>left</name>
                                    <parameterid>left</parameterid>
                                    <value>0</value>
                                    <valuemin>0</valuemin>
                                    <valuemax>100</valuemax>
                                </parameter>
                                <parameter>
                                    <name>right</name>
                                    <parameterid>right</parameterid>
                                    <value>0</value>
                                    <valuemin>0</valuemin>
                                    <valuemax>100</valuemax>
                                </parameter>
                                <parameter>
                                    <name>top</name>
                                    <parameterid>top</parameterid>
                                    <value>0</value>
                                    <valuemin>0</valuemin>
                                    <valuemax>100</valuemax>
                                </parameter>
                                <parameter>
                                    <name>bottom</name>
                                    <parameterid>bottom</parameterid>
                                    <value>0</value>
                                    <valuemin>0</valuemin>
                                    <valuemax>100</valuemax>
                                </parameter>
                            </effect>
                        </filter>
                        <filter>
                            <enabled>TRUE</enabled>
                            <start>0</start>
                            <end>243353</end>
                            <effect>
                                <name>Opacity</name>
                                <effectid>opacity</effectid>
                                <effecttype>motion</effecttype>
                                <mediatype>video</mediatype>
                                <effectcategory>motion</effectcategory>
                                <parameter>
                                    <name>opacity</name>
                                    <parameterid>opacity</parameterid>
                                    <value>100</value>
                                    <valuemin>0</valuemin>
                                    <valuemax>100</valuemax>
                                </parameter>
                            </effect>
                        </filter>
                        <link>
                            <linkclipref>Interstaller.mp4 65</linkclipref>
                        </link>
                        <link>
                            <linkclipref>Interstaller.mp4 277</linkclipref>
                        </link>
                        <comments/>
                    </clipitem>
                    <clipitem id="Interstaller.mp4 67">
                        <name>Interstaller.mp4</name>
                        <duration>243353</duration>
                        <rate>
                            <timebase>24</timebase>
                            <ntsc>FALSE</ntsc>
                        </rate>
                        <start>2212</start>
                        <end>2409</end>
                        <enabled>TRUE</enabled>
                        <in>166184</in>
                        <out>166381</out>
                        <file id="Interstaller.mp4 2"/>
                        <compositemode>normal</compositemode>
                        <filter>
                            <enabled>TRUE</enabled>
                            <start>0</start>
                            <end>243353</end>
                            <effect>
                                <name>Basic Motion</name>
                                <effectid>basic</effectid>
                                <effecttype>motion</effecttype>
                                <mediatype>video</mediatype>
                                <effectcategory>motion</effectcategory>
                                <parameter>
                                    <name>Scale</name>
                                    <parameterid>scale</parameterid>
                                    <value>100</value>
                                    <valuemin>0</valuemin>
                                    <valuemax>10000</valuemax>
                                </parameter>
                                <parameter>
                                    <name>Center</name>
                                    <parameterid>center</parameterid>
                                    <value>
                                        <horiz>0</horiz>
                                        <vert>0</vert>
                                    </value>
                                </parameter>
                                <parameter>
                                    <name>Rotation</name>
                                    <parameterid>rotation</parameterid>
                                    <value>0</value>
                                    <valuemin>-100000</valuemin>
                                    <valuemax>100000</valuemax>
                                </parameter>
                                <parameter>
                                    <name>Anchor Point</name>
                                    <parameterid>centerOffset</parameterid>
                                    <value>
                                        <horiz>0</horiz>
                                        <vert>0</vert>
                                    </value>
                                </parameter>
                            </effect>
                        </filter>
                        <filter>
                            <enabled>TRUE</enabled>
                            <start>0</start>
                            <end>243353</end>
                            <effect>
                                <name>Crop</name>
                                <effectid>crop</effectid>
                                <effecttype>motion</effecttype>
                                <mediatype>video</mediatype>
                                <effectcategory>motion</effectcategory>
                                <parameter>
                                    <name>left</name>
                                    <parameterid>left</parameterid>
                                    <value>0</value>
                                    <valuemin>0</valuemin>
                                    <valuemax>100</valuemax>
                                </parameter>
                                <parameter>
                                    <name>right</name>
                                    <parameterid>right</parameterid>
                                    <value>0</value>
                                    <valuemin>0</valuemin>
                                    <valuemax>100</valuemax>
                                </parameter>
                                <parameter>
                                    <name>top</name>
                                    <parameterid>top</parameterid>
                                    <value>0</value>
                                    <valuemin>0</valuemin>
                                    <valuemax>100</valuemax>
                                </parameter>
                                <parameter>
                                    <name>bottom</name>
                                    <parameterid>bottom</parameterid>
                                    <value>0</value>
                                    <valuemin>0</valuemin>
                                    <valuemax>100</valuemax>
                                </parameter>
                            </effect>
                        </filter>
                        <filter>
                            <enabled>TRUE</enabled>
                            <start>0</start>
                            <end>243353</end>
                            <effect>
                                <name>Opacity</name>
                                <effectid>opacity</effectid>
                                <effecttype>motion</effecttype>
                                <mediatype>video</mediatype>
                                <effectcategory>motion</effectcategory>
                                <parameter>
                                    <name>opacity</name>
                                    <parameterid>opacity</parameterid>
                                    <value>100</value>
                                    <valuemin>0</valuemin>
                                    <valuemax>100</valuemax>
                                </parameter>
                            </effect>
                        </filter>
                        <link>
                            <linkclipref>Interstaller.mp4 67</linkclipref>
                        </link>
                        <link>
                            <linkclipref>Interstaller.mp4 278</linkclipref>
                        </link>
                        <comments/>
                    </clipitem>
                    <clipitem id="Interstaller.mp4 69">
                        <name>Interstaller.mp4</name>
                        <duration>243353</duration>
                        <rate>
                            <timebase>24</timebase>
                            <ntsc>FALSE</ntsc>
                        </rate>
                        <start>2409</start>
                        <end>2479</end>
                        <enabled>TRUE</enabled>
                        <in>166381</in>
                        <out>166451</out>
                        <file id="Interstaller.mp4 2"/>
                        <compositemode>normal</compositemode>
                        <filter>
                            <enabled>TRUE</enabled>
                            <start>0</start>
                            <end>243353</end>
                            <effect>
                                <name>Basic Motion</name>
                                <effectid>basic</effectid>
                                <effecttype>motion</effecttype>
                                <mediatype>video</mediatype>
                                <effectcategory>motion</effectcategory>
                                <parameter>
                                    <name>Scale</name>
                                    <parameterid>scale</parameterid>
                                    <value>100</value>
                                    <valuemin>0</valuemin>
                                    <valuemax>10000</valuemax>
                                </parameter>
                                <parameter>
                                    <name>Center</name>
                                    <parameterid>center</parameterid>
                                    <value>
                                        <horiz>0</horiz>
                                        <vert>0</vert>
                                    </value>
                                </parameter>
                                <parameter>
                                    <name>Rotation</name>
                                    <parameterid>rotation</parameterid>
                                    <value>0</value>
                                    <valuemin>-100000</valuemin>
                                    <valuemax>100000</valuemax>
                                </parameter>
                                <parameter>
                                    <name>Anchor Point</name>
                                    <parameterid>centerOffset</parameterid>
                                    <value>
                                        <horiz>0</horiz>
                                        <vert>0</vert>
                                    </value>
                                </parameter>
                            </effect>
                        </filter>
                        <filter>
                            <enabled>TRUE</enabled>
                            <start>0</start>
                            <end>243353</end>
                            <effect>
                                <name>Crop</name>
                                <effectid>crop</effectid>
                                <effecttype>motion</effecttype>
                                <mediatype>video</mediatype>
                                <effectcategory>motion</effectcategory>
                                <parameter>
                                    <name>left</name>
                                    <parameterid>left</parameterid>
                                    <value>0</value>
                                    <valuemin>0</valuemin>
                                    <valuemax>100</valuemax>
                                </parameter>
                                <parameter>
                                    <name>right</name>
                                    <parameterid>right</parameterid>
                                    <value>0</value>
                                    <valuemin>0</valuemin>
                                    <valuemax>100</valuemax>
                                </parameter>
                                <parameter>
                                    <name>top</name>
                                    <parameterid>top</parameterid>
                                    <value>0</value>
                                    <valuemin>0</valuemin>
                                    <valuemax>100</valuemax>
                                </parameter>
                                <parameter>
                                    <name>bottom</name>
                                    <parameterid>bottom</parameterid>
                                    <value>0</value>
                                    <valuemin>0</valuemin>
                                    <valuemax>100</valuemax>
                                </parameter>
                            </effect>
                        </filter>
                        <filter>
                            <enabled>TRUE</enabled>
                            <start>0</start>
                            <end>243353</end>
                            <effect>
                                <name>Opacity</name>
                                <effectid>opacity</effectid>
                                <effecttype>motion</effecttype>
                                <mediatype>video</mediatype>
                                <effectcategory>motion</effectcategory>
                                <parameter>
                                    <name>opacity</name>
                                    <parameterid>opacity</parameterid>
                                    <value>100</value>
                                    <valuemin>0</valuemin>
                                    <valuemax>100</valuemax>
                                </parameter>
                            </effect>
                        </filter>
                        <link>
                            <linkclipref>Interstaller.mp4 69</linkclipref>
                        </link>
                        <link>
                            <linkclipref>Interstaller.mp4 279</linkclipref>
                        </link>
                        <comments/>
                    </clipitem>
                    <clipitem id="Interstaller.mp4 71">
                        <name>Interstaller.mp4</name>
                        <duration>243353</duration>
                        <rate>
                            <timebase>24</timebase>
                            <ntsc>FALSE</ntsc>
                        </rate>
                        <start>2479</start>
                        <end>2561</end>
                        <enabled>TRUE</enabled>
                        <in>166451</in>
                        <out>166533</out>
                        <file id="Interstaller.mp4 2"/>
                        <compositemode>normal</compositemode>
                        <filter>
                            <enabled>TRUE</enabled>
                            <start>0</start>
                            <end>243353</end>
                            <effect>
                                <name>Basic Motion</name>
                                <effectid>basic</effectid>
                                <effecttype>motion</effecttype>
                                <mediatype>video</mediatype>
                                <effectcategory>motion</effectcategory>
                                <parameter>
                                    <name>Scale</name>
                                    <parameterid>scale</parameterid>
                                    <value>100</value>
                                    <valuemin>0</valuemin>
                                    <valuemax>10000</valuemax>
                                </parameter>
                                <parameter>
                                    <name>Center</name>
                                    <parameterid>center</parameterid>
                                    <value>
                                        <horiz>0</horiz>
                                        <vert>0</vert>
                                    </value>
                                </parameter>
                                <parameter>
                                    <name>Rotation</name>
                                    <parameterid>rotation</parameterid>
                                    <value>0</value>
                                    <valuemin>-100000</valuemin>
                                    <valuemax>100000</valuemax>
                                </parameter>
                                <parameter>
                                    <name>Anchor Point</name>
                                    <parameterid>centerOffset</parameterid>
                                    <value>
                                        <horiz>0</horiz>
                                        <vert>0</vert>
                                    </value>
                                </parameter>
                            </effect>
                        </filter>
                        <filter>
                            <enabled>TRUE</enabled>
                            <start>0</start>
                            <end>243353</end>
                            <effect>
                                <name>Crop</name>
                                <effectid>crop</effectid>
                                <effecttype>motion</effecttype>
                                <mediatype>video</mediatype>
                                <effectcategory>motion</effectcategory>
                                <parameter>
                                    <name>left</name>
                                    <parameterid>left</parameterid>
                                    <value>0</value>
                                    <valuemin>0</valuemin>
                                    <valuemax>100</valuemax>
                                </parameter>
                                <parameter>
                                    <name>right</name>
                                    <parameterid>right</parameterid>
                                    <value>0</value>
                                    <valuemin>0</valuemin>
                                    <valuemax>100</valuemax>
                                </parameter>
                                <parameter>
                                    <name>top</name>
                                    <parameterid>top</parameterid>
                                    <value>0</value>
                                    <valuemin>0</valuemin>
                                    <valuemax>100</valuemax>
                                </parameter>
                                <parameter>
                                    <name>bottom</name>
                                    <parameterid>bottom</parameterid>
                                    <value>0</value>
                                    <valuemin>0</valuemin>
                                    <valuemax>100</valuemax>
                                </parameter>
                            </effect>
                        </filter>
                        <filter>
                            <enabled>TRUE</enabled>
                            <start>0</start>
                            <end>243353</end>
                            <effect>
                                <name>Opacity</name>
                                <effectid>opacity</effectid>
                                <effecttype>motion</effecttype>
                                <mediatype>video</mediatype>
                                <effectcategory>motion</effectcategory>
                                <parameter>
                                    <name>opacity</name>
                                    <parameterid>opacity</parameterid>
                                    <value>100</value>
                                    <valuemin>0</valuemin>
                                    <valuemax>100</valuemax>
                                </parameter>
                            </effect>
                        </filter>
                        <link>
                            <linkclipref>Interstaller.mp4 71</linkclipref>
                        </link>
                        <link>
                            <linkclipref>Interstaller.mp4 280</linkclipref>
                        </link>
                        <comments/>
                    </clipitem>
                    <clipitem id="Interstaller.mp4 73">
                        <name>Interstaller.mp4</name>
                        <duration>243353</duration>
                        <rate>
                            <timebase>24</timebase>
                            <ntsc>FALSE</ntsc>
                        </rate>
                        <start>2561</start>
                        <end>2640</end>
                        <enabled>TRUE</enabled>
                        <in>166533</in>
                        <out>166612</out>
                        <file id="Interstaller.mp4 2"/>
                        <compositemode>normal</compositemode>
                        <filter>
                            <enabled>TRUE</enabled>
                            <start>0</start>
                            <end>243353</end>
                            <effect>
                                <name>Basic Motion</name>
                                <effectid>basic</effectid>
                                <effecttype>motion</effecttype>
                                <mediatype>video</mediatype>
                                <effectcategory>motion</effectcategory>
                                <parameter>
                                    <name>Scale</name>
                                    <parameterid>scale</parameterid>
                                    <value>100</value>
                                    <valuemin>0</valuemin>
                                    <valuemax>10000</valuemax>
                                </parameter>
                                <parameter>
                                    <name>Center</name>
                                    <parameterid>center</parameterid>
                                    <value>
                                        <horiz>0</horiz>
                                        <vert>0</vert>
                                    </value>
                                </parameter>
                                <parameter>
                                    <name>Rotation</name>
                                    <parameterid>rotation</parameterid>
                                    <value>0</value>
                                    <valuemin>-100000</valuemin>
                                    <valuemax>100000</valuemax>
                                </parameter>
                                <parameter>
                                    <name>Anchor Point</name>
                                    <parameterid>centerOffset</parameterid>
                                    <value>
                                        <horiz>0</horiz>
                                        <vert>0</vert>
                                    </value>
                                </parameter>
                            </effect>
                        </filter>
                        <filter>
                            <enabled>TRUE</enabled>
                            <start>0</start>
                            <end>243353</end>
                            <effect>
                                <name>Crop</name>
                                <effectid>crop</effectid>
                                <effecttype>motion</effecttype>
                                <mediatype>video</mediatype>
                                <effectcategory>motion</effectcategory>
                                <parameter>
                                    <name>left</name>
                                    <parameterid>left</parameterid>
                                    <value>0</value>
                                    <valuemin>0</valuemin>
                                    <valuemax>100</valuemax>
                                </parameter>
                                <parameter>
                                    <name>right</name>
                                    <parameterid>right</parameterid>
                                    <value>0</value>
                                    <valuemin>0</valuemin>
                                    <valuemax>100</valuemax>
                                </parameter>
                                <parameter>
                                    <name>top</name>
                                    <parameterid>top</parameterid>
                                    <value>0</value>
                                    <valuemin>0</valuemin>
                                    <valuemax>100</valuemax>
                                </parameter>
                                <parameter>
                                    <name>bottom</name>
                                    <parameterid>bottom</parameterid>
                                    <value>0</value>
                                    <valuemin>0</valuemin>
                                    <valuemax>100</valuemax>
                                </parameter>
                            </effect>
                        </filter>
                        <filter>
                            <enabled>TRUE</enabled>
                            <start>0</start>
                            <end>243353</end>
                            <effect>
                                <name>Opacity</name>
                                <effectid>opacity</effectid>
                                <effecttype>motion</effecttype>
                                <mediatype>video</mediatype>
                                <effectcategory>motion</effectcategory>
                                <parameter>
                                    <name>opacity</name>
                                    <parameterid>opacity</parameterid>
                                    <value>100</value>
                                    <valuemin>0</valuemin>
                                    <valuemax>100</valuemax>
                                </parameter>
                            </effect>
                        </filter>
                        <link>
                            <linkclipref>Interstaller.mp4 73</linkclipref>
                        </link>
                        <link>
                            <linkclipref>Interstaller.mp4 281</linkclipref>
                        </link>
                        <comments/>
                    </clipitem>
                    <clipitem id="Interstaller.mp4 75">
                        <name>Interstaller.mp4</name>
                        <duration>243353</duration>
                        <rate>
                            <timebase>24</timebase>
                            <ntsc>FALSE</ntsc>
                        </rate>
                        <start>2640</start>
                        <end>2734</end>
                        <enabled>TRUE</enabled>
                        <in>166612</in>
                        <out>166706</out>
                        <file id="Interstaller.mp4 2"/>
                        <compositemode>normal</compositemode>
                        <filter>
                            <enabled>TRUE</enabled>
                            <start>0</start>
                            <end>243353</end>
                            <effect>
                                <name>Basic Motion</name>
                                <effectid>basic</effectid>
                                <effecttype>motion</effecttype>
                                <mediatype>video</mediatype>
                                <effectcategory>motion</effectcategory>
                                <parameter>
                                    <name>Scale</name>
                                    <parameterid>scale</parameterid>
                                    <value>100</value>
                                    <valuemin>0</valuemin>
                                    <valuemax>10000</valuemax>
                                </parameter>
                                <parameter>
                                    <name>Center</name>
                                    <parameterid>center</parameterid>
                                    <value>
                                        <horiz>0</horiz>
                                        <vert>0</vert>
                                    </value>
                                </parameter>
                                <parameter>
                                    <name>Rotation</name>
                                    <parameterid>rotation</parameterid>
                                    <value>0</value>
                                    <valuemin>-100000</valuemin>
                                    <valuemax>100000</valuemax>
                                </parameter>
                                <parameter>
                                    <name>Anchor Point</name>
                                    <parameterid>centerOffset</parameterid>
                                    <value>
                                        <horiz>0</horiz>
                                        <vert>0</vert>
                                    </value>
                                </parameter>
                            </effect>
                        </filter>
                        <filter>
                            <enabled>TRUE</enabled>
                            <start>0</start>
                            <end>243353</end>
                            <effect>
                                <name>Crop</name>
                                <effectid>crop</effectid>
                                <effecttype>motion</effecttype>
                                <mediatype>video</mediatype>
                                <effectcategory>motion</effectcategory>
                                <parameter>
                                    <name>left</name>
                                    <parameterid>left</parameterid>
                                    <value>0</value>
                                    <valuemin>0</valuemin>
                                    <valuemax>100</valuemax>
                                </parameter>
                                <parameter>
                                    <name>right</name>
                                    <parameterid>right</parameterid>
                                    <value>0</value>
                                    <valuemin>0</valuemin>
                                    <valuemax>100</valuemax>
                                </parameter>
                                <parameter>
                                    <name>top</name>
                                    <parameterid>top</parameterid>
                                    <value>0</value>
                                    <valuemin>0</valuemin>
                                    <valuemax>100</valuemax>
                                </parameter>
                                <parameter>
                                    <name>bottom</name>
                                    <parameterid>bottom</parameterid>
                                    <value>0</value>
                                    <valuemin>0</valuemin>
                                    <valuemax>100</valuemax>
                                </parameter>
                            </effect>
                        </filter>
                        <filter>
                            <enabled>TRUE</enabled>
                            <start>0</start>
                            <end>243353</end>
                            <effect>
                                <name>Opacity</name>
                                <effectid>opacity</effectid>
                                <effecttype>motion</effecttype>
                                <mediatype>video</mediatype>
                                <effectcategory>motion</effectcategory>
                                <parameter>
                                    <name>opacity</name>
                                    <parameterid>opacity</parameterid>
                                    <value>100</value>
                                    <valuemin>0</valuemin>
                                    <valuemax>100</valuemax>
                                </parameter>
                            </effect>
                        </filter>
                        <link>
                            <linkclipref>Interstaller.mp4 75</linkclipref>
                        </link>
                        <link>
                            <linkclipref>Interstaller.mp4 282</linkclipref>
                        </link>
                        <comments/>
                    </clipitem>
                    <clipitem id="Interstaller.mp4 77">
                        <name>Interstaller.mp4</name>
                        <duration>243353</duration>
                        <rate>
                            <timebase>24</timebase>
                            <ntsc>FALSE</ntsc>
                        </rate>
                        <start>2734</start>
                        <end>2841</end>
                        <enabled>TRUE</enabled>
                        <in>166706</in>
                        <out>166813</out>
                        <file id="Interstaller.mp4 2"/>
                        <compositemode>normal</compositemode>
                        <filter>
                            <enabled>TRUE</enabled>
                            <start>0</start>
                            <end>243353</end>
                            <effect>
                                <name>Basic Motion</name>
                                <effectid>basic</effectid>
                                <effecttype>motion</effecttype>
                                <mediatype>video</mediatype>
                                <effectcategory>motion</effectcategory>
                                <parameter>
                                    <name>Scale</name>
                                    <parameterid>scale</parameterid>
                                    <value>100</value>
                                    <valuemin>0</valuemin>
                                    <valuemax>10000</valuemax>
                                </parameter>
                                <parameter>
                                    <name>Center</name>
                                    <parameterid>center</parameterid>
                                    <value>
                                        <horiz>0</horiz>
                                        <vert>0</vert>
                                    </value>
                                </parameter>
                                <parameter>
                                    <name>Rotation</name>
                                    <parameterid>rotation</parameterid>
                                    <value>0</value>
                                    <valuemin>-100000</valuemin>
                                    <valuemax>100000</valuemax>
                                </parameter>
                                <parameter>
                                    <name>Anchor Point</name>
                                    <parameterid>centerOffset</parameterid>
                                    <value>
                                        <horiz>0</horiz>
                                        <vert>0</vert>
                                    </value>
                                </parameter>
                            </effect>
                        </filter>
                        <filter>
                            <enabled>TRUE</enabled>
                            <start>0</start>
                            <end>243353</end>
                            <effect>
                                <name>Crop</name>
                                <effectid>crop</effectid>
                                <effecttype>motion</effecttype>
                                <mediatype>video</mediatype>
                                <effectcategory>motion</effectcategory>
                                <parameter>
                                    <name>left</name>
                                    <parameterid>left</parameterid>
                                    <value>0</value>
                                    <valuemin>0</valuemin>
                                    <valuemax>100</valuemax>
                                </parameter>
                                <parameter>
                                    <name>right</name>
                                    <parameterid>right</parameterid>
                                    <value>0</value>
                                    <valuemin>0</valuemin>
                                    <valuemax>100</valuemax>
                                </parameter>
                                <parameter>
                                    <name>top</name>
                                    <parameterid>top</parameterid>
                                    <value>0</value>
                                    <valuemin>0</valuemin>
                                    <valuemax>100</valuemax>
                                </parameter>
                                <parameter>
                                    <name>bottom</name>
                                    <parameterid>bottom</parameterid>
                                    <value>0</value>
                                    <valuemin>0</valuemin>
                                    <valuemax>100</valuemax>
                                </parameter>
                            </effect>
                        </filter>
                        <filter>
                            <enabled>TRUE</enabled>
                            <start>0</start>
                            <end>243353</end>
                            <effect>
                                <name>Opacity</name>
                                <effectid>opacity</effectid>
                                <effecttype>motion</effecttype>
                                <mediatype>video</mediatype>
                                <effectcategory>motion</effectcategory>
                                <parameter>
                                    <name>opacity</name>
                                    <parameterid>opacity</parameterid>
                                    <value>100</value>
                                    <valuemin>0</valuemin>
                                    <valuemax>100</valuemax>
                                </parameter>
                            </effect>
                        </filter>
                        <link>
                            <linkclipref>Interstaller.mp4 77</linkclipref>
                        </link>
                        <link>
                            <linkclipref>Interstaller.mp4 283</linkclipref>
                        </link>
                        <comments/>
                    </clipitem>
                    <clipitem id="Interstaller.mp4 79">
                        <name>Interstaller.mp4</name>
                        <duration>243353</duration>
                        <rate>
                            <timebase>24</timebase>
                            <ntsc>FALSE</ntsc>
                        </rate>
                        <start>2841</start>
                        <end>3026</end>
                        <enabled>TRUE</enabled>
                        <in>166813</in>
                        <out>166998</out>
                        <file id="Interstaller.mp4 2"/>
                        <compositemode>normal</compositemode>
                        <filter>
                            <enabled>TRUE</enabled>
                            <start>0</start>
                            <end>243353</end>
                            <effect>
                                <name>Basic Motion</name>
                                <effectid>basic</effectid>
                                <effecttype>motion</effecttype>
                                <mediatype>video</mediatype>
                                <effectcategory>motion</effectcategory>
                                <parameter>
                                    <name>Scale</name>
                                    <parameterid>scale</parameterid>
                                    <value>100</value>
                                    <valuemin>0</valuemin>
                                    <valuemax>10000</valuemax>
                                </parameter>
                                <parameter>
                                    <name>Center</name>
                                    <parameterid>center</parameterid>
                                    <value>
                                        <horiz>0</horiz>
                                        <vert>0</vert>
                                    </value>
                                </parameter>
                                <parameter>
                                    <name>Rotation</name>
                                    <parameterid>rotation</parameterid>
                                    <value>0</value>
                                    <valuemin>-100000</valuemin>
                                    <valuemax>100000</valuemax>
                                </parameter>
                                <parameter>
                                    <name>Anchor Point</name>
                                    <parameterid>centerOffset</parameterid>
                                    <value>
                                        <horiz>0</horiz>
                                        <vert>0</vert>
                                    </value>
                                </parameter>
                            </effect>
                        </filter>
                        <filter>
                            <enabled>TRUE</enabled>
                            <start>0</start>
                            <end>243353</end>
                            <effect>
                                <name>Crop</name>
                                <effectid>crop</effectid>
                                <effecttype>motion</effecttype>
                                <mediatype>video</mediatype>
                                <effectcategory>motion</effectcategory>
                                <parameter>
                                    <name>left</name>
                                    <parameterid>left</parameterid>
                                    <value>0</value>
                                    <valuemin>0</valuemin>
                                    <valuemax>100</valuemax>
                                </parameter>
                                <parameter>
                                    <name>right</name>
                                    <parameterid>right</parameterid>
                                    <value>0</value>
                                    <valuemin>0</valuemin>
                                    <valuemax>100</valuemax>
                                </parameter>
                                <parameter>
                                    <name>top</name>
                                    <parameterid>top</parameterid>
                                    <value>0</value>
                                    <valuemin>0</valuemin>
                                    <valuemax>100</valuemax>
                                </parameter>
                                <parameter>
                                    <name>bottom</name>
                                    <parameterid>bottom</parameterid>
                                    <value>0</value>
                                    <valuemin>0</valuemin>
                                    <valuemax>100</valuemax>
                                </parameter>
                            </effect>
                        </filter>
                        <filter>
                            <enabled>TRUE</enabled>
                            <start>0</start>
                            <end>243353</end>
                            <effect>
                                <name>Opacity</name>
                                <effectid>opacity</effectid>
                                <effecttype>motion</effecttype>
                                <mediatype>video</mediatype>
                                <effectcategory>motion</effectcategory>
                                <parameter>
                                    <name>opacity</name>
                                    <parameterid>opacity</parameterid>
                                    <value>100</value>
                                    <valuemin>0</valuemin>
                                    <valuemax>100</valuemax>
                                </parameter>
                            </effect>
                        </filter>
                        <link>
                            <linkclipref>Interstaller.mp4 79</linkclipref>
                        </link>
                        <link>
                            <linkclipref>Interstaller.mp4 284</linkclipref>
                        </link>
                        <comments/>
                    </clipitem>
                    <clipitem id="Interstaller.mp4 81">
                        <name>Interstaller.mp4</name>
                        <duration>243353</duration>
                        <rate>
                            <timebase>24</timebase>
                            <ntsc>FALSE</ntsc>
                        </rate>
                        <start>3026</start>
                        <end>3108</end>
                        <enabled>TRUE</enabled>
                        <in>166998</in>
                        <out>167080</out>
                        <file id="Interstaller.mp4 2"/>
                        <compositemode>normal</compositemode>
                        <filter>
                            <enabled>TRUE</enabled>
                            <start>0</start>
                            <end>243353</end>
                            <effect>
                                <name>Basic Motion</name>
                                <effectid>basic</effectid>
                                <effecttype>motion</effecttype>
                                <mediatype>video</mediatype>
                                <effectcategory>motion</effectcategory>
                                <parameter>
                                    <name>Scale</name>
                                    <parameterid>scale</parameterid>
                                    <value>100</value>
                                    <valuemin>0</valuemin>
                                    <valuemax>10000</valuemax>
                                </parameter>
                                <parameter>
                                    <name>Center</name>
                                    <parameterid>center</parameterid>
                                    <value>
                                        <horiz>0</horiz>
                                        <vert>0</vert>
                                    </value>
                                </parameter>
                                <parameter>
                                    <name>Rotation</name>
                                    <parameterid>rotation</parameterid>
                                    <value>0</value>
                                    <valuemin>-100000</valuemin>
                                    <valuemax>100000</valuemax>
                                </parameter>
                                <parameter>
                                    <name>Anchor Point</name>
                                    <parameterid>centerOffset</parameterid>
                                    <value>
                                        <horiz>0</horiz>
                                        <vert>0</vert>
                                    </value>
                                </parameter>
                            </effect>
                        </filter>
                        <filter>
                            <enabled>TRUE</enabled>
                            <start>0</start>
                            <end>243353</end>
                            <effect>
                                <name>Crop</name>
                                <effectid>crop</effectid>
                                <effecttype>motion</effecttype>
                                <mediatype>video</mediatype>
                                <effectcategory>motion</effectcategory>
                                <parameter>
                                    <name>left</name>
                                    <parameterid>left</parameterid>
                                    <value>0</value>
                                    <valuemin>0</valuemin>
                                    <valuemax>100</valuemax>
                                </parameter>
                                <parameter>
                                    <name>right</name>
                                    <parameterid>right</parameterid>
                                    <value>0</value>
                                    <valuemin>0</valuemin>
                                    <valuemax>100</valuemax>
                                </parameter>
                                <parameter>
                                    <name>top</name>
                                    <parameterid>top</parameterid>
                                    <value>0</value>
                                    <valuemin>0</valuemin>
                                    <valuemax>100</valuemax>
                                </parameter>
                                <parameter>
                                    <name>bottom</name>
                                    <parameterid>bottom</parameterid>
                                    <value>0</value>
                                    <valuemin>0</valuemin>
                                    <valuemax>100</valuemax>
                                </parameter>
                            </effect>
                        </filter>
                        <filter>
                            <enabled>TRUE</enabled>
                            <start>0</start>
                            <end>243353</end>
                            <effect>
                                <name>Opacity</name>
                                <effectid>opacity</effectid>
                                <effecttype>motion</effecttype>
                                <mediatype>video</mediatype>
                                <effectcategory>motion</effectcategory>
                                <parameter>
                                    <name>opacity</name>
                                    <parameterid>opacity</parameterid>
                                    <value>100</value>
                                    <valuemin>0</valuemin>
                                    <valuemax>100</valuemax>
                                </parameter>
                            </effect>
                        </filter>
                        <link>
                            <linkclipref>Interstaller.mp4 81</linkclipref>
                        </link>
                        <link>
                            <linkclipref>Interstaller.mp4 285</linkclipref>
                        </link>
                        <comments/>
                    </clipitem>
                    <clipitem id="Interstaller.mp4 83">
                        <name>Interstaller.mp4</name>
                        <duration>243353</duration>
                        <rate>
                            <timebase>24</timebase>
                            <ntsc>FALSE</ntsc>
                        </rate>
                        <start>3108</start>
                        <end>3266</end>
                        <enabled>TRUE</enabled>
                        <in>167080</in>
                        <out>167238</out>
                        <file id="Interstaller.mp4 2"/>
                        <compositemode>normal</compositemode>
                        <filter>
                            <enabled>TRUE</enabled>
                            <start>0</start>
                            <end>243353</end>
                            <effect>
                                <name>Basic Motion</name>
                                <effectid>basic</effectid>
                                <effecttype>motion</effecttype>
                                <mediatype>video</mediatype>
                                <effectcategory>motion</effectcategory>
                                <parameter>
                                    <name>Scale</name>
                                    <parameterid>scale</parameterid>
                                    <value>100</value>
                                    <valuemin>0</valuemin>
                                    <valuemax>10000</valuemax>
                                </parameter>
                                <parameter>
                                    <name>Center</name>
                                    <parameterid>center</parameterid>
                                    <value>
                                        <horiz>0</horiz>
                                        <vert>0</vert>
                                    </value>
                                </parameter>
                                <parameter>
                                    <name>Rotation</name>
                                    <parameterid>rotation</parameterid>
                                    <value>0</value>
                                    <valuemin>-100000</valuemin>
                                    <valuemax>100000</valuemax>
                                </parameter>
                                <parameter>
                                    <name>Anchor Point</name>
                                    <parameterid>centerOffset</parameterid>
                                    <value>
                                        <horiz>0</horiz>
                                        <vert>0</vert>
                                    </value>
                                </parameter>
                            </effect>
                        </filter>
                        <filter>
                            <enabled>TRUE</enabled>
                            <start>0</start>
                            <end>243353</end>
                            <effect>
                                <name>Crop</name>
                                <effectid>crop</effectid>
                                <effecttype>motion</effecttype>
                                <mediatype>video</mediatype>
                                <effectcategory>motion</effectcategory>
                                <parameter>
                                    <name>left</name>
                                    <parameterid>left</parameterid>
                                    <value>0</value>
                                    <valuemin>0</valuemin>
                                    <valuemax>100</valuemax>
                                </parameter>
                                <parameter>
                                    <name>right</name>
                                    <parameterid>right</parameterid>
                                    <value>0</value>
                                    <valuemin>0</valuemin>
                                    <valuemax>100</valuemax>
                                </parameter>
                                <parameter>
                                    <name>top</name>
                                    <parameterid>top</parameterid>
                                    <value>0</value>
                                    <valuemin>0</valuemin>
                                    <valuemax>100</valuemax>
                                </parameter>
                                <parameter>
                                    <name>bottom</name>
                                    <parameterid>bottom</parameterid>
                                    <value>0</value>
                                    <valuemin>0</valuemin>
                                    <valuemax>100</valuemax>
                                </parameter>
                            </effect>
                        </filter>
                        <filter>
                            <enabled>TRUE</enabled>
                            <start>0</start>
                            <end>243353</end>
                            <effect>
                                <name>Opacity</name>
                                <effectid>opacity</effectid>
                                <effecttype>motion</effecttype>
                                <mediatype>video</mediatype>
                                <effectcategory>motion</effectcategory>
                                <parameter>
                                    <name>opacity</name>
                                    <parameterid>opacity</parameterid>
                                    <value>100</value>
                                    <valuemin>0</valuemin>
                                    <valuemax>100</valuemax>
                                </parameter>
                            </effect>
                        </filter>
                        <link>
                            <linkclipref>Interstaller.mp4 83</linkclipref>
                        </link>
                        <link>
                            <linkclipref>Interstaller.mp4 286</linkclipref>
                        </link>
                        <comments/>
                    </clipitem>
                    <clipitem id="Interstaller.mp4 85">
                        <name>Interstaller.mp4</name>
                        <duration>243353</duration>
                        <rate>
                            <timebase>24</timebase>
                            <ntsc>FALSE</ntsc>
                        </rate>
                        <start>3266</start>
                        <end>3323</end>
                        <enabled>TRUE</enabled>
                        <in>167238</in>
                        <out>167295</out>
                        <file id="Interstaller.mp4 2"/>
                        <compositemode>normal</compositemode>
                        <filter>
                            <enabled>TRUE</enabled>
                            <start>0</start>
                            <end>243353</end>
                            <effect>
                                <name>Basic Motion</name>
                                <effectid>basic</effectid>
                                <effecttype>motion</effecttype>
                                <mediatype>video</mediatype>
                                <effectcategory>motion</effectcategory>
                                <parameter>
                                    <name>Scale</name>
                                    <parameterid>scale</parameterid>
                                    <value>100</value>
                                    <valuemin>0</valuemin>
                                    <valuemax>10000</valuemax>
                                </parameter>
                                <parameter>
                                    <name>Center</name>
                                    <parameterid>center</parameterid>
                                    <value>
                                        <horiz>0</horiz>
                                        <vert>0</vert>
                                    </value>
                                </parameter>
                                <parameter>
                                    <name>Rotation</name>
                                    <parameterid>rotation</parameterid>
                                    <value>0</value>
                                    <valuemin>-100000</valuemin>
                                    <valuemax>100000</valuemax>
                                </parameter>
                                <parameter>
                                    <name>Anchor Point</name>
                                    <parameterid>centerOffset</parameterid>
                                    <value>
                                        <horiz>0</horiz>
                                        <vert>0</vert>
                                    </value>
                                </parameter>
                            </effect>
                        </filter>
                        <filter>
                            <enabled>TRUE</enabled>
                            <start>0</start>
                            <end>243353</end>
                            <effect>
                                <name>Crop</name>
                                <effectid>crop</effectid>
                                <effecttype>motion</effecttype>
                                <mediatype>video</mediatype>
                                <effectcategory>motion</effectcategory>
                                <parameter>
                                    <name>left</name>
                                    <parameterid>left</parameterid>
                                    <value>0</value>
                                    <valuemin>0</valuemin>
                                    <valuemax>100</valuemax>
                                </parameter>
                                <parameter>
                                    <name>right</name>
                                    <parameterid>right</parameterid>
                                    <value>0</value>
                                    <valuemin>0</valuemin>
                                    <valuemax>100</valuemax>
                                </parameter>
                                <parameter>
                                    <name>top</name>
                                    <parameterid>top</parameterid>
                                    <value>0</value>
                                    <valuemin>0</valuemin>
                                    <valuemax>100</valuemax>
                                </parameter>
                                <parameter>
                                    <name>bottom</name>
                                    <parameterid>bottom</parameterid>
                                    <value>0</value>
                                    <valuemin>0</valuemin>
                                    <valuemax>100</valuemax>
                                </parameter>
                            </effect>
                        </filter>
                        <filter>
                            <enabled>TRUE</enabled>
                            <start>0</start>
                            <end>243353</end>
                            <effect>
                                <name>Opacity</name>
                                <effectid>opacity</effectid>
                                <effecttype>motion</effecttype>
                                <mediatype>video</mediatype>
                                <effectcategory>motion</effectcategory>
                                <parameter>
                                    <name>opacity</name>
                                    <parameterid>opacity</parameterid>
                                    <value>100</value>
                                    <valuemin>0</valuemin>
                                    <valuemax>100</valuemax>
                                </parameter>
                            </effect>
                        </filter>
                        <link>
                            <linkclipref>Interstaller.mp4 85</linkclipref>
                        </link>
                        <link>
                            <linkclipref>Interstaller.mp4 287</linkclipref>
                        </link>
                        <comments/>
                    </clipitem>
                    <clipitem id="Interstaller.mp4 87">
                        <name>Interstaller.mp4</name>
                        <duration>243353</duration>
                        <rate>
                            <timebase>24</timebase>
                            <ntsc>FALSE</ntsc>
                        </rate>
                        <start>3323</start>
                        <end>3582</end>
                        <enabled>TRUE</enabled>
                        <in>167295</in>
                        <out>167554</out>
                        <file id="Interstaller.mp4 2"/>
                        <compositemode>normal</compositemode>
                        <filter>
                            <enabled>TRUE</enabled>
                            <start>0</start>
                            <end>243353</end>
                            <effect>
                                <name>Basic Motion</name>
                                <effectid>basic</effectid>
                                <effecttype>motion</effecttype>
                                <mediatype>video</mediatype>
                                <effectcategory>motion</effectcategory>
                                <parameter>
                                    <name>Scale</name>
                                    <parameterid>scale</parameterid>
                                    <value>100</value>
                                    <valuemin>0</valuemin>
                                    <valuemax>10000</valuemax>
                                </parameter>
                                <parameter>
                                    <name>Center</name>
                                    <parameterid>center</parameterid>
                                    <value>
                                        <horiz>0</horiz>
                                        <vert>0</vert>
                                    </value>
                                </parameter>
                                <parameter>
                                    <name>Rotation</name>
                                    <parameterid>rotation</parameterid>
                                    <value>0</value>
                                    <valuemin>-100000</valuemin>
                                    <valuemax>100000</valuemax>
                                </parameter>
                                <parameter>
                                    <name>Anchor Point</name>
                                    <parameterid>centerOffset</parameterid>
                                    <value>
                                        <horiz>0</horiz>
                                        <vert>0</vert>
                                    </value>
                                </parameter>
                            </effect>
                        </filter>
                        <filter>
                            <enabled>TRUE</enabled>
                            <start>0</start>
                            <end>243353</end>
                            <effect>
                                <name>Crop</name>
                                <effectid>crop</effectid>
                                <effecttype>motion</effecttype>
                                <mediatype>video</mediatype>
                                <effectcategory>motion</effectcategory>
                                <parameter>
                                    <name>left</name>
                                    <parameterid>left</parameterid>
                                    <value>0</value>
                                    <valuemin>0</valuemin>
                                    <valuemax>100</valuemax>
                                </parameter>
                                <parameter>
                                    <name>right</name>
                                    <parameterid>right</parameterid>
                                    <value>0</value>
                                    <valuemin>0</valuemin>
                                    <valuemax>100</valuemax>
                                </parameter>
                                <parameter>
                                    <name>top</name>
                                    <parameterid>top</parameterid>
                                    <value>0</value>
                                    <valuemin>0</valuemin>
                                    <valuemax>100</valuemax>
                                </parameter>
                                <parameter>
                                    <name>bottom</name>
                                    <parameterid>bottom</parameterid>
                                    <value>0</value>
                                    <valuemin>0</valuemin>
                                    <valuemax>100</valuemax>
                                </parameter>
                            </effect>
                        </filter>
                        <filter>
                            <enabled>TRUE</enabled>
                            <start>0</start>
                            <end>243353</end>
                            <effect>
                                <name>Opacity</name>
                                <effectid>opacity</effectid>
                                <effecttype>motion</effecttype>
                                <mediatype>video</mediatype>
                                <effectcategory>motion</effectcategory>
                                <parameter>
                                    <name>opacity</name>
                                    <parameterid>opacity</parameterid>
                                    <value>100</value>
                                    <valuemin>0</valuemin>
                                    <valuemax>100</valuemax>
                                </parameter>
                            </effect>
                        </filter>
                        <link>
                            <linkclipref>Interstaller.mp4 87</linkclipref>
                        </link>
                        <link>
                            <linkclipref>Interstaller.mp4 288</linkclipref>
                        </link>
                        <comments/>
                    </clipitem>
                    <clipitem id="Interstaller.mp4 89">
                        <name>Interstaller.mp4</name>
                        <duration>243353</duration>
                        <rate>
                            <timebase>24</timebase>
                            <ntsc>FALSE</ntsc>
                        </rate>
                        <start>3582</start>
                        <end>3845</end>
                        <enabled>TRUE</enabled>
                        <in>167554</in>
                        <out>167817</out>
                        <file id="Interstaller.mp4 2"/>
                        <compositemode>normal</compositemode>
                        <filter>
                            <enabled>TRUE</enabled>
                            <start>0</start>
                            <end>243353</end>
                            <effect>
                                <name>Basic Motion</name>
                                <effectid>basic</effectid>
                                <effecttype>motion</effecttype>
                                <mediatype>video</mediatype>
                                <effectcategory>motion</effectcategory>
                                <parameter>
                                    <name>Scale</name>
                                    <parameterid>scale</parameterid>
                                    <value>100</value>
                                    <valuemin>0</valuemin>
                                    <valuemax>10000</valuemax>
                                </parameter>
                                <parameter>
                                    <name>Center</name>
                                    <parameterid>center</parameterid>
                                    <value>
                                        <horiz>0</horiz>
                                        <vert>0</vert>
                                    </value>
                                </parameter>
                                <parameter>
                                    <name>Rotation</name>
                                    <parameterid>rotation</parameterid>
                                    <value>0</value>
                                    <valuemin>-100000</valuemin>
                                    <valuemax>100000</valuemax>
                                </parameter>
                                <parameter>
                                    <name>Anchor Point</name>
                                    <parameterid>centerOffset</parameterid>
                                    <value>
                                        <horiz>0</horiz>
                                        <vert>0</vert>
                                    </value>
                                </parameter>
                            </effect>
                        </filter>
                        <filter>
                            <enabled>TRUE</enabled>
                            <start>0</start>
                            <end>243353</end>
                            <effect>
                                <name>Crop</name>
                                <effectid>crop</effectid>
                                <effecttype>motion</effecttype>
                                <mediatype>video</mediatype>
                                <effectcategory>motion</effectcategory>
                                <parameter>
                                    <name>left</name>
                                    <parameterid>left</parameterid>
                                    <value>0</value>
                                    <valuemin>0</valuemin>
                                    <valuemax>100</valuemax>
                                </parameter>
                                <parameter>
                                    <name>right</name>
                                    <parameterid>right</parameterid>
                                    <value>0</value>
                                    <valuemin>0</valuemin>
                                    <valuemax>100</valuemax>
                                </parameter>
                                <parameter>
                                    <name>top</name>
                                    <parameterid>top</parameterid>
                                    <value>0</value>
                                    <valuemin>0</valuemin>
                                    <valuemax>100</valuemax>
                                </parameter>
                                <parameter>
                                    <name>bottom</name>
                                    <parameterid>bottom</parameterid>
                                    <value>0</value>
                                    <valuemin>0</valuemin>
                                    <valuemax>100</valuemax>
                                </parameter>
                            </effect>
                        </filter>
                        <filter>
                            <enabled>TRUE</enabled>
                            <start>0</start>
                            <end>243353</end>
                            <effect>
                                <name>Opacity</name>
                                <effectid>opacity</effectid>
                                <effecttype>motion</effecttype>
                                <mediatype>video</mediatype>
                                <effectcategory>motion</effectcategory>
                                <parameter>
                                    <name>opacity</name>
                                    <parameterid>opacity</parameterid>
                                    <value>100</value>
                                    <valuemin>0</valuemin>
                                    <valuemax>100</valuemax>
                                </parameter>
                            </effect>
                        </filter>
                        <link>
                            <linkclipref>Interstaller.mp4 89</linkclipref>
                        </link>
                        <link>
                            <linkclipref>Interstaller.mp4 289</linkclipref>
                        </link>
                        <comments/>
                    </clipitem>
                    <clipitem id="Interstaller.mp4 91">
                        <name>Interstaller.mp4</name>
                        <duration>243353</duration>
                        <rate>
                            <timebase>24</timebase>
                            <ntsc>FALSE</ntsc>
                        </rate>
                        <start>3845</start>
                        <end>4032</end>
                        <enabled>TRUE</enabled>
                        <in>167817</in>
                        <out>168004</out>
                        <file id="Interstaller.mp4 2"/>
                        <compositemode>normal</compositemode>
                        <filter>
                            <enabled>TRUE</enabled>
                            <start>0</start>
                            <end>243353</end>
                            <effect>
                                <name>Basic Motion</name>
                                <effectid>basic</effectid>
                                <effecttype>motion</effecttype>
                                <mediatype>video</mediatype>
                                <effectcategory>motion</effectcategory>
                                <parameter>
                                    <name>Scale</name>
                                    <parameterid>scale</parameterid>
                                    <value>100</value>
                                    <valuemin>0</valuemin>
                                    <valuemax>10000</valuemax>
                                </parameter>
                                <parameter>
                                    <name>Center</name>
                                    <parameterid>center</parameterid>
                                    <value>
                                        <horiz>0</horiz>
                                        <vert>0</vert>
                                    </value>
                                </parameter>
                                <parameter>
                                    <name>Rotation</name>
                                    <parameterid>rotation</parameterid>
                                    <value>0</value>
                                    <valuemin>-100000</valuemin>
                                    <valuemax>100000</valuemax>
                                </parameter>
                                <parameter>
                                    <name>Anchor Point</name>
                                    <parameterid>centerOffset</parameterid>
                                    <value>
                                        <horiz>0</horiz>
                                        <vert>0</vert>
                                    </value>
                                </parameter>
                            </effect>
                        </filter>
                        <filter>
                            <enabled>TRUE</enabled>
                            <start>0</start>
                            <end>243353</end>
                            <effect>
                                <name>Crop</name>
                                <effectid>crop</effectid>
                                <effecttype>motion</effecttype>
                                <mediatype>video</mediatype>
                                <effectcategory>motion</effectcategory>
                                <parameter>
                                    <name>left</name>
                                    <parameterid>left</parameterid>
                                    <value>0</value>
                                    <valuemin>0</valuemin>
                                    <valuemax>100</valuemax>
                                </parameter>
                                <parameter>
                                    <name>right</name>
                                    <parameterid>right</parameterid>
                                    <value>0</value>
                                    <valuemin>0</valuemin>
                                    <valuemax>100</valuemax>
                                </parameter>
                                <parameter>
                                    <name>top</name>
                                    <parameterid>top</parameterid>
                                    <value>0</value>
                                    <valuemin>0</valuemin>
                                    <valuemax>100</valuemax>
                                </parameter>
                                <parameter>
                                    <name>bottom</name>
                                    <parameterid>bottom</parameterid>
                                    <value>0</value>
                                    <valuemin>0</valuemin>
                                    <valuemax>100</valuemax>
                                </parameter>
                            </effect>
                        </filter>
                        <filter>
                            <enabled>TRUE</enabled>
                            <start>0</start>
                            <end>243353</end>
                            <effect>
                                <name>Opacity</name>
                                <effectid>opacity</effectid>
                                <effecttype>motion</effecttype>
                                <mediatype>video</mediatype>
                                <effectcategory>motion</effectcategory>
                                <parameter>
                                    <name>opacity</name>
                                    <parameterid>opacity</parameterid>
                                    <value>100</value>
                                    <valuemin>0</valuemin>
                                    <valuemax>100</valuemax>
                                </parameter>
                            </effect>
                        </filter>
                        <link>
                            <linkclipref>Interstaller.mp4 91</linkclipref>
                        </link>
                        <link>
                            <linkclipref>Interstaller.mp4 290</linkclipref>
                        </link>
                        <comments/>
                    </clipitem>
                    <clipitem id="Interstaller.mp4 93">
                        <name>Interstaller.mp4</name>
                        <duration>243353</duration>
                        <rate>
                            <timebase>24</timebase>
                            <ntsc>FALSE</ntsc>
                        </rate>
                        <start>4032</start>
                        <end>4098</end>
                        <enabled>TRUE</enabled>
                        <in>168004</in>
                        <out>168070</out>
                        <file id="Interstaller.mp4 2"/>
                        <compositemode>normal</compositemode>
                        <filter>
                            <enabled>TRUE</enabled>
                            <start>0</start>
                            <end>243353</end>
                            <effect>
                                <name>Basic Motion</name>
                                <effectid>basic</effectid>
                                <effecttype>motion</effecttype>
                                <mediatype>video</mediatype>
                                <effectcategory>motion</effectcategory>
                                <parameter>
                                    <name>Scale</name>
                                    <parameterid>scale</parameterid>
                                    <value>100</value>
                                    <valuemin>0</valuemin>
                                    <valuemax>10000</valuemax>
                                </parameter>
                                <parameter>
                                    <name>Center</name>
                                    <parameterid>center</parameterid>
                                    <value>
                                        <horiz>0</horiz>
                                        <vert>0</vert>
                                    </value>
                                </parameter>
                                <parameter>
                                    <name>Rotation</name>
                                    <parameterid>rotation</parameterid>
                                    <value>0</value>
                                    <valuemin>-100000</valuemin>
                                    <valuemax>100000</valuemax>
                                </parameter>
                                <parameter>
                                    <name>Anchor Point</name>
                                    <parameterid>centerOffset</parameterid>
                                    <value>
                                        <horiz>0</horiz>
                                        <vert>0</vert>
                                    </value>
                                </parameter>
                            </effect>
                        </filter>
                        <filter>
                            <enabled>TRUE</enabled>
                            <start>0</start>
                            <end>243353</end>
                            <effect>
                                <name>Crop</name>
                                <effectid>crop</effectid>
                                <effecttype>motion</effecttype>
                                <mediatype>video</mediatype>
                                <effectcategory>motion</effectcategory>
                                <parameter>
                                    <name>left</name>
                                    <parameterid>left</parameterid>
                                    <value>0</value>
                                    <valuemin>0</valuemin>
                                    <valuemax>100</valuemax>
                                </parameter>
                                <parameter>
                                    <name>right</name>
                                    <parameterid>right</parameterid>
                                    <value>0</value>
                                    <valuemin>0</valuemin>
                                    <valuemax>100</valuemax>
                                </parameter>
                                <parameter>
                                    <name>top</name>
                                    <parameterid>top</parameterid>
                                    <value>0</value>
                                    <valuemin>0</valuemin>
                                    <valuemax>100</valuemax>
                                </parameter>
                                <parameter>
                                    <name>bottom</name>
                                    <parameterid>bottom</parameterid>
                                    <value>0</value>
                                    <valuemin>0</valuemin>
                                    <valuemax>100</valuemax>
                                </parameter>
                            </effect>
                        </filter>
                        <filter>
                            <enabled>TRUE</enabled>
                            <start>0</start>
                            <end>243353</end>
                            <effect>
                                <name>Opacity</name>
                                <effectid>opacity</effectid>
                                <effecttype>motion</effecttype>
                                <mediatype>video</mediatype>
                                <effectcategory>motion</effectcategory>
                                <parameter>
                                    <name>opacity</name>
                                    <parameterid>opacity</parameterid>
                                    <value>100</value>
                                    <valuemin>0</valuemin>
                                    <valuemax>100</valuemax>
                                </parameter>
                            </effect>
                        </filter>
                        <link>
                            <linkclipref>Interstaller.mp4 93</linkclipref>
                        </link>
                        <link>
                            <linkclipref>Interstaller.mp4 291</linkclipref>
                        </link>
                        <comments/>
                    </clipitem>
                    <clipitem id="Interstaller.mp4 95">
                        <name>Interstaller.mp4</name>
                        <duration>243353</duration>
                        <rate>
                            <timebase>24</timebase>
                            <ntsc>FALSE</ntsc>
                        </rate>
                        <start>4098</start>
                        <end>4161</end>
                        <enabled>TRUE</enabled>
                        <in>168070</in>
                        <out>168133</out>
                        <file id="Interstaller.mp4 2"/>
                        <compositemode>normal</compositemode>
                        <filter>
                            <enabled>TRUE</enabled>
                            <start>0</start>
                            <end>243353</end>
                            <effect>
                                <name>Basic Motion</name>
                                <effectid>basic</effectid>
                                <effecttype>motion</effecttype>
                                <mediatype>video</mediatype>
                                <effectcategory>motion</effectcategory>
                                <parameter>
                                    <name>Scale</name>
                                    <parameterid>scale</parameterid>
                                    <value>100</value>
                                    <valuemin>0</valuemin>
                                    <valuemax>10000</valuemax>
                                </parameter>
                                <parameter>
                                    <name>Center</name>
                                    <parameterid>center</parameterid>
                                    <value>
                                        <horiz>0</horiz>
                                        <vert>0</vert>
                                    </value>
                                </parameter>
                                <parameter>
                                    <name>Rotation</name>
                                    <parameterid>rotation</parameterid>
                                    <value>0</value>
                                    <valuemin>-100000</valuemin>
                                    <valuemax>100000</valuemax>
                                </parameter>
                                <parameter>
                                    <name>Anchor Point</name>
                                    <parameterid>centerOffset</parameterid>
                                    <value>
                                        <horiz>0</horiz>
                                        <vert>0</vert>
                                    </value>
                                </parameter>
                            </effect>
                        </filter>
                        <filter>
                            <enabled>TRUE</enabled>
                            <start>0</start>
                            <end>243353</end>
                            <effect>
                                <name>Crop</name>
                                <effectid>crop</effectid>
                                <effecttype>motion</effecttype>
                                <mediatype>video</mediatype>
                                <effectcategory>motion</effectcategory>
                                <parameter>
                                    <name>left</name>
                                    <parameterid>left</parameterid>
                                    <value>0</value>
                                    <valuemin>0</valuemin>
                                    <valuemax>100</valuemax>
                                </parameter>
                                <parameter>
                                    <name>right</name>
                                    <parameterid>right</parameterid>
                                    <value>0</value>
                                    <valuemin>0</valuemin>
                                    <valuemax>100</valuemax>
                                </parameter>
                                <parameter>
                                    <name>top</name>
                                    <parameterid>top</parameterid>
                                    <value>0</value>
                                    <valuemin>0</valuemin>
                                    <valuemax>100</valuemax>
                                </parameter>
                                <parameter>
                                    <name>bottom</name>
                                    <parameterid>bottom</parameterid>
                                    <value>0</value>
                                    <valuemin>0</valuemin>
                                    <valuemax>100</valuemax>
                                </parameter>
                            </effect>
                        </filter>
                        <filter>
                            <enabled>TRUE</enabled>
                            <start>0</start>
                            <end>243353</end>
                            <effect>
                                <name>Opacity</name>
                                <effectid>opacity</effectid>
                                <effecttype>motion</effecttype>
                                <mediatype>video</mediatype>
                                <effectcategory>motion</effectcategory>
                                <parameter>
                                    <name>opacity</name>
                                    <parameterid>opacity</parameterid>
                                    <value>100</value>
                                    <valuemin>0</valuemin>
                                    <valuemax>100</valuemax>
                                </parameter>
                            </effect>
                        </filter>
                        <link>
                            <linkclipref>Interstaller.mp4 95</linkclipref>
                        </link>
                        <link>
                            <linkclipref>Interstaller.mp4 292</linkclipref>
                        </link>
                        <comments/>
                    </clipitem>
                    <clipitem id="Interstaller.mp4 97">
                        <name>Interstaller.mp4</name>
                        <duration>243353</duration>
                        <rate>
                            <timebase>24</timebase>
                            <ntsc>FALSE</ntsc>
                        </rate>
                        <start>4161</start>
                        <end>4362</end>
                        <enabled>TRUE</enabled>
                        <in>168133</in>
                        <out>168334</out>
                        <file id="Interstaller.mp4 2"/>
                        <compositemode>normal</compositemode>
                        <filter>
                            <enabled>TRUE</enabled>
                            <start>0</start>
                            <end>243353</end>
                            <effect>
                                <name>Basic Motion</name>
                                <effectid>basic</effectid>
                                <effecttype>motion</effecttype>
                                <mediatype>video</mediatype>
                                <effectcategory>motion</effectcategory>
                                <parameter>
                                    <name>Scale</name>
                                    <parameterid>scale</parameterid>
                                    <value>100</value>
                                    <valuemin>0</valuemin>
                                    <valuemax>10000</valuemax>
                                </parameter>
                                <parameter>
                                    <name>Center</name>
                                    <parameterid>center</parameterid>
                                    <value>
                                        <horiz>0</horiz>
                                        <vert>0</vert>
                                    </value>
                                </parameter>
                                <parameter>
                                    <name>Rotation</name>
                                    <parameterid>rotation</parameterid>
                                    <value>0</value>
                                    <valuemin>-100000</valuemin>
                                    <valuemax>100000</valuemax>
                                </parameter>
                                <parameter>
                                    <name>Anchor Point</name>
                                    <parameterid>centerOffset</parameterid>
                                    <value>
                                        <horiz>0</horiz>
                                        <vert>0</vert>
                                    </value>
                                </parameter>
                            </effect>
                        </filter>
                        <filter>
                            <enabled>TRUE</enabled>
                            <start>0</start>
                            <end>243353</end>
                            <effect>
                                <name>Crop</name>
                                <effectid>crop</effectid>
                                <effecttype>motion</effecttype>
                                <mediatype>video</mediatype>
                                <effectcategory>motion</effectcategory>
                                <parameter>
                                    <name>left</name>
                                    <parameterid>left</parameterid>
                                    <value>0</value>
                                    <valuemin>0</valuemin>
                                    <valuemax>100</valuemax>
                                </parameter>
                                <parameter>
                                    <name>right</name>
                                    <parameterid>right</parameterid>
                                    <value>0</value>
                                    <valuemin>0</valuemin>
                                    <valuemax>100</valuemax>
                                </parameter>
                                <parameter>
                                    <name>top</name>
                                    <parameterid>top</parameterid>
                                    <value>0</value>
                                    <valuemin>0</valuemin>
                                    <valuemax>100</valuemax>
                                </parameter>
                                <parameter>
                                    <name>bottom</name>
                                    <parameterid>bottom</parameterid>
                                    <value>0</value>
                                    <valuemin>0</valuemin>
                                    <valuemax>100</valuemax>
                                </parameter>
                            </effect>
                        </filter>
                        <filter>
                            <enabled>TRUE</enabled>
                            <start>0</start>
                            <end>243353</end>
                            <effect>
                                <name>Opacity</name>
                                <effectid>opacity</effectid>
                                <effecttype>motion</effecttype>
                                <mediatype>video</mediatype>
                                <effectcategory>motion</effectcategory>
                                <parameter>
                                    <name>opacity</name>
                                    <parameterid>opacity</parameterid>
                                    <value>100</value>
                                    <valuemin>0</valuemin>
                                    <valuemax>100</valuemax>
                                </parameter>
                            </effect>
                        </filter>
                        <link>
                            <linkclipref>Interstaller.mp4 97</linkclipref>
                        </link>
                        <link>
                            <linkclipref>Interstaller.mp4 293</linkclipref>
                        </link>
                        <comments/>
                    </clipitem>
                    <clipitem id="Interstaller.mp4 99">
                        <name>Interstaller.mp4</name>
                        <duration>243353</duration>
                        <rate>
                            <timebase>24</timebase>
                            <ntsc>FALSE</ntsc>
                        </rate>
                        <start>4362</start>
                        <end>4501</end>
                        <enabled>TRUE</enabled>
                        <in>168334</in>
                        <out>168473</out>
                        <file id="Interstaller.mp4 2"/>
                        <compositemode>normal</compositemode>
                        <filter>
                            <enabled>TRUE</enabled>
                            <start>0</start>
                            <end>243353</end>
                            <effect>
                                <name>Basic Motion</name>
                                <effectid>basic</effectid>
                                <effecttype>motion</effecttype>
                                <mediatype>video</mediatype>
                                <effectcategory>motion</effectcategory>
                                <parameter>
                                    <name>Scale</name>
                                    <parameterid>scale</parameterid>
                                    <value>100</value>
                                    <valuemin>0</valuemin>
                                    <valuemax>10000</valuemax>
                                </parameter>
                                <parameter>
                                    <name>Center</name>
                                    <parameterid>center</parameterid>
                                    <value>
                                        <horiz>0</horiz>
                                        <vert>0</vert>
                                    </value>
                                </parameter>
                                <parameter>
                                    <name>Rotation</name>
                                    <parameterid>rotation</parameterid>
                                    <value>0</value>
                                    <valuemin>-100000</valuemin>
                                    <valuemax>100000</valuemax>
                                </parameter>
                                <parameter>
                                    <name>Anchor Point</name>
                                    <parameterid>centerOffset</parameterid>
                                    <value>
                                        <horiz>0</horiz>
                                        <vert>0</vert>
                                    </value>
                                </parameter>
                            </effect>
                        </filter>
                        <filter>
                            <enabled>TRUE</enabled>
                            <start>0</start>
                            <end>243353</end>
                            <effect>
                                <name>Crop</name>
                                <effectid>crop</effectid>
                                <effecttype>motion</effecttype>
                                <mediatype>video</mediatype>
                                <effectcategory>motion</effectcategory>
                                <parameter>
                                    <name>left</name>
                                    <parameterid>left</parameterid>
                                    <value>0</value>
                                    <valuemin>0</valuemin>
                                    <valuemax>100</valuemax>
                                </parameter>
                                <parameter>
                                    <name>right</name>
                                    <parameterid>right</parameterid>
                                    <value>0</value>
                                    <valuemin>0</valuemin>
                                    <valuemax>100</valuemax>
                                </parameter>
                                <parameter>
                                    <name>top</name>
                                    <parameterid>top</parameterid>
                                    <value>0</value>
                                    <valuemin>0</valuemin>
                                    <valuemax>100</valuemax>
                                </parameter>
                                <parameter>
                                    <name>bottom</name>
                                    <parameterid>bottom</parameterid>
                                    <value>0</value>
                                    <valuemin>0</valuemin>
                                    <valuemax>100</valuemax>
                                </parameter>
                            </effect>
                        </filter>
                        <filter>
                            <enabled>TRUE</enabled>
                            <start>0</start>
                            <end>243353</end>
                            <effect>
                                <name>Opacity</name>
                                <effectid>opacity</effectid>
                                <effecttype>motion</effecttype>
                                <mediatype>video</mediatype>
                                <effectcategory>motion</effectcategory>
                                <parameter>
                                    <name>opacity</name>
                                    <parameterid>opacity</parameterid>
                                    <value>100</value>
                                    <valuemin>0</valuemin>
                                    <valuemax>100</valuemax>
                                </parameter>
                            </effect>
                        </filter>
                        <link>
                            <linkclipref>Interstaller.mp4 99</linkclipref>
                        </link>
                        <link>
                            <linkclipref>Interstaller.mp4 294</linkclipref>
                        </link>
                        <comments/>
                    </clipitem>
                    <clipitem id="Interstaller.mp4 101">
                        <name>Interstaller.mp4</name>
                        <duration>243353</duration>
                        <rate>
                            <timebase>24</timebase>
                            <ntsc>FALSE</ntsc>
                        </rate>
                        <start>4501</start>
                        <end>4652</end>
                        <enabled>TRUE</enabled>
                        <in>168473</in>
                        <out>168624</out>
                        <file id="Interstaller.mp4 2"/>
                        <compositemode>normal</compositemode>
                        <filter>
                            <enabled>TRUE</enabled>
                            <start>0</start>
                            <end>243353</end>
                            <effect>
                                <name>Basic Motion</name>
                                <effectid>basic</effectid>
                                <effecttype>motion</effecttype>
                                <mediatype>video</mediatype>
                                <effectcategory>motion</effectcategory>
                                <parameter>
                                    <name>Scale</name>
                                    <parameterid>scale</parameterid>
                                    <value>100</value>
                                    <valuemin>0</valuemin>
                                    <valuemax>10000</valuemax>
                                </parameter>
                                <parameter>
                                    <name>Center</name>
                                    <parameterid>center</parameterid>
                                    <value>
                                        <horiz>0</horiz>
                                        <vert>0</vert>
                                    </value>
                                </parameter>
                                <parameter>
                                    <name>Rotation</name>
                                    <parameterid>rotation</parameterid>
                                    <value>0</value>
                                    <valuemin>-100000</valuemin>
                                    <valuemax>100000</valuemax>
                                </parameter>
                                <parameter>
                                    <name>Anchor Point</name>
                                    <parameterid>centerOffset</parameterid>
                                    <value>
                                        <horiz>0</horiz>
                                        <vert>0</vert>
                                    </value>
                                </parameter>
                            </effect>
                        </filter>
                        <filter>
                            <enabled>TRUE</enabled>
                            <start>0</start>
                            <end>243353</end>
                            <effect>
                                <name>Crop</name>
                                <effectid>crop</effectid>
                                <effecttype>motion</effecttype>
                                <mediatype>video</mediatype>
                                <effectcategory>motion</effectcategory>
                                <parameter>
                                    <name>left</name>
                                    <parameterid>left</parameterid>
                                    <value>0</value>
                                    <valuemin>0</valuemin>
                                    <valuemax>100</valuemax>
                                </parameter>
                                <parameter>
                                    <name>right</name>
                                    <parameterid>right</parameterid>
                                    <value>0</value>
                                    <valuemin>0</valuemin>
                                    <valuemax>100</valuemax>
                                </parameter>
                                <parameter>
                                    <name>top</name>
                                    <parameterid>top</parameterid>
                                    <value>0</value>
                                    <valuemin>0</valuemin>
                                    <valuemax>100</valuemax>
                                </parameter>
                                <parameter>
                                    <name>bottom</name>
                                    <parameterid>bottom</parameterid>
                                    <value>0</value>
                                    <valuemin>0</valuemin>
                                    <valuemax>100</valuemax>
                                </parameter>
                            </effect>
                        </filter>
                        <filter>
                            <enabled>TRUE</enabled>
                            <start>0</start>
                            <end>243353</end>
                            <effect>
                                <name>Opacity</name>
                                <effectid>opacity</effectid>
                                <effecttype>motion</effecttype>
                                <mediatype>video</mediatype>
                                <effectcategory>motion</effectcategory>
                                <parameter>
                                    <name>opacity</name>
                                    <parameterid>opacity</parameterid>
                                    <value>100</value>
                                    <valuemin>0</valuemin>
                                    <valuemax>100</valuemax>
                                </parameter>
                            </effect>
                        </filter>
                        <link>
                            <linkclipref>Interstaller.mp4 101</linkclipref>
                        </link>
                        <link>
                            <linkclipref>Interstaller.mp4 295</linkclipref>
                        </link>
                        <comments/>
                    </clipitem>
                    <clipitem id="Interstaller.mp4 103">
                        <name>Interstaller.mp4</name>
                        <duration>243353</duration>
                        <rate>
                            <timebase>24</timebase>
                            <ntsc>FALSE</ntsc>
                        </rate>
                        <start>4652</start>
                        <end>4700</end>
                        <enabled>TRUE</enabled>
                        <in>168624</in>
                        <out>168672</out>
                        <file id="Interstaller.mp4 2"/>
                        <compositemode>normal</compositemode>
                        <filter>
                            <enabled>TRUE</enabled>
                            <start>0</start>
                            <end>243353</end>
                            <effect>
                                <name>Basic Motion</name>
                                <effectid>basic</effectid>
                                <effecttype>motion</effecttype>
                                <mediatype>video</mediatype>
                                <effectcategory>motion</effectcategory>
                                <parameter>
                                    <name>Scale</name>
                                    <parameterid>scale</parameterid>
                                    <value>100</value>
                                    <valuemin>0</valuemin>
                                    <valuemax>10000</valuemax>
                                </parameter>
                                <parameter>
                                    <name>Center</name>
                                    <parameterid>center</parameterid>
                                    <value>
                                        <horiz>0</horiz>
                                        <vert>0</vert>
                                    </value>
                                </parameter>
                                <parameter>
                                    <name>Rotation</name>
                                    <parameterid>rotation</parameterid>
                                    <value>0</value>
                                    <valuemin>-100000</valuemin>
                                    <valuemax>100000</valuemax>
                                </parameter>
                                <parameter>
                                    <name>Anchor Point</name>
                                    <parameterid>centerOffset</parameterid>
                                    <value>
                                        <horiz>0</horiz>
                                        <vert>0</vert>
                                    </value>
                                </parameter>
                            </effect>
                        </filter>
                        <filter>
                            <enabled>TRUE</enabled>
                            <start>0</start>
                            <end>243353</end>
                            <effect>
                                <name>Crop</name>
                                <effectid>crop</effectid>
                                <effecttype>motion</effecttype>
                                <mediatype>video</mediatype>
                                <effectcategory>motion</effectcategory>
                                <parameter>
                                    <name>left</name>
                                    <parameterid>left</parameterid>
                                    <value>0</value>
                                    <valuemin>0</valuemin>
                                    <valuemax>100</valuemax>
                                </parameter>
                                <parameter>
                                    <name>right</name>
                                    <parameterid>right</parameterid>
                                    <value>0</value>
                                    <valuemin>0</valuemin>
                                    <valuemax>100</valuemax>
                                </parameter>
                                <parameter>
                                    <name>top</name>
                                    <parameterid>top</parameterid>
                                    <value>0</value>
                                    <valuemin>0</valuemin>
                                    <valuemax>100</valuemax>
                                </parameter>
                                <parameter>
                                    <name>bottom</name>
                                    <parameterid>bottom</parameterid>
                                    <value>0</value>
                                    <valuemin>0</valuemin>
                                    <valuemax>100</valuemax>
                                </parameter>
                            </effect>
                        </filter>
                        <filter>
                            <enabled>TRUE</enabled>
                            <start>0</start>
                            <end>243353</end>
                            <effect>
                                <name>Opacity</name>
                                <effectid>opacity</effectid>
                                <effecttype>motion</effecttype>
                                <mediatype>video</mediatype>
                                <effectcategory>motion</effectcategory>
                                <parameter>
                                    <name>opacity</name>
                                    <parameterid>opacity</parameterid>
                                    <value>100</value>
                                    <valuemin>0</valuemin>
                                    <valuemax>100</valuemax>
                                </parameter>
                            </effect>
                        </filter>
                        <link>
                            <linkclipref>Interstaller.mp4 103</linkclipref>
                        </link>
                        <link>
                            <linkclipref>Interstaller.mp4 296</linkclipref>
                        </link>
                        <comments/>
                    </clipitem>
                    <clipitem id="Interstaller.mp4 105">
                        <name>Interstaller.mp4</name>
                        <duration>243353</duration>
                        <rate>
                            <timebase>24</timebase>
                            <ntsc>FALSE</ntsc>
                        </rate>
                        <start>4700</start>
                        <end>4790</end>
                        <enabled>TRUE</enabled>
                        <in>168672</in>
                        <out>168762</out>
                        <file id="Interstaller.mp4 2"/>
                        <compositemode>normal</compositemode>
                        <filter>
                            <enabled>TRUE</enabled>
                            <start>0</start>
                            <end>243353</end>
                            <effect>
                                <name>Basic Motion</name>
                                <effectid>basic</effectid>
                                <effecttype>motion</effecttype>
                                <mediatype>video</mediatype>
                                <effectcategory>motion</effectcategory>
                                <parameter>
                                    <name>Scale</name>
                                    <parameterid>scale</parameterid>
                                    <value>100</value>
                                    <valuemin>0</valuemin>
                                    <valuemax>10000</valuemax>
                                </parameter>
                                <parameter>
                                    <name>Center</name>
                                    <parameterid>center</parameterid>
                                    <value>
                                        <horiz>0</horiz>
                                        <vert>0</vert>
                                    </value>
                                </parameter>
                                <parameter>
                                    <name>Rotation</name>
                                    <parameterid>rotation</parameterid>
                                    <value>0</value>
                                    <valuemin>-100000</valuemin>
                                    <valuemax>100000</valuemax>
                                </parameter>
                                <parameter>
                                    <name>Anchor Point</name>
                                    <parameterid>centerOffset</parameterid>
                                    <value>
                                        <horiz>0</horiz>
                                        <vert>0</vert>
                                    </value>
                                </parameter>
                            </effect>
                        </filter>
                        <filter>
                            <enabled>TRUE</enabled>
                            <start>0</start>
                            <end>243353</end>
                            <effect>
                                <name>Crop</name>
                                <effectid>crop</effectid>
                                <effecttype>motion</effecttype>
                                <mediatype>video</mediatype>
                                <effectcategory>motion</effectcategory>
                                <parameter>
                                    <name>left</name>
                                    <parameterid>left</parameterid>
                                    <value>0</value>
                                    <valuemin>0</valuemin>
                                    <valuemax>100</valuemax>
                                </parameter>
                                <parameter>
                                    <name>right</name>
                                    <parameterid>right</parameterid>
                                    <value>0</value>
                                    <valuemin>0</valuemin>
                                    <valuemax>100</valuemax>
                                </parameter>
                                <parameter>
                                    <name>top</name>
                                    <parameterid>top</parameterid>
                                    <value>0</value>
                                    <valuemin>0</valuemin>
                                    <valuemax>100</valuemax>
                                </parameter>
                                <parameter>
                                    <name>bottom</name>
                                    <parameterid>bottom</parameterid>
                                    <value>0</value>
                                    <valuemin>0</valuemin>
                                    <valuemax>100</valuemax>
                                </parameter>
                            </effect>
                        </filter>
                        <filter>
                            <enabled>TRUE</enabled>
                            <start>0</start>
                            <end>243353</end>
                            <effect>
                                <name>Opacity</name>
                                <effectid>opacity</effectid>
                                <effecttype>motion</effecttype>
                                <mediatype>video</mediatype>
                                <effectcategory>motion</effectcategory>
                                <parameter>
                                    <name>opacity</name>
                                    <parameterid>opacity</parameterid>
                                    <value>100</value>
                                    <valuemin>0</valuemin>
                                    <valuemax>100</valuemax>
                                </parameter>
                            </effect>
                        </filter>
                        <link>
                            <linkclipref>Interstaller.mp4 105</linkclipref>
                        </link>
                        <link>
                            <linkclipref>Interstaller.mp4 297</linkclipref>
                        </link>
                        <comments/>
                    </clipitem>
                    <clipitem id="Interstaller.mp4 107">
                        <name>Interstaller.mp4</name>
                        <duration>243353</duration>
                        <rate>
                            <timebase>24</timebase>
                            <ntsc>FALSE</ntsc>
                        </rate>
                        <start>4790</start>
                        <end>5018</end>
                        <enabled>TRUE</enabled>
                        <in>168762</in>
                        <out>168990</out>
                        <file id="Interstaller.mp4 2"/>
                        <compositemode>normal</compositemode>
                        <filter>
                            <enabled>TRUE</enabled>
                            <start>0</start>
                            <end>243353</end>
                            <effect>
                                <name>Basic Motion</name>
                                <effectid>basic</effectid>
                                <effecttype>motion</effecttype>
                                <mediatype>video</mediatype>
                                <effectcategory>motion</effectcategory>
                                <parameter>
                                    <name>Scale</name>
                                    <parameterid>scale</parameterid>
                                    <value>100</value>
                                    <valuemin>0</valuemin>
                                    <valuemax>10000</valuemax>
                                </parameter>
                                <parameter>
                                    <name>Center</name>
                                    <parameterid>center</parameterid>
                                    <value>
                                        <horiz>0</horiz>
                                        <vert>0</vert>
                                    </value>
                                </parameter>
                                <parameter>
                                    <name>Rotation</name>
                                    <parameterid>rotation</parameterid>
                                    <value>0</value>
                                    <valuemin>-100000</valuemin>
                                    <valuemax>100000</valuemax>
                                </parameter>
                                <parameter>
                                    <name>Anchor Point</name>
                                    <parameterid>centerOffset</parameterid>
                                    <value>
                                        <horiz>0</horiz>
                                        <vert>0</vert>
                                    </value>
                                </parameter>
                            </effect>
                        </filter>
                        <filter>
                            <enabled>TRUE</enabled>
                            <start>0</start>
                            <end>243353</end>
                            <effect>
                                <name>Crop</name>
                                <effectid>crop</effectid>
                                <effecttype>motion</effecttype>
                                <mediatype>video</mediatype>
                                <effectcategory>motion</effectcategory>
                                <parameter>
                                    <name>left</name>
                                    <parameterid>left</parameterid>
                                    <value>0</value>
                                    <valuemin>0</valuemin>
                                    <valuemax>100</valuemax>
                                </parameter>
                                <parameter>
                                    <name>right</name>
                                    <parameterid>right</parameterid>
                                    <value>0</value>
                                    <valuemin>0</valuemin>
                                    <valuemax>100</valuemax>
                                </parameter>
                                <parameter>
                                    <name>top</name>
                                    <parameterid>top</parameterid>
                                    <value>0</value>
                                    <valuemin>0</valuemin>
                                    <valuemax>100</valuemax>
                                </parameter>
                                <parameter>
                                    <name>bottom</name>
                                    <parameterid>bottom</parameterid>
                                    <value>0</value>
                                    <valuemin>0</valuemin>
                                    <valuemax>100</valuemax>
                                </parameter>
                            </effect>
                        </filter>
                        <filter>
                            <enabled>TRUE</enabled>
                            <start>0</start>
                            <end>243353</end>
                            <effect>
                                <name>Opacity</name>
                                <effectid>opacity</effectid>
                                <effecttype>motion</effecttype>
                                <mediatype>video</mediatype>
                                <effectcategory>motion</effectcategory>
                                <parameter>
                                    <name>opacity</name>
                                    <parameterid>opacity</parameterid>
                                    <value>100</value>
                                    <valuemin>0</valuemin>
                                    <valuemax>100</valuemax>
                                </parameter>
                            </effect>
                        </filter>
                        <link>
                            <linkclipref>Interstaller.mp4 107</linkclipref>
                        </link>
                        <link>
                            <linkclipref>Interstaller.mp4 298</linkclipref>
                        </link>
                        <comments/>
                    </clipitem>
                    <clipitem id="Interstaller.mp4 109">
                        <name>Interstaller.mp4</name>
                        <duration>243353</duration>
                        <rate>
                            <timebase>24</timebase>
                            <ntsc>FALSE</ntsc>
                        </rate>
                        <start>5018</start>
                        <end>5125</end>
                        <enabled>TRUE</enabled>
                        <in>168990</in>
                        <out>169097</out>
                        <file id="Interstaller.mp4 2"/>
                        <compositemode>normal</compositemode>
                        <filter>
                            <enabled>TRUE</enabled>
                            <start>0</start>
                            <end>243353</end>
                            <effect>
                                <name>Basic Motion</name>
                                <effectid>basic</effectid>
                                <effecttype>motion</effecttype>
                                <mediatype>video</mediatype>
                                <effectcategory>motion</effectcategory>
                                <parameter>
                                    <name>Scale</name>
                                    <parameterid>scale</parameterid>
                                    <value>100</value>
                                    <valuemin>0</valuemin>
                                    <valuemax>10000</valuemax>
                                </parameter>
                                <parameter>
                                    <name>Center</name>
                                    <parameterid>center</parameterid>
                                    <value>
                                        <horiz>0</horiz>
                                        <vert>0</vert>
                                    </value>
                                </parameter>
                                <parameter>
                                    <name>Rotation</name>
                                    <parameterid>rotation</parameterid>
                                    <value>0</value>
                                    <valuemin>-100000</valuemin>
                                    <valuemax>100000</valuemax>
                                </parameter>
                                <parameter>
                                    <name>Anchor Point</name>
                                    <parameterid>centerOffset</parameterid>
                                    <value>
                                        <horiz>0</horiz>
                                        <vert>0</vert>
                                    </value>
                                </parameter>
                            </effect>
                        </filter>
                        <filter>
                            <enabled>TRUE</enabled>
                            <start>0</start>
                            <end>243353</end>
                            <effect>
                                <name>Crop</name>
                                <effectid>crop</effectid>
                                <effecttype>motion</effecttype>
                                <mediatype>video</mediatype>
                                <effectcategory>motion</effectcategory>
                                <parameter>
                                    <name>left</name>
                                    <parameterid>left</parameterid>
                                    <value>0</value>
                                    <valuemin>0</valuemin>
                                    <valuemax>100</valuemax>
                                </parameter>
                                <parameter>
                                    <name>right</name>
                                    <parameterid>right</parameterid>
                                    <value>0</value>
                                    <valuemin>0</valuemin>
                                    <valuemax>100</valuemax>
                                </parameter>
                                <parameter>
                                    <name>top</name>
                                    <parameterid>top</parameterid>
                                    <value>0</value>
                                    <valuemin>0</valuemin>
                                    <valuemax>100</valuemax>
                                </parameter>
                                <parameter>
                                    <name>bottom</name>
                                    <parameterid>bottom</parameterid>
                                    <value>0</value>
                                    <valuemin>0</valuemin>
                                    <valuemax>100</valuemax>
                                </parameter>
                            </effect>
                        </filter>
                        <filter>
                            <enabled>TRUE</enabled>
                            <start>0</start>
                            <end>243353</end>
                            <effect>
                                <name>Opacity</name>
                                <effectid>opacity</effectid>
                                <effecttype>motion</effecttype>
                                <mediatype>video</mediatype>
                                <effectcategory>motion</effectcategory>
                                <parameter>
                                    <name>opacity</name>
                                    <parameterid>opacity</parameterid>
                                    <value>100</value>
                                    <valuemin>0</valuemin>
                                    <valuemax>100</valuemax>
                                </parameter>
                            </effect>
                        </filter>
                        <link>
                            <linkclipref>Interstaller.mp4 109</linkclipref>
                        </link>
                        <link>
                            <linkclipref>Interstaller.mp4 299</linkclipref>
                        </link>
                        <comments/>
                    </clipitem>
                    <clipitem id="Interstaller.mp4 111">
                        <name>Interstaller.mp4</name>
                        <duration>243353</duration>
                        <rate>
                            <timebase>24</timebase>
                            <ntsc>FALSE</ntsc>
                        </rate>
                        <start>5125</start>
                        <end>5188</end>
                        <enabled>TRUE</enabled>
                        <in>169097</in>
                        <out>169160</out>
                        <file id="Interstaller.mp4 2"/>
                        <compositemode>normal</compositemode>
                        <filter>
                            <enabled>TRUE</enabled>
                            <start>0</start>
                            <end>243353</end>
                            <effect>
                                <name>Basic Motion</name>
                                <effectid>basic</effectid>
                                <effecttype>motion</effecttype>
                                <mediatype>video</mediatype>
                                <effectcategory>motion</effectcategory>
                                <parameter>
                                    <name>Scale</name>
                                    <parameterid>scale</parameterid>
                                    <value>100</value>
                                    <valuemin>0</valuemin>
                                    <valuemax>10000</valuemax>
                                </parameter>
                                <parameter>
                                    <name>Center</name>
                                    <parameterid>center</parameterid>
                                    <value>
                                        <horiz>0</horiz>
                                        <vert>0</vert>
                                    </value>
                                </parameter>
                                <parameter>
                                    <name>Rotation</name>
                                    <parameterid>rotation</parameterid>
                                    <value>0</value>
                                    <valuemin>-100000</valuemin>
                                    <valuemax>100000</valuemax>
                                </parameter>
                                <parameter>
                                    <name>Anchor Point</name>
                                    <parameterid>centerOffset</parameterid>
                                    <value>
                                        <horiz>0</horiz>
                                        <vert>0</vert>
                                    </value>
                                </parameter>
                            </effect>
                        </filter>
                        <filter>
                            <enabled>TRUE</enabled>
                            <start>0</start>
                            <end>243353</end>
                            <effect>
                                <name>Crop</name>
                                <effectid>crop</effectid>
                                <effecttype>motion</effecttype>
                                <mediatype>video</mediatype>
                                <effectcategory>motion</effectcategory>
                                <parameter>
                                    <name>left</name>
                                    <parameterid>left</parameterid>
                                    <value>0</value>
                                    <valuemin>0</valuemin>
                                    <valuemax>100</valuemax>
                                </parameter>
                                <parameter>
                                    <name>right</name>
                                    <parameterid>right</parameterid>
                                    <value>0</value>
                                    <valuemin>0</valuemin>
                                    <valuemax>100</valuemax>
                                </parameter>
                                <parameter>
                                    <name>top</name>
                                    <parameterid>top</parameterid>
                                    <value>0</value>
                                    <valuemin>0</valuemin>
                                    <valuemax>100</valuemax>
                                </parameter>
                                <parameter>
                                    <name>bottom</name>
                                    <parameterid>bottom</parameterid>
                                    <value>0</value>
                                    <valuemin>0</valuemin>
                                    <valuemax>100</valuemax>
                                </parameter>
                            </effect>
                        </filter>
                        <filter>
                            <enabled>TRUE</enabled>
                            <start>0</start>
                            <end>243353</end>
                            <effect>
                                <name>Opacity</name>
                                <effectid>opacity</effectid>
                                <effecttype>motion</effecttype>
                                <mediatype>video</mediatype>
                                <effectcategory>motion</effectcategory>
                                <parameter>
                                    <name>opacity</name>
                                    <parameterid>opacity</parameterid>
                                    <value>100</value>
                                    <valuemin>0</valuemin>
                                    <valuemax>100</valuemax>
                                </parameter>
                            </effect>
                        </filter>
                        <link>
                            <linkclipref>Interstaller.mp4 111</linkclipref>
                        </link>
                        <link>
                            <linkclipref>Interstaller.mp4 300</linkclipref>
                        </link>
                        <comments/>
                    </clipitem>
                    <clipitem id="Interstaller.mp4 113">
                        <name>Interstaller.mp4</name>
                        <duration>243353</duration>
                        <rate>
                            <timebase>24</timebase>
                            <ntsc>FALSE</ntsc>
                        </rate>
                        <start>5188</start>
                        <end>5217</end>
                        <enabled>TRUE</enabled>
                        <in>169160</in>
                        <out>169189</out>
                        <file id="Interstaller.mp4 2"/>
                        <compositemode>normal</compositemode>
                        <filter>
                            <enabled>TRUE</enabled>
                            <start>0</start>
                            <end>243353</end>
                            <effect>
                                <name>Basic Motion</name>
                                <effectid>basic</effectid>
                                <effecttype>motion</effecttype>
                                <mediatype>video</mediatype>
                                <effectcategory>motion</effectcategory>
                                <parameter>
                                    <name>Scale</name>
                                    <parameterid>scale</parameterid>
                                    <value>100</value>
                                    <valuemin>0</valuemin>
                                    <valuemax>10000</valuemax>
                                </parameter>
                                <parameter>
                                    <name>Center</name>
                                    <parameterid>center</parameterid>
                                    <value>
                                        <horiz>0</horiz>
                                        <vert>0</vert>
                                    </value>
                                </parameter>
                                <parameter>
                                    <name>Rotation</name>
                                    <parameterid>rotation</parameterid>
                                    <value>0</value>
                                    <valuemin>-100000</valuemin>
                                    <valuemax>100000</valuemax>
                                </parameter>
                                <parameter>
                                    <name>Anchor Point</name>
                                    <parameterid>centerOffset</parameterid>
                                    <value>
                                        <horiz>0</horiz>
                                        <vert>0</vert>
                                    </value>
                                </parameter>
                            </effect>
                        </filter>
                        <filter>
                            <enabled>TRUE</enabled>
                            <start>0</start>
                            <end>243353</end>
                            <effect>
                                <name>Crop</name>
                                <effectid>crop</effectid>
                                <effecttype>motion</effecttype>
                                <mediatype>video</mediatype>
                                <effectcategory>motion</effectcategory>
                                <parameter>
                                    <name>left</name>
                                    <parameterid>left</parameterid>
                                    <value>0</value>
                                    <valuemin>0</valuemin>
                                    <valuemax>100</valuemax>
                                </parameter>
                                <parameter>
                                    <name>right</name>
                                    <parameterid>right</parameterid>
                                    <value>0</value>
                                    <valuemin>0</valuemin>
                                    <valuemax>100</valuemax>
                                </parameter>
                                <parameter>
                                    <name>top</name>
                                    <parameterid>top</parameterid>
                                    <value>0</value>
                                    <valuemin>0</valuemin>
                                    <valuemax>100</valuemax>
                                </parameter>
                                <parameter>
                                    <name>bottom</name>
                                    <parameterid>bottom</parameterid>
                                    <value>0</value>
                                    <valuemin>0</valuemin>
                                    <valuemax>100</valuemax>
                                </parameter>
                            </effect>
                        </filter>
                        <filter>
                            <enabled>TRUE</enabled>
                            <start>0</start>
                            <end>243353</end>
                            <effect>
                                <name>Opacity</name>
                                <effectid>opacity</effectid>
                                <effecttype>motion</effecttype>
                                <mediatype>video</mediatype>
                                <effectcategory>motion</effectcategory>
                                <parameter>
                                    <name>opacity</name>
                                    <parameterid>opacity</parameterid>
                                    <value>100</value>
                                    <valuemin>0</valuemin>
                                    <valuemax>100</valuemax>
                                </parameter>
                            </effect>
                        </filter>
                        <link>
                            <linkclipref>Interstaller.mp4 113</linkclipref>
                        </link>
                        <link>
                            <linkclipref>Interstaller.mp4 301</linkclipref>
                        </link>
                        <comments/>
                    </clipitem>
                    <clipitem id="Interstaller.mp4 115">
                        <name>Interstaller.mp4</name>
                        <duration>243353</duration>
                        <rate>
                            <timebase>24</timebase>
                            <ntsc>FALSE</ntsc>
                        </rate>
                        <start>5217</start>
                        <end>5259</end>
                        <enabled>TRUE</enabled>
                        <in>169189</in>
                        <out>169231</out>
                        <file id="Interstaller.mp4 2"/>
                        <compositemode>normal</compositemode>
                        <filter>
                            <enabled>TRUE</enabled>
                            <start>0</start>
                            <end>243353</end>
                            <effect>
                                <name>Basic Motion</name>
                                <effectid>basic</effectid>
                                <effecttype>motion</effecttype>
                                <mediatype>video</mediatype>
                                <effectcategory>motion</effectcategory>
                                <parameter>
                                    <name>Scale</name>
                                    <parameterid>scale</parameterid>
                                    <value>100</value>
                                    <valuemin>0</valuemin>
                                    <valuemax>10000</valuemax>
                                </parameter>
                                <parameter>
                                    <name>Center</name>
                                    <parameterid>center</parameterid>
                                    <value>
                                        <horiz>0</horiz>
                                        <vert>0</vert>
                                    </value>
                                </parameter>
                                <parameter>
                                    <name>Rotation</name>
                                    <parameterid>rotation</parameterid>
                                    <value>0</value>
                                    <valuemin>-100000</valuemin>
                                    <valuemax>100000</valuemax>
                                </parameter>
                                <parameter>
                                    <name>Anchor Point</name>
                                    <parameterid>centerOffset</parameterid>
                                    <value>
                                        <horiz>0</horiz>
                                        <vert>0</vert>
                                    </value>
                                </parameter>
                            </effect>
                        </filter>
                        <filter>
                            <enabled>TRUE</enabled>
                            <start>0</start>
                            <end>243353</end>
                            <effect>
                                <name>Crop</name>
                                <effectid>crop</effectid>
                                <effecttype>motion</effecttype>
                                <mediatype>video</mediatype>
                                <effectcategory>motion</effectcategory>
                                <parameter>
                                    <name>left</name>
                                    <parameterid>left</parameterid>
                                    <value>0</value>
                                    <valuemin>0</valuemin>
                                    <valuemax>100</valuemax>
                                </parameter>
                                <parameter>
                                    <name>right</name>
                                    <parameterid>right</parameterid>
                                    <value>0</value>
                                    <valuemin>0</valuemin>
                                    <valuemax>100</valuemax>
                                </parameter>
                                <parameter>
                                    <name>top</name>
                                    <parameterid>top</parameterid>
                                    <value>0</value>
                                    <valuemin>0</valuemin>
                                    <valuemax>100</valuemax>
                                </parameter>
                                <parameter>
                                    <name>bottom</name>
                                    <parameterid>bottom</parameterid>
                                    <value>0</value>
                                    <valuemin>0</valuemin>
                                    <valuemax>100</valuemax>
                                </parameter>
                            </effect>
                        </filter>
                        <filter>
                            <enabled>TRUE</enabled>
                            <start>0</start>
                            <end>243353</end>
                            <effect>
                                <name>Opacity</name>
                                <effectid>opacity</effectid>
                                <effecttype>motion</effecttype>
                                <mediatype>video</mediatype>
                                <effectcategory>motion</effectcategory>
                                <parameter>
                                    <name>opacity</name>
                                    <parameterid>opacity</parameterid>
                                    <value>100</value>
                                    <valuemin>0</valuemin>
                                    <valuemax>100</valuemax>
                                </parameter>
                            </effect>
                        </filter>
                        <link>
                            <linkclipref>Interstaller.mp4 115</linkclipref>
                        </link>
                        <link>
                            <linkclipref>Interstaller.mp4 302</linkclipref>
                        </link>
                        <comments/>
                    </clipitem>
                    <clipitem id="Interstaller.mp4 117">
                        <name>Interstaller.mp4</name>
                        <duration>243353</duration>
                        <rate>
                            <timebase>24</timebase>
                            <ntsc>FALSE</ntsc>
                        </rate>
                        <start>5259</start>
                        <end>5359</end>
                        <enabled>TRUE</enabled>
                        <in>169231</in>
                        <out>169331</out>
                        <file id="Interstaller.mp4 2"/>
                        <compositemode>normal</compositemode>
                        <filter>
                            <enabled>TRUE</enabled>
                            <start>0</start>
                            <end>243353</end>
                            <effect>
                                <name>Basic Motion</name>
                                <effectid>basic</effectid>
                                <effecttype>motion</effecttype>
                                <mediatype>video</mediatype>
                                <effectcategory>motion</effectcategory>
                                <parameter>
                                    <name>Scale</name>
                                    <parameterid>scale</parameterid>
                                    <value>100</value>
                                    <valuemin>0</valuemin>
                                    <valuemax>10000</valuemax>
                                </parameter>
                                <parameter>
                                    <name>Center</name>
                                    <parameterid>center</parameterid>
                                    <value>
                                        <horiz>0</horiz>
                                        <vert>0</vert>
                                    </value>
                                </parameter>
                                <parameter>
                                    <name>Rotation</name>
                                    <parameterid>rotation</parameterid>
                                    <value>0</value>
                                    <valuemin>-100000</valuemin>
                                    <valuemax>100000</valuemax>
                                </parameter>
                                <parameter>
                                    <name>Anchor Point</name>
                                    <parameterid>centerOffset</parameterid>
                                    <value>
                                        <horiz>0</horiz>
                                        <vert>0</vert>
                                    </value>
                                </parameter>
                            </effect>
                        </filter>
                        <filter>
                            <enabled>TRUE</enabled>
                            <start>0</start>
                            <end>243353</end>
                            <effect>
                                <name>Crop</name>
                                <effectid>crop</effectid>
                                <effecttype>motion</effecttype>
                                <mediatype>video</mediatype>
                                <effectcategory>motion</effectcategory>
                                <parameter>
                                    <name>left</name>
                                    <parameterid>left</parameterid>
                                    <value>0</value>
                                    <valuemin>0</valuemin>
                                    <valuemax>100</valuemax>
                                </parameter>
                                <parameter>
                                    <name>right</name>
                                    <parameterid>right</parameterid>
                                    <value>0</value>
                                    <valuemin>0</valuemin>
                                    <valuemax>100</valuemax>
                                </parameter>
                                <parameter>
                                    <name>top</name>
                                    <parameterid>top</parameterid>
                                    <value>0</value>
                                    <valuemin>0</valuemin>
                                    <valuemax>100</valuemax>
                                </parameter>
                                <parameter>
                                    <name>bottom</name>
                                    <parameterid>bottom</parameterid>
                                    <value>0</value>
                                    <valuemin>0</valuemin>
                                    <valuemax>100</valuemax>
                                </parameter>
                            </effect>
                        </filter>
                        <filter>
                            <enabled>TRUE</enabled>
                            <start>0</start>
                            <end>243353</end>
                            <effect>
                                <name>Opacity</name>
                                <effectid>opacity</effectid>
                                <effecttype>motion</effecttype>
                                <mediatype>video</mediatype>
                                <effectcategory>motion</effectcategory>
                                <parameter>
                                    <name>opacity</name>
                                    <parameterid>opacity</parameterid>
                                    <value>100</value>
                                    <valuemin>0</valuemin>
                                    <valuemax>100</valuemax>
                                </parameter>
                            </effect>
                        </filter>
                        <link>
                            <linkclipref>Interstaller.mp4 117</linkclipref>
                        </link>
                        <link>
                            <linkclipref>Interstaller.mp4 303</linkclipref>
                        </link>
                        <comments/>
                    </clipitem>
                    <clipitem id="Interstaller.mp4 119">
                        <name>Interstaller.mp4</name>
                        <duration>243353</duration>
                        <rate>
                            <timebase>24</timebase>
                            <ntsc>FALSE</ntsc>
                        </rate>
                        <start>5359</start>
                        <end>5421</end>
                        <enabled>TRUE</enabled>
                        <in>169331</in>
                        <out>169393</out>
                        <file id="Interstaller.mp4 2"/>
                        <compositemode>normal</compositemode>
                        <filter>
                            <enabled>TRUE</enabled>
                            <start>0</start>
                            <end>243353</end>
                            <effect>
                                <name>Basic Motion</name>
                                <effectid>basic</effectid>
                                <effecttype>motion</effecttype>
                                <mediatype>video</mediatype>
                                <effectcategory>motion</effectcategory>
                                <parameter>
                                    <name>Scale</name>
                                    <parameterid>scale</parameterid>
                                    <value>100</value>
                                    <valuemin>0</valuemin>
                                    <valuemax>10000</valuemax>
                                </parameter>
                                <parameter>
                                    <name>Center</name>
                                    <parameterid>center</parameterid>
                                    <value>
                                        <horiz>0</horiz>
                                        <vert>0</vert>
                                    </value>
                                </parameter>
                                <parameter>
                                    <name>Rotation</name>
                                    <parameterid>rotation</parameterid>
                                    <value>0</value>
                                    <valuemin>-100000</valuemin>
                                    <valuemax>100000</valuemax>
                                </parameter>
                                <parameter>
                                    <name>Anchor Point</name>
                                    <parameterid>centerOffset</parameterid>
                                    <value>
                                        <horiz>0</horiz>
                                        <vert>0</vert>
                                    </value>
                                </parameter>
                            </effect>
                        </filter>
                        <filter>
                            <enabled>TRUE</enabled>
                            <start>0</start>
                            <end>243353</end>
                            <effect>
                                <name>Crop</name>
                                <effectid>crop</effectid>
                                <effecttype>motion</effecttype>
                                <mediatype>video</mediatype>
                                <effectcategory>motion</effectcategory>
                                <parameter>
                                    <name>left</name>
                                    <parameterid>left</parameterid>
                                    <value>0</value>
                                    <valuemin>0</valuemin>
                                    <valuemax>100</valuemax>
                                </parameter>
                                <parameter>
                                    <name>right</name>
                                    <parameterid>right</parameterid>
                                    <value>0</value>
                                    <valuemin>0</valuemin>
                                    <valuemax>100</valuemax>
                                </parameter>
                                <parameter>
                                    <name>top</name>
                                    <parameterid>top</parameterid>
                                    <value>0</value>
                                    <valuemin>0</valuemin>
                                    <valuemax>100</valuemax>
                                </parameter>
                                <parameter>
                                    <name>bottom</name>
                                    <parameterid>bottom</parameterid>
                                    <value>0</value>
                                    <valuemin>0</valuemin>
                                    <valuemax>100</valuemax>
                                </parameter>
                            </effect>
                        </filter>
                        <filter>
                            <enabled>TRUE</enabled>
                            <start>0</start>
                            <end>243353</end>
                            <effect>
                                <name>Opacity</name>
                                <effectid>opacity</effectid>
                                <effecttype>motion</effecttype>
                                <mediatype>video</mediatype>
                                <effectcategory>motion</effectcategory>
                                <parameter>
                                    <name>opacity</name>
                                    <parameterid>opacity</parameterid>
                                    <value>100</value>
                                    <valuemin>0</valuemin>
                                    <valuemax>100</valuemax>
                                </parameter>
                            </effect>
                        </filter>
                        <link>
                            <linkclipref>Interstaller.mp4 119</linkclipref>
                        </link>
                        <link>
                            <linkclipref>Interstaller.mp4 304</linkclipref>
                        </link>
                        <comments/>
                    </clipitem>
                    <clipitem id="Interstaller.mp4 121">
                        <name>Interstaller.mp4</name>
                        <duration>243353</duration>
                        <rate>
                            <timebase>24</timebase>
                            <ntsc>FALSE</ntsc>
                        </rate>
                        <start>5421</start>
                        <end>5468</end>
                        <enabled>TRUE</enabled>
                        <in>169393</in>
                        <out>169440</out>
                        <file id="Interstaller.mp4 2"/>
                        <compositemode>normal</compositemode>
                        <filter>
                            <enabled>TRUE</enabled>
                            <start>0</start>
                            <end>243353</end>
                            <effect>
                                <name>Basic Motion</name>
                                <effectid>basic</effectid>
                                <effecttype>motion</effecttype>
                                <mediatype>video</mediatype>
                                <effectcategory>motion</effectcategory>
                                <parameter>
                                    <name>Scale</name>
                                    <parameterid>scale</parameterid>
                                    <value>100</value>
                                    <valuemin>0</valuemin>
                                    <valuemax>10000</valuemax>
                                </parameter>
                                <parameter>
                                    <name>Center</name>
                                    <parameterid>center</parameterid>
                                    <value>
                                        <horiz>0</horiz>
                                        <vert>0</vert>
                                    </value>
                                </parameter>
                                <parameter>
                                    <name>Rotation</name>
                                    <parameterid>rotation</parameterid>
                                    <value>0</value>
                                    <valuemin>-100000</valuemin>
                                    <valuemax>100000</valuemax>
                                </parameter>
                                <parameter>
                                    <name>Anchor Point</name>
                                    <parameterid>centerOffset</parameterid>
                                    <value>
                                        <horiz>0</horiz>
                                        <vert>0</vert>
                                    </value>
                                </parameter>
                            </effect>
                        </filter>
                        <filter>
                            <enabled>TRUE</enabled>
                            <start>0</start>
                            <end>243353</end>
                            <effect>
                                <name>Crop</name>
                                <effectid>crop</effectid>
                                <effecttype>motion</effecttype>
                                <mediatype>video</mediatype>
                                <effectcategory>motion</effectcategory>
                                <parameter>
                                    <name>left</name>
                                    <parameterid>left</parameterid>
                                    <value>0</value>
                                    <valuemin>0</valuemin>
                                    <valuemax>100</valuemax>
                                </parameter>
                                <parameter>
                                    <name>right</name>
                                    <parameterid>right</parameterid>
                                    <value>0</value>
                                    <valuemin>0</valuemin>
                                    <valuemax>100</valuemax>
                                </parameter>
                                <parameter>
                                    <name>top</name>
                                    <parameterid>top</parameterid>
                                    <value>0</value>
                                    <valuemin>0</valuemin>
                                    <valuemax>100</valuemax>
                                </parameter>
                                <parameter>
                                    <name>bottom</name>
                                    <parameterid>bottom</parameterid>
                                    <value>0</value>
                                    <valuemin>0</valuemin>
                                    <valuemax>100</valuemax>
                                </parameter>
                            </effect>
                        </filter>
                        <filter>
                            <enabled>TRUE</enabled>
                            <start>0</start>
                            <end>243353</end>
                            <effect>
                                <name>Opacity</name>
                                <effectid>opacity</effectid>
                                <effecttype>motion</effecttype>
                                <mediatype>video</mediatype>
                                <effectcategory>motion</effectcategory>
                                <parameter>
                                    <name>opacity</name>
                                    <parameterid>opacity</parameterid>
                                    <value>100</value>
                                    <valuemin>0</valuemin>
                                    <valuemax>100</valuemax>
                                </parameter>
                            </effect>
                        </filter>
                        <link>
                            <linkclipref>Interstaller.mp4 121</linkclipref>
                        </link>
                        <link>
                            <linkclipref>Interstaller.mp4 305</linkclipref>
                        </link>
                        <comments/>
                    </clipitem>
                    <clipitem id="Interstaller.mp4 123">
                        <name>Interstaller.mp4</name>
                        <duration>243353</duration>
                        <rate>
                            <timebase>24</timebase>
                            <ntsc>FALSE</ntsc>
                        </rate>
                        <start>5468</start>
                        <end>5540</end>
                        <enabled>TRUE</enabled>
                        <in>169440</in>
                        <out>169512</out>
                        <file id="Interstaller.mp4 2"/>
                        <compositemode>normal</compositemode>
                        <filter>
                            <enabled>TRUE</enabled>
                            <start>0</start>
                            <end>243353</end>
                            <effect>
                                <name>Basic Motion</name>
                                <effectid>basic</effectid>
                                <effecttype>motion</effecttype>
                                <mediatype>video</mediatype>
                                <effectcategory>motion</effectcategory>
                                <parameter>
                                    <name>Scale</name>
                                    <parameterid>scale</parameterid>
                                    <value>100</value>
                                    <valuemin>0</valuemin>
                                    <valuemax>10000</valuemax>
                                </parameter>
                                <parameter>
                                    <name>Center</name>
                                    <parameterid>center</parameterid>
                                    <value>
                                        <horiz>0</horiz>
                                        <vert>0</vert>
                                    </value>
                                </parameter>
                                <parameter>
                                    <name>Rotation</name>
                                    <parameterid>rotation</parameterid>
                                    <value>0</value>
                                    <valuemin>-100000</valuemin>
                                    <valuemax>100000</valuemax>
                                </parameter>
                                <parameter>
                                    <name>Anchor Point</name>
                                    <parameterid>centerOffset</parameterid>
                                    <value>
                                        <horiz>0</horiz>
                                        <vert>0</vert>
                                    </value>
                                </parameter>
                            </effect>
                        </filter>
                        <filter>
                            <enabled>TRUE</enabled>
                            <start>0</start>
                            <end>243353</end>
                            <effect>
                                <name>Crop</name>
                                <effectid>crop</effectid>
                                <effecttype>motion</effecttype>
                                <mediatype>video</mediatype>
                                <effectcategory>motion</effectcategory>
                                <parameter>
                                    <name>left</name>
                                    <parameterid>left</parameterid>
                                    <value>0</value>
                                    <valuemin>0</valuemin>
                                    <valuemax>100</valuemax>
                                </parameter>
                                <parameter>
                                    <name>right</name>
                                    <parameterid>right</parameterid>
                                    <value>0</value>
                                    <valuemin>0</valuemin>
                                    <valuemax>100</valuemax>
                                </parameter>
                                <parameter>
                                    <name>top</name>
                                    <parameterid>top</parameterid>
                                    <value>0</value>
                                    <valuemin>0</valuemin>
                                    <valuemax>100</valuemax>
                                </parameter>
                                <parameter>
                                    <name>bottom</name>
                                    <parameterid>bottom</parameterid>
                                    <value>0</value>
                                    <valuemin>0</valuemin>
                                    <valuemax>100</valuemax>
                                </parameter>
                            </effect>
                        </filter>
                        <filter>
                            <enabled>TRUE</enabled>
                            <start>0</start>
                            <end>243353</end>
                            <effect>
                                <name>Opacity</name>
                                <effectid>opacity</effectid>
                                <effecttype>motion</effecttype>
                                <mediatype>video</mediatype>
                                <effectcategory>motion</effectcategory>
                                <parameter>
                                    <name>opacity</name>
                                    <parameterid>opacity</parameterid>
                                    <value>100</value>
                                    <valuemin>0</valuemin>
                                    <valuemax>100</valuemax>
                                </parameter>
                            </effect>
                        </filter>
                        <link>
                            <linkclipref>Interstaller.mp4 123</linkclipref>
                        </link>
                        <link>
                            <linkclipref>Interstaller.mp4 306</linkclipref>
                        </link>
                        <comments/>
                    </clipitem>
                    <clipitem id="Interstaller.mp4 125">
                        <name>Interstaller.mp4</name>
                        <duration>243353</duration>
                        <rate>
                            <timebase>24</timebase>
                            <ntsc>FALSE</ntsc>
                        </rate>
                        <start>5540</start>
                        <end>5582</end>
                        <enabled>TRUE</enabled>
                        <in>169512</in>
                        <out>169554</out>
                        <file id="Interstaller.mp4 2"/>
                        <compositemode>normal</compositemode>
                        <filter>
                            <enabled>TRUE</enabled>
                            <start>0</start>
                            <end>243353</end>
                            <effect>
                                <name>Basic Motion</name>
                                <effectid>basic</effectid>
                                <effecttype>motion</effecttype>
                                <mediatype>video</mediatype>
                                <effectcategory>motion</effectcategory>
                                <parameter>
                                    <name>Scale</name>
                                    <parameterid>scale</parameterid>
                                    <value>100</value>
                                    <valuemin>0</valuemin>
                                    <valuemax>10000</valuemax>
                                </parameter>
                                <parameter>
                                    <name>Center</name>
                                    <parameterid>center</parameterid>
                                    <value>
                                        <horiz>0</horiz>
                                        <vert>0</vert>
                                    </value>
                                </parameter>
                                <parameter>
                                    <name>Rotation</name>
                                    <parameterid>rotation</parameterid>
                                    <value>0</value>
                                    <valuemin>-100000</valuemin>
                                    <valuemax>100000</valuemax>
                                </parameter>
                                <parameter>
                                    <name>Anchor Point</name>
                                    <parameterid>centerOffset</parameterid>
                                    <value>
                                        <horiz>0</horiz>
                                        <vert>0</vert>
                                    </value>
                                </parameter>
                            </effect>
                        </filter>
                        <filter>
                            <enabled>TRUE</enabled>
                            <start>0</start>
                            <end>243353</end>
                            <effect>
                                <name>Crop</name>
                                <effectid>crop</effectid>
                                <effecttype>motion</effecttype>
                                <mediatype>video</mediatype>
                                <effectcategory>motion</effectcategory>
                                <parameter>
                                    <name>left</name>
                                    <parameterid>left</parameterid>
                                    <value>0</value>
                                    <valuemin>0</valuemin>
                                    <valuemax>100</valuemax>
                                </parameter>
                                <parameter>
                                    <name>right</name>
                                    <parameterid>right</parameterid>
                                    <value>0</value>
                                    <valuemin>0</valuemin>
                                    <valuemax>100</valuemax>
                                </parameter>
                                <parameter>
                                    <name>top</name>
                                    <parameterid>top</parameterid>
                                    <value>0</value>
                                    <valuemin>0</valuemin>
                                    <valuemax>100</valuemax>
                                </parameter>
                                <parameter>
                                    <name>bottom</name>
                                    <parameterid>bottom</parameterid>
                                    <value>0</value>
                                    <valuemin>0</valuemin>
                                    <valuemax>100</valuemax>
                                </parameter>
                            </effect>
                        </filter>
                        <filter>
                            <enabled>TRUE</enabled>
                            <start>0</start>
                            <end>243353</end>
                            <effect>
                                <name>Opacity</name>
                                <effectid>opacity</effectid>
                                <effecttype>motion</effecttype>
                                <mediatype>video</mediatype>
                                <effectcategory>motion</effectcategory>
                                <parameter>
                                    <name>opacity</name>
                                    <parameterid>opacity</parameterid>
                                    <value>100</value>
                                    <valuemin>0</valuemin>
                                    <valuemax>100</valuemax>
                                </parameter>
                            </effect>
                        </filter>
                        <link>
                            <linkclipref>Interstaller.mp4 125</linkclipref>
                        </link>
                        <link>
                            <linkclipref>Interstaller.mp4 307</linkclipref>
                        </link>
                        <comments/>
                    </clipitem>
                    <clipitem id="Interstaller.mp4 127">
                        <name>Interstaller.mp4</name>
                        <duration>243353</duration>
                        <rate>
                            <timebase>24</timebase>
                            <ntsc>FALSE</ntsc>
                        </rate>
                        <start>5582</start>
                        <end>5619</end>
                        <enabled>TRUE</enabled>
                        <in>169554</in>
                        <out>169591</out>
                        <file id="Interstaller.mp4 2"/>
                        <compositemode>normal</compositemode>
                        <filter>
                            <enabled>TRUE</enabled>
                            <start>0</start>
                            <end>243353</end>
                            <effect>
                                <name>Basic Motion</name>
                                <effectid>basic</effectid>
                                <effecttype>motion</effecttype>
                                <mediatype>video</mediatype>
                                <effectcategory>motion</effectcategory>
                                <parameter>
                                    <name>Scale</name>
                                    <parameterid>scale</parameterid>
                                    <value>100</value>
                                    <valuemin>0</valuemin>
                                    <valuemax>10000</valuemax>
                                </parameter>
                                <parameter>
                                    <name>Center</name>
                                    <parameterid>center</parameterid>
                                    <value>
                                        <horiz>0</horiz>
                                        <vert>0</vert>
                                    </value>
                                </parameter>
                                <parameter>
                                    <name>Rotation</name>
                                    <parameterid>rotation</parameterid>
                                    <value>0</value>
                                    <valuemin>-100000</valuemin>
                                    <valuemax>100000</valuemax>
                                </parameter>
                                <parameter>
                                    <name>Anchor Point</name>
                                    <parameterid>centerOffset</parameterid>
                                    <value>
                                        <horiz>0</horiz>
                                        <vert>0</vert>
                                    </value>
                                </parameter>
                            </effect>
                        </filter>
                        <filter>
                            <enabled>TRUE</enabled>
                            <start>0</start>
                            <end>243353</end>
                            <effect>
                                <name>Crop</name>
                                <effectid>crop</effectid>
                                <effecttype>motion</effecttype>
                                <mediatype>video</mediatype>
                                <effectcategory>motion</effectcategory>
                                <parameter>
                                    <name>left</name>
                                    <parameterid>left</parameterid>
                                    <value>0</value>
                                    <valuemin>0</valuemin>
                                    <valuemax>100</valuemax>
                                </parameter>
                                <parameter>
                                    <name>right</name>
                                    <parameterid>right</parameterid>
                                    <value>0</value>
                                    <valuemin>0</valuemin>
                                    <valuemax>100</valuemax>
                                </parameter>
                                <parameter>
                                    <name>top</name>
                                    <parameterid>top</parameterid>
                                    <value>0</value>
                                    <valuemin>0</valuemin>
                                    <valuemax>100</valuemax>
                                </parameter>
                                <parameter>
                                    <name>bottom</name>
                                    <parameterid>bottom</parameterid>
                                    <value>0</value>
                                    <valuemin>0</valuemin>
                                    <valuemax>100</valuemax>
                                </parameter>
                            </effect>
                        </filter>
                        <filter>
                            <enabled>TRUE</enabled>
                            <start>0</start>
                            <end>243353</end>
                            <effect>
                                <name>Opacity</name>
                                <effectid>opacity</effectid>
                                <effecttype>motion</effecttype>
                                <mediatype>video</mediatype>
                                <effectcategory>motion</effectcategory>
                                <parameter>
                                    <name>opacity</name>
                                    <parameterid>opacity</parameterid>
                                    <value>100</value>
                                    <valuemin>0</valuemin>
                                    <valuemax>100</valuemax>
                                </parameter>
                            </effect>
                        </filter>
                        <link>
                            <linkclipref>Interstaller.mp4 127</linkclipref>
                        </link>
                        <link>
                            <linkclipref>Interstaller.mp4 308</linkclipref>
                        </link>
                        <comments/>
                    </clipitem>
                    <clipitem id="Interstaller.mp4 129">
                        <name>Interstaller.mp4</name>
                        <duration>243353</duration>
                        <rate>
                            <timebase>24</timebase>
                            <ntsc>FALSE</ntsc>
                        </rate>
                        <start>5619</start>
                        <end>5662</end>
                        <enabled>TRUE</enabled>
                        <in>169591</in>
                        <out>169634</out>
                        <file id="Interstaller.mp4 2"/>
                        <compositemode>normal</compositemode>
                        <filter>
                            <enabled>TRUE</enabled>
                            <start>0</start>
                            <end>243353</end>
                            <effect>
                                <name>Basic Motion</name>
                                <effectid>basic</effectid>
                                <effecttype>motion</effecttype>
                                <mediatype>video</mediatype>
                                <effectcategory>motion</effectcategory>
                                <parameter>
                                    <name>Scale</name>
                                    <parameterid>scale</parameterid>
                                    <value>100</value>
                                    <valuemin>0</valuemin>
                                    <valuemax>10000</valuemax>
                                </parameter>
                                <parameter>
                                    <name>Center</name>
                                    <parameterid>center</parameterid>
                                    <value>
                                        <horiz>0</horiz>
                                        <vert>0</vert>
                                    </value>
                                </parameter>
                                <parameter>
                                    <name>Rotation</name>
                                    <parameterid>rotation</parameterid>
                                    <value>0</value>
                                    <valuemin>-100000</valuemin>
                                    <valuemax>100000</valuemax>
                                </parameter>
                                <parameter>
                                    <name>Anchor Point</name>
                                    <parameterid>centerOffset</parameterid>
                                    <value>
                                        <horiz>0</horiz>
                                        <vert>0</vert>
                                    </value>
                                </parameter>
                            </effect>
                        </filter>
                        <filter>
                            <enabled>TRUE</enabled>
                            <start>0</start>
                            <end>243353</end>
                            <effect>
                                <name>Crop</name>
                                <effectid>crop</effectid>
                                <effecttype>motion</effecttype>
                                <mediatype>video</mediatype>
                                <effectcategory>motion</effectcategory>
                                <parameter>
                                    <name>left</name>
                                    <parameterid>left</parameterid>
                                    <value>0</value>
                                    <valuemin>0</valuemin>
                                    <valuemax>100</valuemax>
                                </parameter>
                                <parameter>
                                    <name>right</name>
                                    <parameterid>right</parameterid>
                                    <value>0</value>
                                    <valuemin>0</valuemin>
                                    <valuemax>100</valuemax>
                                </parameter>
                                <parameter>
                                    <name>top</name>
                                    <parameterid>top</parameterid>
                                    <value>0</value>
                                    <valuemin>0</valuemin>
                                    <valuemax>100</valuemax>
                                </parameter>
                                <parameter>
                                    <name>bottom</name>
                                    <parameterid>bottom</parameterid>
                                    <value>0</value>
                                    <valuemin>0</valuemin>
                                    <valuemax>100</valuemax>
                                </parameter>
                            </effect>
                        </filter>
                        <filter>
                            <enabled>TRUE</enabled>
                            <start>0</start>
                            <end>243353</end>
                            <effect>
                                <name>Opacity</name>
                                <effectid>opacity</effectid>
                                <effecttype>motion</effecttype>
                                <mediatype>video</mediatype>
                                <effectcategory>motion</effectcategory>
                                <parameter>
                                    <name>opacity</name>
                                    <parameterid>opacity</parameterid>
                                    <value>100</value>
                                    <valuemin>0</valuemin>
                                    <valuemax>100</valuemax>
                                </parameter>
                            </effect>
                        </filter>
                        <link>
                            <linkclipref>Interstaller.mp4 129</linkclipref>
                        </link>
                        <link>
                            <linkclipref>Interstaller.mp4 309</linkclipref>
                        </link>
                        <comments/>
                    </clipitem>
                    <clipitem id="Interstaller.mp4 131">
                        <name>Interstaller.mp4</name>
                        <duration>243353</duration>
                        <rate>
                            <timebase>24</timebase>
                            <ntsc>FALSE</ntsc>
                        </rate>
                        <start>5662</start>
                        <end>5763</end>
                        <enabled>TRUE</enabled>
                        <in>169634</in>
                        <out>169735</out>
                        <file id="Interstaller.mp4 2"/>
                        <compositemode>normal</compositemode>
                        <filter>
                            <enabled>TRUE</enabled>
                            <start>0</start>
                            <end>243353</end>
                            <effect>
                                <name>Basic Motion</name>
                                <effectid>basic</effectid>
                                <effecttype>motion</effecttype>
                                <mediatype>video</mediatype>
                                <effectcategory>motion</effectcategory>
                                <parameter>
                                    <name>Scale</name>
                                    <parameterid>scale</parameterid>
                                    <value>100</value>
                                    <valuemin>0</valuemin>
                                    <valuemax>10000</valuemax>
                                </parameter>
                                <parameter>
                                    <name>Center</name>
                                    <parameterid>center</parameterid>
                                    <value>
                                        <horiz>0</horiz>
                                        <vert>0</vert>
                                    </value>
                                </parameter>
                                <parameter>
                                    <name>Rotation</name>
                                    <parameterid>rotation</parameterid>
                                    <value>0</value>
                                    <valuemin>-100000</valuemin>
                                    <valuemax>100000</valuemax>
                                </parameter>
                                <parameter>
                                    <name>Anchor Point</name>
                                    <parameterid>centerOffset</parameterid>
                                    <value>
                                        <horiz>0</horiz>
                                        <vert>0</vert>
                                    </value>
                                </parameter>
                            </effect>
                        </filter>
                        <filter>
                            <enabled>TRUE</enabled>
                            <start>0</start>
                            <end>243353</end>
                            <effect>
                                <name>Crop</name>
                                <effectid>crop</effectid>
                                <effecttype>motion</effecttype>
                                <mediatype>video</mediatype>
                                <effectcategory>motion</effectcategory>
                                <parameter>
                                    <name>left</name>
                                    <parameterid>left</parameterid>
                                    <value>0</value>
                                    <valuemin>0</valuemin>
                                    <valuemax>100</valuemax>
                                </parameter>
                                <parameter>
                                    <name>right</name>
                                    <parameterid>right</parameterid>
                                    <value>0</value>
                                    <valuemin>0</valuemin>
                                    <valuemax>100</valuemax>
                                </parameter>
                                <parameter>
                                    <name>top</name>
                                    <parameterid>top</parameterid>
                                    <value>0</value>
                                    <valuemin>0</valuemin>
                                    <valuemax>100</valuemax>
                                </parameter>
                                <parameter>
                                    <name>bottom</name>
                                    <parameterid>bottom</parameterid>
                                    <value>0</value>
                                    <valuemin>0</valuemin>
                                    <valuemax>100</valuemax>
                                </parameter>
                            </effect>
                        </filter>
                        <filter>
                            <enabled>TRUE</enabled>
                            <start>0</start>
                            <end>243353</end>
                            <effect>
                                <name>Opacity</name>
                                <effectid>opacity</effectid>
                                <effecttype>motion</effecttype>
                                <mediatype>video</mediatype>
                                <effectcategory>motion</effectcategory>
                                <parameter>
                                    <name>opacity</name>
                                    <parameterid>opacity</parameterid>
                                    <value>100</value>
                                    <valuemin>0</valuemin>
                                    <valuemax>100</valuemax>
                                </parameter>
                            </effect>
                        </filter>
                        <link>
                            <linkclipref>Interstaller.mp4 131</linkclipref>
                        </link>
                        <link>
                            <linkclipref>Interstaller.mp4 310</linkclipref>
                        </link>
                        <comments/>
                    </clipitem>
                    <clipitem id="Interstaller.mp4 133">
                        <name>Interstaller.mp4</name>
                        <duration>243353</duration>
                        <rate>
                            <timebase>24</timebase>
                            <ntsc>FALSE</ntsc>
                        </rate>
                        <start>5763</start>
                        <end>5942</end>
                        <enabled>TRUE</enabled>
                        <in>169735</in>
                        <out>169914</out>
                        <file id="Interstaller.mp4 2"/>
                        <compositemode>normal</compositemode>
                        <filter>
                            <enabled>TRUE</enabled>
                            <start>0</start>
                            <end>243353</end>
                            <effect>
                                <name>Basic Motion</name>
                                <effectid>basic</effectid>
                                <effecttype>motion</effecttype>
                                <mediatype>video</mediatype>
                                <effectcategory>motion</effectcategory>
                                <parameter>
                                    <name>Scale</name>
                                    <parameterid>scale</parameterid>
                                    <value>100</value>
                                    <valuemin>0</valuemin>
                                    <valuemax>10000</valuemax>
                                </parameter>
                                <parameter>
                                    <name>Center</name>
                                    <parameterid>center</parameterid>
                                    <value>
                                        <horiz>0</horiz>
                                        <vert>0</vert>
                                    </value>
                                </parameter>
                                <parameter>
                                    <name>Rotation</name>
                                    <parameterid>rotation</parameterid>
                                    <value>0</value>
                                    <valuemin>-100000</valuemin>
                                    <valuemax>100000</valuemax>
                                </parameter>
                                <parameter>
                                    <name>Anchor Point</name>
                                    <parameterid>centerOffset</parameterid>
                                    <value>
                                        <horiz>0</horiz>
                                        <vert>0</vert>
                                    </value>
                                </parameter>
                            </effect>
                        </filter>
                        <filter>
                            <enabled>TRUE</enabled>
                            <start>0</start>
                            <end>243353</end>
                            <effect>
                                <name>Crop</name>
                                <effectid>crop</effectid>
                                <effecttype>motion</effecttype>
                                <mediatype>video</mediatype>
                                <effectcategory>motion</effectcategory>
                                <parameter>
                                    <name>left</name>
                                    <parameterid>left</parameterid>
                                    <value>0</value>
                                    <valuemin>0</valuemin>
                                    <valuemax>100</valuemax>
                                </parameter>
                                <parameter>
                                    <name>right</name>
                                    <parameterid>right</parameterid>
                                    <value>0</value>
                                    <valuemin>0</valuemin>
                                    <valuemax>100</valuemax>
                                </parameter>
                                <parameter>
                                    <name>top</name>
                                    <parameterid>top</parameterid>
                                    <value>0</value>
                                    <valuemin>0</valuemin>
                                    <valuemax>100</valuemax>
                                </parameter>
                                <parameter>
                                    <name>bottom</name>
                                    <parameterid>bottom</parameterid>
                                    <value>0</value>
                                    <valuemin>0</valuemin>
                                    <valuemax>100</valuemax>
                                </parameter>
                            </effect>
                        </filter>
                        <filter>
                            <enabled>TRUE</enabled>
                            <start>0</start>
                            <end>243353</end>
                            <effect>
                                <name>Opacity</name>
                                <effectid>opacity</effectid>
                                <effecttype>motion</effecttype>
                                <mediatype>video</mediatype>
                                <effectcategory>motion</effectcategory>
                                <parameter>
                                    <name>opacity</name>
                                    <parameterid>opacity</parameterid>
                                    <value>100</value>
                                    <valuemin>0</valuemin>
                                    <valuemax>100</valuemax>
                                </parameter>
                            </effect>
                        </filter>
                        <link>
                            <linkclipref>Interstaller.mp4 133</linkclipref>
                        </link>
                        <link>
                            <linkclipref>Interstaller.mp4 311</linkclipref>
                        </link>
                        <comments/>
                    </clipitem>
                    <clipitem id="Interstaller.mp4 135">
                        <name>Interstaller.mp4</name>
                        <duration>243353</duration>
                        <rate>
                            <timebase>24</timebase>
                            <ntsc>FALSE</ntsc>
                        </rate>
                        <start>5942</start>
                        <end>6008</end>
                        <enabled>TRUE</enabled>
                        <in>169914</in>
                        <out>169980</out>
                        <file id="Interstaller.mp4 2"/>
                        <compositemode>normal</compositemode>
                        <filter>
                            <enabled>TRUE</enabled>
                            <start>0</start>
                            <end>243353</end>
                            <effect>
                                <name>Basic Motion</name>
                                <effectid>basic</effectid>
                                <effecttype>motion</effecttype>
                                <mediatype>video</mediatype>
                                <effectcategory>motion</effectcategory>
                                <parameter>
                                    <name>Scale</name>
                                    <parameterid>scale</parameterid>
                                    <value>100</value>
                                    <valuemin>0</valuemin>
                                    <valuemax>10000</valuemax>
                                </parameter>
                                <parameter>
                                    <name>Center</name>
                                    <parameterid>center</parameterid>
                                    <value>
                                        <horiz>0</horiz>
                                        <vert>0</vert>
                                    </value>
                                </parameter>
                                <parameter>
                                    <name>Rotation</name>
                                    <parameterid>rotation</parameterid>
                                    <value>0</value>
                                    <valuemin>-100000</valuemin>
                                    <valuemax>100000</valuemax>
                                </parameter>
                                <parameter>
                                    <name>Anchor Point</name>
                                    <parameterid>centerOffset</parameterid>
                                    <value>
                                        <horiz>0</horiz>
                                        <vert>0</vert>
                                    </value>
                                </parameter>
                            </effect>
                        </filter>
                        <filter>
                            <enabled>TRUE</enabled>
                            <start>0</start>
                            <end>243353</end>
                            <effect>
                                <name>Crop</name>
                                <effectid>crop</effectid>
                                <effecttype>motion</effecttype>
                                <mediatype>video</mediatype>
                                <effectcategory>motion</effectcategory>
                                <parameter>
                                    <name>left</name>
                                    <parameterid>left</parameterid>
                                    <value>0</value>
                                    <valuemin>0</valuemin>
                                    <valuemax>100</valuemax>
                                </parameter>
                                <parameter>
                                    <name>right</name>
                                    <parameterid>right</parameterid>
                                    <value>0</value>
                                    <valuemin>0</valuemin>
                                    <valuemax>100</valuemax>
                                </parameter>
                                <parameter>
                                    <name>top</name>
                                    <parameterid>top</parameterid>
                                    <value>0</value>
                                    <valuemin>0</valuemin>
                                    <valuemax>100</valuemax>
                                </parameter>
                                <parameter>
                                    <name>bottom</name>
                                    <parameterid>bottom</parameterid>
                                    <value>0</value>
                                    <valuemin>0</valuemin>
                                    <valuemax>100</valuemax>
                                </parameter>
                            </effect>
                        </filter>
                        <filter>
                            <enabled>TRUE</enabled>
                            <start>0</start>
                            <end>243353</end>
                            <effect>
                                <name>Opacity</name>
                                <effectid>opacity</effectid>
                                <effecttype>motion</effecttype>
                                <mediatype>video</mediatype>
                                <effectcategory>motion</effectcategory>
                                <parameter>
                                    <name>opacity</name>
                                    <parameterid>opacity</parameterid>
                                    <value>100</value>
                                    <valuemin>0</valuemin>
                                    <valuemax>100</valuemax>
                                </parameter>
                            </effect>
                        </filter>
                        <link>
                            <linkclipref>Interstaller.mp4 135</linkclipref>
                        </link>
                        <link>
                            <linkclipref>Interstaller.mp4 312</linkclipref>
                        </link>
                        <comments/>
                    </clipitem>
                    <clipitem id="Interstaller.mp4 137">
                        <name>Interstaller.mp4</name>
                        <duration>243353</duration>
                        <rate>
                            <timebase>24</timebase>
                            <ntsc>FALSE</ntsc>
                        </rate>
                        <start>6008</start>
                        <end>6030</end>
                        <enabled>TRUE</enabled>
                        <in>169980</in>
                        <out>170002</out>
                        <file id="Interstaller.mp4 2"/>
                        <compositemode>normal</compositemode>
                        <filter>
                            <enabled>TRUE</enabled>
                            <start>0</start>
                            <end>243353</end>
                            <effect>
                                <name>Basic Motion</name>
                                <effectid>basic</effectid>
                                <effecttype>motion</effecttype>
                                <mediatype>video</mediatype>
                                <effectcategory>motion</effectcategory>
                                <parameter>
                                    <name>Scale</name>
                                    <parameterid>scale</parameterid>
                                    <value>100</value>
                                    <valuemin>0</valuemin>
                                    <valuemax>10000</valuemax>
                                </parameter>
                                <parameter>
                                    <name>Center</name>
                                    <parameterid>center</parameterid>
                                    <value>
                                        <horiz>0</horiz>
                                        <vert>0</vert>
                                    </value>
                                </parameter>
                                <parameter>
                                    <name>Rotation</name>
                                    <parameterid>rotation</parameterid>
                                    <value>0</value>
                                    <valuemin>-100000</valuemin>
                                    <valuemax>100000</valuemax>
                                </parameter>
                                <parameter>
                                    <name>Anchor Point</name>
                                    <parameterid>centerOffset</parameterid>
                                    <value>
                                        <horiz>0</horiz>
                                        <vert>0</vert>
                                    </value>
                                </parameter>
                            </effect>
                        </filter>
                        <filter>
                            <enabled>TRUE</enabled>
                            <start>0</start>
                            <end>243353</end>
                            <effect>
                                <name>Crop</name>
                                <effectid>crop</effectid>
                                <effecttype>motion</effecttype>
                                <mediatype>video</mediatype>
                                <effectcategory>motion</effectcategory>
                                <parameter>
                                    <name>left</name>
                                    <parameterid>left</parameterid>
                                    <value>0</value>
                                    <valuemin>0</valuemin>
                                    <valuemax>100</valuemax>
                                </parameter>
                                <parameter>
                                    <name>right</name>
                                    <parameterid>right</parameterid>
                                    <value>0</value>
                                    <valuemin>0</valuemin>
                                    <valuemax>100</valuemax>
                                </parameter>
                                <parameter>
                                    <name>top</name>
                                    <parameterid>top</parameterid>
                                    <value>0</value>
                                    <valuemin>0</valuemin>
                                    <valuemax>100</valuemax>
                                </parameter>
                                <parameter>
                                    <name>bottom</name>
                                    <parameterid>bottom</parameterid>
                                    <value>0</value>
                                    <valuemin>0</valuemin>
                                    <valuemax>100</valuemax>
                                </parameter>
                            </effect>
                        </filter>
                        <filter>
                            <enabled>TRUE</enabled>
                            <start>0</start>
                            <end>243353</end>
                            <effect>
                                <name>Opacity</name>
                                <effectid>opacity</effectid>
                                <effecttype>motion</effecttype>
                                <mediatype>video</mediatype>
                                <effectcategory>motion</effectcategory>
                                <parameter>
                                    <name>opacity</name>
                                    <parameterid>opacity</parameterid>
                                    <value>100</value>
                                    <valuemin>0</valuemin>
                                    <valuemax>100</valuemax>
                                </parameter>
                            </effect>
                        </filter>
                        <link>
                            <linkclipref>Interstaller.mp4 137</linkclipref>
                        </link>
                        <link>
                            <linkclipref>Interstaller.mp4 313</linkclipref>
                        </link>
                        <comments/>
                    </clipitem>
                    <clipitem id="Interstaller.mp4 139">
                        <name>Interstaller.mp4</name>
                        <duration>243353</duration>
                        <rate>
                            <timebase>24</timebase>
                            <ntsc>FALSE</ntsc>
                        </rate>
                        <start>6030</start>
                        <end>6092</end>
                        <enabled>TRUE</enabled>
                        <in>170002</in>
                        <out>170064</out>
                        <file id="Interstaller.mp4 2"/>
                        <compositemode>normal</compositemode>
                        <filter>
                            <enabled>TRUE</enabled>
                            <start>0</start>
                            <end>243353</end>
                            <effect>
                                <name>Basic Motion</name>
                                <effectid>basic</effectid>
                                <effecttype>motion</effecttype>
                                <mediatype>video</mediatype>
                                <effectcategory>motion</effectcategory>
                                <parameter>
                                    <name>Scale</name>
                                    <parameterid>scale</parameterid>
                                    <value>100</value>
                                    <valuemin>0</valuemin>
                                    <valuemax>10000</valuemax>
                                </parameter>
                                <parameter>
                                    <name>Center</name>
                                    <parameterid>center</parameterid>
                                    <value>
                                        <horiz>0</horiz>
                                        <vert>0</vert>
                                    </value>
                                </parameter>
                                <parameter>
                                    <name>Rotation</name>
                                    <parameterid>rotation</parameterid>
                                    <value>0</value>
                                    <valuemin>-100000</valuemin>
                                    <valuemax>100000</valuemax>
                                </parameter>
                                <parameter>
                                    <name>Anchor Point</name>
                                    <parameterid>centerOffset</parameterid>
                                    <value>
                                        <horiz>0</horiz>
                                        <vert>0</vert>
                                    </value>
                                </parameter>
                            </effect>
                        </filter>
                        <filter>
                            <enabled>TRUE</enabled>
                            <start>0</start>
                            <end>243353</end>
                            <effect>
                                <name>Crop</name>
                                <effectid>crop</effectid>
                                <effecttype>motion</effecttype>
                                <mediatype>video</mediatype>
                                <effectcategory>motion</effectcategory>
                                <parameter>
                                    <name>left</name>
                                    <parameterid>left</parameterid>
                                    <value>0</value>
                                    <valuemin>0</valuemin>
                                    <valuemax>100</valuemax>
                                </parameter>
                                <parameter>
                                    <name>right</name>
                                    <parameterid>right</parameterid>
                                    <value>0</value>
                                    <valuemin>0</valuemin>
                                    <valuemax>100</valuemax>
                                </parameter>
                                <parameter>
                                    <name>top</name>
                                    <parameterid>top</parameterid>
                                    <value>0</value>
                                    <valuemin>0</valuemin>
                                    <valuemax>100</valuemax>
                                </parameter>
                                <parameter>
                                    <name>bottom</name>
                                    <parameterid>bottom</parameterid>
                                    <value>0</value>
                                    <valuemin>0</valuemin>
                                    <valuemax>100</valuemax>
                                </parameter>
                            </effect>
                        </filter>
                        <filter>
                            <enabled>TRUE</enabled>
                            <start>0</start>
                            <end>243353</end>
                            <effect>
                                <name>Opacity</name>
                                <effectid>opacity</effectid>
                                <effecttype>motion</effecttype>
                                <mediatype>video</mediatype>
                                <effectcategory>motion</effectcategory>
                                <parameter>
                                    <name>opacity</name>
                                    <parameterid>opacity</parameterid>
                                    <value>100</value>
                                    <valuemin>0</valuemin>
                                    <valuemax>100</valuemax>
                                </parameter>
                            </effect>
                        </filter>
                        <link>
                            <linkclipref>Interstaller.mp4 139</linkclipref>
                        </link>
                        <link>
                            <linkclipref>Interstaller.mp4 314</linkclipref>
                        </link>
                        <comments/>
                    </clipitem>
                    <clipitem id="Interstaller.mp4 141">
                        <name>Interstaller.mp4</name>
                        <duration>243353</duration>
                        <rate>
                            <timebase>24</timebase>
                            <ntsc>FALSE</ntsc>
                        </rate>
                        <start>6092</start>
                        <end>6103</end>
                        <enabled>TRUE</enabled>
                        <in>170064</in>
                        <out>170075</out>
                        <file id="Interstaller.mp4 2"/>
                        <compositemode>normal</compositemode>
                        <filter>
                            <enabled>TRUE</enabled>
                            <start>0</start>
                            <end>243353</end>
                            <effect>
                                <name>Basic Motion</name>
                                <effectid>basic</effectid>
                                <effecttype>motion</effecttype>
                                <mediatype>video</mediatype>
                                <effectcategory>motion</effectcategory>
                                <parameter>
                                    <name>Scale</name>
                                    <parameterid>scale</parameterid>
                                    <value>100</value>
                                    <valuemin>0</valuemin>
                                    <valuemax>10000</valuemax>
                                </parameter>
                                <parameter>
                                    <name>Center</name>
                                    <parameterid>center</parameterid>
                                    <value>
                                        <horiz>0</horiz>
                                        <vert>0</vert>
                                    </value>
                                </parameter>
                                <parameter>
                                    <name>Rotation</name>
                                    <parameterid>rotation</parameterid>
                                    <value>0</value>
                                    <valuemin>-100000</valuemin>
                                    <valuemax>100000</valuemax>
                                </parameter>
                                <parameter>
                                    <name>Anchor Point</name>
                                    <parameterid>centerOffset</parameterid>
                                    <value>
                                        <horiz>0</horiz>
                                        <vert>0</vert>
                                    </value>
                                </parameter>
                            </effect>
                        </filter>
                        <filter>
                            <enabled>TRUE</enabled>
                            <start>0</start>
                            <end>243353</end>
                            <effect>
                                <name>Crop</name>
                                <effectid>crop</effectid>
                                <effecttype>motion</effecttype>
                                <mediatype>video</mediatype>
                                <effectcategory>motion</effectcategory>
                                <parameter>
                                    <name>left</name>
                                    <parameterid>left</parameterid>
                                    <value>0</value>
                                    <valuemin>0</valuemin>
                                    <valuemax>100</valuemax>
                                </parameter>
                                <parameter>
                                    <name>right</name>
                                    <parameterid>right</parameterid>
                                    <value>0</value>
                                    <valuemin>0</valuemin>
                                    <valuemax>100</valuemax>
                                </parameter>
                                <parameter>
                                    <name>top</name>
                                    <parameterid>top</parameterid>
                                    <value>0</value>
                                    <valuemin>0</valuemin>
                                    <valuemax>100</valuemax>
                                </parameter>
                                <parameter>
                                    <name>bottom</name>
                                    <parameterid>bottom</parameterid>
                                    <value>0</value>
                                    <valuemin>0</valuemin>
                                    <valuemax>100</valuemax>
                                </parameter>
                            </effect>
                        </filter>
                        <filter>
                            <enabled>TRUE</enabled>
                            <start>0</start>
                            <end>243353</end>
                            <effect>
                                <name>Opacity</name>
                                <effectid>opacity</effectid>
                                <effecttype>motion</effecttype>
                                <mediatype>video</mediatype>
                                <effectcategory>motion</effectcategory>
                                <parameter>
                                    <name>opacity</name>
                                    <parameterid>opacity</parameterid>
                                    <value>100</value>
                                    <valuemin>0</valuemin>
                                    <valuemax>100</valuemax>
                                </parameter>
                            </effect>
                        </filter>
                        <link>
                            <linkclipref>Interstaller.mp4 141</linkclipref>
                        </link>
                        <link>
                            <linkclipref>Interstaller.mp4 315</linkclipref>
                        </link>
                        <comments/>
                    </clipitem>
                    <clipitem id="Interstaller.mp4 143">
                        <name>Interstaller.mp4</name>
                        <duration>243353</duration>
                        <rate>
                            <timebase>24</timebase>
                            <ntsc>FALSE</ntsc>
                        </rate>
                        <start>6103</start>
                        <end>6216</end>
                        <enabled>TRUE</enabled>
                        <in>170075</in>
                        <out>170188</out>
                        <file id="Interstaller.mp4 2"/>
                        <compositemode>normal</compositemode>
                        <filter>
                            <enabled>TRUE</enabled>
                            <start>0</start>
                            <end>243353</end>
                            <effect>
                                <name>Basic Motion</name>
                                <effectid>basic</effectid>
                                <effecttype>motion</effecttype>
                                <mediatype>video</mediatype>
                                <effectcategory>motion</effectcategory>
                                <parameter>
                                    <name>Scale</name>
                                    <parameterid>scale</parameterid>
                                    <value>100</value>
                                    <valuemin>0</valuemin>
                                    <valuemax>10000</valuemax>
                                </parameter>
                                <parameter>
                                    <name>Center</name>
                                    <parameterid>center</parameterid>
                                    <value>
                                        <horiz>0</horiz>
                                        <vert>0</vert>
                                    </value>
                                </parameter>
                                <parameter>
                                    <name>Rotation</name>
                                    <parameterid>rotation</parameterid>
                                    <value>0</value>
                                    <valuemin>-100000</valuemin>
                                    <valuemax>100000</valuemax>
                                </parameter>
                                <parameter>
                                    <name>Anchor Point</name>
                                    <parameterid>centerOffset</parameterid>
                                    <value>
                                        <horiz>0</horiz>
                                        <vert>0</vert>
                                    </value>
                                </parameter>
                            </effect>
                        </filter>
                        <filter>
                            <enabled>TRUE</enabled>
                            <start>0</start>
                            <end>243353</end>
                            <effect>
                                <name>Crop</name>
                                <effectid>crop</effectid>
                                <effecttype>motion</effecttype>
                                <mediatype>video</mediatype>
                                <effectcategory>motion</effectcategory>
                                <parameter>
                                    <name>left</name>
                                    <parameterid>left</parameterid>
                                    <value>0</value>
                                    <valuemin>0</valuemin>
                                    <valuemax>100</valuemax>
                                </parameter>
                                <parameter>
                                    <name>right</name>
                                    <parameterid>right</parameterid>
                                    <value>0</value>
                                    <valuemin>0</valuemin>
                                    <valuemax>100</valuemax>
                                </parameter>
                                <parameter>
                                    <name>top</name>
                                    <parameterid>top</parameterid>
                                    <value>0</value>
                                    <valuemin>0</valuemin>
                                    <valuemax>100</valuemax>
                                </parameter>
                                <parameter>
                                    <name>bottom</name>
                                    <parameterid>bottom</parameterid>
                                    <value>0</value>
                                    <valuemin>0</valuemin>
                                    <valuemax>100</valuemax>
                                </parameter>
                            </effect>
                        </filter>
                        <filter>
                            <enabled>TRUE</enabled>
                            <start>0</start>
                            <end>243353</end>
                            <effect>
                                <name>Opacity</name>
                                <effectid>opacity</effectid>
                                <effecttype>motion</effecttype>
                                <mediatype>video</mediatype>
                                <effectcategory>motion</effectcategory>
                                <parameter>
                                    <name>opacity</name>
                                    <parameterid>opacity</parameterid>
                                    <value>100</value>
                                    <valuemin>0</valuemin>
                                    <valuemax>100</valuemax>
                                </parameter>
                            </effect>
                        </filter>
                        <link>
                            <linkclipref>Interstaller.mp4 143</linkclipref>
                        </link>
                        <link>
                            <linkclipref>Interstaller.mp4 316</linkclipref>
                        </link>
                        <comments/>
                    </clipitem>
                    <clipitem id="Interstaller.mp4 145">
                        <name>Interstaller.mp4</name>
                        <duration>243353</duration>
                        <rate>
                            <timebase>24</timebase>
                            <ntsc>FALSE</ntsc>
                        </rate>
                        <start>6216</start>
                        <end>6332</end>
                        <enabled>TRUE</enabled>
                        <in>170188</in>
                        <out>170304</out>
                        <file id="Interstaller.mp4 2"/>
                        <compositemode>normal</compositemode>
                        <filter>
                            <enabled>TRUE</enabled>
                            <start>0</start>
                            <end>243353</end>
                            <effect>
                                <name>Basic Motion</name>
                                <effectid>basic</effectid>
                                <effecttype>motion</effecttype>
                                <mediatype>video</mediatype>
                                <effectcategory>motion</effectcategory>
                                <parameter>
                                    <name>Scale</name>
                                    <parameterid>scale</parameterid>
                                    <value>100</value>
                                    <valuemin>0</valuemin>
                                    <valuemax>10000</valuemax>
                                </parameter>
                                <parameter>
                                    <name>Center</name>
                                    <parameterid>center</parameterid>
                                    <value>
                                        <horiz>0</horiz>
                                        <vert>0</vert>
                                    </value>
                                </parameter>
                                <parameter>
                                    <name>Rotation</name>
                                    <parameterid>rotation</parameterid>
                                    <value>0</value>
                                    <valuemin>-100000</valuemin>
                                    <valuemax>100000</valuemax>
                                </parameter>
                                <parameter>
                                    <name>Anchor Point</name>
                                    <parameterid>centerOffset</parameterid>
                                    <value>
                                        <horiz>0</horiz>
                                        <vert>0</vert>
                                    </value>
                                </parameter>
                            </effect>
                        </filter>
                        <filter>
                            <enabled>TRUE</enabled>
                            <start>0</start>
                            <end>243353</end>
                            <effect>
                                <name>Crop</name>
                                <effectid>crop</effectid>
                                <effecttype>motion</effecttype>
                                <mediatype>video</mediatype>
                                <effectcategory>motion</effectcategory>
                                <parameter>
                                    <name>left</name>
                                    <parameterid>left</parameterid>
                                    <value>0</value>
                                    <valuemin>0</valuemin>
                                    <valuemax>100</valuemax>
                                </parameter>
                                <parameter>
                                    <name>right</name>
                                    <parameterid>right</parameterid>
                                    <value>0</value>
                                    <valuemin>0</valuemin>
                                    <valuemax>100</valuemax>
                                </parameter>
                                <parameter>
                                    <name>top</name>
                                    <parameterid>top</parameterid>
                                    <value>0</value>
                                    <valuemin>0</valuemin>
                                    <valuemax>100</valuemax>
                                </parameter>
                                <parameter>
                                    <name>bottom</name>
                                    <parameterid>bottom</parameterid>
                                    <value>0</value>
                                    <valuemin>0</valuemin>
                                    <valuemax>100</valuemax>
                                </parameter>
                            </effect>
                        </filter>
                        <filter>
                            <enabled>TRUE</enabled>
                            <start>0</start>
                            <end>243353</end>
                            <effect>
                                <name>Opacity</name>
                                <effectid>opacity</effectid>
                                <effecttype>motion</effecttype>
                                <mediatype>video</mediatype>
                                <effectcategory>motion</effectcategory>
                                <parameter>
                                    <name>opacity</name>
                                    <parameterid>opacity</parameterid>
                                    <value>100</value>
                                    <valuemin>0</valuemin>
                                    <valuemax>100</valuemax>
                                </parameter>
                            </effect>
                        </filter>
                        <link>
                            <linkclipref>Interstaller.mp4 145</linkclipref>
                        </link>
                        <link>
                            <linkclipref>Interstaller.mp4 317</linkclipref>
                        </link>
                        <comments/>
                    </clipitem>
                    <clipitem id="Interstaller.mp4 147">
                        <name>Interstaller.mp4</name>
                        <duration>243353</duration>
                        <rate>
                            <timebase>24</timebase>
                            <ntsc>FALSE</ntsc>
                        </rate>
                        <start>6332</start>
                        <end>6416</end>
                        <enabled>TRUE</enabled>
                        <in>170304</in>
                        <out>170388</out>
                        <file id="Interstaller.mp4 2"/>
                        <compositemode>normal</compositemode>
                        <filter>
                            <enabled>TRUE</enabled>
                            <start>0</start>
                            <end>243353</end>
                            <effect>
                                <name>Basic Motion</name>
                                <effectid>basic</effectid>
                                <effecttype>motion</effecttype>
                                <mediatype>video</mediatype>
                                <effectcategory>motion</effectcategory>
                                <parameter>
                                    <name>Scale</name>
                                    <parameterid>scale</parameterid>
                                    <value>100</value>
                                    <valuemin>0</valuemin>
                                    <valuemax>10000</valuemax>
                                </parameter>
                                <parameter>
                                    <name>Center</name>
                                    <parameterid>center</parameterid>
                                    <value>
                                        <horiz>0</horiz>
                                        <vert>0</vert>
                                    </value>
                                </parameter>
                                <parameter>
                                    <name>Rotation</name>
                                    <parameterid>rotation</parameterid>
                                    <value>0</value>
                                    <valuemin>-100000</valuemin>
                                    <valuemax>100000</valuemax>
                                </parameter>
                                <parameter>
                                    <name>Anchor Point</name>
                                    <parameterid>centerOffset</parameterid>
                                    <value>
                                        <horiz>0</horiz>
                                        <vert>0</vert>
                                    </value>
                                </parameter>
                            </effect>
                        </filter>
                        <filter>
                            <enabled>TRUE</enabled>
                            <start>0</start>
                            <end>243353</end>
                            <effect>
                                <name>Crop</name>
                                <effectid>crop</effectid>
                                <effecttype>motion</effecttype>
                                <mediatype>video</mediatype>
                                <effectcategory>motion</effectcategory>
                                <parameter>
                                    <name>left</name>
                                    <parameterid>left</parameterid>
                                    <value>0</value>
                                    <valuemin>0</valuemin>
                                    <valuemax>100</valuemax>
                                </parameter>
                                <parameter>
                                    <name>right</name>
                                    <parameterid>right</parameterid>
                                    <value>0</value>
                                    <valuemin>0</valuemin>
                                    <valuemax>100</valuemax>
                                </parameter>
                                <parameter>
                                    <name>top</name>
                                    <parameterid>top</parameterid>
                                    <value>0</value>
                                    <valuemin>0</valuemin>
                                    <valuemax>100</valuemax>
                                </parameter>
                                <parameter>
                                    <name>bottom</name>
                                    <parameterid>bottom</parameterid>
                                    <value>0</value>
                                    <valuemin>0</valuemin>
                                    <valuemax>100</valuemax>
                                </parameter>
                            </effect>
                        </filter>
                        <filter>
                            <enabled>TRUE</enabled>
                            <start>0</start>
                            <end>243353</end>
                            <effect>
                                <name>Opacity</name>
                                <effectid>opacity</effectid>
                                <effecttype>motion</effecttype>
                                <mediatype>video</mediatype>
                                <effectcategory>motion</effectcategory>
                                <parameter>
                                    <name>opacity</name>
                                    <parameterid>opacity</parameterid>
                                    <value>100</value>
                                    <valuemin>0</valuemin>
                                    <valuemax>100</valuemax>
                                </parameter>
                            </effect>
                        </filter>
                        <link>
                            <linkclipref>Interstaller.mp4 147</linkclipref>
                        </link>
                        <link>
                            <linkclipref>Interstaller.mp4 318</linkclipref>
                        </link>
                        <comments/>
                    </clipitem>
                    <clipitem id="Interstaller.mp4 149">
                        <name>Interstaller.mp4</name>
                        <duration>243353</duration>
                        <rate>
                            <timebase>24</timebase>
                            <ntsc>FALSE</ntsc>
                        </rate>
                        <start>6416</start>
                        <end>6468</end>
                        <enabled>TRUE</enabled>
                        <in>170388</in>
                        <out>170440</out>
                        <file id="Interstaller.mp4 2"/>
                        <compositemode>normal</compositemode>
                        <filter>
                            <enabled>TRUE</enabled>
                            <start>0</start>
                            <end>243353</end>
                            <effect>
                                <name>Basic Motion</name>
                                <effectid>basic</effectid>
                                <effecttype>motion</effecttype>
                                <mediatype>video</mediatype>
                                <effectcategory>motion</effectcategory>
                                <parameter>
                                    <name>Scale</name>
                                    <parameterid>scale</parameterid>
                                    <value>100</value>
                                    <valuemin>0</valuemin>
                                    <valuemax>10000</valuemax>
                                </parameter>
                                <parameter>
                                    <name>Center</name>
                                    <parameterid>center</parameterid>
                                    <value>
                                        <horiz>0</horiz>
                                        <vert>0</vert>
                                    </value>
                                </parameter>
                                <parameter>
                                    <name>Rotation</name>
                                    <parameterid>rotation</parameterid>
                                    <value>0</value>
                                    <valuemin>-100000</valuemin>
                                    <valuemax>100000</valuemax>
                                </parameter>
                                <parameter>
                                    <name>Anchor Point</name>
                                    <parameterid>centerOffset</parameterid>
                                    <value>
                                        <horiz>0</horiz>
                                        <vert>0</vert>
                                    </value>
                                </parameter>
                            </effect>
                        </filter>
                        <filter>
                            <enabled>TRUE</enabled>
                            <start>0</start>
                            <end>243353</end>
                            <effect>
                                <name>Crop</name>
                                <effectid>crop</effectid>
                                <effecttype>motion</effecttype>
                                <mediatype>video</mediatype>
                                <effectcategory>motion</effectcategory>
                                <parameter>
                                    <name>left</name>
                                    <parameterid>left</parameterid>
                                    <value>0</value>
                                    <valuemin>0</valuemin>
                                    <valuemax>100</valuemax>
                                </parameter>
                                <parameter>
                                    <name>right</name>
                                    <parameterid>right</parameterid>
                                    <value>0</value>
                                    <valuemin>0</valuemin>
                                    <valuemax>100</valuemax>
                                </parameter>
                                <parameter>
                                    <name>top</name>
                                    <parameterid>top</parameterid>
                                    <value>0</value>
                                    <valuemin>0</valuemin>
                                    <valuemax>100</valuemax>
                                </parameter>
                                <parameter>
                                    <name>bottom</name>
                                    <parameterid>bottom</parameterid>
                                    <value>0</value>
                                    <valuemin>0</valuemin>
                                    <valuemax>100</valuemax>
                                </parameter>
                            </effect>
                        </filter>
                        <filter>
                            <enabled>TRUE</enabled>
                            <start>0</start>
                            <end>243353</end>
                            <effect>
                                <name>Opacity</name>
                                <effectid>opacity</effectid>
                                <effecttype>motion</effecttype>
                                <mediatype>video</mediatype>
                                <effectcategory>motion</effectcategory>
                                <parameter>
                                    <name>opacity</name>
                                    <parameterid>opacity</parameterid>
                                    <value>100</value>
                                    <valuemin>0</valuemin>
                                    <valuemax>100</valuemax>
                                </parameter>
                            </effect>
                        </filter>
                        <link>
                            <linkclipref>Interstaller.mp4 149</linkclipref>
                        </link>
                        <link>
                            <linkclipref>Interstaller.mp4 319</linkclipref>
                        </link>
                        <comments/>
                    </clipitem>
                    <clipitem id="Interstaller.mp4 151">
                        <name>Interstaller.mp4</name>
                        <duration>243353</duration>
                        <rate>
                            <timebase>24</timebase>
                            <ntsc>FALSE</ntsc>
                        </rate>
                        <start>6468</start>
                        <end>6571</end>
                        <enabled>TRUE</enabled>
                        <in>170440</in>
                        <out>170543</out>
                        <file id="Interstaller.mp4 2"/>
                        <compositemode>normal</compositemode>
                        <filter>
                            <enabled>TRUE</enabled>
                            <start>0</start>
                            <end>243353</end>
                            <effect>
                                <name>Basic Motion</name>
                                <effectid>basic</effectid>
                                <effecttype>motion</effecttype>
                                <mediatype>video</mediatype>
                                <effectcategory>motion</effectcategory>
                                <parameter>
                                    <name>Scale</name>
                                    <parameterid>scale</parameterid>
                                    <value>100</value>
                                    <valuemin>0</valuemin>
                                    <valuemax>10000</valuemax>
                                </parameter>
                                <parameter>
                                    <name>Center</name>
                                    <parameterid>center</parameterid>
                                    <value>
                                        <horiz>0</horiz>
                                        <vert>0</vert>
                                    </value>
                                </parameter>
                                <parameter>
                                    <name>Rotation</name>
                                    <parameterid>rotation</parameterid>
                                    <value>0</value>
                                    <valuemin>-100000</valuemin>
                                    <valuemax>100000</valuemax>
                                </parameter>
                                <parameter>
                                    <name>Anchor Point</name>
                                    <parameterid>centerOffset</parameterid>
                                    <value>
                                        <horiz>0</horiz>
                                        <vert>0</vert>
                                    </value>
                                </parameter>
                            </effect>
                        </filter>
                        <filter>
                            <enabled>TRUE</enabled>
                            <start>0</start>
                            <end>243353</end>
                            <effect>
                                <name>Crop</name>
                                <effectid>crop</effectid>
                                <effecttype>motion</effecttype>
                                <mediatype>video</mediatype>
                                <effectcategory>motion</effectcategory>
                                <parameter>
                                    <name>left</name>
                                    <parameterid>left</parameterid>
                                    <value>0</value>
                                    <valuemin>0</valuemin>
                                    <valuemax>100</valuemax>
                                </parameter>
                                <parameter>
                                    <name>right</name>
                                    <parameterid>right</parameterid>
                                    <value>0</value>
                                    <valuemin>0</valuemin>
                                    <valuemax>100</valuemax>
                                </parameter>
                                <parameter>
                                    <name>top</name>
                                    <parameterid>top</parameterid>
                                    <value>0</value>
                                    <valuemin>0</valuemin>
                                    <valuemax>100</valuemax>
                                </parameter>
                                <parameter>
                                    <name>bottom</name>
                                    <parameterid>bottom</parameterid>
                                    <value>0</value>
                                    <valuemin>0</valuemin>
                                    <valuemax>100</valuemax>
                                </parameter>
                            </effect>
                        </filter>
                        <filter>
                            <enabled>TRUE</enabled>
                            <start>0</start>
                            <end>243353</end>
                            <effect>
                                <name>Opacity</name>
                                <effectid>opacity</effectid>
                                <effecttype>motion</effecttype>
                                <mediatype>video</mediatype>
                                <effectcategory>motion</effectcategory>
                                <parameter>
                                    <name>opacity</name>
                                    <parameterid>opacity</parameterid>
                                    <value>100</value>
                                    <valuemin>0</valuemin>
                                    <valuemax>100</valuemax>
                                </parameter>
                            </effect>
                        </filter>
                        <link>
                            <linkclipref>Interstaller.mp4 151</linkclipref>
                        </link>
                        <link>
                            <linkclipref>Interstaller.mp4 320</linkclipref>
                        </link>
                        <comments/>
                    </clipitem>
                    <clipitem id="Interstaller.mp4 153">
                        <name>Interstaller.mp4</name>
                        <duration>243353</duration>
                        <rate>
                            <timebase>24</timebase>
                            <ntsc>FALSE</ntsc>
                        </rate>
                        <start>6571</start>
                        <end>6688</end>
                        <enabled>TRUE</enabled>
                        <in>170543</in>
                        <out>170660</out>
                        <file id="Interstaller.mp4 2"/>
                        <compositemode>normal</compositemode>
                        <filter>
                            <enabled>TRUE</enabled>
                            <start>0</start>
                            <end>243353</end>
                            <effect>
                                <name>Basic Motion</name>
                                <effectid>basic</effectid>
                                <effecttype>motion</effecttype>
                                <mediatype>video</mediatype>
                                <effectcategory>motion</effectcategory>
                                <parameter>
                                    <name>Scale</name>
                                    <parameterid>scale</parameterid>
                                    <value>100</value>
                                    <valuemin>0</valuemin>
                                    <valuemax>10000</valuemax>
                                </parameter>
                                <parameter>
                                    <name>Center</name>
                                    <parameterid>center</parameterid>
                                    <value>
                                        <horiz>0</horiz>
                                        <vert>0</vert>
                                    </value>
                                </parameter>
                                <parameter>
                                    <name>Rotation</name>
                                    <parameterid>rotation</parameterid>
                                    <value>0</value>
                                    <valuemin>-100000</valuemin>
                                    <valuemax>100000</valuemax>
                                </parameter>
                                <parameter>
                                    <name>Anchor Point</name>
                                    <parameterid>centerOffset</parameterid>
                                    <value>
                                        <horiz>0</horiz>
                                        <vert>0</vert>
                                    </value>
                                </parameter>
                            </effect>
                        </filter>
                        <filter>
                            <enabled>TRUE</enabled>
                            <start>0</start>
                            <end>243353</end>
                            <effect>
                                <name>Crop</name>
                                <effectid>crop</effectid>
                                <effecttype>motion</effecttype>
                                <mediatype>video</mediatype>
                                <effectcategory>motion</effectcategory>
                                <parameter>
                                    <name>left</name>
                                    <parameterid>left</parameterid>
                                    <value>0</value>
                                    <valuemin>0</valuemin>
                                    <valuemax>100</valuemax>
                                </parameter>
                                <parameter>
                                    <name>right</name>
                                    <parameterid>right</parameterid>
                                    <value>0</value>
                                    <valuemin>0</valuemin>
                                    <valuemax>100</valuemax>
                                </parameter>
                                <parameter>
                                    <name>top</name>
                                    <parameterid>top</parameterid>
                                    <value>0</value>
                                    <valuemin>0</valuemin>
                                    <valuemax>100</valuemax>
                                </parameter>
                                <parameter>
                                    <name>bottom</name>
                                    <parameterid>bottom</parameterid>
                                    <value>0</value>
                                    <valuemin>0</valuemin>
                                    <valuemax>100</valuemax>
                                </parameter>
                            </effect>
                        </filter>
                        <filter>
                            <enabled>TRUE</enabled>
                            <start>0</start>
                            <end>243353</end>
                            <effect>
                                <name>Opacity</name>
                                <effectid>opacity</effectid>
                                <effecttype>motion</effecttype>
                                <mediatype>video</mediatype>
                                <effectcategory>motion</effectcategory>
                                <parameter>
                                    <name>opacity</name>
                                    <parameterid>opacity</parameterid>
                                    <value>100</value>
                                    <valuemin>0</valuemin>
                                    <valuemax>100</valuemax>
                                </parameter>
                            </effect>
                        </filter>
                        <link>
                            <linkclipref>Interstaller.mp4 153</linkclipref>
                        </link>
                        <link>
                            <linkclipref>Interstaller.mp4 321</linkclipref>
                        </link>
                        <comments/>
                    </clipitem>
                    <clipitem id="Interstaller.mp4 155">
                        <name>Interstaller.mp4</name>
                        <duration>243353</duration>
                        <rate>
                            <timebase>24</timebase>
                            <ntsc>FALSE</ntsc>
                        </rate>
                        <start>6688</start>
                        <end>6725</end>
                        <enabled>TRUE</enabled>
                        <in>170660</in>
                        <out>170697</out>
                        <file id="Interstaller.mp4 2"/>
                        <compositemode>normal</compositemode>
                        <filter>
                            <enabled>TRUE</enabled>
                            <start>0</start>
                            <end>243353</end>
                            <effect>
                                <name>Basic Motion</name>
                                <effectid>basic</effectid>
                                <effecttype>motion</effecttype>
                                <mediatype>video</mediatype>
                                <effectcategory>motion</effectcategory>
                                <parameter>
                                    <name>Scale</name>
                                    <parameterid>scale</parameterid>
                                    <value>100</value>
                                    <valuemin>0</valuemin>
                                    <valuemax>10000</valuemax>
                                </parameter>
                                <parameter>
                                    <name>Center</name>
                                    <parameterid>center</parameterid>
                                    <value>
                                        <horiz>0</horiz>
                                        <vert>0</vert>
                                    </value>
                                </parameter>
                                <parameter>
                                    <name>Rotation</name>
                                    <parameterid>rotation</parameterid>
                                    <value>0</value>
                                    <valuemin>-100000</valuemin>
                                    <valuemax>100000</valuemax>
                                </parameter>
                                <parameter>
                                    <name>Anchor Point</name>
                                    <parameterid>centerOffset</parameterid>
                                    <value>
                                        <horiz>0</horiz>
                                        <vert>0</vert>
                                    </value>
                                </parameter>
                            </effect>
                        </filter>
                        <filter>
                            <enabled>TRUE</enabled>
                            <start>0</start>
                            <end>243353</end>
                            <effect>
                                <name>Crop</name>
                                <effectid>crop</effectid>
                                <effecttype>motion</effecttype>
                                <mediatype>video</mediatype>
                                <effectcategory>motion</effectcategory>
                                <parameter>
                                    <name>left</name>
                                    <parameterid>left</parameterid>
                                    <value>0</value>
                                    <valuemin>0</valuemin>
                                    <valuemax>100</valuemax>
                                </parameter>
                                <parameter>
                                    <name>right</name>
                                    <parameterid>right</parameterid>
                                    <value>0</value>
                                    <valuemin>0</valuemin>
                                    <valuemax>100</valuemax>
                                </parameter>
                                <parameter>
                                    <name>top</name>
                                    <parameterid>top</parameterid>
                                    <value>0</value>
                                    <valuemin>0</valuemin>
                                    <valuemax>100</valuemax>
                                </parameter>
                                <parameter>
                                    <name>bottom</name>
                                    <parameterid>bottom</parameterid>
                                    <value>0</value>
                                    <valuemin>0</valuemin>
                                    <valuemax>100</valuemax>
                                </parameter>
                            </effect>
                        </filter>
                        <filter>
                            <enabled>TRUE</enabled>
                            <start>0</start>
                            <end>243353</end>
                            <effect>
                                <name>Opacity</name>
                                <effectid>opacity</effectid>
                                <effecttype>motion</effecttype>
                                <mediatype>video</mediatype>
                                <effectcategory>motion</effectcategory>
                                <parameter>
                                    <name>opacity</name>
                                    <parameterid>opacity</parameterid>
                                    <value>100</value>
                                    <valuemin>0</valuemin>
                                    <valuemax>100</valuemax>
                                </parameter>
                            </effect>
                        </filter>
                        <link>
                            <linkclipref>Interstaller.mp4 155</linkclipref>
                        </link>
                        <link>
                            <linkclipref>Interstaller.mp4 322</linkclipref>
                        </link>
                        <comments/>
                    </clipitem>
                    <clipitem id="Interstaller.mp4 157">
                        <name>Interstaller.mp4</name>
                        <duration>243353</duration>
                        <rate>
                            <timebase>24</timebase>
                            <ntsc>FALSE</ntsc>
                        </rate>
                        <start>6725</start>
                        <end>6775</end>
                        <enabled>TRUE</enabled>
                        <in>170697</in>
                        <out>170747</out>
                        <file id="Interstaller.mp4 2"/>
                        <compositemode>normal</compositemode>
                        <filter>
                            <enabled>TRUE</enabled>
                            <start>0</start>
                            <end>243353</end>
                            <effect>
                                <name>Basic Motion</name>
                                <effectid>basic</effectid>
                                <effecttype>motion</effecttype>
                                <mediatype>video</mediatype>
                                <effectcategory>motion</effectcategory>
                                <parameter>
                                    <name>Scale</name>
                                    <parameterid>scale</parameterid>
                                    <value>100</value>
                                    <valuemin>0</valuemin>
                                    <valuemax>10000</valuemax>
                                </parameter>
                                <parameter>
                                    <name>Center</name>
                                    <parameterid>center</parameterid>
                                    <value>
                                        <horiz>0</horiz>
                                        <vert>0</vert>
                                    </value>
                                </parameter>
                                <parameter>
                                    <name>Rotation</name>
                                    <parameterid>rotation</parameterid>
                                    <value>0</value>
                                    <valuemin>-100000</valuemin>
                                    <valuemax>100000</valuemax>
                                </parameter>
                                <parameter>
                                    <name>Anchor Point</name>
                                    <parameterid>centerOffset</parameterid>
                                    <value>
                                        <horiz>0</horiz>
                                        <vert>0</vert>
                                    </value>
                                </parameter>
                            </effect>
                        </filter>
                        <filter>
                            <enabled>TRUE</enabled>
                            <start>0</start>
                            <end>243353</end>
                            <effect>
                                <name>Crop</name>
                                <effectid>crop</effectid>
                                <effecttype>motion</effecttype>
                                <mediatype>video</mediatype>
                                <effectcategory>motion</effectcategory>
                                <parameter>
                                    <name>left</name>
                                    <parameterid>left</parameterid>
                                    <value>0</value>
                                    <valuemin>0</valuemin>
                                    <valuemax>100</valuemax>
                                </parameter>
                                <parameter>
                                    <name>right</name>
                                    <parameterid>right</parameterid>
                                    <value>0</value>
                                    <valuemin>0</valuemin>
                                    <valuemax>100</valuemax>
                                </parameter>
                                <parameter>
                                    <name>top</name>
                                    <parameterid>top</parameterid>
                                    <value>0</value>
                                    <valuemin>0</valuemin>
                                    <valuemax>100</valuemax>
                                </parameter>
                                <parameter>
                                    <name>bottom</name>
                                    <parameterid>bottom</parameterid>
                                    <value>0</value>
                                    <valuemin>0</valuemin>
                                    <valuemax>100</valuemax>
                                </parameter>
                            </effect>
                        </filter>
                        <filter>
                            <enabled>TRUE</enabled>
                            <start>0</start>
                            <end>243353</end>
                            <effect>
                                <name>Opacity</name>
                                <effectid>opacity</effectid>
                                <effecttype>motion</effecttype>
                                <mediatype>video</mediatype>
                                <effectcategory>motion</effectcategory>
                                <parameter>
                                    <name>opacity</name>
                                    <parameterid>opacity</parameterid>
                                    <value>100</value>
                                    <valuemin>0</valuemin>
                                    <valuemax>100</valuemax>
                                </parameter>
                            </effect>
                        </filter>
                        <link>
                            <linkclipref>Interstaller.mp4 157</linkclipref>
                        </link>
                        <link>
                            <linkclipref>Interstaller.mp4 323</linkclipref>
                        </link>
                        <comments/>
                    </clipitem>
                    <clipitem id="Interstaller.mp4 159">
                        <name>Interstaller.mp4</name>
                        <duration>243353</duration>
                        <rate>
                            <timebase>24</timebase>
                            <ntsc>FALSE</ntsc>
                        </rate>
                        <start>6775</start>
                        <end>6900</end>
                        <enabled>TRUE</enabled>
                        <in>170747</in>
                        <out>170872</out>
                        <file id="Interstaller.mp4 2"/>
                        <compositemode>normal</compositemode>
                        <filter>
                            <enabled>TRUE</enabled>
                            <start>0</start>
                            <end>243353</end>
                            <effect>
                                <name>Basic Motion</name>
                                <effectid>basic</effectid>
                                <effecttype>motion</effecttype>
                                <mediatype>video</mediatype>
                                <effectcategory>motion</effectcategory>
                                <parameter>
                                    <name>Scale</name>
                                    <parameterid>scale</parameterid>
                                    <value>100</value>
                                    <valuemin>0</valuemin>
                                    <valuemax>10000</valuemax>
                                </parameter>
                                <parameter>
                                    <name>Center</name>
                                    <parameterid>center</parameterid>
                                    <value>
                                        <horiz>0</horiz>
                                        <vert>0</vert>
                                    </value>
                                </parameter>
                                <parameter>
                                    <name>Rotation</name>
                                    <parameterid>rotation</parameterid>
                                    <value>0</value>
                                    <valuemin>-100000</valuemin>
                                    <valuemax>100000</valuemax>
                                </parameter>
                                <parameter>
                                    <name>Anchor Point</name>
                                    <parameterid>centerOffset</parameterid>
                                    <value>
                                        <horiz>0</horiz>
                                        <vert>0</vert>
                                    </value>
                                </parameter>
                            </effect>
                        </filter>
                        <filter>
                            <enabled>TRUE</enabled>
                            <start>0</start>
                            <end>243353</end>
                            <effect>
                                <name>Crop</name>
                                <effectid>crop</effectid>
                                <effecttype>motion</effecttype>
                                <mediatype>video</mediatype>
                                <effectcategory>motion</effectcategory>
                                <parameter>
                                    <name>left</name>
                                    <parameterid>left</parameterid>
                                    <value>0</value>
                                    <valuemin>0</valuemin>
                                    <valuemax>100</valuemax>
                                </parameter>
                                <parameter>
                                    <name>right</name>
                                    <parameterid>right</parameterid>
                                    <value>0</value>
                                    <valuemin>0</valuemin>
                                    <valuemax>100</valuemax>
                                </parameter>
                                <parameter>
                                    <name>top</name>
                                    <parameterid>top</parameterid>
                                    <value>0</value>
                                    <valuemin>0</valuemin>
                                    <valuemax>100</valuemax>
                                </parameter>
                                <parameter>
                                    <name>bottom</name>
                                    <parameterid>bottom</parameterid>
                                    <value>0</value>
                                    <valuemin>0</valuemin>
                                    <valuemax>100</valuemax>
                                </parameter>
                            </effect>
                        </filter>
                        <filter>
                            <enabled>TRUE</enabled>
                            <start>0</start>
                            <end>243353</end>
                            <effect>
                                <name>Opacity</name>
                                <effectid>opacity</effectid>
                                <effecttype>motion</effecttype>
                                <mediatype>video</mediatype>
                                <effectcategory>motion</effectcategory>
                                <parameter>
                                    <name>opacity</name>
                                    <parameterid>opacity</parameterid>
                                    <value>100</value>
                                    <valuemin>0</valuemin>
                                    <valuemax>100</valuemax>
                                </parameter>
                            </effect>
                        </filter>
                        <link>
                            <linkclipref>Interstaller.mp4 159</linkclipref>
                        </link>
                        <link>
                            <linkclipref>Interstaller.mp4 324</linkclipref>
                        </link>
                        <comments/>
                    </clipitem>
                    <clipitem id="Interstaller.mp4 161">
                        <name>Interstaller.mp4</name>
                        <duration>243353</duration>
                        <rate>
                            <timebase>24</timebase>
                            <ntsc>FALSE</ntsc>
                        </rate>
                        <start>6900</start>
                        <end>6958</end>
                        <enabled>TRUE</enabled>
                        <in>170872</in>
                        <out>170930</out>
                        <file id="Interstaller.mp4 2"/>
                        <compositemode>normal</compositemode>
                        <filter>
                            <enabled>TRUE</enabled>
                            <start>0</start>
                            <end>243353</end>
                            <effect>
                                <name>Basic Motion</name>
                                <effectid>basic</effectid>
                                <effecttype>motion</effecttype>
                                <mediatype>video</mediatype>
                                <effectcategory>motion</effectcategory>
                                <parameter>
                                    <name>Scale</name>
                                    <parameterid>scale</parameterid>
                                    <value>100</value>
                                    <valuemin>0</valuemin>
                                    <valuemax>10000</valuemax>
                                </parameter>
                                <parameter>
                                    <name>Center</name>
                                    <parameterid>center</parameterid>
                                    <value>
                                        <horiz>0</horiz>
                                        <vert>0</vert>
                                    </value>
                                </parameter>
                                <parameter>
                                    <name>Rotation</name>
                                    <parameterid>rotation</parameterid>
                                    <value>0</value>
                                    <valuemin>-100000</valuemin>
                                    <valuemax>100000</valuemax>
                                </parameter>
                                <parameter>
                                    <name>Anchor Point</name>
                                    <parameterid>centerOffset</parameterid>
                                    <value>
                                        <horiz>0</horiz>
                                        <vert>0</vert>
                                    </value>
                                </parameter>
                            </effect>
                        </filter>
                        <filter>
                            <enabled>TRUE</enabled>
                            <start>0</start>
                            <end>243353</end>
                            <effect>
                                <name>Crop</name>
                                <effectid>crop</effectid>
                                <effecttype>motion</effecttype>
                                <mediatype>video</mediatype>
                                <effectcategory>motion</effectcategory>
                                <parameter>
                                    <name>left</name>
                                    <parameterid>left</parameterid>
                                    <value>0</value>
                                    <valuemin>0</valuemin>
                                    <valuemax>100</valuemax>
                                </parameter>
                                <parameter>
                                    <name>right</name>
                                    <parameterid>right</parameterid>
                                    <value>0</value>
                                    <valuemin>0</valuemin>
                                    <valuemax>100</valuemax>
                                </parameter>
                                <parameter>
                                    <name>top</name>
                                    <parameterid>top</parameterid>
                                    <value>0</value>
                                    <valuemin>0</valuemin>
                                    <valuemax>100</valuemax>
                                </parameter>
                                <parameter>
                                    <name>bottom</name>
                                    <parameterid>bottom</parameterid>
                                    <value>0</value>
                                    <valuemin>0</valuemin>
                                    <valuemax>100</valuemax>
                                </parameter>
                            </effect>
                        </filter>
                        <filter>
                            <enabled>TRUE</enabled>
                            <start>0</start>
                            <end>243353</end>
                            <effect>
                                <name>Opacity</name>
                                <effectid>opacity</effectid>
                                <effecttype>motion</effecttype>
                                <mediatype>video</mediatype>
                                <effectcategory>motion</effectcategory>
                                <parameter>
                                    <name>opacity</name>
                                    <parameterid>opacity</parameterid>
                                    <value>100</value>
                                    <valuemin>0</valuemin>
                                    <valuemax>100</valuemax>
                                </parameter>
                            </effect>
                        </filter>
                        <link>
                            <linkclipref>Interstaller.mp4 161</linkclipref>
                        </link>
                        <link>
                            <linkclipref>Interstaller.mp4 325</linkclipref>
                        </link>
                        <comments/>
                    </clipitem>
                    <clipitem id="Interstaller.mp4 163">
                        <name>Interstaller.mp4</name>
                        <duration>243353</duration>
                        <rate>
                            <timebase>24</timebase>
                            <ntsc>FALSE</ntsc>
                        </rate>
                        <start>6958</start>
                        <end>6998</end>
                        <enabled>TRUE</enabled>
                        <in>170930</in>
                        <out>170970</out>
                        <file id="Interstaller.mp4 2"/>
                        <compositemode>normal</compositemode>
                        <filter>
                            <enabled>TRUE</enabled>
                            <start>0</start>
                            <end>243353</end>
                            <effect>
                                <name>Basic Motion</name>
                                <effectid>basic</effectid>
                                <effecttype>motion</effecttype>
                                <mediatype>video</mediatype>
                                <effectcategory>motion</effectcategory>
                                <parameter>
                                    <name>Scale</name>
                                    <parameterid>scale</parameterid>
                                    <value>100</value>
                                    <valuemin>0</valuemin>
                                    <valuemax>10000</valuemax>
                                </parameter>
                                <parameter>
                                    <name>Center</name>
                                    <parameterid>center</parameterid>
                                    <value>
                                        <horiz>0</horiz>
                                        <vert>0</vert>
                                    </value>
                                </parameter>
                                <parameter>
                                    <name>Rotation</name>
                                    <parameterid>rotation</parameterid>
                                    <value>0</value>
                                    <valuemin>-100000</valuemin>
                                    <valuemax>100000</valuemax>
                                </parameter>
                                <parameter>
                                    <name>Anchor Point</name>
                                    <parameterid>centerOffset</parameterid>
                                    <value>
                                        <horiz>0</horiz>
                                        <vert>0</vert>
                                    </value>
                                </parameter>
                            </effect>
                        </filter>
                        <filter>
                            <enabled>TRUE</enabled>
                            <start>0</start>
                            <end>243353</end>
                            <effect>
                                <name>Crop</name>
                                <effectid>crop</effectid>
                                <effecttype>motion</effecttype>
                                <mediatype>video</mediatype>
                                <effectcategory>motion</effectcategory>
                                <parameter>
                                    <name>left</name>
                                    <parameterid>left</parameterid>
                                    <value>0</value>
                                    <valuemin>0</valuemin>
                                    <valuemax>100</valuemax>
                                </parameter>
                                <parameter>
                                    <name>right</name>
                                    <parameterid>right</parameterid>
                                    <value>0</value>
                                    <valuemin>0</valuemin>
                                    <valuemax>100</valuemax>
                                </parameter>
                                <parameter>
                                    <name>top</name>
                                    <parameterid>top</parameterid>
                                    <value>0</value>
                                    <valuemin>0</valuemin>
                                    <valuemax>100</valuemax>
                                </parameter>
                                <parameter>
                                    <name>bottom</name>
                                    <parameterid>bottom</parameterid>
                                    <value>0</value>
                                    <valuemin>0</valuemin>
                                    <valuemax>100</valuemax>
                                </parameter>
                            </effect>
                        </filter>
                        <filter>
                            <enabled>TRUE</enabled>
                            <start>0</start>
                            <end>243353</end>
                            <effect>
                                <name>Opacity</name>
                                <effectid>opacity</effectid>
                                <effecttype>motion</effecttype>
                                <mediatype>video</mediatype>
                                <effectcategory>motion</effectcategory>
                                <parameter>
                                    <name>opacity</name>
                                    <parameterid>opacity</parameterid>
                                    <value>100</value>
                                    <valuemin>0</valuemin>
                                    <valuemax>100</valuemax>
                                </parameter>
                            </effect>
                        </filter>
                        <link>
                            <linkclipref>Interstaller.mp4 163</linkclipref>
                        </link>
                        <link>
                            <linkclipref>Interstaller.mp4 326</linkclipref>
                        </link>
                        <comments/>
                    </clipitem>
                    <clipitem id="Interstaller.mp4 165">
                        <name>Interstaller.mp4</name>
                        <duration>243353</duration>
                        <rate>
                            <timebase>24</timebase>
                            <ntsc>FALSE</ntsc>
                        </rate>
                        <start>6998</start>
                        <end>7058</end>
                        <enabled>TRUE</enabled>
                        <in>170970</in>
                        <out>171030</out>
                        <file id="Interstaller.mp4 2"/>
                        <compositemode>normal</compositemode>
                        <filter>
                            <enabled>TRUE</enabled>
                            <start>0</start>
                            <end>243353</end>
                            <effect>
                                <name>Basic Motion</name>
                                <effectid>basic</effectid>
                                <effecttype>motion</effecttype>
                                <mediatype>video</mediatype>
                                <effectcategory>motion</effectcategory>
                                <parameter>
                                    <name>Scale</name>
                                    <parameterid>scale</parameterid>
                                    <value>100</value>
                                    <valuemin>0</valuemin>
                                    <valuemax>10000</valuemax>
                                </parameter>
                                <parameter>
                                    <name>Center</name>
                                    <parameterid>center</parameterid>
                                    <value>
                                        <horiz>0</horiz>
                                        <vert>0</vert>
                                    </value>
                                </parameter>
                                <parameter>
                                    <name>Rotation</name>
                                    <parameterid>rotation</parameterid>
                                    <value>0</value>
                                    <valuemin>-100000</valuemin>
                                    <valuemax>100000</valuemax>
                                </parameter>
                                <parameter>
                                    <name>Anchor Point</name>
                                    <parameterid>centerOffset</parameterid>
                                    <value>
                                        <horiz>0</horiz>
                                        <vert>0</vert>
                                    </value>
                                </parameter>
                            </effect>
                        </filter>
                        <filter>
                            <enabled>TRUE</enabled>
                            <start>0</start>
                            <end>243353</end>
                            <effect>
                                <name>Crop</name>
                                <effectid>crop</effectid>
                                <effecttype>motion</effecttype>
                                <mediatype>video</mediatype>
                                <effectcategory>motion</effectcategory>
                                <parameter>
                                    <name>left</name>
                                    <parameterid>left</parameterid>
                                    <value>0</value>
                                    <valuemin>0</valuemin>
                                    <valuemax>100</valuemax>
                                </parameter>
                                <parameter>
                                    <name>right</name>
                                    <parameterid>right</parameterid>
                                    <value>0</value>
                                    <valuemin>0</valuemin>
                                    <valuemax>100</valuemax>
                                </parameter>
                                <parameter>
                                    <name>top</name>
                                    <parameterid>top</parameterid>
                                    <value>0</value>
                                    <valuemin>0</valuemin>
                                    <valuemax>100</valuemax>
                                </parameter>
                                <parameter>
                                    <name>bottom</name>
                                    <parameterid>bottom</parameterid>
                                    <value>0</value>
                                    <valuemin>0</valuemin>
                                    <valuemax>100</valuemax>
                                </parameter>
                            </effect>
                        </filter>
                        <filter>
                            <enabled>TRUE</enabled>
                            <start>0</start>
                            <end>243353</end>
                            <effect>
                                <name>Opacity</name>
                                <effectid>opacity</effectid>
                                <effecttype>motion</effecttype>
                                <mediatype>video</mediatype>
                                <effectcategory>motion</effectcategory>
                                <parameter>
                                    <name>opacity</name>
                                    <parameterid>opacity</parameterid>
                                    <value>100</value>
                                    <valuemin>0</valuemin>
                                    <valuemax>100</valuemax>
                                </parameter>
                            </effect>
                        </filter>
                        <link>
                            <linkclipref>Interstaller.mp4 165</linkclipref>
                        </link>
                        <link>
                            <linkclipref>Interstaller.mp4 327</linkclipref>
                        </link>
                        <comments/>
                    </clipitem>
                    <clipitem id="Interstaller.mp4 167">
                        <name>Interstaller.mp4</name>
                        <duration>243353</duration>
                        <rate>
                            <timebase>24</timebase>
                            <ntsc>FALSE</ntsc>
                        </rate>
                        <start>7058</start>
                        <end>7078</end>
                        <enabled>TRUE</enabled>
                        <in>171030</in>
                        <out>171050</out>
                        <file id="Interstaller.mp4 2"/>
                        <compositemode>normal</compositemode>
                        <filter>
                            <enabled>TRUE</enabled>
                            <start>0</start>
                            <end>243353</end>
                            <effect>
                                <name>Basic Motion</name>
                                <effectid>basic</effectid>
                                <effecttype>motion</effecttype>
                                <mediatype>video</mediatype>
                                <effectcategory>motion</effectcategory>
                                <parameter>
                                    <name>Scale</name>
                                    <parameterid>scale</parameterid>
                                    <value>100</value>
                                    <valuemin>0</valuemin>
                                    <valuemax>10000</valuemax>
                                </parameter>
                                <parameter>
                                    <name>Center</name>
                                    <parameterid>center</parameterid>
                                    <value>
                                        <horiz>0</horiz>
                                        <vert>0</vert>
                                    </value>
                                </parameter>
                                <parameter>
                                    <name>Rotation</name>
                                    <parameterid>rotation</parameterid>
                                    <value>0</value>
                                    <valuemin>-100000</valuemin>
                                    <valuemax>100000</valuemax>
                                </parameter>
                                <parameter>
                                    <name>Anchor Point</name>
                                    <parameterid>centerOffset</parameterid>
                                    <value>
                                        <horiz>0</horiz>
                                        <vert>0</vert>
                                    </value>
                                </parameter>
                            </effect>
                        </filter>
                        <filter>
                            <enabled>TRUE</enabled>
                            <start>0</start>
                            <end>243353</end>
                            <effect>
                                <name>Crop</name>
                                <effectid>crop</effectid>
                                <effecttype>motion</effecttype>
                                <mediatype>video</mediatype>
                                <effectcategory>motion</effectcategory>
                                <parameter>
                                    <name>left</name>
                                    <parameterid>left</parameterid>
                                    <value>0</value>
                                    <valuemin>0</valuemin>
                                    <valuemax>100</valuemax>
                                </parameter>
                                <parameter>
                                    <name>right</name>
                                    <parameterid>right</parameterid>
                                    <value>0</value>
                                    <valuemin>0</valuemin>
                                    <valuemax>100</valuemax>
                                </parameter>
                                <parameter>
                                    <name>top</name>
                                    <parameterid>top</parameterid>
                                    <value>0</value>
                                    <valuemin>0</valuemin>
                                    <valuemax>100</valuemax>
                                </parameter>
                                <parameter>
                                    <name>bottom</name>
                                    <parameterid>bottom</parameterid>
                                    <value>0</value>
                                    <valuemin>0</valuemin>
                                    <valuemax>100</valuemax>
                                </parameter>
                            </effect>
                        </filter>
                        <filter>
                            <enabled>TRUE</enabled>
                            <start>0</start>
                            <end>243353</end>
                            <effect>
                                <name>Opacity</name>
                                <effectid>opacity</effectid>
                                <effecttype>motion</effecttype>
                                <mediatype>video</mediatype>
                                <effectcategory>motion</effectcategory>
                                <parameter>
                                    <name>opacity</name>
                                    <parameterid>opacity</parameterid>
                                    <value>100</value>
                                    <valuemin>0</valuemin>
                                    <valuemax>100</valuemax>
                                </parameter>
                            </effect>
                        </filter>
                        <link>
                            <linkclipref>Interstaller.mp4 167</linkclipref>
                        </link>
                        <link>
                            <linkclipref>Interstaller.mp4 328</linkclipref>
                        </link>
                        <comments/>
                    </clipitem>
                    <clipitem id="Interstaller.mp4 169">
                        <name>Interstaller.mp4</name>
                        <duration>243353</duration>
                        <rate>
                            <timebase>24</timebase>
                            <ntsc>FALSE</ntsc>
                        </rate>
                        <start>7078</start>
                        <end>7127</end>
                        <enabled>TRUE</enabled>
                        <in>171050</in>
                        <out>171099</out>
                        <file id="Interstaller.mp4 2"/>
                        <compositemode>normal</compositemode>
                        <filter>
                            <enabled>TRUE</enabled>
                            <start>0</start>
                            <end>243353</end>
                            <effect>
                                <name>Basic Motion</name>
                                <effectid>basic</effectid>
                                <effecttype>motion</effecttype>
                                <mediatype>video</mediatype>
                                <effectcategory>motion</effectcategory>
                                <parameter>
                                    <name>Scale</name>
                                    <parameterid>scale</parameterid>
                                    <value>100</value>
                                    <valuemin>0</valuemin>
                                    <valuemax>10000</valuemax>
                                </parameter>
                                <parameter>
                                    <name>Center</name>
                                    <parameterid>center</parameterid>
                                    <value>
                                        <horiz>0</horiz>
                                        <vert>0</vert>
                                    </value>
                                </parameter>
                                <parameter>
                                    <name>Rotation</name>
                                    <parameterid>rotation</parameterid>
                                    <value>0</value>
                                    <valuemin>-100000</valuemin>
                                    <valuemax>100000</valuemax>
                                </parameter>
                                <parameter>
                                    <name>Anchor Point</name>
                                    <parameterid>centerOffset</parameterid>
                                    <value>
                                        <horiz>0</horiz>
                                        <vert>0</vert>
                                    </value>
                                </parameter>
                            </effect>
                        </filter>
                        <filter>
                            <enabled>TRUE</enabled>
                            <start>0</start>
                            <end>243353</end>
                            <effect>
                                <name>Crop</name>
                                <effectid>crop</effectid>
                                <effecttype>motion</effecttype>
                                <mediatype>video</mediatype>
                                <effectcategory>motion</effectcategory>
                                <parameter>
                                    <name>left</name>
                                    <parameterid>left</parameterid>
                                    <value>0</value>
                                    <valuemin>0</valuemin>
                                    <valuemax>100</valuemax>
                                </parameter>
                                <parameter>
                                    <name>right</name>
                                    <parameterid>right</parameterid>
                                    <value>0</value>
                                    <valuemin>0</valuemin>
                                    <valuemax>100</valuemax>
                                </parameter>
                                <parameter>
                                    <name>top</name>
                                    <parameterid>top</parameterid>
                                    <value>0</value>
                                    <valuemin>0</valuemin>
                                    <valuemax>100</valuemax>
                                </parameter>
                                <parameter>
                                    <name>bottom</name>
                                    <parameterid>bottom</parameterid>
                                    <value>0</value>
                                    <valuemin>0</valuemin>
                                    <valuemax>100</valuemax>
                                </parameter>
                            </effect>
                        </filter>
                        <filter>
                            <enabled>TRUE</enabled>
                            <start>0</start>
                            <end>243353</end>
                            <effect>
                                <name>Opacity</name>
                                <effectid>opacity</effectid>
                                <effecttype>motion</effecttype>
                                <mediatype>video</mediatype>
                                <effectcategory>motion</effectcategory>
                                <parameter>
                                    <name>opacity</name>
                                    <parameterid>opacity</parameterid>
                                    <value>100</value>
                                    <valuemin>0</valuemin>
                                    <valuemax>100</valuemax>
                                </parameter>
                            </effect>
                        </filter>
                        <link>
                            <linkclipref>Interstaller.mp4 169</linkclipref>
                        </link>
                        <link>
                            <linkclipref>Interstaller.mp4 329</linkclipref>
                        </link>
                        <comments/>
                    </clipitem>
                    <clipitem id="Interstaller.mp4 171">
                        <name>Interstaller.mp4</name>
                        <duration>243353</duration>
                        <rate>
                            <timebase>24</timebase>
                            <ntsc>FALSE</ntsc>
                        </rate>
                        <start>7127</start>
                        <end>7225</end>
                        <enabled>TRUE</enabled>
                        <in>171099</in>
                        <out>171197</out>
                        <file id="Interstaller.mp4 2"/>
                        <compositemode>normal</compositemode>
                        <filter>
                            <enabled>TRUE</enabled>
                            <start>0</start>
                            <end>243353</end>
                            <effect>
                                <name>Basic Motion</name>
                                <effectid>basic</effectid>
                                <effecttype>motion</effecttype>
                                <mediatype>video</mediatype>
                                <effectcategory>motion</effectcategory>
                                <parameter>
                                    <name>Scale</name>
                                    <parameterid>scale</parameterid>
                                    <value>100</value>
                                    <valuemin>0</valuemin>
                                    <valuemax>10000</valuemax>
                                </parameter>
                                <parameter>
                                    <name>Center</name>
                                    <parameterid>center</parameterid>
                                    <value>
                                        <horiz>0</horiz>
                                        <vert>0</vert>
                                    </value>
                                </parameter>
                                <parameter>
                                    <name>Rotation</name>
                                    <parameterid>rotation</parameterid>
                                    <value>0</value>
                                    <valuemin>-100000</valuemin>
                                    <valuemax>100000</valuemax>
                                </parameter>
                                <parameter>
                                    <name>Anchor Point</name>
                                    <parameterid>centerOffset</parameterid>
                                    <value>
                                        <horiz>0</horiz>
                                        <vert>0</vert>
                                    </value>
                                </parameter>
                            </effect>
                        </filter>
                        <filter>
                            <enabled>TRUE</enabled>
                            <start>0</start>
                            <end>243353</end>
                            <effect>
                                <name>Crop</name>
                                <effectid>crop</effectid>
                                <effecttype>motion</effecttype>
                                <mediatype>video</mediatype>
                                <effectcategory>motion</effectcategory>
                                <parameter>
                                    <name>left</name>
                                    <parameterid>left</parameterid>
                                    <value>0</value>
                                    <valuemin>0</valuemin>
                                    <valuemax>100</valuemax>
                                </parameter>
                                <parameter>
                                    <name>right</name>
                                    <parameterid>right</parameterid>
                                    <value>0</value>
                                    <valuemin>0</valuemin>
                                    <valuemax>100</valuemax>
                                </parameter>
                                <parameter>
                                    <name>top</name>
                                    <parameterid>top</parameterid>
                                    <value>0</value>
                                    <valuemin>0</valuemin>
                                    <valuemax>100</valuemax>
                                </parameter>
                                <parameter>
                                    <name>bottom</name>
                                    <parameterid>bottom</parameterid>
                                    <value>0</value>
                                    <valuemin>0</valuemin>
                                    <valuemax>100</valuemax>
                                </parameter>
                            </effect>
                        </filter>
                        <filter>
                            <enabled>TRUE</enabled>
                            <start>0</start>
                            <end>243353</end>
                            <effect>
                                <name>Opacity</name>
                                <effectid>opacity</effectid>
                                <effecttype>motion</effecttype>
                                <mediatype>video</mediatype>
                                <effectcategory>motion</effectcategory>
                                <parameter>
                                    <name>opacity</name>
                                    <parameterid>opacity</parameterid>
                                    <value>100</value>
                                    <valuemin>0</valuemin>
                                    <valuemax>100</valuemax>
                                </parameter>
                            </effect>
                        </filter>
                        <link>
                            <linkclipref>Interstaller.mp4 171</linkclipref>
                        </link>
                        <link>
                            <linkclipref>Interstaller.mp4 330</linkclipref>
                        </link>
                        <comments/>
                    </clipitem>
                    <clipitem id="Interstaller.mp4 173">
                        <name>Interstaller.mp4</name>
                        <duration>243353</duration>
                        <rate>
                            <timebase>24</timebase>
                            <ntsc>FALSE</ntsc>
                        </rate>
                        <start>7225</start>
                        <end>7289</end>
                        <enabled>TRUE</enabled>
                        <in>171197</in>
                        <out>171261</out>
                        <file id="Interstaller.mp4 2"/>
                        <compositemode>normal</compositemode>
                        <filter>
                            <enabled>TRUE</enabled>
                            <start>0</start>
                            <end>243353</end>
                            <effect>
                                <name>Basic Motion</name>
                                <effectid>basic</effectid>
                                <effecttype>motion</effecttype>
                                <mediatype>video</mediatype>
                                <effectcategory>motion</effectcategory>
                                <parameter>
                                    <name>Scale</name>
                                    <parameterid>scale</parameterid>
                                    <value>100</value>
                                    <valuemin>0</valuemin>
                                    <valuemax>10000</valuemax>
                                </parameter>
                                <parameter>
                                    <name>Center</name>
                                    <parameterid>center</parameterid>
                                    <value>
                                        <horiz>0</horiz>
                                        <vert>0</vert>
                                    </value>
                                </parameter>
                                <parameter>
                                    <name>Rotation</name>
                                    <parameterid>rotation</parameterid>
                                    <value>0</value>
                                    <valuemin>-100000</valuemin>
                                    <valuemax>100000</valuemax>
                                </parameter>
                                <parameter>
                                    <name>Anchor Point</name>
                                    <parameterid>centerOffset</parameterid>
                                    <value>
                                        <horiz>0</horiz>
                                        <vert>0</vert>
                                    </value>
                                </parameter>
                            </effect>
                        </filter>
                        <filter>
                            <enabled>TRUE</enabled>
                            <start>0</start>
                            <end>243353</end>
                            <effect>
                                <name>Crop</name>
                                <effectid>crop</effectid>
                                <effecttype>motion</effecttype>
                                <mediatype>video</mediatype>
                                <effectcategory>motion</effectcategory>
                                <parameter>
                                    <name>left</name>
                                    <parameterid>left</parameterid>
                                    <value>0</value>
                                    <valuemin>0</valuemin>
                                    <valuemax>100</valuemax>
                                </parameter>
                                <parameter>
                                    <name>right</name>
                                    <parameterid>right</parameterid>
                                    <value>0</value>
                                    <valuemin>0</valuemin>
                                    <valuemax>100</valuemax>
                                </parameter>
                                <parameter>
                                    <name>top</name>
                                    <parameterid>top</parameterid>
                                    <value>0</value>
                                    <valuemin>0</valuemin>
                                    <valuemax>100</valuemax>
                                </parameter>
                                <parameter>
                                    <name>bottom</name>
                                    <parameterid>bottom</parameterid>
                                    <value>0</value>
                                    <valuemin>0</valuemin>
                                    <valuemax>100</valuemax>
                                </parameter>
                            </effect>
                        </filter>
                        <filter>
                            <enabled>TRUE</enabled>
                            <start>0</start>
                            <end>243353</end>
                            <effect>
                                <name>Opacity</name>
                                <effectid>opacity</effectid>
                                <effecttype>motion</effecttype>
                                <mediatype>video</mediatype>
                                <effectcategory>motion</effectcategory>
                                <parameter>
                                    <name>opacity</name>
                                    <parameterid>opacity</parameterid>
                                    <value>100</value>
                                    <valuemin>0</valuemin>
                                    <valuemax>100</valuemax>
                                </parameter>
                            </effect>
                        </filter>
                        <link>
                            <linkclipref>Interstaller.mp4 173</linkclipref>
                        </link>
                        <link>
                            <linkclipref>Interstaller.mp4 331</linkclipref>
                        </link>
                        <comments/>
                    </clipitem>
                    <clipitem id="Interstaller.mp4 175">
                        <name>Interstaller.mp4</name>
                        <duration>243353</duration>
                        <rate>
                            <timebase>24</timebase>
                            <ntsc>FALSE</ntsc>
                        </rate>
                        <start>7289</start>
                        <end>7376</end>
                        <enabled>TRUE</enabled>
                        <in>171261</in>
                        <out>171348</out>
                        <file id="Interstaller.mp4 2"/>
                        <compositemode>normal</compositemode>
                        <filter>
                            <enabled>TRUE</enabled>
                            <start>0</start>
                            <end>243353</end>
                            <effect>
                                <name>Basic Motion</name>
                                <effectid>basic</effectid>
                                <effecttype>motion</effecttype>
                                <mediatype>video</mediatype>
                                <effectcategory>motion</effectcategory>
                                <parameter>
                                    <name>Scale</name>
                                    <parameterid>scale</parameterid>
                                    <value>100</value>
                                    <valuemin>0</valuemin>
                                    <valuemax>10000</valuemax>
                                </parameter>
                                <parameter>
                                    <name>Center</name>
                                    <parameterid>center</parameterid>
                                    <value>
                                        <horiz>0</horiz>
                                        <vert>0</vert>
                                    </value>
                                </parameter>
                                <parameter>
                                    <name>Rotation</name>
                                    <parameterid>rotation</parameterid>
                                    <value>0</value>
                                    <valuemin>-100000</valuemin>
                                    <valuemax>100000</valuemax>
                                </parameter>
                                <parameter>
                                    <name>Anchor Point</name>
                                    <parameterid>centerOffset</parameterid>
                                    <value>
                                        <horiz>0</horiz>
                                        <vert>0</vert>
                                    </value>
                                </parameter>
                            </effect>
                        </filter>
                        <filter>
                            <enabled>TRUE</enabled>
                            <start>0</start>
                            <end>243353</end>
                            <effect>
                                <name>Crop</name>
                                <effectid>crop</effectid>
                                <effecttype>motion</effecttype>
                                <mediatype>video</mediatype>
                                <effectcategory>motion</effectcategory>
                                <parameter>
                                    <name>left</name>
                                    <parameterid>left</parameterid>
                                    <value>0</value>
                                    <valuemin>0</valuemin>
                                    <valuemax>100</valuemax>
                                </parameter>
                                <parameter>
                                    <name>right</name>
                                    <parameterid>right</parameterid>
                                    <value>0</value>
                                    <valuemin>0</valuemin>
                                    <valuemax>100</valuemax>
                                </parameter>
                                <parameter>
                                    <name>top</name>
                                    <parameterid>top</parameterid>
                                    <value>0</value>
                                    <valuemin>0</valuemin>
                                    <valuemax>100</valuemax>
                                </parameter>
                                <parameter>
                                    <name>bottom</name>
                                    <parameterid>bottom</parameterid>
                                    <value>0</value>
                                    <valuemin>0</valuemin>
                                    <valuemax>100</valuemax>
                                </parameter>
                            </effect>
                        </filter>
                        <filter>
                            <enabled>TRUE</enabled>
                            <start>0</start>
                            <end>243353</end>
                            <effect>
                                <name>Opacity</name>
                                <effectid>opacity</effectid>
                                <effecttype>motion</effecttype>
                                <mediatype>video</mediatype>
                                <effectcategory>motion</effectcategory>
                                <parameter>
                                    <name>opacity</name>
                                    <parameterid>opacity</parameterid>
                                    <value>100</value>
                                    <valuemin>0</valuemin>
                                    <valuemax>100</valuemax>
                                </parameter>
                            </effect>
                        </filter>
                        <link>
                            <linkclipref>Interstaller.mp4 175</linkclipref>
                        </link>
                        <link>
                            <linkclipref>Interstaller.mp4 332</linkclipref>
                        </link>
                        <comments/>
                    </clipitem>
                    <clipitem id="Interstaller.mp4 177">
                        <name>Interstaller.mp4</name>
                        <duration>243353</duration>
                        <rate>
                            <timebase>24</timebase>
                            <ntsc>FALSE</ntsc>
                        </rate>
                        <start>7376</start>
                        <end>7428</end>
                        <enabled>TRUE</enabled>
                        <in>171348</in>
                        <out>171400</out>
                        <file id="Interstaller.mp4 2"/>
                        <compositemode>normal</compositemode>
                        <filter>
                            <enabled>TRUE</enabled>
                            <start>0</start>
                            <end>243353</end>
                            <effect>
                                <name>Basic Motion</name>
                                <effectid>basic</effectid>
                                <effecttype>motion</effecttype>
                                <mediatype>video</mediatype>
                                <effectcategory>motion</effectcategory>
                                <parameter>
                                    <name>Scale</name>
                                    <parameterid>scale</parameterid>
                                    <value>100</value>
                                    <valuemin>0</valuemin>
                                    <valuemax>10000</valuemax>
                                </parameter>
                                <parameter>
                                    <name>Center</name>
                                    <parameterid>center</parameterid>
                                    <value>
                                        <horiz>0</horiz>
                                        <vert>0</vert>
                                    </value>
                                </parameter>
                                <parameter>
                                    <name>Rotation</name>
                                    <parameterid>rotation</parameterid>
                                    <value>0</value>
                                    <valuemin>-100000</valuemin>
                                    <valuemax>100000</valuemax>
                                </parameter>
                                <parameter>
                                    <name>Anchor Point</name>
                                    <parameterid>centerOffset</parameterid>
                                    <value>
                                        <horiz>0</horiz>
                                        <vert>0</vert>
                                    </value>
                                </parameter>
                            </effect>
                        </filter>
                        <filter>
                            <enabled>TRUE</enabled>
                            <start>0</start>
                            <end>243353</end>
                            <effect>
                                <name>Crop</name>
                                <effectid>crop</effectid>
                                <effecttype>motion</effecttype>
                                <mediatype>video</mediatype>
                                <effectcategory>motion</effectcategory>
                                <parameter>
                                    <name>left</name>
                                    <parameterid>left</parameterid>
                                    <value>0</value>
                                    <valuemin>0</valuemin>
                                    <valuemax>100</valuemax>
                                </parameter>
                                <parameter>
                                    <name>right</name>
                                    <parameterid>right</parameterid>
                                    <value>0</value>
                                    <valuemin>0</valuemin>
                                    <valuemax>100</valuemax>
                                </parameter>
                                <parameter>
                                    <name>top</name>
                                    <parameterid>top</parameterid>
                                    <value>0</value>
                                    <valuemin>0</valuemin>
                                    <valuemax>100</valuemax>
                                </parameter>
                                <parameter>
                                    <name>bottom</name>
                                    <parameterid>bottom</parameterid>
                                    <value>0</value>
                                    <valuemin>0</valuemin>
                                    <valuemax>100</valuemax>
                                </parameter>
                            </effect>
                        </filter>
                        <filter>
                            <enabled>TRUE</enabled>
                            <start>0</start>
                            <end>243353</end>
                            <effect>
                                <name>Opacity</name>
                                <effectid>opacity</effectid>
                                <effecttype>motion</effecttype>
                                <mediatype>video</mediatype>
                                <effectcategory>motion</effectcategory>
                                <parameter>
                                    <name>opacity</name>
                                    <parameterid>opacity</parameterid>
                                    <value>100</value>
                                    <valuemin>0</valuemin>
                                    <valuemax>100</valuemax>
                                </parameter>
                            </effect>
                        </filter>
                        <link>
                            <linkclipref>Interstaller.mp4 177</linkclipref>
                        </link>
                        <link>
                            <linkclipref>Interstaller.mp4 333</linkclipref>
                        </link>
                        <comments/>
                    </clipitem>
                    <clipitem id="Interstaller.mp4 179">
                        <name>Interstaller.mp4</name>
                        <duration>243353</duration>
                        <rate>
                            <timebase>24</timebase>
                            <ntsc>FALSE</ntsc>
                        </rate>
                        <start>7428</start>
                        <end>7509</end>
                        <enabled>TRUE</enabled>
                        <in>171400</in>
                        <out>171481</out>
                        <file id="Interstaller.mp4 2"/>
                        <compositemode>normal</compositemode>
                        <filter>
                            <enabled>TRUE</enabled>
                            <start>0</start>
                            <end>243353</end>
                            <effect>
                                <name>Basic Motion</name>
                                <effectid>basic</effectid>
                                <effecttype>motion</effecttype>
                                <mediatype>video</mediatype>
                                <effectcategory>motion</effectcategory>
                                <parameter>
                                    <name>Scale</name>
                                    <parameterid>scale</parameterid>
                                    <value>100</value>
                                    <valuemin>0</valuemin>
                                    <valuemax>10000</valuemax>
                                </parameter>
                                <parameter>
                                    <name>Center</name>
                                    <parameterid>center</parameterid>
                                    <value>
                                        <horiz>0</horiz>
                                        <vert>0</vert>
                                    </value>
                                </parameter>
                                <parameter>
                                    <name>Rotation</name>
                                    <parameterid>rotation</parameterid>
                                    <value>0</value>
                                    <valuemin>-100000</valuemin>
                                    <valuemax>100000</valuemax>
                                </parameter>
                                <parameter>
                                    <name>Anchor Point</name>
                                    <parameterid>centerOffset</parameterid>
                                    <value>
                                        <horiz>0</horiz>
                                        <vert>0</vert>
                                    </value>
                                </parameter>
                            </effect>
                        </filter>
                        <filter>
                            <enabled>TRUE</enabled>
                            <start>0</start>
                            <end>243353</end>
                            <effect>
                                <name>Crop</name>
                                <effectid>crop</effectid>
                                <effecttype>motion</effecttype>
                                <mediatype>video</mediatype>
                                <effectcategory>motion</effectcategory>
                                <parameter>
                                    <name>left</name>
                                    <parameterid>left</parameterid>
                                    <value>0</value>
                                    <valuemin>0</valuemin>
                                    <valuemax>100</valuemax>
                                </parameter>
                                <parameter>
                                    <name>right</name>
                                    <parameterid>right</parameterid>
                                    <value>0</value>
                                    <valuemin>0</valuemin>
                                    <valuemax>100</valuemax>
                                </parameter>
                                <parameter>
                                    <name>top</name>
                                    <parameterid>top</parameterid>
                                    <value>0</value>
                                    <valuemin>0</valuemin>
                                    <valuemax>100</valuemax>
                                </parameter>
                                <parameter>
                                    <name>bottom</name>
                                    <parameterid>bottom</parameterid>
                                    <value>0</value>
                                    <valuemin>0</valuemin>
                                    <valuemax>100</valuemax>
                                </parameter>
                            </effect>
                        </filter>
                        <filter>
                            <enabled>TRUE</enabled>
                            <start>0</start>
                            <end>243353</end>
                            <effect>
                                <name>Opacity</name>
                                <effectid>opacity</effectid>
                                <effecttype>motion</effecttype>
                                <mediatype>video</mediatype>
                                <effectcategory>motion</effectcategory>
                                <parameter>
                                    <name>opacity</name>
                                    <parameterid>opacity</parameterid>
                                    <value>100</value>
                                    <valuemin>0</valuemin>
                                    <valuemax>100</valuemax>
                                </parameter>
                            </effect>
                        </filter>
                        <link>
                            <linkclipref>Interstaller.mp4 179</linkclipref>
                        </link>
                        <link>
                            <linkclipref>Interstaller.mp4 334</linkclipref>
                        </link>
                        <comments/>
                    </clipitem>
                    <clipitem id="Interstaller.mp4 181">
                        <name>Interstaller.mp4</name>
                        <duration>243353</duration>
                        <rate>
                            <timebase>24</timebase>
                            <ntsc>FALSE</ntsc>
                        </rate>
                        <start>7509</start>
                        <end>7610</end>
                        <enabled>TRUE</enabled>
                        <in>171481</in>
                        <out>171582</out>
                        <file id="Interstaller.mp4 2"/>
                        <compositemode>normal</compositemode>
                        <filter>
                            <enabled>TRUE</enabled>
                            <start>0</start>
                            <end>243353</end>
                            <effect>
                                <name>Basic Motion</name>
                                <effectid>basic</effectid>
                                <effecttype>motion</effecttype>
                                <mediatype>video</mediatype>
                                <effectcategory>motion</effectcategory>
                                <parameter>
                                    <name>Scale</name>
                                    <parameterid>scale</parameterid>
                                    <value>100</value>
                                    <valuemin>0</valuemin>
                                    <valuemax>10000</valuemax>
                                </parameter>
                                <parameter>
                                    <name>Center</name>
                                    <parameterid>center</parameterid>
                                    <value>
                                        <horiz>0</horiz>
                                        <vert>0</vert>
                                    </value>
                                </parameter>
                                <parameter>
                                    <name>Rotation</name>
                                    <parameterid>rotation</parameterid>
                                    <value>0</value>
                                    <valuemin>-100000</valuemin>
                                    <valuemax>100000</valuemax>
                                </parameter>
                                <parameter>
                                    <name>Anchor Point</name>
                                    <parameterid>centerOffset</parameterid>
                                    <value>
                                        <horiz>0</horiz>
                                        <vert>0</vert>
                                    </value>
                                </parameter>
                            </effect>
                        </filter>
                        <filter>
                            <enabled>TRUE</enabled>
                            <start>0</start>
                            <end>243353</end>
                            <effect>
                                <name>Crop</name>
                                <effectid>crop</effectid>
                                <effecttype>motion</effecttype>
                                <mediatype>video</mediatype>
                                <effectcategory>motion</effectcategory>
                                <parameter>
                                    <name>left</name>
                                    <parameterid>left</parameterid>
                                    <value>0</value>
                                    <valuemin>0</valuemin>
                                    <valuemax>100</valuemax>
                                </parameter>
                                <parameter>
                                    <name>right</name>
                                    <parameterid>right</parameterid>
                                    <value>0</value>
                                    <valuemin>0</valuemin>
                                    <valuemax>100</valuemax>
                                </parameter>
                                <parameter>
                                    <name>top</name>
                                    <parameterid>top</parameterid>
                                    <value>0</value>
                                    <valuemin>0</valuemin>
                                    <valuemax>100</valuemax>
                                </parameter>
                                <parameter>
                                    <name>bottom</name>
                                    <parameterid>bottom</parameterid>
                                    <value>0</value>
                                    <valuemin>0</valuemin>
                                    <valuemax>100</valuemax>
                                </parameter>
                            </effect>
                        </filter>
                        <filter>
                            <enabled>TRUE</enabled>
                            <start>0</start>
                            <end>243353</end>
                            <effect>
                                <name>Opacity</name>
                                <effectid>opacity</effectid>
                                <effecttype>motion</effecttype>
                                <mediatype>video</mediatype>
                                <effectcategory>motion</effectcategory>
                                <parameter>
                                    <name>opacity</name>
                                    <parameterid>opacity</parameterid>
                                    <value>100</value>
                                    <valuemin>0</valuemin>
                                    <valuemax>100</valuemax>
                                </parameter>
                            </effect>
                        </filter>
                        <link>
                            <linkclipref>Interstaller.mp4 181</linkclipref>
                        </link>
                        <link>
                            <linkclipref>Interstaller.mp4 335</linkclipref>
                        </link>
                        <comments/>
                    </clipitem>
                    <clipitem id="Interstaller.mp4 183">
                        <name>Interstaller.mp4</name>
                        <duration>243353</duration>
                        <rate>
                            <timebase>24</timebase>
                            <ntsc>FALSE</ntsc>
                        </rate>
                        <start>7610</start>
                        <end>7665</end>
                        <enabled>TRUE</enabled>
                        <in>171582</in>
                        <out>171637</out>
                        <file id="Interstaller.mp4 2"/>
                        <compositemode>normal</compositemode>
                        <filter>
                            <enabled>TRUE</enabled>
                            <start>0</start>
                            <end>243353</end>
                            <effect>
                                <name>Basic Motion</name>
                                <effectid>basic</effectid>
                                <effecttype>motion</effecttype>
                                <mediatype>video</mediatype>
                                <effectcategory>motion</effectcategory>
                                <parameter>
                                    <name>Scale</name>
                                    <parameterid>scale</parameterid>
                                    <value>100</value>
                                    <valuemin>0</valuemin>
                                    <valuemax>10000</valuemax>
                                </parameter>
                                <parameter>
                                    <name>Center</name>
                                    <parameterid>center</parameterid>
                                    <value>
                                        <horiz>0</horiz>
                                        <vert>0</vert>
                                    </value>
                                </parameter>
                                <parameter>
                                    <name>Rotation</name>
                                    <parameterid>rotation</parameterid>
                                    <value>0</value>
                                    <valuemin>-100000</valuemin>
                                    <valuemax>100000</valuemax>
                                </parameter>
                                <parameter>
                                    <name>Anchor Point</name>
                                    <parameterid>centerOffset</parameterid>
                                    <value>
                                        <horiz>0</horiz>
                                        <vert>0</vert>
                                    </value>
                                </parameter>
                            </effect>
                        </filter>
                        <filter>
                            <enabled>TRUE</enabled>
                            <start>0</start>
                            <end>243353</end>
                            <effect>
                                <name>Crop</name>
                                <effectid>crop</effectid>
                                <effecttype>motion</effecttype>
                                <mediatype>video</mediatype>
                                <effectcategory>motion</effectcategory>
                                <parameter>
                                    <name>left</name>
                                    <parameterid>left</parameterid>
                                    <value>0</value>
                                    <valuemin>0</valuemin>
                                    <valuemax>100</valuemax>
                                </parameter>
                                <parameter>
                                    <name>right</name>
                                    <parameterid>right</parameterid>
                                    <value>0</value>
                                    <valuemin>0</valuemin>
                                    <valuemax>100</valuemax>
                                </parameter>
                                <parameter>
                                    <name>top</name>
                                    <parameterid>top</parameterid>
                                    <value>0</value>
                                    <valuemin>0</valuemin>
                                    <valuemax>100</valuemax>
                                </parameter>
                                <parameter>
                                    <name>bottom</name>
                                    <parameterid>bottom</parameterid>
                                    <value>0</value>
                                    <valuemin>0</valuemin>
                                    <valuemax>100</valuemax>
                                </parameter>
                            </effect>
                        </filter>
                        <filter>
                            <enabled>TRUE</enabled>
                            <start>0</start>
                            <end>243353</end>
                            <effect>
                                <name>Opacity</name>
                                <effectid>opacity</effectid>
                                <effecttype>motion</effecttype>
                                <mediatype>video</mediatype>
                                <effectcategory>motion</effectcategory>
                                <parameter>
                                    <name>opacity</name>
                                    <parameterid>opacity</parameterid>
                                    <value>100</value>
                                    <valuemin>0</valuemin>
                                    <valuemax>100</valuemax>
                                </parameter>
                            </effect>
                        </filter>
                        <link>
                            <linkclipref>Interstaller.mp4 183</linkclipref>
                        </link>
                        <link>
                            <linkclipref>Interstaller.mp4 336</linkclipref>
                        </link>
                        <comments/>
                    </clipitem>
                    <clipitem id="Interstaller.mp4 185">
                        <name>Interstaller.mp4</name>
                        <duration>243353</duration>
                        <rate>
                            <timebase>24</timebase>
                            <ntsc>FALSE</ntsc>
                        </rate>
                        <start>7665</start>
                        <end>7835</end>
                        <enabled>TRUE</enabled>
                        <in>171637</in>
                        <out>171807</out>
                        <file id="Interstaller.mp4 2"/>
                        <compositemode>normal</compositemode>
                        <filter>
                            <enabled>TRUE</enabled>
                            <start>0</start>
                            <end>243353</end>
                            <effect>
                                <name>Basic Motion</name>
                                <effectid>basic</effectid>
                                <effecttype>motion</effecttype>
                                <mediatype>video</mediatype>
                                <effectcategory>motion</effectcategory>
                                <parameter>
                                    <name>Scale</name>
                                    <parameterid>scale</parameterid>
                                    <value>100</value>
                                    <valuemin>0</valuemin>
                                    <valuemax>10000</valuemax>
                                </parameter>
                                <parameter>
                                    <name>Center</name>
                                    <parameterid>center</parameterid>
                                    <value>
                                        <horiz>0</horiz>
                                        <vert>0</vert>
                                    </value>
                                </parameter>
                                <parameter>
                                    <name>Rotation</name>
                                    <parameterid>rotation</parameterid>
                                    <value>0</value>
                                    <valuemin>-100000</valuemin>
                                    <valuemax>100000</valuemax>
                                </parameter>
                                <parameter>
                                    <name>Anchor Point</name>
                                    <parameterid>centerOffset</parameterid>
                                    <value>
                                        <horiz>0</horiz>
                                        <vert>0</vert>
                                    </value>
                                </parameter>
                            </effect>
                        </filter>
                        <filter>
                            <enabled>TRUE</enabled>
                            <start>0</start>
                            <end>243353</end>
                            <effect>
                                <name>Crop</name>
                                <effectid>crop</effectid>
                                <effecttype>motion</effecttype>
                                <mediatype>video</mediatype>
                                <effectcategory>motion</effectcategory>
                                <parameter>
                                    <name>left</name>
                                    <parameterid>left</parameterid>
                                    <value>0</value>
                                    <valuemin>0</valuemin>
                                    <valuemax>100</valuemax>
                                </parameter>
                                <parameter>
                                    <name>right</name>
                                    <parameterid>right</parameterid>
                                    <value>0</value>
                                    <valuemin>0</valuemin>
                                    <valuemax>100</valuemax>
                                </parameter>
                                <parameter>
                                    <name>top</name>
                                    <parameterid>top</parameterid>
                                    <value>0</value>
                                    <valuemin>0</valuemin>
                                    <valuemax>100</valuemax>
                                </parameter>
                                <parameter>
                                    <name>bottom</name>
                                    <parameterid>bottom</parameterid>
                                    <value>0</value>
                                    <valuemin>0</valuemin>
                                    <valuemax>100</valuemax>
                                </parameter>
                            </effect>
                        </filter>
                        <filter>
                            <enabled>TRUE</enabled>
                            <start>0</start>
                            <end>243353</end>
                            <effect>
                                <name>Opacity</name>
                                <effectid>opacity</effectid>
                                <effecttype>motion</effecttype>
                                <mediatype>video</mediatype>
                                <effectcategory>motion</effectcategory>
                                <parameter>
                                    <name>opacity</name>
                                    <parameterid>opacity</parameterid>
                                    <value>100</value>
                                    <valuemin>0</valuemin>
                                    <valuemax>100</valuemax>
                                </parameter>
                            </effect>
                        </filter>
                        <link>
                            <linkclipref>Interstaller.mp4 185</linkclipref>
                        </link>
                        <link>
                            <linkclipref>Interstaller.mp4 337</linkclipref>
                        </link>
                        <comments/>
                    </clipitem>
                    <clipitem id="Interstaller.mp4 187">
                        <name>Interstaller.mp4</name>
                        <duration>243353</duration>
                        <rate>
                            <timebase>24</timebase>
                            <ntsc>FALSE</ntsc>
                        </rate>
                        <start>7835</start>
                        <end>7956</end>
                        <enabled>TRUE</enabled>
                        <in>171807</in>
                        <out>171928</out>
                        <file id="Interstaller.mp4 2"/>
                        <compositemode>normal</compositemode>
                        <filter>
                            <enabled>TRUE</enabled>
                            <start>0</start>
                            <end>243353</end>
                            <effect>
                                <name>Basic Motion</name>
                                <effectid>basic</effectid>
                                <effecttype>motion</effecttype>
                                <mediatype>video</mediatype>
                                <effectcategory>motion</effectcategory>
                                <parameter>
                                    <name>Scale</name>
                                    <parameterid>scale</parameterid>
                                    <value>100</value>
                                    <valuemin>0</valuemin>
                                    <valuemax>10000</valuemax>
                                </parameter>
                                <parameter>
                                    <name>Center</name>
                                    <parameterid>center</parameterid>
                                    <value>
                                        <horiz>0</horiz>
                                        <vert>0</vert>
                                    </value>
                                </parameter>
                                <parameter>
                                    <name>Rotation</name>
                                    <parameterid>rotation</parameterid>
                                    <value>0</value>
                                    <valuemin>-100000</valuemin>
                                    <valuemax>100000</valuemax>
                                </parameter>
                                <parameter>
                                    <name>Anchor Point</name>
                                    <parameterid>centerOffset</parameterid>
                                    <value>
                                        <horiz>0</horiz>
                                        <vert>0</vert>
                                    </value>
                                </parameter>
                            </effect>
                        </filter>
                        <filter>
                            <enabled>TRUE</enabled>
                            <start>0</start>
                            <end>243353</end>
                            <effect>
                                <name>Crop</name>
                                <effectid>crop</effectid>
                                <effecttype>motion</effecttype>
                                <mediatype>video</mediatype>
                                <effectcategory>motion</effectcategory>
                                <parameter>
                                    <name>left</name>
                                    <parameterid>left</parameterid>
                                    <value>0</value>
                                    <valuemin>0</valuemin>
                                    <valuemax>100</valuemax>
                                </parameter>
                                <parameter>
                                    <name>right</name>
                                    <parameterid>right</parameterid>
                                    <value>0</value>
                                    <valuemin>0</valuemin>
                                    <valuemax>100</valuemax>
                                </parameter>
                                <parameter>
                                    <name>top</name>
                                    <parameterid>top</parameterid>
                                    <value>0</value>
                                    <valuemin>0</valuemin>
                                    <valuemax>100</valuemax>
                                </parameter>
                                <parameter>
                                    <name>bottom</name>
                                    <parameterid>bottom</parameterid>
                                    <value>0</value>
                                    <valuemin>0</valuemin>
                                    <valuemax>100</valuemax>
                                </parameter>
                            </effect>
                        </filter>
                        <filter>
                            <enabled>TRUE</enabled>
                            <start>0</start>
                            <end>243353</end>
                            <effect>
                                <name>Opacity</name>
                                <effectid>opacity</effectid>
                                <effecttype>motion</effecttype>
                                <mediatype>video</mediatype>
                                <effectcategory>motion</effectcategory>
                                <parameter>
                                    <name>opacity</name>
                                    <parameterid>opacity</parameterid>
                                    <value>100</value>
                                    <valuemin>0</valuemin>
                                    <valuemax>100</valuemax>
                                </parameter>
                            </effect>
                        </filter>
                        <link>
                            <linkclipref>Interstaller.mp4 187</linkclipref>
                        </link>
                        <link>
                            <linkclipref>Interstaller.mp4 338</linkclipref>
                        </link>
                        <comments/>
                    </clipitem>
                    <clipitem id="Interstaller.mp4 189">
                        <name>Interstaller.mp4</name>
                        <duration>243353</duration>
                        <rate>
                            <timebase>24</timebase>
                            <ntsc>FALSE</ntsc>
                        </rate>
                        <start>7956</start>
                        <end>7976</end>
                        <enabled>TRUE</enabled>
                        <in>171928</in>
                        <out>171948</out>
                        <file id="Interstaller.mp4 2"/>
                        <compositemode>normal</compositemode>
                        <filter>
                            <enabled>TRUE</enabled>
                            <start>0</start>
                            <end>243353</end>
                            <effect>
                                <name>Basic Motion</name>
                                <effectid>basic</effectid>
                                <effecttype>motion</effecttype>
                                <mediatype>video</mediatype>
                                <effectcategory>motion</effectcategory>
                                <parameter>
                                    <name>Scale</name>
                                    <parameterid>scale</parameterid>
                                    <value>100</value>
                                    <valuemin>0</valuemin>
                                    <valuemax>10000</valuemax>
                                </parameter>
                                <parameter>
                                    <name>Center</name>
                                    <parameterid>center</parameterid>
                                    <value>
                                        <horiz>0</horiz>
                                        <vert>0</vert>
                                    </value>
                                </parameter>
                                <parameter>
                                    <name>Rotation</name>
                                    <parameterid>rotation</parameterid>
                                    <value>0</value>
                                    <valuemin>-100000</valuemin>
                                    <valuemax>100000</valuemax>
                                </parameter>
                                <parameter>
                                    <name>Anchor Point</name>
                                    <parameterid>centerOffset</parameterid>
                                    <value>
                                        <horiz>0</horiz>
                                        <vert>0</vert>
                                    </value>
                                </parameter>
                            </effect>
                        </filter>
                        <filter>
                            <enabled>TRUE</enabled>
                            <start>0</start>
                            <end>243353</end>
                            <effect>
                                <name>Crop</name>
                                <effectid>crop</effectid>
                                <effecttype>motion</effecttype>
                                <mediatype>video</mediatype>
                                <effectcategory>motion</effectcategory>
                                <parameter>
                                    <name>left</name>
                                    <parameterid>left</parameterid>
                                    <value>0</value>
                                    <valuemin>0</valuemin>
                                    <valuemax>100</valuemax>
                                </parameter>
                                <parameter>
                                    <name>right</name>
                                    <parameterid>right</parameterid>
                                    <value>0</value>
                                    <valuemin>0</valuemin>
                                    <valuemax>100</valuemax>
                                </parameter>
                                <parameter>
                                    <name>top</name>
                                    <parameterid>top</parameterid>
                                    <value>0</value>
                                    <valuemin>0</valuemin>
                                    <valuemax>100</valuemax>
                                </parameter>
                                <parameter>
                                    <name>bottom</name>
                                    <parameterid>bottom</parameterid>
                                    <value>0</value>
                                    <valuemin>0</valuemin>
                                    <valuemax>100</valuemax>
                                </parameter>
                            </effect>
                        </filter>
                        <filter>
                            <enabled>TRUE</enabled>
                            <start>0</start>
                            <end>243353</end>
                            <effect>
                                <name>Opacity</name>
                                <effectid>opacity</effectid>
                                <effecttype>motion</effecttype>
                                <mediatype>video</mediatype>
                                <effectcategory>motion</effectcategory>
                                <parameter>
                                    <name>opacity</name>
                                    <parameterid>opacity</parameterid>
                                    <value>100</value>
                                    <valuemin>0</valuemin>
                                    <valuemax>100</valuemax>
                                </parameter>
                            </effect>
                        </filter>
                        <link>
                            <linkclipref>Interstaller.mp4 189</linkclipref>
                        </link>
                        <link>
                            <linkclipref>Interstaller.mp4 339</linkclipref>
                        </link>
                        <comments/>
                    </clipitem>
                    <clipitem id="Interstaller.mp4 191">
                        <name>Interstaller.mp4</name>
                        <duration>243353</duration>
                        <rate>
                            <timebase>24</timebase>
                            <ntsc>FALSE</ntsc>
                        </rate>
                        <start>7976</start>
                        <end>8010</end>
                        <enabled>TRUE</enabled>
                        <in>171948</in>
                        <out>171982</out>
                        <file id="Interstaller.mp4 2"/>
                        <compositemode>normal</compositemode>
                        <filter>
                            <enabled>TRUE</enabled>
                            <start>0</start>
                            <end>243353</end>
                            <effect>
                                <name>Basic Motion</name>
                                <effectid>basic</effectid>
                                <effecttype>motion</effecttype>
                                <mediatype>video</mediatype>
                                <effectcategory>motion</effectcategory>
                                <parameter>
                                    <name>Scale</name>
                                    <parameterid>scale</parameterid>
                                    <value>100</value>
                                    <valuemin>0</valuemin>
                                    <valuemax>10000</valuemax>
                                </parameter>
                                <parameter>
                                    <name>Center</name>
                                    <parameterid>center</parameterid>
                                    <value>
                                        <horiz>0</horiz>
                                        <vert>0</vert>
                                    </value>
                                </parameter>
                                <parameter>
                                    <name>Rotation</name>
                                    <parameterid>rotation</parameterid>
                                    <value>0</value>
                                    <valuemin>-100000</valuemin>
                                    <valuemax>100000</valuemax>
                                </parameter>
                                <parameter>
                                    <name>Anchor Point</name>
                                    <parameterid>centerOffset</parameterid>
                                    <value>
                                        <horiz>0</horiz>
                                        <vert>0</vert>
                                    </value>
                                </parameter>
                            </effect>
                        </filter>
                        <filter>
                            <enabled>TRUE</enabled>
                            <start>0</start>
                            <end>243353</end>
                            <effect>
                                <name>Crop</name>
                                <effectid>crop</effectid>
                                <effecttype>motion</effecttype>
                                <mediatype>video</mediatype>
                                <effectcategory>motion</effectcategory>
                                <parameter>
                                    <name>left</name>
                                    <parameterid>left</parameterid>
                                    <value>0</value>
                                    <valuemin>0</valuemin>
                                    <valuemax>100</valuemax>
                                </parameter>
                                <parameter>
                                    <name>right</name>
                                    <parameterid>right</parameterid>
                                    <value>0</value>
                                    <valuemin>0</valuemin>
                                    <valuemax>100</valuemax>
                                </parameter>
                                <parameter>
                                    <name>top</name>
                                    <parameterid>top</parameterid>
                                    <value>0</value>
                                    <valuemin>0</valuemin>
                                    <valuemax>100</valuemax>
                                </parameter>
                                <parameter>
                                    <name>bottom</name>
                                    <parameterid>bottom</parameterid>
                                    <value>0</value>
                                    <valuemin>0</valuemin>
                                    <valuemax>100</valuemax>
                                </parameter>
                            </effect>
                        </filter>
                        <filter>
                            <enabled>TRUE</enabled>
                            <start>0</start>
                            <end>243353</end>
                            <effect>
                                <name>Opacity</name>
                                <effectid>opacity</effectid>
                                <effecttype>motion</effecttype>
                                <mediatype>video</mediatype>
                                <effectcategory>motion</effectcategory>
                                <parameter>
                                    <name>opacity</name>
                                    <parameterid>opacity</parameterid>
                                    <value>100</value>
                                    <valuemin>0</valuemin>
                                    <valuemax>100</valuemax>
                                </parameter>
                            </effect>
                        </filter>
                        <link>
                            <linkclipref>Interstaller.mp4 191</linkclipref>
                        </link>
                        <link>
                            <linkclipref>Interstaller.mp4 340</linkclipref>
                        </link>
                        <comments/>
                    </clipitem>
                    <clipitem id="Interstaller.mp4 193">
                        <name>Interstaller.mp4</name>
                        <duration>243353</duration>
                        <rate>
                            <timebase>24</timebase>
                            <ntsc>FALSE</ntsc>
                        </rate>
                        <start>8010</start>
                        <end>8038</end>
                        <enabled>TRUE</enabled>
                        <in>171982</in>
                        <out>172010</out>
                        <file id="Interstaller.mp4 2"/>
                        <compositemode>normal</compositemode>
                        <filter>
                            <enabled>TRUE</enabled>
                            <start>0</start>
                            <end>243353</end>
                            <effect>
                                <name>Basic Motion</name>
                                <effectid>basic</effectid>
                                <effecttype>motion</effecttype>
                                <mediatype>video</mediatype>
                                <effectcategory>motion</effectcategory>
                                <parameter>
                                    <name>Scale</name>
                                    <parameterid>scale</parameterid>
                                    <value>100</value>
                                    <valuemin>0</valuemin>
                                    <valuemax>10000</valuemax>
                                </parameter>
                                <parameter>
                                    <name>Center</name>
                                    <parameterid>center</parameterid>
                                    <value>
                                        <horiz>0</horiz>
                                        <vert>0</vert>
                                    </value>
                                </parameter>
                                <parameter>
                                    <name>Rotation</name>
                                    <parameterid>rotation</parameterid>
                                    <value>0</value>
                                    <valuemin>-100000</valuemin>
                                    <valuemax>100000</valuemax>
                                </parameter>
                                <parameter>
                                    <name>Anchor Point</name>
                                    <parameterid>centerOffset</parameterid>
                                    <value>
                                        <horiz>0</horiz>
                                        <vert>0</vert>
                                    </value>
                                </parameter>
                            </effect>
                        </filter>
                        <filter>
                            <enabled>TRUE</enabled>
                            <start>0</start>
                            <end>243353</end>
                            <effect>
                                <name>Crop</name>
                                <effectid>crop</effectid>
                                <effecttype>motion</effecttype>
                                <mediatype>video</mediatype>
                                <effectcategory>motion</effectcategory>
                                <parameter>
                                    <name>left</name>
                                    <parameterid>left</parameterid>
                                    <value>0</value>
                                    <valuemin>0</valuemin>
                                    <valuemax>100</valuemax>
                                </parameter>
                                <parameter>
                                    <name>right</name>
                                    <parameterid>right</parameterid>
                                    <value>0</value>
                                    <valuemin>0</valuemin>
                                    <valuemax>100</valuemax>
                                </parameter>
                                <parameter>
                                    <name>top</name>
                                    <parameterid>top</parameterid>
                                    <value>0</value>
                                    <valuemin>0</valuemin>
                                    <valuemax>100</valuemax>
                                </parameter>
                                <parameter>
                                    <name>bottom</name>
                                    <parameterid>bottom</parameterid>
                                    <value>0</value>
                                    <valuemin>0</valuemin>
                                    <valuemax>100</valuemax>
                                </parameter>
                            </effect>
                        </filter>
                        <filter>
                            <enabled>TRUE</enabled>
                            <start>0</start>
                            <end>243353</end>
                            <effect>
                                <name>Opacity</name>
                                <effectid>opacity</effectid>
                                <effecttype>motion</effecttype>
                                <mediatype>video</mediatype>
                                <effectcategory>motion</effectcategory>
                                <parameter>
                                    <name>opacity</name>
                                    <parameterid>opacity</parameterid>
                                    <value>100</value>
                                    <valuemin>0</valuemin>
                                    <valuemax>100</valuemax>
                                </parameter>
                            </effect>
                        </filter>
                        <link>
                            <linkclipref>Interstaller.mp4 193</linkclipref>
                        </link>
                        <link>
                            <linkclipref>Interstaller.mp4 341</linkclipref>
                        </link>
                        <comments/>
                    </clipitem>
                    <clipitem id="Interstaller.mp4 195">
                        <name>Interstaller.mp4</name>
                        <duration>243353</duration>
                        <rate>
                            <timebase>24</timebase>
                            <ntsc>FALSE</ntsc>
                        </rate>
                        <start>8038</start>
                        <end>8244</end>
                        <enabled>TRUE</enabled>
                        <in>172010</in>
                        <out>172216</out>
                        <file id="Interstaller.mp4 2"/>
                        <compositemode>normal</compositemode>
                        <filter>
                            <enabled>TRUE</enabled>
                            <start>0</start>
                            <end>243353</end>
                            <effect>
                                <name>Basic Motion</name>
                                <effectid>basic</effectid>
                                <effecttype>motion</effecttype>
                                <mediatype>video</mediatype>
                                <effectcategory>motion</effectcategory>
                                <parameter>
                                    <name>Scale</name>
                                    <parameterid>scale</parameterid>
                                    <value>100</value>
                                    <valuemin>0</valuemin>
                                    <valuemax>10000</valuemax>
                                </parameter>
                                <parameter>
                                    <name>Center</name>
                                    <parameterid>center</parameterid>
                                    <value>
                                        <horiz>0</horiz>
                                        <vert>0</vert>
                                    </value>
                                </parameter>
                                <parameter>
                                    <name>Rotation</name>
                                    <parameterid>rotation</parameterid>
                                    <value>0</value>
                                    <valuemin>-100000</valuemin>
                                    <valuemax>100000</valuemax>
                                </parameter>
                                <parameter>
                                    <name>Anchor Point</name>
                                    <parameterid>centerOffset</parameterid>
                                    <value>
                                        <horiz>0</horiz>
                                        <vert>0</vert>
                                    </value>
                                </parameter>
                            </effect>
                        </filter>
                        <filter>
                            <enabled>TRUE</enabled>
                            <start>0</start>
                            <end>243353</end>
                            <effect>
                                <name>Crop</name>
                                <effectid>crop</effectid>
                                <effecttype>motion</effecttype>
                                <mediatype>video</mediatype>
                                <effectcategory>motion</effectcategory>
                                <parameter>
                                    <name>left</name>
                                    <parameterid>left</parameterid>
                                    <value>0</value>
                                    <valuemin>0</valuemin>
                                    <valuemax>100</valuemax>
                                </parameter>
                                <parameter>
                                    <name>right</name>
                                    <parameterid>right</parameterid>
                                    <value>0</value>
                                    <valuemin>0</valuemin>
                                    <valuemax>100</valuemax>
                                </parameter>
                                <parameter>
                                    <name>top</name>
                                    <parameterid>top</parameterid>
                                    <value>0</value>
                                    <valuemin>0</valuemin>
                                    <valuemax>100</valuemax>
                                </parameter>
                                <parameter>
                                    <name>bottom</name>
                                    <parameterid>bottom</parameterid>
                                    <value>0</value>
                                    <valuemin>0</valuemin>
                                    <valuemax>100</valuemax>
                                </parameter>
                            </effect>
                        </filter>
                        <filter>
                            <enabled>TRUE</enabled>
                            <start>0</start>
                            <end>243353</end>
                            <effect>
                                <name>Opacity</name>
                                <effectid>opacity</effectid>
                                <effecttype>motion</effecttype>
                                <mediatype>video</mediatype>
                                <effectcategory>motion</effectcategory>
                                <parameter>
                                    <name>opacity</name>
                                    <parameterid>opacity</parameterid>
                                    <value>100</value>
                                    <valuemin>0</valuemin>
                                    <valuemax>100</valuemax>
                                </parameter>
                            </effect>
                        </filter>
                        <link>
                            <linkclipref>Interstaller.mp4 195</linkclipref>
                        </link>
                        <link>
                            <linkclipref>Interstaller.mp4 342</linkclipref>
                        </link>
                        <comments/>
                    </clipitem>
                    <clipitem id="Interstaller.mp4 197">
                        <name>Interstaller.mp4</name>
                        <duration>243353</duration>
                        <rate>
                            <timebase>24</timebase>
                            <ntsc>FALSE</ntsc>
                        </rate>
                        <start>8244</start>
                        <end>8329</end>
                        <enabled>TRUE</enabled>
                        <in>172216</in>
                        <out>172301</out>
                        <file id="Interstaller.mp4 2"/>
                        <compositemode>normal</compositemode>
                        <filter>
                            <enabled>TRUE</enabled>
                            <start>0</start>
                            <end>243353</end>
                            <effect>
                                <name>Basic Motion</name>
                                <effectid>basic</effectid>
                                <effecttype>motion</effecttype>
                                <mediatype>video</mediatype>
                                <effectcategory>motion</effectcategory>
                                <parameter>
                                    <name>Scale</name>
                                    <parameterid>scale</parameterid>
                                    <value>100</value>
                                    <valuemin>0</valuemin>
                                    <valuemax>10000</valuemax>
                                </parameter>
                                <parameter>
                                    <name>Center</name>
                                    <parameterid>center</parameterid>
                                    <value>
                                        <horiz>0</horiz>
                                        <vert>0</vert>
                                    </value>
                                </parameter>
                                <parameter>
                                    <name>Rotation</name>
                                    <parameterid>rotation</parameterid>
                                    <value>0</value>
                                    <valuemin>-100000</valuemin>
                                    <valuemax>100000</valuemax>
                                </parameter>
                                <parameter>
                                    <name>Anchor Point</name>
                                    <parameterid>centerOffset</parameterid>
                                    <value>
                                        <horiz>0</horiz>
                                        <vert>0</vert>
                                    </value>
                                </parameter>
                            </effect>
                        </filter>
                        <filter>
                            <enabled>TRUE</enabled>
                            <start>0</start>
                            <end>243353</end>
                            <effect>
                                <name>Crop</name>
                                <effectid>crop</effectid>
                                <effecttype>motion</effecttype>
                                <mediatype>video</mediatype>
                                <effectcategory>motion</effectcategory>
                                <parameter>
                                    <name>left</name>
                                    <parameterid>left</parameterid>
                                    <value>0</value>
                                    <valuemin>0</valuemin>
                                    <valuemax>100</valuemax>
                                </parameter>
                                <parameter>
                                    <name>right</name>
                                    <parameterid>right</parameterid>
                                    <value>0</value>
                                    <valuemin>0</valuemin>
                                    <valuemax>100</valuemax>
                                </parameter>
                                <parameter>
                                    <name>top</name>
                                    <parameterid>top</parameterid>
                                    <value>0</value>
                                    <valuemin>0</valuemin>
                                    <valuemax>100</valuemax>
                                </parameter>
                                <parameter>
                                    <name>bottom</name>
                                    <parameterid>bottom</parameterid>
                                    <value>0</value>
                                    <valuemin>0</valuemin>
                                    <valuemax>100</valuemax>
                                </parameter>
                            </effect>
                        </filter>
                        <filter>
                            <enabled>TRUE</enabled>
                            <start>0</start>
                            <end>243353</end>
                            <effect>
                                <name>Opacity</name>
                                <effectid>opacity</effectid>
                                <effecttype>motion</effecttype>
                                <mediatype>video</mediatype>
                                <effectcategory>motion</effectcategory>
                                <parameter>
                                    <name>opacity</name>
                                    <parameterid>opacity</parameterid>
                                    <value>100</value>
                                    <valuemin>0</valuemin>
                                    <valuemax>100</valuemax>
                                </parameter>
                            </effect>
                        </filter>
                        <link>
                            <linkclipref>Interstaller.mp4 197</linkclipref>
                        </link>
                        <link>
                            <linkclipref>Interstaller.mp4 343</linkclipref>
                        </link>
                        <comments/>
                    </clipitem>
                    <clipitem id="Interstaller.mp4 199">
                        <name>Interstaller.mp4</name>
                        <duration>243353</duration>
                        <rate>
                            <timebase>24</timebase>
                            <ntsc>FALSE</ntsc>
                        </rate>
                        <start>8329</start>
                        <end>8414</end>
                        <enabled>TRUE</enabled>
                        <in>172301</in>
                        <out>172386</out>
                        <file id="Interstaller.mp4 2"/>
                        <compositemode>normal</compositemode>
                        <filter>
                            <enabled>TRUE</enabled>
                            <start>0</start>
                            <end>243353</end>
                            <effect>
                                <name>Basic Motion</name>
                                <effectid>basic</effectid>
                                <effecttype>motion</effecttype>
                                <mediatype>video</mediatype>
                                <effectcategory>motion</effectcategory>
                                <parameter>
                                    <name>Scale</name>
                                    <parameterid>scale</parameterid>
                                    <value>100</value>
                                    <valuemin>0</valuemin>
                                    <valuemax>10000</valuemax>
                                </parameter>
                                <parameter>
                                    <name>Center</name>
                                    <parameterid>center</parameterid>
                                    <value>
                                        <horiz>0</horiz>
                                        <vert>0</vert>
                                    </value>
                                </parameter>
                                <parameter>
                                    <name>Rotation</name>
                                    <parameterid>rotation</parameterid>
                                    <value>0</value>
                                    <valuemin>-100000</valuemin>
                                    <valuemax>100000</valuemax>
                                </parameter>
                                <parameter>
                                    <name>Anchor Point</name>
                                    <parameterid>centerOffset</parameterid>
                                    <value>
                                        <horiz>0</horiz>
                                        <vert>0</vert>
                                    </value>
                                </parameter>
                            </effect>
                        </filter>
                        <filter>
                            <enabled>TRUE</enabled>
                            <start>0</start>
                            <end>243353</end>
                            <effect>
                                <name>Crop</name>
                                <effectid>crop</effectid>
                                <effecttype>motion</effecttype>
                                <mediatype>video</mediatype>
                                <effectcategory>motion</effectcategory>
                                <parameter>
                                    <name>left</name>
                                    <parameterid>left</parameterid>
                                    <value>0</value>
                                    <valuemin>0</valuemin>
                                    <valuemax>100</valuemax>
                                </parameter>
                                <parameter>
                                    <name>right</name>
                                    <parameterid>right</parameterid>
                                    <value>0</value>
                                    <valuemin>0</valuemin>
                                    <valuemax>100</valuemax>
                                </parameter>
                                <parameter>
                                    <name>top</name>
                                    <parameterid>top</parameterid>
                                    <value>0</value>
                                    <valuemin>0</valuemin>
                                    <valuemax>100</valuemax>
                                </parameter>
                                <parameter>
                                    <name>bottom</name>
                                    <parameterid>bottom</parameterid>
                                    <value>0</value>
                                    <valuemin>0</valuemin>
                                    <valuemax>100</valuemax>
                                </parameter>
                            </effect>
                        </filter>
                        <filter>
                            <enabled>TRUE</enabled>
                            <start>0</start>
                            <end>243353</end>
                            <effect>
                                <name>Opacity</name>
                                <effectid>opacity</effectid>
                                <effecttype>motion</effecttype>
                                <mediatype>video</mediatype>
                                <effectcategory>motion</effectcategory>
                                <parameter>
                                    <name>opacity</name>
                                    <parameterid>opacity</parameterid>
                                    <value>100</value>
                                    <valuemin>0</valuemin>
                                    <valuemax>100</valuemax>
                                </parameter>
                            </effect>
                        </filter>
                        <link>
                            <linkclipref>Interstaller.mp4 199</linkclipref>
                        </link>
                        <link>
                            <linkclipref>Interstaller.mp4 344</linkclipref>
                        </link>
                        <comments/>
                    </clipitem>
                    <clipitem id="Interstaller.mp4 201">
                        <name>Interstaller.mp4</name>
                        <duration>243353</duration>
                        <rate>
                            <timebase>24</timebase>
                            <ntsc>FALSE</ntsc>
                        </rate>
                        <start>8414</start>
                        <end>8535</end>
                        <enabled>TRUE</enabled>
                        <in>172386</in>
                        <out>172507</out>
                        <file id="Interstaller.mp4 2"/>
                        <compositemode>normal</compositemode>
                        <filter>
                            <enabled>TRUE</enabled>
                            <start>0</start>
                            <end>243353</end>
                            <effect>
                                <name>Basic Motion</name>
                                <effectid>basic</effectid>
                                <effecttype>motion</effecttype>
                                <mediatype>video</mediatype>
                                <effectcategory>motion</effectcategory>
                                <parameter>
                                    <name>Scale</name>
                                    <parameterid>scale</parameterid>
                                    <value>100</value>
                                    <valuemin>0</valuemin>
                                    <valuemax>10000</valuemax>
                                </parameter>
                                <parameter>
                                    <name>Center</name>
                                    <parameterid>center</parameterid>
                                    <value>
                                        <horiz>0</horiz>
                                        <vert>0</vert>
                                    </value>
                                </parameter>
                                <parameter>
                                    <name>Rotation</name>
                                    <parameterid>rotation</parameterid>
                                    <value>0</value>
                                    <valuemin>-100000</valuemin>
                                    <valuemax>100000</valuemax>
                                </parameter>
                                <parameter>
                                    <name>Anchor Point</name>
                                    <parameterid>centerOffset</parameterid>
                                    <value>
                                        <horiz>0</horiz>
                                        <vert>0</vert>
                                    </value>
                                </parameter>
                            </effect>
                        </filter>
                        <filter>
                            <enabled>TRUE</enabled>
                            <start>0</start>
                            <end>243353</end>
                            <effect>
                                <name>Crop</name>
                                <effectid>crop</effectid>
                                <effecttype>motion</effecttype>
                                <mediatype>video</mediatype>
                                <effectcategory>motion</effectcategory>
                                <parameter>
                                    <name>left</name>
                                    <parameterid>left</parameterid>
                                    <value>0</value>
                                    <valuemin>0</valuemin>
                                    <valuemax>100</valuemax>
                                </parameter>
                                <parameter>
                                    <name>right</name>
                                    <parameterid>right</parameterid>
                                    <value>0</value>
                                    <valuemin>0</valuemin>
                                    <valuemax>100</valuemax>
                                </parameter>
                                <parameter>
                                    <name>top</name>
                                    <parameterid>top</parameterid>
                                    <value>0</value>
                                    <valuemin>0</valuemin>
                                    <valuemax>100</valuemax>
                                </parameter>
                                <parameter>
                                    <name>bottom</name>
                                    <parameterid>bottom</parameterid>
                                    <value>0</value>
                                    <valuemin>0</valuemin>
                                    <valuemax>100</valuemax>
                                </parameter>
                            </effect>
                        </filter>
                        <filter>
                            <enabled>TRUE</enabled>
                            <start>0</start>
                            <end>243353</end>
                            <effect>
                                <name>Opacity</name>
                                <effectid>opacity</effectid>
                                <effecttype>motion</effecttype>
                                <mediatype>video</mediatype>
                                <effectcategory>motion</effectcategory>
                                <parameter>
                                    <name>opacity</name>
                                    <parameterid>opacity</parameterid>
                                    <value>100</value>
                                    <valuemin>0</valuemin>
                                    <valuemax>100</valuemax>
                                </parameter>
                            </effect>
                        </filter>
                        <link>
                            <linkclipref>Interstaller.mp4 201</linkclipref>
                        </link>
                        <link>
                            <linkclipref>Interstaller.mp4 345</linkclipref>
                        </link>
                        <comments/>
                    </clipitem>
                    <clipitem id="Interstaller.mp4 203">
                        <name>Interstaller.mp4</name>
                        <duration>243353</duration>
                        <rate>
                            <timebase>24</timebase>
                            <ntsc>FALSE</ntsc>
                        </rate>
                        <start>8535</start>
                        <end>8644</end>
                        <enabled>TRUE</enabled>
                        <in>172507</in>
                        <out>172616</out>
                        <file id="Interstaller.mp4 2"/>
                        <compositemode>normal</compositemode>
                        <filter>
                            <enabled>TRUE</enabled>
                            <start>0</start>
                            <end>243353</end>
                            <effect>
                                <name>Basic Motion</name>
                                <effectid>basic</effectid>
                                <effecttype>motion</effecttype>
                                <mediatype>video</mediatype>
                                <effectcategory>motion</effectcategory>
                                <parameter>
                                    <name>Scale</name>
                                    <parameterid>scale</parameterid>
                                    <value>100</value>
                                    <valuemin>0</valuemin>
                                    <valuemax>10000</valuemax>
                                </parameter>
                                <parameter>
                                    <name>Center</name>
                                    <parameterid>center</parameterid>
                                    <value>
                                        <horiz>0</horiz>
                                        <vert>0</vert>
                                    </value>
                                </parameter>
                                <parameter>
                                    <name>Rotation</name>
                                    <parameterid>rotation</parameterid>
                                    <value>0</value>
                                    <valuemin>-100000</valuemin>
                                    <valuemax>100000</valuemax>
                                </parameter>
                                <parameter>
                                    <name>Anchor Point</name>
                                    <parameterid>centerOffset</parameterid>
                                    <value>
                                        <horiz>0</horiz>
                                        <vert>0</vert>
                                    </value>
                                </parameter>
                            </effect>
                        </filter>
                        <filter>
                            <enabled>TRUE</enabled>
                            <start>0</start>
                            <end>243353</end>
                            <effect>
                                <name>Crop</name>
                                <effectid>crop</effectid>
                                <effecttype>motion</effecttype>
                                <mediatype>video</mediatype>
                                <effectcategory>motion</effectcategory>
                                <parameter>
                                    <name>left</name>
                                    <parameterid>left</parameterid>
                                    <value>0</value>
                                    <valuemin>0</valuemin>
                                    <valuemax>100</valuemax>
                                </parameter>
                                <parameter>
                                    <name>right</name>
                                    <parameterid>right</parameterid>
                                    <value>0</value>
                                    <valuemin>0</valuemin>
                                    <valuemax>100</valuemax>
                                </parameter>
                                <parameter>
                                    <name>top</name>
                                    <parameterid>top</parameterid>
                                    <value>0</value>
                                    <valuemin>0</valuemin>
                                    <valuemax>100</valuemax>
                                </parameter>
                                <parameter>
                                    <name>bottom</name>
                                    <parameterid>bottom</parameterid>
                                    <value>0</value>
                                    <valuemin>0</valuemin>
                                    <valuemax>100</valuemax>
                                </parameter>
                            </effect>
                        </filter>
                        <filter>
                            <enabled>TRUE</enabled>
                            <start>0</start>
                            <end>243353</end>
                            <effect>
                                <name>Opacity</name>
                                <effectid>opacity</effectid>
                                <effecttype>motion</effecttype>
                                <mediatype>video</mediatype>
                                <effectcategory>motion</effectcategory>
                                <parameter>
                                    <name>opacity</name>
                                    <parameterid>opacity</parameterid>
                                    <value>100</value>
                                    <valuemin>0</valuemin>
                                    <valuemax>100</valuemax>
                                </parameter>
                            </effect>
                        </filter>
                        <link>
                            <linkclipref>Interstaller.mp4 203</linkclipref>
                        </link>
                        <link>
                            <linkclipref>Interstaller.mp4 346</linkclipref>
                        </link>
                        <comments/>
                    </clipitem>
                    <clipitem id="Interstaller.mp4 205">
                        <name>Interstaller.mp4</name>
                        <duration>243353</duration>
                        <rate>
                            <timebase>24</timebase>
                            <ntsc>FALSE</ntsc>
                        </rate>
                        <start>8644</start>
                        <end>8699</end>
                        <enabled>TRUE</enabled>
                        <in>172616</in>
                        <out>172671</out>
                        <file id="Interstaller.mp4 2"/>
                        <compositemode>normal</compositemode>
                        <filter>
                            <enabled>TRUE</enabled>
                            <start>0</start>
                            <end>243353</end>
                            <effect>
                                <name>Basic Motion</name>
                                <effectid>basic</effectid>
                                <effecttype>motion</effecttype>
                                <mediatype>video</mediatype>
                                <effectcategory>motion</effectcategory>
                                <parameter>
                                    <name>Scale</name>
                                    <parameterid>scale</parameterid>
                                    <value>100</value>
                                    <valuemin>0</valuemin>
                                    <valuemax>10000</valuemax>
                                </parameter>
                                <parameter>
                                    <name>Center</name>
                                    <parameterid>center</parameterid>
                                    <value>
                                        <horiz>0</horiz>
                                        <vert>0</vert>
                                    </value>
                                </parameter>
                                <parameter>
                                    <name>Rotation</name>
                                    <parameterid>rotation</parameterid>
                                    <value>0</value>
                                    <valuemin>-100000</valuemin>
                                    <valuemax>100000</valuemax>
                                </parameter>
                                <parameter>
                                    <name>Anchor Point</name>
                                    <parameterid>centerOffset</parameterid>
                                    <value>
                                        <horiz>0</horiz>
                                        <vert>0</vert>
                                    </value>
                                </parameter>
                            </effect>
                        </filter>
                        <filter>
                            <enabled>TRUE</enabled>
                            <start>0</start>
                            <end>243353</end>
                            <effect>
                                <name>Crop</name>
                                <effectid>crop</effectid>
                                <effecttype>motion</effecttype>
                                <mediatype>video</mediatype>
                                <effectcategory>motion</effectcategory>
                                <parameter>
                                    <name>left</name>
                                    <parameterid>left</parameterid>
                                    <value>0</value>
                                    <valuemin>0</valuemin>
                                    <valuemax>100</valuemax>
                                </parameter>
                                <parameter>
                                    <name>right</name>
                                    <parameterid>right</parameterid>
                                    <value>0</value>
                                    <valuemin>0</valuemin>
                                    <valuemax>100</valuemax>
                                </parameter>
                                <parameter>
                                    <name>top</name>
                                    <parameterid>top</parameterid>
                                    <value>0</value>
                                    <valuemin>0</valuemin>
                                    <valuemax>100</valuemax>
                                </parameter>
                                <parameter>
                                    <name>bottom</name>
                                    <parameterid>bottom</parameterid>
                                    <value>0</value>
                                    <valuemin>0</valuemin>
                                    <valuemax>100</valuemax>
                                </parameter>
                            </effect>
                        </filter>
                        <filter>
                            <enabled>TRUE</enabled>
                            <start>0</start>
                            <end>243353</end>
                            <effect>
                                <name>Opacity</name>
                                <effectid>opacity</effectid>
                                <effecttype>motion</effecttype>
                                <mediatype>video</mediatype>
                                <effectcategory>motion</effectcategory>
                                <parameter>
                                    <name>opacity</name>
                                    <parameterid>opacity</parameterid>
                                    <value>100</value>
                                    <valuemin>0</valuemin>
                                    <valuemax>100</valuemax>
                                </parameter>
                            </effect>
                        </filter>
                        <link>
                            <linkclipref>Interstaller.mp4 205</linkclipref>
                        </link>
                        <link>
                            <linkclipref>Interstaller.mp4 347</linkclipref>
                        </link>
                        <comments/>
                    </clipitem>
                    <clipitem id="Interstaller.mp4 207">
                        <name>Interstaller.mp4</name>
                        <duration>243353</duration>
                        <rate>
                            <timebase>24</timebase>
                            <ntsc>FALSE</ntsc>
                        </rate>
                        <start>8699</start>
                        <end>8804</end>
                        <enabled>TRUE</enabled>
                        <in>172671</in>
                        <out>172776</out>
                        <file id="Interstaller.mp4 2"/>
                        <compositemode>normal</compositemode>
                        <filter>
                            <enabled>TRUE</enabled>
                            <start>0</start>
                            <end>243353</end>
                            <effect>
                                <name>Basic Motion</name>
                                <effectid>basic</effectid>
                                <effecttype>motion</effecttype>
                                <mediatype>video</mediatype>
                                <effectcategory>motion</effectcategory>
                                <parameter>
                                    <name>Scale</name>
                                    <parameterid>scale</parameterid>
                                    <value>100</value>
                                    <valuemin>0</valuemin>
                                    <valuemax>10000</valuemax>
                                </parameter>
                                <parameter>
                                    <name>Center</name>
                                    <parameterid>center</parameterid>
                                    <value>
                                        <horiz>0</horiz>
                                        <vert>0</vert>
                                    </value>
                                </parameter>
                                <parameter>
                                    <name>Rotation</name>
                                    <parameterid>rotation</parameterid>
                                    <value>0</value>
                                    <valuemin>-100000</valuemin>
                                    <valuemax>100000</valuemax>
                                </parameter>
                                <parameter>
                                    <name>Anchor Point</name>
                                    <parameterid>centerOffset</parameterid>
                                    <value>
                                        <horiz>0</horiz>
                                        <vert>0</vert>
                                    </value>
                                </parameter>
                            </effect>
                        </filter>
                        <filter>
                            <enabled>TRUE</enabled>
                            <start>0</start>
                            <end>243353</end>
                            <effect>
                                <name>Crop</name>
                                <effectid>crop</effectid>
                                <effecttype>motion</effecttype>
                                <mediatype>video</mediatype>
                                <effectcategory>motion</effectcategory>
                                <parameter>
                                    <name>left</name>
                                    <parameterid>left</parameterid>
                                    <value>0</value>
                                    <valuemin>0</valuemin>
                                    <valuemax>100</valuemax>
                                </parameter>
                                <parameter>
                                    <name>right</name>
                                    <parameterid>right</parameterid>
                                    <value>0</value>
                                    <valuemin>0</valuemin>
                                    <valuemax>100</valuemax>
                                </parameter>
                                <parameter>
                                    <name>top</name>
                                    <parameterid>top</parameterid>
                                    <value>0</value>
                                    <valuemin>0</valuemin>
                                    <valuemax>100</valuemax>
                                </parameter>
                                <parameter>
                                    <name>bottom</name>
                                    <parameterid>bottom</parameterid>
                                    <value>0</value>
                                    <valuemin>0</valuemin>
                                    <valuemax>100</valuemax>
                                </parameter>
                            </effect>
                        </filter>
                        <filter>
                            <enabled>TRUE</enabled>
                            <start>0</start>
                            <end>243353</end>
                            <effect>
                                <name>Opacity</name>
                                <effectid>opacity</effectid>
                                <effecttype>motion</effecttype>
                                <mediatype>video</mediatype>
                                <effectcategory>motion</effectcategory>
                                <parameter>
                                    <name>opacity</name>
                                    <parameterid>opacity</parameterid>
                                    <value>100</value>
                                    <valuemin>0</valuemin>
                                    <valuemax>100</valuemax>
                                </parameter>
                            </effect>
                        </filter>
                        <link>
                            <linkclipref>Interstaller.mp4 207</linkclipref>
                        </link>
                        <link>
                            <linkclipref>Interstaller.mp4 348</linkclipref>
                        </link>
                        <comments/>
                    </clipitem>
                    <clipitem id="Interstaller.mp4 209">
                        <name>Interstaller.mp4</name>
                        <duration>243353</duration>
                        <rate>
                            <timebase>24</timebase>
                            <ntsc>FALSE</ntsc>
                        </rate>
                        <start>8804</start>
                        <end>8853</end>
                        <enabled>TRUE</enabled>
                        <in>172776</in>
                        <out>172825</out>
                        <file id="Interstaller.mp4 2"/>
                        <compositemode>normal</compositemode>
                        <filter>
                            <enabled>TRUE</enabled>
                            <start>0</start>
                            <end>243353</end>
                            <effect>
                                <name>Basic Motion</name>
                                <effectid>basic</effectid>
                                <effecttype>motion</effecttype>
                                <mediatype>video</mediatype>
                                <effectcategory>motion</effectcategory>
                                <parameter>
                                    <name>Scale</name>
                                    <parameterid>scale</parameterid>
                                    <value>100</value>
                                    <valuemin>0</valuemin>
                                    <valuemax>10000</valuemax>
                                </parameter>
                                <parameter>
                                    <name>Center</name>
                                    <parameterid>center</parameterid>
                                    <value>
                                        <horiz>0</horiz>
                                        <vert>0</vert>
                                    </value>
                                </parameter>
                                <parameter>
                                    <name>Rotation</name>
                                    <parameterid>rotation</parameterid>
                                    <value>0</value>
                                    <valuemin>-100000</valuemin>
                                    <valuemax>100000</valuemax>
                                </parameter>
                                <parameter>
                                    <name>Anchor Point</name>
                                    <parameterid>centerOffset</parameterid>
                                    <value>
                                        <horiz>0</horiz>
                                        <vert>0</vert>
                                    </value>
                                </parameter>
                            </effect>
                        </filter>
                        <filter>
                            <enabled>TRUE</enabled>
                            <start>0</start>
                            <end>243353</end>
                            <effect>
                                <name>Crop</name>
                                <effectid>crop</effectid>
                                <effecttype>motion</effecttype>
                                <mediatype>video</mediatype>
                                <effectcategory>motion</effectcategory>
                                <parameter>
                                    <name>left</name>
                                    <parameterid>left</parameterid>
                                    <value>0</value>
                                    <valuemin>0</valuemin>
                                    <valuemax>100</valuemax>
                                </parameter>
                                <parameter>
                                    <name>right</name>
                                    <parameterid>right</parameterid>
                                    <value>0</value>
                                    <valuemin>0</valuemin>
                                    <valuemax>100</valuemax>
                                </parameter>
                                <parameter>
                                    <name>top</name>
                                    <parameterid>top</parameterid>
                                    <value>0</value>
                                    <valuemin>0</valuemin>
                                    <valuemax>100</valuemax>
                                </parameter>
                                <parameter>
                                    <name>bottom</name>
                                    <parameterid>bottom</parameterid>
                                    <value>0</value>
                                    <valuemin>0</valuemin>
                                    <valuemax>100</valuemax>
                                </parameter>
                            </effect>
                        </filter>
                        <filter>
                            <enabled>TRUE</enabled>
                            <start>0</start>
                            <end>243353</end>
                            <effect>
                                <name>Opacity</name>
                                <effectid>opacity</effectid>
                                <effecttype>motion</effecttype>
                                <mediatype>video</mediatype>
                                <effectcategory>motion</effectcategory>
                                <parameter>
                                    <name>opacity</name>
                                    <parameterid>opacity</parameterid>
                                    <value>100</value>
                                    <valuemin>0</valuemin>
                                    <valuemax>100</valuemax>
                                </parameter>
                            </effect>
                        </filter>
                        <link>
                            <linkclipref>Interstaller.mp4 209</linkclipref>
                        </link>
                        <link>
                            <linkclipref>Interstaller.mp4 349</linkclipref>
                        </link>
                        <comments/>
                    </clipitem>
                    <clipitem id="Interstaller.mp4 211">
                        <name>Interstaller.mp4</name>
                        <duration>243353</duration>
                        <rate>
                            <timebase>24</timebase>
                            <ntsc>FALSE</ntsc>
                        </rate>
                        <start>8853</start>
                        <end>8902</end>
                        <enabled>TRUE</enabled>
                        <in>172825</in>
                        <out>172874</out>
                        <file id="Interstaller.mp4 2"/>
                        <compositemode>normal</compositemode>
                        <filter>
                            <enabled>TRUE</enabled>
                            <start>0</start>
                            <end>243353</end>
                            <effect>
                                <name>Basic Motion</name>
                                <effectid>basic</effectid>
                                <effecttype>motion</effecttype>
                                <mediatype>video</mediatype>
                                <effectcategory>motion</effectcategory>
                                <parameter>
                                    <name>Scale</name>
                                    <parameterid>scale</parameterid>
                                    <value>100</value>
                                    <valuemin>0</valuemin>
                                    <valuemax>10000</valuemax>
                                </parameter>
                                <parameter>
                                    <name>Center</name>
                                    <parameterid>center</parameterid>
                                    <value>
                                        <horiz>0</horiz>
                                        <vert>0</vert>
                                    </value>
                                </parameter>
                                <parameter>
                                    <name>Rotation</name>
                                    <parameterid>rotation</parameterid>
                                    <value>0</value>
                                    <valuemin>-100000</valuemin>
                                    <valuemax>100000</valuemax>
                                </parameter>
                                <parameter>
                                    <name>Anchor Point</name>
                                    <parameterid>centerOffset</parameterid>
                                    <value>
                                        <horiz>0</horiz>
                                        <vert>0</vert>
                                    </value>
                                </parameter>
                            </effect>
                        </filter>
                        <filter>
                            <enabled>TRUE</enabled>
                            <start>0</start>
                            <end>243353</end>
                            <effect>
                                <name>Crop</name>
                                <effectid>crop</effectid>
                                <effecttype>motion</effecttype>
                                <mediatype>video</mediatype>
                                <effectcategory>motion</effectcategory>
                                <parameter>
                                    <name>left</name>
                                    <parameterid>left</parameterid>
                                    <value>0</value>
                                    <valuemin>0</valuemin>
                                    <valuemax>100</valuemax>
                                </parameter>
                                <parameter>
                                    <name>right</name>
                                    <parameterid>right</parameterid>
                                    <value>0</value>
                                    <valuemin>0</valuemin>
                                    <valuemax>100</valuemax>
                                </parameter>
                                <parameter>
                                    <name>top</name>
                                    <parameterid>top</parameterid>
                                    <value>0</value>
                                    <valuemin>0</valuemin>
                                    <valuemax>100</valuemax>
                                </parameter>
                                <parameter>
                                    <name>bottom</name>
                                    <parameterid>bottom</parameterid>
                                    <value>0</value>
                                    <valuemin>0</valuemin>
                                    <valuemax>100</valuemax>
                                </parameter>
                            </effect>
                        </filter>
                        <filter>
                            <enabled>TRUE</enabled>
                            <start>0</start>
                            <end>243353</end>
                            <effect>
                                <name>Opacity</name>
                                <effectid>opacity</effectid>
                                <effecttype>motion</effecttype>
                                <mediatype>video</mediatype>
                                <effectcategory>motion</effectcategory>
                                <parameter>
                                    <name>opacity</name>
                                    <parameterid>opacity</parameterid>
                                    <value>100</value>
                                    <valuemin>0</valuemin>
                                    <valuemax>100</valuemax>
                                </parameter>
                            </effect>
                        </filter>
                        <link>
                            <linkclipref>Interstaller.mp4 211</linkclipref>
                        </link>
                        <link>
                            <linkclipref>Interstaller.mp4 350</linkclipref>
                        </link>
                        <comments/>
                    </clipitem>
                    <clipitem id="Interstaller.mp4 213">
                        <name>Interstaller.mp4</name>
                        <duration>243353</duration>
                        <rate>
                            <timebase>24</timebase>
                            <ntsc>FALSE</ntsc>
                        </rate>
                        <start>8902</start>
                        <end>8948</end>
                        <enabled>TRUE</enabled>
                        <in>172874</in>
                        <out>172920</out>
                        <file id="Interstaller.mp4 2"/>
                        <compositemode>normal</compositemode>
                        <filter>
                            <enabled>TRUE</enabled>
                            <start>0</start>
                            <end>243353</end>
                            <effect>
                                <name>Basic Motion</name>
                                <effectid>basic</effectid>
                                <effecttype>motion</effecttype>
                                <mediatype>video</mediatype>
                                <effectcategory>motion</effectcategory>
                                <parameter>
                                    <name>Scale</name>
                                    <parameterid>scale</parameterid>
                                    <value>100</value>
                                    <valuemin>0</valuemin>
                                    <valuemax>10000</valuemax>
                                </parameter>
                                <parameter>
                                    <name>Center</name>
                                    <parameterid>center</parameterid>
                                    <value>
                                        <horiz>0</horiz>
                                        <vert>0</vert>
                                    </value>
                                </parameter>
                                <parameter>
                                    <name>Rotation</name>
                                    <parameterid>rotation</parameterid>
                                    <value>0</value>
                                    <valuemin>-100000</valuemin>
                                    <valuemax>100000</valuemax>
                                </parameter>
                                <parameter>
                                    <name>Anchor Point</name>
                                    <parameterid>centerOffset</parameterid>
                                    <value>
                                        <horiz>0</horiz>
                                        <vert>0</vert>
                                    </value>
                                </parameter>
                            </effect>
                        </filter>
                        <filter>
                            <enabled>TRUE</enabled>
                            <start>0</start>
                            <end>243353</end>
                            <effect>
                                <name>Crop</name>
                                <effectid>crop</effectid>
                                <effecttype>motion</effecttype>
                                <mediatype>video</mediatype>
                                <effectcategory>motion</effectcategory>
                                <parameter>
                                    <name>left</name>
                                    <parameterid>left</parameterid>
                                    <value>0</value>
                                    <valuemin>0</valuemin>
                                    <valuemax>100</valuemax>
                                </parameter>
                                <parameter>
                                    <name>right</name>
                                    <parameterid>right</parameterid>
                                    <value>0</value>
                                    <valuemin>0</valuemin>
                                    <valuemax>100</valuemax>
                                </parameter>
                                <parameter>
                                    <name>top</name>
                                    <parameterid>top</parameterid>
                                    <value>0</value>
                                    <valuemin>0</valuemin>
                                    <valuemax>100</valuemax>
                                </parameter>
                                <parameter>
                                    <name>bottom</name>
                                    <parameterid>bottom</parameterid>
                                    <value>0</value>
                                    <valuemin>0</valuemin>
                                    <valuemax>100</valuemax>
                                </parameter>
                            </effect>
                        </filter>
                        <filter>
                            <enabled>TRUE</enabled>
                            <start>0</start>
                            <end>243353</end>
                            <effect>
                                <name>Opacity</name>
                                <effectid>opacity</effectid>
                                <effecttype>motion</effecttype>
                                <mediatype>video</mediatype>
                                <effectcategory>motion</effectcategory>
                                <parameter>
                                    <name>opacity</name>
                                    <parameterid>opacity</parameterid>
                                    <value>100</value>
                                    <valuemin>0</valuemin>
                                    <valuemax>100</valuemax>
                                </parameter>
                            </effect>
                        </filter>
                        <link>
                            <linkclipref>Interstaller.mp4 213</linkclipref>
                        </link>
                        <link>
                            <linkclipref>Interstaller.mp4 351</linkclipref>
                        </link>
                        <comments/>
                    </clipitem>
                    <clipitem id="Interstaller.mp4 215">
                        <name>Interstaller.mp4</name>
                        <duration>243353</duration>
                        <rate>
                            <timebase>24</timebase>
                            <ntsc>FALSE</ntsc>
                        </rate>
                        <start>8948</start>
                        <end>8982</end>
                        <enabled>TRUE</enabled>
                        <in>172920</in>
                        <out>172954</out>
                        <file id="Interstaller.mp4 2"/>
                        <compositemode>normal</compositemode>
                        <filter>
                            <enabled>TRUE</enabled>
                            <start>0</start>
                            <end>243353</end>
                            <effect>
                                <name>Basic Motion</name>
                                <effectid>basic</effectid>
                                <effecttype>motion</effecttype>
                                <mediatype>video</mediatype>
                                <effectcategory>motion</effectcategory>
                                <parameter>
                                    <name>Scale</name>
                                    <parameterid>scale</parameterid>
                                    <value>100</value>
                                    <valuemin>0</valuemin>
                                    <valuemax>10000</valuemax>
                                </parameter>
                                <parameter>
                                    <name>Center</name>
                                    <parameterid>center</parameterid>
                                    <value>
                                        <horiz>0</horiz>
                                        <vert>0</vert>
                                    </value>
                                </parameter>
                                <parameter>
                                    <name>Rotation</name>
                                    <parameterid>rotation</parameterid>
                                    <value>0</value>
                                    <valuemin>-100000</valuemin>
                                    <valuemax>100000</valuemax>
                                </parameter>
                                <parameter>
                                    <name>Anchor Point</name>
                                    <parameterid>centerOffset</parameterid>
                                    <value>
                                        <horiz>0</horiz>
                                        <vert>0</vert>
                                    </value>
                                </parameter>
                            </effect>
                        </filter>
                        <filter>
                            <enabled>TRUE</enabled>
                            <start>0</start>
                            <end>243353</end>
                            <effect>
                                <name>Crop</name>
                                <effectid>crop</effectid>
                                <effecttype>motion</effecttype>
                                <mediatype>video</mediatype>
                                <effectcategory>motion</effectcategory>
                                <parameter>
                                    <name>left</name>
                                    <parameterid>left</parameterid>
                                    <value>0</value>
                                    <valuemin>0</valuemin>
                                    <valuemax>100</valuemax>
                                </parameter>
                                <parameter>
                                    <name>right</name>
                                    <parameterid>right</parameterid>
                                    <value>0</value>
                                    <valuemin>0</valuemin>
                                    <valuemax>100</valuemax>
                                </parameter>
                                <parameter>
                                    <name>top</name>
                                    <parameterid>top</parameterid>
                                    <value>0</value>
                                    <valuemin>0</valuemin>
                                    <valuemax>100</valuemax>
                                </parameter>
                                <parameter>
                                    <name>bottom</name>
                                    <parameterid>bottom</parameterid>
                                    <value>0</value>
                                    <valuemin>0</valuemin>
                                    <valuemax>100</valuemax>
                                </parameter>
                            </effect>
                        </filter>
                        <filter>
                            <enabled>TRUE</enabled>
                            <start>0</start>
                            <end>243353</end>
                            <effect>
                                <name>Opacity</name>
                                <effectid>opacity</effectid>
                                <effecttype>motion</effecttype>
                                <mediatype>video</mediatype>
                                <effectcategory>motion</effectcategory>
                                <parameter>
                                    <name>opacity</name>
                                    <parameterid>opacity</parameterid>
                                    <value>100</value>
                                    <valuemin>0</valuemin>
                                    <valuemax>100</valuemax>
                                </parameter>
                            </effect>
                        </filter>
                        <link>
                            <linkclipref>Interstaller.mp4 215</linkclipref>
                        </link>
                        <link>
                            <linkclipref>Interstaller.mp4 352</linkclipref>
                        </link>
                        <comments/>
                    </clipitem>
                    <clipitem id="Interstaller.mp4 217">
                        <name>Interstaller.mp4</name>
                        <duration>243353</duration>
                        <rate>
                            <timebase>24</timebase>
                            <ntsc>FALSE</ntsc>
                        </rate>
                        <start>8982</start>
                        <end>9102</end>
                        <enabled>TRUE</enabled>
                        <in>172954</in>
                        <out>173074</out>
                        <file id="Interstaller.mp4 2"/>
                        <compositemode>normal</compositemode>
                        <filter>
                            <enabled>TRUE</enabled>
                            <start>0</start>
                            <end>243353</end>
                            <effect>
                                <name>Basic Motion</name>
                                <effectid>basic</effectid>
                                <effecttype>motion</effecttype>
                                <mediatype>video</mediatype>
                                <effectcategory>motion</effectcategory>
                                <parameter>
                                    <name>Scale</name>
                                    <parameterid>scale</parameterid>
                                    <value>100</value>
                                    <valuemin>0</valuemin>
                                    <valuemax>10000</valuemax>
                                </parameter>
                                <parameter>
                                    <name>Center</name>
                                    <parameterid>center</parameterid>
                                    <value>
                                        <horiz>0</horiz>
                                        <vert>0</vert>
                                    </value>
                                </parameter>
                                <parameter>
                                    <name>Rotation</name>
                                    <parameterid>rotation</parameterid>
                                    <value>0</value>
                                    <valuemin>-100000</valuemin>
                                    <valuemax>100000</valuemax>
                                </parameter>
                                <parameter>
                                    <name>Anchor Point</name>
                                    <parameterid>centerOffset</parameterid>
                                    <value>
                                        <horiz>0</horiz>
                                        <vert>0</vert>
                                    </value>
                                </parameter>
                            </effect>
                        </filter>
                        <filter>
                            <enabled>TRUE</enabled>
                            <start>0</start>
                            <end>243353</end>
                            <effect>
                                <name>Crop</name>
                                <effectid>crop</effectid>
                                <effecttype>motion</effecttype>
                                <mediatype>video</mediatype>
                                <effectcategory>motion</effectcategory>
                                <parameter>
                                    <name>left</name>
                                    <parameterid>left</parameterid>
                                    <value>0</value>
                                    <valuemin>0</valuemin>
                                    <valuemax>100</valuemax>
                                </parameter>
                                <parameter>
                                    <name>right</name>
                                    <parameterid>right</parameterid>
                                    <value>0</value>
                                    <valuemin>0</valuemin>
                                    <valuemax>100</valuemax>
                                </parameter>
                                <parameter>
                                    <name>top</name>
                                    <parameterid>top</parameterid>
                                    <value>0</value>
                                    <valuemin>0</valuemin>
                                    <valuemax>100</valuemax>
                                </parameter>
                                <parameter>
                                    <name>bottom</name>
                                    <parameterid>bottom</parameterid>
                                    <value>0</value>
                                    <valuemin>0</valuemin>
                                    <valuemax>100</valuemax>
                                </parameter>
                            </effect>
                        </filter>
                        <filter>
                            <enabled>TRUE</enabled>
                            <start>0</start>
                            <end>243353</end>
                            <effect>
                                <name>Opacity</name>
                                <effectid>opacity</effectid>
                                <effecttype>motion</effecttype>
                                <mediatype>video</mediatype>
                                <effectcategory>motion</effectcategory>
                                <parameter>
                                    <name>opacity</name>
                                    <parameterid>opacity</parameterid>
                                    <value>100</value>
                                    <valuemin>0</valuemin>
                                    <valuemax>100</valuemax>
                                </parameter>
                            </effect>
                        </filter>
                        <link>
                            <linkclipref>Interstaller.mp4 217</linkclipref>
                        </link>
                        <link>
                            <linkclipref>Interstaller.mp4 353</linkclipref>
                        </link>
                        <comments/>
                    </clipitem>
                    <clipitem id="Interstaller.mp4 219">
                        <name>Interstaller.mp4</name>
                        <duration>243353</duration>
                        <rate>
                            <timebase>24</timebase>
                            <ntsc>FALSE</ntsc>
                        </rate>
                        <start>9102</start>
                        <end>9143</end>
                        <enabled>TRUE</enabled>
                        <in>173074</in>
                        <out>173115</out>
                        <file id="Interstaller.mp4 2"/>
                        <compositemode>normal</compositemode>
                        <filter>
                            <enabled>TRUE</enabled>
                            <start>0</start>
                            <end>243353</end>
                            <effect>
                                <name>Basic Motion</name>
                                <effectid>basic</effectid>
                                <effecttype>motion</effecttype>
                                <mediatype>video</mediatype>
                                <effectcategory>motion</effectcategory>
                                <parameter>
                                    <name>Scale</name>
                                    <parameterid>scale</parameterid>
                                    <value>100</value>
                                    <valuemin>0</valuemin>
                                    <valuemax>10000</valuemax>
                                </parameter>
                                <parameter>
                                    <name>Center</name>
                                    <parameterid>center</parameterid>
                                    <value>
                                        <horiz>0</horiz>
                                        <vert>0</vert>
                                    </value>
                                </parameter>
                                <parameter>
                                    <name>Rotation</name>
                                    <parameterid>rotation</parameterid>
                                    <value>0</value>
                                    <valuemin>-100000</valuemin>
                                    <valuemax>100000</valuemax>
                                </parameter>
                                <parameter>
                                    <name>Anchor Point</name>
                                    <parameterid>centerOffset</parameterid>
                                    <value>
                                        <horiz>0</horiz>
                                        <vert>0</vert>
                                    </value>
                                </parameter>
                            </effect>
                        </filter>
                        <filter>
                            <enabled>TRUE</enabled>
                            <start>0</start>
                            <end>243353</end>
                            <effect>
                                <name>Crop</name>
                                <effectid>crop</effectid>
                                <effecttype>motion</effecttype>
                                <mediatype>video</mediatype>
                                <effectcategory>motion</effectcategory>
                                <parameter>
                                    <name>left</name>
                                    <parameterid>left</parameterid>
                                    <value>0</value>
                                    <valuemin>0</valuemin>
                                    <valuemax>100</valuemax>
                                </parameter>
                                <parameter>
                                    <name>right</name>
                                    <parameterid>right</parameterid>
                                    <value>0</value>
                                    <valuemin>0</valuemin>
                                    <valuemax>100</valuemax>
                                </parameter>
                                <parameter>
                                    <name>top</name>
                                    <parameterid>top</parameterid>
                                    <value>0</value>
                                    <valuemin>0</valuemin>
                                    <valuemax>100</valuemax>
                                </parameter>
                                <parameter>
                                    <name>bottom</name>
                                    <parameterid>bottom</parameterid>
                                    <value>0</value>
                                    <valuemin>0</valuemin>
                                    <valuemax>100</valuemax>
                                </parameter>
                            </effect>
                        </filter>
                        <filter>
                            <enabled>TRUE</enabled>
                            <start>0</start>
                            <end>243353</end>
                            <effect>
                                <name>Opacity</name>
                                <effectid>opacity</effectid>
                                <effecttype>motion</effecttype>
                                <mediatype>video</mediatype>
                                <effectcategory>motion</effectcategory>
                                <parameter>
                                    <name>opacity</name>
                                    <parameterid>opacity</parameterid>
                                    <value>100</value>
                                    <valuemin>0</valuemin>
                                    <valuemax>100</valuemax>
                                </parameter>
                            </effect>
                        </filter>
                        <link>
                            <linkclipref>Interstaller.mp4 219</linkclipref>
                        </link>
                        <link>
                            <linkclipref>Interstaller.mp4 354</linkclipref>
                        </link>
                        <comments/>
                    </clipitem>
                    <clipitem id="Interstaller.mp4 221">
                        <name>Interstaller.mp4</name>
                        <duration>243353</duration>
                        <rate>
                            <timebase>24</timebase>
                            <ntsc>FALSE</ntsc>
                        </rate>
                        <start>9143</start>
                        <end>9226</end>
                        <enabled>TRUE</enabled>
                        <in>173115</in>
                        <out>173198</out>
                        <file id="Interstaller.mp4 2"/>
                        <compositemode>normal</compositemode>
                        <filter>
                            <enabled>TRUE</enabled>
                            <start>0</start>
                            <end>243353</end>
                            <effect>
                                <name>Basic Motion</name>
                                <effectid>basic</effectid>
                                <effecttype>motion</effecttype>
                                <mediatype>video</mediatype>
                                <effectcategory>motion</effectcategory>
                                <parameter>
                                    <name>Scale</name>
                                    <parameterid>scale</parameterid>
                                    <value>100</value>
                                    <valuemin>0</valuemin>
                                    <valuemax>10000</valuemax>
                                </parameter>
                                <parameter>
                                    <name>Center</name>
                                    <parameterid>center</parameterid>
                                    <value>
                                        <horiz>0</horiz>
                                        <vert>0</vert>
                                    </value>
                                </parameter>
                                <parameter>
                                    <name>Rotation</name>
                                    <parameterid>rotation</parameterid>
                                    <value>0</value>
                                    <valuemin>-100000</valuemin>
                                    <valuemax>100000</valuemax>
                                </parameter>
                                <parameter>
                                    <name>Anchor Point</name>
                                    <parameterid>centerOffset</parameterid>
                                    <value>
                                        <horiz>0</horiz>
                                        <vert>0</vert>
                                    </value>
                                </parameter>
                            </effect>
                        </filter>
                        <filter>
                            <enabled>TRUE</enabled>
                            <start>0</start>
                            <end>243353</end>
                            <effect>
                                <name>Crop</name>
                                <effectid>crop</effectid>
                                <effecttype>motion</effecttype>
                                <mediatype>video</mediatype>
                                <effectcategory>motion</effectcategory>
                                <parameter>
                                    <name>left</name>
                                    <parameterid>left</parameterid>
                                    <value>0</value>
                                    <valuemin>0</valuemin>
                                    <valuemax>100</valuemax>
                                </parameter>
                                <parameter>
                                    <name>right</name>
                                    <parameterid>right</parameterid>
                                    <value>0</value>
                                    <valuemin>0</valuemin>
                                    <valuemax>100</valuemax>
                                </parameter>
                                <parameter>
                                    <name>top</name>
                                    <parameterid>top</parameterid>
                                    <value>0</value>
                                    <valuemin>0</valuemin>
                                    <valuemax>100</valuemax>
                                </parameter>
                                <parameter>
                                    <name>bottom</name>
                                    <parameterid>bottom</parameterid>
                                    <value>0</value>
                                    <valuemin>0</valuemin>
                                    <valuemax>100</valuemax>
                                </parameter>
                            </effect>
                        </filter>
                        <filter>
                            <enabled>TRUE</enabled>
                            <start>0</start>
                            <end>243353</end>
                            <effect>
                                <name>Opacity</name>
                                <effectid>opacity</effectid>
                                <effecttype>motion</effecttype>
                                <mediatype>video</mediatype>
                                <effectcategory>motion</effectcategory>
                                <parameter>
                                    <name>opacity</name>
                                    <parameterid>opacity</parameterid>
                                    <value>100</value>
                                    <valuemin>0</valuemin>
                                    <valuemax>100</valuemax>
                                </parameter>
                            </effect>
                        </filter>
                        <link>
                            <linkclipref>Interstaller.mp4 221</linkclipref>
                        </link>
                        <link>
                            <linkclipref>Interstaller.mp4 355</linkclipref>
                        </link>
                        <comments/>
                    </clipitem>
                    <clipitem id="Interstaller.mp4 223">
                        <name>Interstaller.mp4</name>
                        <duration>243353</duration>
                        <rate>
                            <timebase>24</timebase>
                            <ntsc>FALSE</ntsc>
                        </rate>
                        <start>9226</start>
                        <end>9276</end>
                        <enabled>TRUE</enabled>
                        <in>173198</in>
                        <out>173248</out>
                        <file id="Interstaller.mp4 2"/>
                        <compositemode>normal</compositemode>
                        <filter>
                            <enabled>TRUE</enabled>
                            <start>0</start>
                            <end>243353</end>
                            <effect>
                                <name>Basic Motion</name>
                                <effectid>basic</effectid>
                                <effecttype>motion</effecttype>
                                <mediatype>video</mediatype>
                                <effectcategory>motion</effectcategory>
                                <parameter>
                                    <name>Scale</name>
                                    <parameterid>scale</parameterid>
                                    <value>100</value>
                                    <valuemin>0</valuemin>
                                    <valuemax>10000</valuemax>
                                </parameter>
                                <parameter>
                                    <name>Center</name>
                                    <parameterid>center</parameterid>
                                    <value>
                                        <horiz>0</horiz>
                                        <vert>0</vert>
                                    </value>
                                </parameter>
                                <parameter>
                                    <name>Rotation</name>
                                    <parameterid>rotation</parameterid>
                                    <value>0</value>
                                    <valuemin>-100000</valuemin>
                                    <valuemax>100000</valuemax>
                                </parameter>
                                <parameter>
                                    <name>Anchor Point</name>
                                    <parameterid>centerOffset</parameterid>
                                    <value>
                                        <horiz>0</horiz>
                                        <vert>0</vert>
                                    </value>
                                </parameter>
                            </effect>
                        </filter>
                        <filter>
                            <enabled>TRUE</enabled>
                            <start>0</start>
                            <end>243353</end>
                            <effect>
                                <name>Crop</name>
                                <effectid>crop</effectid>
                                <effecttype>motion</effecttype>
                                <mediatype>video</mediatype>
                                <effectcategory>motion</effectcategory>
                                <parameter>
                                    <name>left</name>
                                    <parameterid>left</parameterid>
                                    <value>0</value>
                                    <valuemin>0</valuemin>
                                    <valuemax>100</valuemax>
                                </parameter>
                                <parameter>
                                    <name>right</name>
                                    <parameterid>right</parameterid>
                                    <value>0</value>
                                    <valuemin>0</valuemin>
                                    <valuemax>100</valuemax>
                                </parameter>
                                <parameter>
                                    <name>top</name>
                                    <parameterid>top</parameterid>
                                    <value>0</value>
                                    <valuemin>0</valuemin>
                                    <valuemax>100</valuemax>
                                </parameter>
                                <parameter>
                                    <name>bottom</name>
                                    <parameterid>bottom</parameterid>
                                    <value>0</value>
                                    <valuemin>0</valuemin>
                                    <valuemax>100</valuemax>
                                </parameter>
                            </effect>
                        </filter>
                        <filter>
                            <enabled>TRUE</enabled>
                            <start>0</start>
                            <end>243353</end>
                            <effect>
                                <name>Opacity</name>
                                <effectid>opacity</effectid>
                                <effecttype>motion</effecttype>
                                <mediatype>video</mediatype>
                                <effectcategory>motion</effectcategory>
                                <parameter>
                                    <name>opacity</name>
                                    <parameterid>opacity</parameterid>
                                    <value>100</value>
                                    <valuemin>0</valuemin>
                                    <valuemax>100</valuemax>
                                </parameter>
                            </effect>
                        </filter>
                        <link>
                            <linkclipref>Interstaller.mp4 223</linkclipref>
                        </link>
                        <link>
                            <linkclipref>Interstaller.mp4 356</linkclipref>
                        </link>
                        <comments/>
                    </clipitem>
                    <clipitem id="Interstaller.mp4 225">
                        <name>Interstaller.mp4</name>
                        <duration>243353</duration>
                        <rate>
                            <timebase>24</timebase>
                            <ntsc>FALSE</ntsc>
                        </rate>
                        <start>9276</start>
                        <end>9328</end>
                        <enabled>TRUE</enabled>
                        <in>173248</in>
                        <out>173300</out>
                        <file id="Interstaller.mp4 2"/>
                        <compositemode>normal</compositemode>
                        <filter>
                            <enabled>TRUE</enabled>
                            <start>0</start>
                            <end>243353</end>
                            <effect>
                                <name>Basic Motion</name>
                                <effectid>basic</effectid>
                                <effecttype>motion</effecttype>
                                <mediatype>video</mediatype>
                                <effectcategory>motion</effectcategory>
                                <parameter>
                                    <name>Scale</name>
                                    <parameterid>scale</parameterid>
                                    <value>100</value>
                                    <valuemin>0</valuemin>
                                    <valuemax>10000</valuemax>
                                </parameter>
                                <parameter>
                                    <name>Center</name>
                                    <parameterid>center</parameterid>
                                    <value>
                                        <horiz>0</horiz>
                                        <vert>0</vert>
                                    </value>
                                </parameter>
                                <parameter>
                                    <name>Rotation</name>
                                    <parameterid>rotation</parameterid>
                                    <value>0</value>
                                    <valuemin>-100000</valuemin>
                                    <valuemax>100000</valuemax>
                                </parameter>
                                <parameter>
                                    <name>Anchor Point</name>
                                    <parameterid>centerOffset</parameterid>
                                    <value>
                                        <horiz>0</horiz>
                                        <vert>0</vert>
                                    </value>
                                </parameter>
                            </effect>
                        </filter>
                        <filter>
                            <enabled>TRUE</enabled>
                            <start>0</start>
                            <end>243353</end>
                            <effect>
                                <name>Crop</name>
                                <effectid>crop</effectid>
                                <effecttype>motion</effecttype>
                                <mediatype>video</mediatype>
                                <effectcategory>motion</effectcategory>
                                <parameter>
                                    <name>left</name>
                                    <parameterid>left</parameterid>
                                    <value>0</value>
                                    <valuemin>0</valuemin>
                                    <valuemax>100</valuemax>
                                </parameter>
                                <parameter>
                                    <name>right</name>
                                    <parameterid>right</parameterid>
                                    <value>0</value>
                                    <valuemin>0</valuemin>
                                    <valuemax>100</valuemax>
                                </parameter>
                                <parameter>
                                    <name>top</name>
                                    <parameterid>top</parameterid>
                                    <value>0</value>
                                    <valuemin>0</valuemin>
                                    <valuemax>100</valuemax>
                                </parameter>
                                <parameter>
                                    <name>bottom</name>
                                    <parameterid>bottom</parameterid>
                                    <value>0</value>
                                    <valuemin>0</valuemin>
                                    <valuemax>100</valuemax>
                                </parameter>
                            </effect>
                        </filter>
                        <filter>
                            <enabled>TRUE</enabled>
                            <start>0</start>
                            <end>243353</end>
                            <effect>
                                <name>Opacity</name>
                                <effectid>opacity</effectid>
                                <effecttype>motion</effecttype>
                                <mediatype>video</mediatype>
                                <effectcategory>motion</effectcategory>
                                <parameter>
                                    <name>opacity</name>
                                    <parameterid>opacity</parameterid>
                                    <value>100</value>
                                    <valuemin>0</valuemin>
                                    <valuemax>100</valuemax>
                                </parameter>
                            </effect>
                        </filter>
                        <link>
                            <linkclipref>Interstaller.mp4 225</linkclipref>
                        </link>
                        <link>
                            <linkclipref>Interstaller.mp4 357</linkclipref>
                        </link>
                        <comments/>
                    </clipitem>
                    <clipitem id="Interstaller.mp4 227">
                        <name>Interstaller.mp4</name>
                        <duration>243353</duration>
                        <rate>
                            <timebase>24</timebase>
                            <ntsc>FALSE</ntsc>
                        </rate>
                        <start>9328</start>
                        <end>9388</end>
                        <enabled>TRUE</enabled>
                        <in>173300</in>
                        <out>173360</out>
                        <file id="Interstaller.mp4 2"/>
                        <compositemode>normal</compositemode>
                        <filter>
                            <enabled>TRUE</enabled>
                            <start>0</start>
                            <end>243353</end>
                            <effect>
                                <name>Basic Motion</name>
                                <effectid>basic</effectid>
                                <effecttype>motion</effecttype>
                                <mediatype>video</mediatype>
                                <effectcategory>motion</effectcategory>
                                <parameter>
                                    <name>Scale</name>
                                    <parameterid>scale</parameterid>
                                    <value>100</value>
                                    <valuemin>0</valuemin>
                                    <valuemax>10000</valuemax>
                                </parameter>
                                <parameter>
                                    <name>Center</name>
                                    <parameterid>center</parameterid>
                                    <value>
                                        <horiz>0</horiz>
                                        <vert>0</vert>
                                    </value>
                                </parameter>
                                <parameter>
                                    <name>Rotation</name>
                                    <parameterid>rotation</parameterid>
                                    <value>0</value>
                                    <valuemin>-100000</valuemin>
                                    <valuemax>100000</valuemax>
                                </parameter>
                                <parameter>
                                    <name>Anchor Point</name>
                                    <parameterid>centerOffset</parameterid>
                                    <value>
                                        <horiz>0</horiz>
                                        <vert>0</vert>
                                    </value>
                                </parameter>
                            </effect>
                        </filter>
                        <filter>
                            <enabled>TRUE</enabled>
                            <start>0</start>
                            <end>243353</end>
                            <effect>
                                <name>Crop</name>
                                <effectid>crop</effectid>
                                <effecttype>motion</effecttype>
                                <mediatype>video</mediatype>
                                <effectcategory>motion</effectcategory>
                                <parameter>
                                    <name>left</name>
                                    <parameterid>left</parameterid>
                                    <value>0</value>
                                    <valuemin>0</valuemin>
                                    <valuemax>100</valuemax>
                                </parameter>
                                <parameter>
                                    <name>right</name>
                                    <parameterid>right</parameterid>
                                    <value>0</value>
                                    <valuemin>0</valuemin>
                                    <valuemax>100</valuemax>
                                </parameter>
                                <parameter>
                                    <name>top</name>
                                    <parameterid>top</parameterid>
                                    <value>0</value>
                                    <valuemin>0</valuemin>
                                    <valuemax>100</valuemax>
                                </parameter>
                                <parameter>
                                    <name>bottom</name>
                                    <parameterid>bottom</parameterid>
                                    <value>0</value>
                                    <valuemin>0</valuemin>
                                    <valuemax>100</valuemax>
                                </parameter>
                            </effect>
                        </filter>
                        <filter>
                            <enabled>TRUE</enabled>
                            <start>0</start>
                            <end>243353</end>
                            <effect>
                                <name>Opacity</name>
                                <effectid>opacity</effectid>
                                <effecttype>motion</effecttype>
                                <mediatype>video</mediatype>
                                <effectcategory>motion</effectcategory>
                                <parameter>
                                    <name>opacity</name>
                                    <parameterid>opacity</parameterid>
                                    <value>100</value>
                                    <valuemin>0</valuemin>
                                    <valuemax>100</valuemax>
                                </parameter>
                            </effect>
                        </filter>
                        <link>
                            <linkclipref>Interstaller.mp4 227</linkclipref>
                        </link>
                        <link>
                            <linkclipref>Interstaller.mp4 358</linkclipref>
                        </link>
                        <comments/>
                    </clipitem>
                    <clipitem id="Interstaller.mp4 229">
                        <name>Interstaller.mp4</name>
                        <duration>243353</duration>
                        <rate>
                            <timebase>24</timebase>
                            <ntsc>FALSE</ntsc>
                        </rate>
                        <start>9388</start>
                        <end>9644</end>
                        <enabled>TRUE</enabled>
                        <in>173360</in>
                        <out>173616</out>
                        <file id="Interstaller.mp4 2"/>
                        <compositemode>normal</compositemode>
                        <filter>
                            <enabled>TRUE</enabled>
                            <start>0</start>
                            <end>243353</end>
                            <effect>
                                <name>Basic Motion</name>
                                <effectid>basic</effectid>
                                <effecttype>motion</effecttype>
                                <mediatype>video</mediatype>
                                <effectcategory>motion</effectcategory>
                                <parameter>
                                    <name>Scale</name>
                                    <parameterid>scale</parameterid>
                                    <value>100</value>
                                    <valuemin>0</valuemin>
                                    <valuemax>10000</valuemax>
                                </parameter>
                                <parameter>
                                    <name>Center</name>
                                    <parameterid>center</parameterid>
                                    <value>
                                        <horiz>0</horiz>
                                        <vert>0</vert>
                                    </value>
                                </parameter>
                                <parameter>
                                    <name>Rotation</name>
                                    <parameterid>rotation</parameterid>
                                    <value>0</value>
                                    <valuemin>-100000</valuemin>
                                    <valuemax>100000</valuemax>
                                </parameter>
                                <parameter>
                                    <name>Anchor Point</name>
                                    <parameterid>centerOffset</parameterid>
                                    <value>
                                        <horiz>0</horiz>
                                        <vert>0</vert>
                                    </value>
                                </parameter>
                            </effect>
                        </filter>
                        <filter>
                            <enabled>TRUE</enabled>
                            <start>0</start>
                            <end>243353</end>
                            <effect>
                                <name>Crop</name>
                                <effectid>crop</effectid>
                                <effecttype>motion</effecttype>
                                <mediatype>video</mediatype>
                                <effectcategory>motion</effectcategory>
                                <parameter>
                                    <name>left</name>
                                    <parameterid>left</parameterid>
                                    <value>0</value>
                                    <valuemin>0</valuemin>
                                    <valuemax>100</valuemax>
                                </parameter>
                                <parameter>
                                    <name>right</name>
                                    <parameterid>right</parameterid>
                                    <value>0</value>
                                    <valuemin>0</valuemin>
                                    <valuemax>100</valuemax>
                                </parameter>
                                <parameter>
                                    <name>top</name>
                                    <parameterid>top</parameterid>
                                    <value>0</value>
                                    <valuemin>0</valuemin>
                                    <valuemax>100</valuemax>
                                </parameter>
                                <parameter>
                                    <name>bottom</name>
                                    <parameterid>bottom</parameterid>
                                    <value>0</value>
                                    <valuemin>0</valuemin>
                                    <valuemax>100</valuemax>
                                </parameter>
                            </effect>
                        </filter>
                        <filter>
                            <enabled>TRUE</enabled>
                            <start>0</start>
                            <end>243353</end>
                            <effect>
                                <name>Opacity</name>
                                <effectid>opacity</effectid>
                                <effecttype>motion</effecttype>
                                <mediatype>video</mediatype>
                                <effectcategory>motion</effectcategory>
                                <parameter>
                                    <name>opacity</name>
                                    <parameterid>opacity</parameterid>
                                    <value>100</value>
                                    <valuemin>0</valuemin>
                                    <valuemax>100</valuemax>
                                </parameter>
                            </effect>
                        </filter>
                        <link>
                            <linkclipref>Interstaller.mp4 229</linkclipref>
                        </link>
                        <link>
                            <linkclipref>Interstaller.mp4 359</linkclipref>
                        </link>
                        <comments/>
                    </clipitem>
                    <clipitem id="Interstaller.mp4 231">
                        <name>Interstaller.mp4</name>
                        <duration>243353</duration>
                        <rate>
                            <timebase>24</timebase>
                            <ntsc>FALSE</ntsc>
                        </rate>
                        <start>9644</start>
                        <end>9800</end>
                        <enabled>TRUE</enabled>
                        <in>173616</in>
                        <out>173772</out>
                        <file id="Interstaller.mp4 2"/>
                        <compositemode>normal</compositemode>
                        <filter>
                            <enabled>TRUE</enabled>
                            <start>0</start>
                            <end>243353</end>
                            <effect>
                                <name>Basic Motion</name>
                                <effectid>basic</effectid>
                                <effecttype>motion</effecttype>
                                <mediatype>video</mediatype>
                                <effectcategory>motion</effectcategory>
                                <parameter>
                                    <name>Scale</name>
                                    <parameterid>scale</parameterid>
                                    <value>100</value>
                                    <valuemin>0</valuemin>
                                    <valuemax>10000</valuemax>
                                </parameter>
                                <parameter>
                                    <name>Center</name>
                                    <parameterid>center</parameterid>
                                    <value>
                                        <horiz>0</horiz>
                                        <vert>0</vert>
                                    </value>
                                </parameter>
                                <parameter>
                                    <name>Rotation</name>
                                    <parameterid>rotation</parameterid>
                                    <value>0</value>
                                    <valuemin>-100000</valuemin>
                                    <valuemax>100000</valuemax>
                                </parameter>
                                <parameter>
                                    <name>Anchor Point</name>
                                    <parameterid>centerOffset</parameterid>
                                    <value>
                                        <horiz>0</horiz>
                                        <vert>0</vert>
                                    </value>
                                </parameter>
                            </effect>
                        </filter>
                        <filter>
                            <enabled>TRUE</enabled>
                            <start>0</start>
                            <end>243353</end>
                            <effect>
                                <name>Crop</name>
                                <effectid>crop</effectid>
                                <effecttype>motion</effecttype>
                                <mediatype>video</mediatype>
                                <effectcategory>motion</effectcategory>
                                <parameter>
                                    <name>left</name>
                                    <parameterid>left</parameterid>
                                    <value>0</value>
                                    <valuemin>0</valuemin>
                                    <valuemax>100</valuemax>
                                </parameter>
                                <parameter>
                                    <name>right</name>
                                    <parameterid>right</parameterid>
                                    <value>0</value>
                                    <valuemin>0</valuemin>
                                    <valuemax>100</valuemax>
                                </parameter>
                                <parameter>
                                    <name>top</name>
                                    <parameterid>top</parameterid>
                                    <value>0</value>
                                    <valuemin>0</valuemin>
                                    <valuemax>100</valuemax>
                                </parameter>
                                <parameter>
                                    <name>bottom</name>
                                    <parameterid>bottom</parameterid>
                                    <value>0</value>
                                    <valuemin>0</valuemin>
                                    <valuemax>100</valuemax>
                                </parameter>
                            </effect>
                        </filter>
                        <filter>
                            <enabled>TRUE</enabled>
                            <start>0</start>
                            <end>243353</end>
                            <effect>
                                <name>Opacity</name>
                                <effectid>opacity</effectid>
                                <effecttype>motion</effecttype>
                                <mediatype>video</mediatype>
                                <effectcategory>motion</effectcategory>
                                <parameter>
                                    <name>opacity</name>
                                    <parameterid>opacity</parameterid>
                                    <value>100</value>
                                    <valuemin>0</valuemin>
                                    <valuemax>100</valuemax>
                                </parameter>
                            </effect>
                        </filter>
                        <link>
                            <linkclipref>Interstaller.mp4 231</linkclipref>
                        </link>
                        <link>
                            <linkclipref>Interstaller.mp4 360</linkclipref>
                        </link>
                        <comments/>
                    </clipitem>
                    <clipitem id="Interstaller.mp4 233">
                        <name>Interstaller.mp4</name>
                        <duration>243353</duration>
                        <rate>
                            <timebase>24</timebase>
                            <ntsc>FALSE</ntsc>
                        </rate>
                        <start>9800</start>
                        <end>9873</end>
                        <enabled>TRUE</enabled>
                        <in>173772</in>
                        <out>173845</out>
                        <file id="Interstaller.mp4 2"/>
                        <compositemode>normal</compositemode>
                        <filter>
                            <enabled>TRUE</enabled>
                            <start>0</start>
                            <end>243353</end>
                            <effect>
                                <name>Basic Motion</name>
                                <effectid>basic</effectid>
                                <effecttype>motion</effecttype>
                                <mediatype>video</mediatype>
                                <effectcategory>motion</effectcategory>
                                <parameter>
                                    <name>Scale</name>
                                    <parameterid>scale</parameterid>
                                    <value>100</value>
                                    <valuemin>0</valuemin>
                                    <valuemax>10000</valuemax>
                                </parameter>
                                <parameter>
                                    <name>Center</name>
                                    <parameterid>center</parameterid>
                                    <value>
                                        <horiz>0</horiz>
                                        <vert>0</vert>
                                    </value>
                                </parameter>
                                <parameter>
                                    <name>Rotation</name>
                                    <parameterid>rotation</parameterid>
                                    <value>0</value>
                                    <valuemin>-100000</valuemin>
                                    <valuemax>100000</valuemax>
                                </parameter>
                                <parameter>
                                    <name>Anchor Point</name>
                                    <parameterid>centerOffset</parameterid>
                                    <value>
                                        <horiz>0</horiz>
                                        <vert>0</vert>
                                    </value>
                                </parameter>
                            </effect>
                        </filter>
                        <filter>
                            <enabled>TRUE</enabled>
                            <start>0</start>
                            <end>243353</end>
                            <effect>
                                <name>Crop</name>
                                <effectid>crop</effectid>
                                <effecttype>motion</effecttype>
                                <mediatype>video</mediatype>
                                <effectcategory>motion</effectcategory>
                                <parameter>
                                    <name>left</name>
                                    <parameterid>left</parameterid>
                                    <value>0</value>
                                    <valuemin>0</valuemin>
                                    <valuemax>100</valuemax>
                                </parameter>
                                <parameter>
                                    <name>right</name>
                                    <parameterid>right</parameterid>
                                    <value>0</value>
                                    <valuemin>0</valuemin>
                                    <valuemax>100</valuemax>
                                </parameter>
                                <parameter>
                                    <name>top</name>
                                    <parameterid>top</parameterid>
                                    <value>0</value>
                                    <valuemin>0</valuemin>
                                    <valuemax>100</valuemax>
                                </parameter>
                                <parameter>
                                    <name>bottom</name>
                                    <parameterid>bottom</parameterid>
                                    <value>0</value>
                                    <valuemin>0</valuemin>
                                    <valuemax>100</valuemax>
                                </parameter>
                            </effect>
                        </filter>
                        <filter>
                            <enabled>TRUE</enabled>
                            <start>0</start>
                            <end>243353</end>
                            <effect>
                                <name>Opacity</name>
                                <effectid>opacity</effectid>
                                <effecttype>motion</effecttype>
                                <mediatype>video</mediatype>
                                <effectcategory>motion</effectcategory>
                                <parameter>
                                    <name>opacity</name>
                                    <parameterid>opacity</parameterid>
                                    <value>100</value>
                                    <valuemin>0</valuemin>
                                    <valuemax>100</valuemax>
                                </parameter>
                            </effect>
                        </filter>
                        <link>
                            <linkclipref>Interstaller.mp4 233</linkclipref>
                        </link>
                        <link>
                            <linkclipref>Interstaller.mp4 361</linkclipref>
                        </link>
                        <comments/>
                    </clipitem>
                    <clipitem id="Interstaller.mp4 235">
                        <name>Interstaller.mp4</name>
                        <duration>243353</duration>
                        <rate>
                            <timebase>24</timebase>
                            <ntsc>FALSE</ntsc>
                        </rate>
                        <start>9873</start>
                        <end>9920</end>
                        <enabled>TRUE</enabled>
                        <in>173845</in>
                        <out>173892</out>
                        <file id="Interstaller.mp4 2"/>
                        <compositemode>normal</compositemode>
                        <filter>
                            <enabled>TRUE</enabled>
                            <start>0</start>
                            <end>243353</end>
                            <effect>
                                <name>Basic Motion</name>
                                <effectid>basic</effectid>
                                <effecttype>motion</effecttype>
                                <mediatype>video</mediatype>
                                <effectcategory>motion</effectcategory>
                                <parameter>
                                    <name>Scale</name>
                                    <parameterid>scale</parameterid>
                                    <value>100</value>
                                    <valuemin>0</valuemin>
                                    <valuemax>10000</valuemax>
                                </parameter>
                                <parameter>
                                    <name>Center</name>
                                    <parameterid>center</parameterid>
                                    <value>
                                        <horiz>0</horiz>
                                        <vert>0</vert>
                                    </value>
                                </parameter>
                                <parameter>
                                    <name>Rotation</name>
                                    <parameterid>rotation</parameterid>
                                    <value>0</value>
                                    <valuemin>-100000</valuemin>
                                    <valuemax>100000</valuemax>
                                </parameter>
                                <parameter>
                                    <name>Anchor Point</name>
                                    <parameterid>centerOffset</parameterid>
                                    <value>
                                        <horiz>0</horiz>
                                        <vert>0</vert>
                                    </value>
                                </parameter>
                            </effect>
                        </filter>
                        <filter>
                            <enabled>TRUE</enabled>
                            <start>0</start>
                            <end>243353</end>
                            <effect>
                                <name>Crop</name>
                                <effectid>crop</effectid>
                                <effecttype>motion</effecttype>
                                <mediatype>video</mediatype>
                                <effectcategory>motion</effectcategory>
                                <parameter>
                                    <name>left</name>
                                    <parameterid>left</parameterid>
                                    <value>0</value>
                                    <valuemin>0</valuemin>
                                    <valuemax>100</valuemax>
                                </parameter>
                                <parameter>
                                    <name>right</name>
                                    <parameterid>right</parameterid>
                                    <value>0</value>
                                    <valuemin>0</valuemin>
                                    <valuemax>100</valuemax>
                                </parameter>
                                <parameter>
                                    <name>top</name>
                                    <parameterid>top</parameterid>
                                    <value>0</value>
                                    <valuemin>0</valuemin>
                                    <valuemax>100</valuemax>
                                </parameter>
                                <parameter>
                                    <name>bottom</name>
                                    <parameterid>bottom</parameterid>
                                    <value>0</value>
                                    <valuemin>0</valuemin>
                                    <valuemax>100</valuemax>
                                </parameter>
                            </effect>
                        </filter>
                        <filter>
                            <enabled>TRUE</enabled>
                            <start>0</start>
                            <end>243353</end>
                            <effect>
                                <name>Opacity</name>
                                <effectid>opacity</effectid>
                                <effecttype>motion</effecttype>
                                <mediatype>video</mediatype>
                                <effectcategory>motion</effectcategory>
                                <parameter>
                                    <name>opacity</name>
                                    <parameterid>opacity</parameterid>
                                    <value>100</value>
                                    <valuemin>0</valuemin>
                                    <valuemax>100</valuemax>
                                </parameter>
                            </effect>
                        </filter>
                        <link>
                            <linkclipref>Interstaller.mp4 235</linkclipref>
                        </link>
                        <link>
                            <linkclipref>Interstaller.mp4 362</linkclipref>
                        </link>
                        <comments/>
                    </clipitem>
                    <clipitem id="Interstaller.mp4 237">
                        <name>Interstaller.mp4</name>
                        <duration>243353</duration>
                        <rate>
                            <timebase>24</timebase>
                            <ntsc>FALSE</ntsc>
                        </rate>
                        <start>9920</start>
                        <end>9988</end>
                        <enabled>TRUE</enabled>
                        <in>173892</in>
                        <out>173960</out>
                        <file id="Interstaller.mp4 2"/>
                        <compositemode>normal</compositemode>
                        <filter>
                            <enabled>TRUE</enabled>
                            <start>0</start>
                            <end>243353</end>
                            <effect>
                                <name>Basic Motion</name>
                                <effectid>basic</effectid>
                                <effecttype>motion</effecttype>
                                <mediatype>video</mediatype>
                                <effectcategory>motion</effectcategory>
                                <parameter>
                                    <name>Scale</name>
                                    <parameterid>scale</parameterid>
                                    <value>100</value>
                                    <valuemin>0</valuemin>
                                    <valuemax>10000</valuemax>
                                </parameter>
                                <parameter>
                                    <name>Center</name>
                                    <parameterid>center</parameterid>
                                    <value>
                                        <horiz>0</horiz>
                                        <vert>0</vert>
                                    </value>
                                </parameter>
                                <parameter>
                                    <name>Rotation</name>
                                    <parameterid>rotation</parameterid>
                                    <value>0</value>
                                    <valuemin>-100000</valuemin>
                                    <valuemax>100000</valuemax>
                                </parameter>
                                <parameter>
                                    <name>Anchor Point</name>
                                    <parameterid>centerOffset</parameterid>
                                    <value>
                                        <horiz>0</horiz>
                                        <vert>0</vert>
                                    </value>
                                </parameter>
                            </effect>
                        </filter>
                        <filter>
                            <enabled>TRUE</enabled>
                            <start>0</start>
                            <end>243353</end>
                            <effect>
                                <name>Crop</name>
                                <effectid>crop</effectid>
                                <effecttype>motion</effecttype>
                                <mediatype>video</mediatype>
                                <effectcategory>motion</effectcategory>
                                <parameter>
                                    <name>left</name>
                                    <parameterid>left</parameterid>
                                    <value>0</value>
                                    <valuemin>0</valuemin>
                                    <valuemax>100</valuemax>
                                </parameter>
                                <parameter>
                                    <name>right</name>
                                    <parameterid>right</parameterid>
                                    <value>0</value>
                                    <valuemin>0</valuemin>
                                    <valuemax>100</valuemax>
                                </parameter>
                                <parameter>
                                    <name>top</name>
                                    <parameterid>top</parameterid>
                                    <value>0</value>
                                    <valuemin>0</valuemin>
                                    <valuemax>100</valuemax>
                                </parameter>
                                <parameter>
                                    <name>bottom</name>
                                    <parameterid>bottom</parameterid>
                                    <value>0</value>
                                    <valuemin>0</valuemin>
                                    <valuemax>100</valuemax>
                                </parameter>
                            </effect>
                        </filter>
                        <filter>
                            <enabled>TRUE</enabled>
                            <start>0</start>
                            <end>243353</end>
                            <effect>
                                <name>Opacity</name>
                                <effectid>opacity</effectid>
                                <effecttype>motion</effecttype>
                                <mediatype>video</mediatype>
                                <effectcategory>motion</effectcategory>
                                <parameter>
                                    <name>opacity</name>
                                    <parameterid>opacity</parameterid>
                                    <value>100</value>
                                    <valuemin>0</valuemin>
                                    <valuemax>100</valuemax>
                                </parameter>
                            </effect>
                        </filter>
                        <link>
                            <linkclipref>Interstaller.mp4 237</linkclipref>
                        </link>
                        <link>
                            <linkclipref>Interstaller.mp4 363</linkclipref>
                        </link>
                        <comments/>
                    </clipitem>
                    <clipitem id="Interstaller.mp4 239">
                        <name>Interstaller.mp4</name>
                        <duration>243353</duration>
                        <rate>
                            <timebase>24</timebase>
                            <ntsc>FALSE</ntsc>
                        </rate>
                        <start>9988</start>
                        <end>10054</end>
                        <enabled>TRUE</enabled>
                        <in>173960</in>
                        <out>174026</out>
                        <file id="Interstaller.mp4 2"/>
                        <compositemode>normal</compositemode>
                        <filter>
                            <enabled>TRUE</enabled>
                            <start>0</start>
                            <end>243353</end>
                            <effect>
                                <name>Basic Motion</name>
                                <effectid>basic</effectid>
                                <effecttype>motion</effecttype>
                                <mediatype>video</mediatype>
                                <effectcategory>motion</effectcategory>
                                <parameter>
                                    <name>Scale</name>
                                    <parameterid>scale</parameterid>
                                    <value>100</value>
                                    <valuemin>0</valuemin>
                                    <valuemax>10000</valuemax>
                                </parameter>
                                <parameter>
                                    <name>Center</name>
                                    <parameterid>center</parameterid>
                                    <value>
                                        <horiz>0</horiz>
                                        <vert>0</vert>
                                    </value>
                                </parameter>
                                <parameter>
                                    <name>Rotation</name>
                                    <parameterid>rotation</parameterid>
                                    <value>0</value>
                                    <valuemin>-100000</valuemin>
                                    <valuemax>100000</valuemax>
                                </parameter>
                                <parameter>
                                    <name>Anchor Point</name>
                                    <parameterid>centerOffset</parameterid>
                                    <value>
                                        <horiz>0</horiz>
                                        <vert>0</vert>
                                    </value>
                                </parameter>
                            </effect>
                        </filter>
                        <filter>
                            <enabled>TRUE</enabled>
                            <start>0</start>
                            <end>243353</end>
                            <effect>
                                <name>Crop</name>
                                <effectid>crop</effectid>
                                <effecttype>motion</effecttype>
                                <mediatype>video</mediatype>
                                <effectcategory>motion</effectcategory>
                                <parameter>
                                    <name>left</name>
                                    <parameterid>left</parameterid>
                                    <value>0</value>
                                    <valuemin>0</valuemin>
                                    <valuemax>100</valuemax>
                                </parameter>
                                <parameter>
                                    <name>right</name>
                                    <parameterid>right</parameterid>
                                    <value>0</value>
                                    <valuemin>0</valuemin>
                                    <valuemax>100</valuemax>
                                </parameter>
                                <parameter>
                                    <name>top</name>
                                    <parameterid>top</parameterid>
                                    <value>0</value>
                                    <valuemin>0</valuemin>
                                    <valuemax>100</valuemax>
                                </parameter>
                                <parameter>
                                    <name>bottom</name>
                                    <parameterid>bottom</parameterid>
                                    <value>0</value>
                                    <valuemin>0</valuemin>
                                    <valuemax>100</valuemax>
                                </parameter>
                            </effect>
                        </filter>
                        <filter>
                            <enabled>TRUE</enabled>
                            <start>0</start>
                            <end>243353</end>
                            <effect>
                                <name>Opacity</name>
                                <effectid>opacity</effectid>
                                <effecttype>motion</effecttype>
                                <mediatype>video</mediatype>
                                <effectcategory>motion</effectcategory>
                                <parameter>
                                    <name>opacity</name>
                                    <parameterid>opacity</parameterid>
                                    <value>100</value>
                                    <valuemin>0</valuemin>
                                    <valuemax>100</valuemax>
                                </parameter>
                            </effect>
                        </filter>
                        <link>
                            <linkclipref>Interstaller.mp4 239</linkclipref>
                        </link>
                        <link>
                            <linkclipref>Interstaller.mp4 364</linkclipref>
                        </link>
                        <comments/>
                    </clipitem>
                    <clipitem id="Interstaller.mp4 241">
                        <name>Interstaller.mp4</name>
                        <duration>243353</duration>
                        <rate>
                            <timebase>24</timebase>
                            <ntsc>FALSE</ntsc>
                        </rate>
                        <start>10054</start>
                        <end>10147</end>
                        <enabled>TRUE</enabled>
                        <in>174026</in>
                        <out>174119</out>
                        <file id="Interstaller.mp4 2"/>
                        <compositemode>normal</compositemode>
                        <filter>
                            <enabled>TRUE</enabled>
                            <start>0</start>
                            <end>243353</end>
                            <effect>
                                <name>Basic Motion</name>
                                <effectid>basic</effectid>
                                <effecttype>motion</effecttype>
                                <mediatype>video</mediatype>
                                <effectcategory>motion</effectcategory>
                                <parameter>
                                    <name>Scale</name>
                                    <parameterid>scale</parameterid>
                                    <value>100</value>
                                    <valuemin>0</valuemin>
                                    <valuemax>10000</valuemax>
                                </parameter>
                                <parameter>
                                    <name>Center</name>
                                    <parameterid>center</parameterid>
                                    <value>
                                        <horiz>0</horiz>
                                        <vert>0</vert>
                                    </value>
                                </parameter>
                                <parameter>
                                    <name>Rotation</name>
                                    <parameterid>rotation</parameterid>
                                    <value>0</value>
                                    <valuemin>-100000</valuemin>
                                    <valuemax>100000</valuemax>
                                </parameter>
                                <parameter>
                                    <name>Anchor Point</name>
                                    <parameterid>centerOffset</parameterid>
                                    <value>
                                        <horiz>0</horiz>
                                        <vert>0</vert>
                                    </value>
                                </parameter>
                            </effect>
                        </filter>
                        <filter>
                            <enabled>TRUE</enabled>
                            <start>0</start>
                            <end>243353</end>
                            <effect>
                                <name>Crop</name>
                                <effectid>crop</effectid>
                                <effecttype>motion</effecttype>
                                <mediatype>video</mediatype>
                                <effectcategory>motion</effectcategory>
                                <parameter>
                                    <name>left</name>
                                    <parameterid>left</parameterid>
                                    <value>0</value>
                                    <valuemin>0</valuemin>
                                    <valuemax>100</valuemax>
                                </parameter>
                                <parameter>
                                    <name>right</name>
                                    <parameterid>right</parameterid>
                                    <value>0</value>
                                    <valuemin>0</valuemin>
                                    <valuemax>100</valuemax>
                                </parameter>
                                <parameter>
                                    <name>top</name>
                                    <parameterid>top</parameterid>
                                    <value>0</value>
                                    <valuemin>0</valuemin>
                                    <valuemax>100</valuemax>
                                </parameter>
                                <parameter>
                                    <name>bottom</name>
                                    <parameterid>bottom</parameterid>
                                    <value>0</value>
                                    <valuemin>0</valuemin>
                                    <valuemax>100</valuemax>
                                </parameter>
                            </effect>
                        </filter>
                        <filter>
                            <enabled>TRUE</enabled>
                            <start>0</start>
                            <end>243353</end>
                            <effect>
                                <name>Opacity</name>
                                <effectid>opacity</effectid>
                                <effecttype>motion</effecttype>
                                <mediatype>video</mediatype>
                                <effectcategory>motion</effectcategory>
                                <parameter>
                                    <name>opacity</name>
                                    <parameterid>opacity</parameterid>
                                    <value>100</value>
                                    <valuemin>0</valuemin>
                                    <valuemax>100</valuemax>
                                </parameter>
                            </effect>
                        </filter>
                        <link>
                            <linkclipref>Interstaller.mp4 241</linkclipref>
                        </link>
                        <link>
                            <linkclipref>Interstaller.mp4 365</linkclipref>
                        </link>
                        <comments/>
                    </clipitem>
                    <clipitem id="Interstaller.mp4 243">
                        <name>Interstaller.mp4</name>
                        <duration>243353</duration>
                        <rate>
                            <timebase>24</timebase>
                            <ntsc>FALSE</ntsc>
                        </rate>
                        <start>10147</start>
                        <end>10167</end>
                        <enabled>TRUE</enabled>
                        <in>174119</in>
                        <out>174139</out>
                        <file id="Interstaller.mp4 2"/>
                        <compositemode>normal</compositemode>
                        <filter>
                            <enabled>TRUE</enabled>
                            <start>0</start>
                            <end>243353</end>
                            <effect>
                                <name>Basic Motion</name>
                                <effectid>basic</effectid>
                                <effecttype>motion</effecttype>
                                <mediatype>video</mediatype>
                                <effectcategory>motion</effectcategory>
                                <parameter>
                                    <name>Scale</name>
                                    <parameterid>scale</parameterid>
                                    <value>100</value>
                                    <valuemin>0</valuemin>
                                    <valuemax>10000</valuemax>
                                </parameter>
                                <parameter>
                                    <name>Center</name>
                                    <parameterid>center</parameterid>
                                    <value>
                                        <horiz>0</horiz>
                                        <vert>0</vert>
                                    </value>
                                </parameter>
                                <parameter>
                                    <name>Rotation</name>
                                    <parameterid>rotation</parameterid>
                                    <value>0</value>
                                    <valuemin>-100000</valuemin>
                                    <valuemax>100000</valuemax>
                                </parameter>
                                <parameter>
                                    <name>Anchor Point</name>
                                    <parameterid>centerOffset</parameterid>
                                    <value>
                                        <horiz>0</horiz>
                                        <vert>0</vert>
                                    </value>
                                </parameter>
                            </effect>
                        </filter>
                        <filter>
                            <enabled>TRUE</enabled>
                            <start>0</start>
                            <end>243353</end>
                            <effect>
                                <name>Crop</name>
                                <effectid>crop</effectid>
                                <effecttype>motion</effecttype>
                                <mediatype>video</mediatype>
                                <effectcategory>motion</effectcategory>
                                <parameter>
                                    <name>left</name>
                                    <parameterid>left</parameterid>
                                    <value>0</value>
                                    <valuemin>0</valuemin>
                                    <valuemax>100</valuemax>
                                </parameter>
                                <parameter>
                                    <name>right</name>
                                    <parameterid>right</parameterid>
                                    <value>0</value>
                                    <valuemin>0</valuemin>
                                    <valuemax>100</valuemax>
                                </parameter>
                                <parameter>
                                    <name>top</name>
                                    <parameterid>top</parameterid>
                                    <value>0</value>
                                    <valuemin>0</valuemin>
                                    <valuemax>100</valuemax>
                                </parameter>
                                <parameter>
                                    <name>bottom</name>
                                    <parameterid>bottom</parameterid>
                                    <value>0</value>
                                    <valuemin>0</valuemin>
                                    <valuemax>100</valuemax>
                                </parameter>
                            </effect>
                        </filter>
                        <filter>
                            <enabled>TRUE</enabled>
                            <start>0</start>
                            <end>243353</end>
                            <effect>
                                <name>Opacity</name>
                                <effectid>opacity</effectid>
                                <effecttype>motion</effecttype>
                                <mediatype>video</mediatype>
                                <effectcategory>motion</effectcategory>
                                <parameter>
                                    <name>opacity</name>
                                    <parameterid>opacity</parameterid>
                                    <value>100</value>
                                    <valuemin>0</valuemin>
                                    <valuemax>100</valuemax>
                                </parameter>
                            </effect>
                        </filter>
                        <link>
                            <linkclipref>Interstaller.mp4 243</linkclipref>
                        </link>
                        <link>
                            <linkclipref>Interstaller.mp4 366</linkclipref>
                        </link>
                        <comments/>
                    </clipitem>
                    <enabled>TRUE</enabled>
                    <locked>FALSE</locked>
                </track>
                <format>
                    <samplecharacteristics>
                        <width>1920</width>
                        <height>1080</height>
                        <pixelaspectratio>square</pixelaspectratio>
                        <rate>
                            <timebase>24</timebase>
                            <ntsc>FALSE</ntsc>
                        </rate>
                        <codec>
                            <appspecificdata>
                                <appname>Final Cut Pro</appname>
                                <appmanufacturer>Apple Inc.</appmanufacturer>
                                <data>
                                    <qtcodec/>
                                </data>
                            </appspecificdata>
                        </codec>
                    </samplecharacteristics>
                </format>
            </video>
            <audio>
                <track>
                    <clipitem id="Interstaller.mp4 245">
                        <name>Interstaller.mp4</name>
                        <duration>243353</duration>
                        <rate>
                            <timebase>24</timebase>
                            <ntsc>FALSE</ntsc>
                        </rate>
                        <start>0</start>
                        <end>92</end>
                        <enabled>TRUE</enabled>
                        <in>163972</in>
                        <out>164064</out>
                        <file id="Interstaller.mp4 2"/>
                        <sourcetrack>
                            <mediatype>audio</mediatype>
                            <trackindex>1</trackindex>
                        </sourcetrack>
                        <link>
                            <linkclipref>Interstaller.mp4 0</linkclipref>
                            <mediatype>video</mediatype>
                        </link>
                        <link>
                            <linkclipref>Interstaller.mp4 245</linkclipref>
                        </link>
                        <comments/>
                    </clipitem>
                    <clipitem id="Interstaller.mp4 246">
                        <name>Interstaller.mp4</name>
                        <duration>243353</duration>
                        <rate>
                            <timebase>24</timebase>
                            <ntsc>FALSE</ntsc>
                        </rate>
                        <start>92</start>
                        <end>206</end>
                        <enabled>TRUE</enabled>
                        <in>164064</in>
                        <out>164178</out>
                        <file id="Interstaller.mp4 2"/>
                        <sourcetrack>
                            <mediatype>audio</mediatype>
                            <trackindex>1</trackindex>
                        </sourcetrack>
                        <link>
                            <linkclipref>Interstaller.mp4 3</linkclipref>
                            <mediatype>video</mediatype>
                        </link>
                        <link>
                            <linkclipref>Interstaller.mp4 246</linkclipref>
                        </link>
                        <comments/>
                    </clipitem>
                    <clipitem id="Interstaller.mp4 247">
                        <name>Interstaller.mp4</name>
                        <duration>243353</duration>
                        <rate>
                            <timebase>24</timebase>
                            <ntsc>FALSE</ntsc>
                        </rate>
                        <start>206</start>
                        <end>274</end>
                        <enabled>TRUE</enabled>
                        <in>164178</in>
                        <out>164246</out>
                        <file id="Interstaller.mp4 2"/>
                        <sourcetrack>
                            <mediatype>audio</mediatype>
                            <trackindex>1</trackindex>
                        </sourcetrack>
                        <link>
                            <linkclipref>Interstaller.mp4 5</linkclipref>
                            <mediatype>video</mediatype>
                        </link>
                        <link>
                            <linkclipref>Interstaller.mp4 247</linkclipref>
                        </link>
                        <comments/>
                    </clipitem>
                    <clipitem id="Interstaller.mp4 248">
                        <name>Interstaller.mp4</name>
                        <duration>243353</duration>
                        <rate>
                            <timebase>24</timebase>
                            <ntsc>FALSE</ntsc>
                        </rate>
                        <start>274</start>
                        <end>411</end>
                        <enabled>TRUE</enabled>
                        <in>164246</in>
                        <out>164383</out>
                        <file id="Interstaller.mp4 2"/>
                        <sourcetrack>
                            <mediatype>audio</mediatype>
                            <trackindex>1</trackindex>
                        </sourcetrack>
                        <link>
                            <linkclipref>Interstaller.mp4 7</linkclipref>
                            <mediatype>video</mediatype>
                        </link>
                        <link>
                            <linkclipref>Interstaller.mp4 248</linkclipref>
                        </link>
                        <comments/>
                    </clipitem>
                    <clipitem id="Interstaller.mp4 249">
                        <name>Interstaller.mp4</name>
                        <duration>243353</duration>
                        <rate>
                            <timebase>24</timebase>
                            <ntsc>FALSE</ntsc>
                        </rate>
                        <start>411</start>
                        <end>460</end>
                        <enabled>TRUE</enabled>
                        <in>164383</in>
                        <out>164432</out>
                        <file id="Interstaller.mp4 2"/>
                        <sourcetrack>
                            <mediatype>audio</mediatype>
                            <trackindex>1</trackindex>
                        </sourcetrack>
                        <link>
                            <linkclipref>Interstaller.mp4 9</linkclipref>
                            <mediatype>video</mediatype>
                        </link>
                        <link>
                            <linkclipref>Interstaller.mp4 249</linkclipref>
                        </link>
                        <comments/>
                    </clipitem>
                    <clipitem id="Interstaller.mp4 250">
                        <name>Interstaller.mp4</name>
                        <duration>243353</duration>
                        <rate>
                            <timebase>24</timebase>
                            <ntsc>FALSE</ntsc>
                        </rate>
                        <start>460</start>
                        <end>566</end>
                        <enabled>TRUE</enabled>
                        <in>164432</in>
                        <out>164538</out>
                        <file id="Interstaller.mp4 2"/>
                        <sourcetrack>
                            <mediatype>audio</mediatype>
                            <trackindex>1</trackindex>
                        </sourcetrack>
                        <link>
                            <linkclipref>Interstaller.mp4 11</linkclipref>
                            <mediatype>video</mediatype>
                        </link>
                        <link>
                            <linkclipref>Interstaller.mp4 250</linkclipref>
                        </link>
                        <comments/>
                    </clipitem>
                    <clipitem id="Interstaller.mp4 251">
                        <name>Interstaller.mp4</name>
                        <duration>243353</duration>
                        <rate>
                            <timebase>24</timebase>
                            <ntsc>FALSE</ntsc>
                        </rate>
                        <start>566</start>
                        <end>607</end>
                        <enabled>TRUE</enabled>
                        <in>164538</in>
                        <out>164579</out>
                        <file id="Interstaller.mp4 2"/>
                        <sourcetrack>
                            <mediatype>audio</mediatype>
                            <trackindex>1</trackindex>
                        </sourcetrack>
                        <link>
                            <linkclipref>Interstaller.mp4 13</linkclipref>
                            <mediatype>video</mediatype>
                        </link>
                        <link>
                            <linkclipref>Interstaller.mp4 251</linkclipref>
                        </link>
                        <comments/>
                    </clipitem>
                    <clipitem id="Interstaller.mp4 252">
                        <name>Interstaller.mp4</name>
                        <duration>243353</duration>
                        <rate>
                            <timebase>24</timebase>
                            <ntsc>FALSE</ntsc>
                        </rate>
                        <start>607</start>
                        <end>640</end>
                        <enabled>TRUE</enabled>
                        <in>164579</in>
                        <out>164612</out>
                        <file id="Interstaller.mp4 2"/>
                        <sourcetrack>
                            <mediatype>audio</mediatype>
                            <trackindex>1</trackindex>
                        </sourcetrack>
                        <link>
                            <linkclipref>Interstaller.mp4 15</linkclipref>
                            <mediatype>video</mediatype>
                        </link>
                        <link>
                            <linkclipref>Interstaller.mp4 252</linkclipref>
                        </link>
                        <comments/>
                    </clipitem>
                    <clipitem id="Interstaller.mp4 253">
                        <name>Interstaller.mp4</name>
                        <duration>243353</duration>
                        <rate>
                            <timebase>24</timebase>
                            <ntsc>FALSE</ntsc>
                        </rate>
                        <start>640</start>
                        <end>711</end>
                        <enabled>TRUE</enabled>
                        <in>164612</in>
                        <out>164683</out>
                        <file id="Interstaller.mp4 2"/>
                        <sourcetrack>
                            <mediatype>audio</mediatype>
                            <trackindex>1</trackindex>
                        </sourcetrack>
                        <link>
                            <linkclipref>Interstaller.mp4 17</linkclipref>
                            <mediatype>video</mediatype>
                        </link>
                        <link>
                            <linkclipref>Interstaller.mp4 253</linkclipref>
                        </link>
                        <comments/>
                    </clipitem>
                    <clipitem id="Interstaller.mp4 254">
                        <name>Interstaller.mp4</name>
                        <duration>243353</duration>
                        <rate>
                            <timebase>24</timebase>
                            <ntsc>FALSE</ntsc>
                        </rate>
                        <start>711</start>
                        <end>882</end>
                        <enabled>TRUE</enabled>
                        <in>164683</in>
                        <out>164854</out>
                        <file id="Interstaller.mp4 2"/>
                        <sourcetrack>
                            <mediatype>audio</mediatype>
                            <trackindex>1</trackindex>
                        </sourcetrack>
                        <link>
                            <linkclipref>Interstaller.mp4 19</linkclipref>
                            <mediatype>video</mediatype>
                        </link>
                        <link>
                            <linkclipref>Interstaller.mp4 254</linkclipref>
                        </link>
                        <comments/>
                    </clipitem>
                    <clipitem id="Interstaller.mp4 255">
                        <name>Interstaller.mp4</name>
                        <duration>243353</duration>
                        <rate>
                            <timebase>24</timebase>
                            <ntsc>FALSE</ntsc>
                        </rate>
                        <start>882</start>
                        <end>1026</end>
                        <enabled>TRUE</enabled>
                        <in>164854</in>
                        <out>164998</out>
                        <file id="Interstaller.mp4 2"/>
                        <sourcetrack>
                            <mediatype>audio</mediatype>
                            <trackindex>1</trackindex>
                        </sourcetrack>
                        <link>
                            <linkclipref>Interstaller.mp4 21</linkclipref>
                            <mediatype>video</mediatype>
                        </link>
                        <link>
                            <linkclipref>Interstaller.mp4 255</linkclipref>
                        </link>
                        <comments/>
                    </clipitem>
                    <clipitem id="Interstaller.mp4 256">
                        <name>Interstaller.mp4</name>
                        <duration>243353</duration>
                        <rate>
                            <timebase>24</timebase>
                            <ntsc>FALSE</ntsc>
                        </rate>
                        <start>1026</start>
                        <end>1072</end>
                        <enabled>TRUE</enabled>
                        <in>164998</in>
                        <out>165044</out>
                        <file id="Interstaller.mp4 2"/>
                        <sourcetrack>
                            <mediatype>audio</mediatype>
                            <trackindex>1</trackindex>
                        </sourcetrack>
                        <link>
                            <linkclipref>Interstaller.mp4 23</linkclipref>
                            <mediatype>video</mediatype>
                        </link>
                        <link>
                            <linkclipref>Interstaller.mp4 256</linkclipref>
                        </link>
                        <comments/>
                    </clipitem>
                    <clipitem id="Interstaller.mp4 257">
                        <name>Interstaller.mp4</name>
                        <duration>243353</duration>
                        <rate>
                            <timebase>24</timebase>
                            <ntsc>FALSE</ntsc>
                        </rate>
                        <start>1072</start>
                        <end>1099</end>
                        <enabled>TRUE</enabled>
                        <in>165044</in>
                        <out>165071</out>
                        <file id="Interstaller.mp4 2"/>
                        <sourcetrack>
                            <mediatype>audio</mediatype>
                            <trackindex>1</trackindex>
                        </sourcetrack>
                        <link>
                            <linkclipref>Interstaller.mp4 25</linkclipref>
                            <mediatype>video</mediatype>
                        </link>
                        <link>
                            <linkclipref>Interstaller.mp4 257</linkclipref>
                        </link>
                        <comments/>
                    </clipitem>
                    <clipitem id="Interstaller.mp4 258">
                        <name>Interstaller.mp4</name>
                        <duration>243353</duration>
                        <rate>
                            <timebase>24</timebase>
                            <ntsc>FALSE</ntsc>
                        </rate>
                        <start>1099</start>
                        <end>1206</end>
                        <enabled>TRUE</enabled>
                        <in>165071</in>
                        <out>165178</out>
                        <file id="Interstaller.mp4 2"/>
                        <sourcetrack>
                            <mediatype>audio</mediatype>
                            <trackindex>1</trackindex>
                        </sourcetrack>
                        <link>
                            <linkclipref>Interstaller.mp4 27</linkclipref>
                            <mediatype>video</mediatype>
                        </link>
                        <link>
                            <linkclipref>Interstaller.mp4 258</linkclipref>
                        </link>
                        <comments/>
                    </clipitem>
                    <clipitem id="Interstaller.mp4 259">
                        <name>Interstaller.mp4</name>
                        <duration>243353</duration>
                        <rate>
                            <timebase>24</timebase>
                            <ntsc>FALSE</ntsc>
                        </rate>
                        <start>1206</start>
                        <end>1277</end>
                        <enabled>TRUE</enabled>
                        <in>165178</in>
                        <out>165249</out>
                        <file id="Interstaller.mp4 2"/>
                        <sourcetrack>
                            <mediatype>audio</mediatype>
                            <trackindex>1</trackindex>
                        </sourcetrack>
                        <link>
                            <linkclipref>Interstaller.mp4 29</linkclipref>
                            <mediatype>video</mediatype>
                        </link>
                        <link>
                            <linkclipref>Interstaller.mp4 259</linkclipref>
                        </link>
                        <comments/>
                    </clipitem>
                    <clipitem id="Interstaller.mp4 260">
                        <name>Interstaller.mp4</name>
                        <duration>243353</duration>
                        <rate>
                            <timebase>24</timebase>
                            <ntsc>FALSE</ntsc>
                        </rate>
                        <start>1277</start>
                        <end>1364</end>
                        <enabled>TRUE</enabled>
                        <in>165249</in>
                        <out>165336</out>
                        <file id="Interstaller.mp4 2"/>
                        <sourcetrack>
                            <mediatype>audio</mediatype>
                            <trackindex>1</trackindex>
                        </sourcetrack>
                        <link>
                            <linkclipref>Interstaller.mp4 31</linkclipref>
                            <mediatype>video</mediatype>
                        </link>
                        <link>
                            <linkclipref>Interstaller.mp4 260</linkclipref>
                        </link>
                        <comments/>
                    </clipitem>
                    <clipitem id="Interstaller.mp4 261">
                        <name>Interstaller.mp4</name>
                        <duration>243353</duration>
                        <rate>
                            <timebase>24</timebase>
                            <ntsc>FALSE</ntsc>
                        </rate>
                        <start>1364</start>
                        <end>1391</end>
                        <enabled>TRUE</enabled>
                        <in>165336</in>
                        <out>165363</out>
                        <file id="Interstaller.mp4 2"/>
                        <sourcetrack>
                            <mediatype>audio</mediatype>
                            <trackindex>1</trackindex>
                        </sourcetrack>
                        <link>
                            <linkclipref>Interstaller.mp4 33</linkclipref>
                            <mediatype>video</mediatype>
                        </link>
                        <link>
                            <linkclipref>Interstaller.mp4 261</linkclipref>
                        </link>
                        <comments/>
                    </clipitem>
                    <clipitem id="Interstaller.mp4 262">
                        <name>Interstaller.mp4</name>
                        <duration>243353</duration>
                        <rate>
                            <timebase>24</timebase>
                            <ntsc>FALSE</ntsc>
                        </rate>
                        <start>1391</start>
                        <end>1409</end>
                        <enabled>TRUE</enabled>
                        <in>165363</in>
                        <out>165381</out>
                        <file id="Interstaller.mp4 2"/>
                        <sourcetrack>
                            <mediatype>audio</mediatype>
                            <trackindex>1</trackindex>
                        </sourcetrack>
                        <link>
                            <linkclipref>Interstaller.mp4 35</linkclipref>
                            <mediatype>video</mediatype>
                        </link>
                        <link>
                            <linkclipref>Interstaller.mp4 262</linkclipref>
                        </link>
                        <comments/>
                    </clipitem>
                    <clipitem id="Interstaller.mp4 263">
                        <name>Interstaller.mp4</name>
                        <duration>243353</duration>
                        <rate>
                            <timebase>24</timebase>
                            <ntsc>FALSE</ntsc>
                        </rate>
                        <start>1409</start>
                        <end>1453</end>
                        <enabled>TRUE</enabled>
                        <in>165381</in>
                        <out>165425</out>
                        <file id="Interstaller.mp4 2"/>
                        <sourcetrack>
                            <mediatype>audio</mediatype>
                            <trackindex>1</trackindex>
                        </sourcetrack>
                        <link>
                            <linkclipref>Interstaller.mp4 37</linkclipref>
                            <mediatype>video</mediatype>
                        </link>
                        <link>
                            <linkclipref>Interstaller.mp4 263</linkclipref>
                        </link>
                        <comments/>
                    </clipitem>
                    <clipitem id="Interstaller.mp4 264">
                        <name>Interstaller.mp4</name>
                        <duration>243353</duration>
                        <rate>
                            <timebase>24</timebase>
                            <ntsc>FALSE</ntsc>
                        </rate>
                        <start>1453</start>
                        <end>1530</end>
                        <enabled>TRUE</enabled>
                        <in>165425</in>
                        <out>165502</out>
                        <file id="Interstaller.mp4 2"/>
                        <sourcetrack>
                            <mediatype>audio</mediatype>
                            <trackindex>1</trackindex>
                        </sourcetrack>
                        <link>
                            <linkclipref>Interstaller.mp4 39</linkclipref>
                            <mediatype>video</mediatype>
                        </link>
                        <link>
                            <linkclipref>Interstaller.mp4 264</linkclipref>
                        </link>
                        <comments/>
                    </clipitem>
                    <clipitem id="Interstaller.mp4 265">
                        <name>Interstaller.mp4</name>
                        <duration>243353</duration>
                        <rate>
                            <timebase>24</timebase>
                            <ntsc>FALSE</ntsc>
                        </rate>
                        <start>1530</start>
                        <end>1549</end>
                        <enabled>TRUE</enabled>
                        <in>165502</in>
                        <out>165521</out>
                        <file id="Interstaller.mp4 2"/>
                        <sourcetrack>
                            <mediatype>audio</mediatype>
                            <trackindex>1</trackindex>
                        </sourcetrack>
                        <link>
                            <linkclipref>Interstaller.mp4 41</linkclipref>
                            <mediatype>video</mediatype>
                        </link>
                        <link>
                            <linkclipref>Interstaller.mp4 265</linkclipref>
                        </link>
                        <comments/>
                    </clipitem>
                    <clipitem id="Interstaller.mp4 266">
                        <name>Interstaller.mp4</name>
                        <duration>243353</duration>
                        <rate>
                            <timebase>24</timebase>
                            <ntsc>FALSE</ntsc>
                        </rate>
                        <start>1549</start>
                        <end>1575</end>
                        <enabled>TRUE</enabled>
                        <in>165521</in>
                        <out>165547</out>
                        <file id="Interstaller.mp4 2"/>
                        <sourcetrack>
                            <mediatype>audio</mediatype>
                            <trackindex>1</trackindex>
                        </sourcetrack>
                        <link>
                            <linkclipref>Interstaller.mp4 43</linkclipref>
                            <mediatype>video</mediatype>
                        </link>
                        <link>
                            <linkclipref>Interstaller.mp4 266</linkclipref>
                        </link>
                        <comments/>
                    </clipitem>
                    <clipitem id="Interstaller.mp4 267">
                        <name>Interstaller.mp4</name>
                        <duration>243353</duration>
                        <rate>
                            <timebase>24</timebase>
                            <ntsc>FALSE</ntsc>
                        </rate>
                        <start>1575</start>
                        <end>1581</end>
                        <enabled>TRUE</enabled>
                        <in>165547</in>
                        <out>165553</out>
                        <file id="Interstaller.mp4 2"/>
                        <sourcetrack>
                            <mediatype>audio</mediatype>
                            <trackindex>1</trackindex>
                        </sourcetrack>
                        <link>
                            <linkclipref>Interstaller.mp4 45</linkclipref>
                            <mediatype>video</mediatype>
                        </link>
                        <link>
                            <linkclipref>Interstaller.mp4 267</linkclipref>
                        </link>
                        <comments/>
                    </clipitem>
                    <clipitem id="Interstaller.mp4 268">
                        <name>Interstaller.mp4</name>
                        <duration>243353</duration>
                        <rate>
                            <timebase>24</timebase>
                            <ntsc>FALSE</ntsc>
                        </rate>
                        <start>1581</start>
                        <end>1613</end>
                        <enabled>TRUE</enabled>
                        <in>165553</in>
                        <out>165585</out>
                        <file id="Interstaller.mp4 2"/>
                        <sourcetrack>
                            <mediatype>audio</mediatype>
                            <trackindex>1</trackindex>
                        </sourcetrack>
                        <link>
                            <linkclipref>Interstaller.mp4 47</linkclipref>
                            <mediatype>video</mediatype>
                        </link>
                        <link>
                            <linkclipref>Interstaller.mp4 268</linkclipref>
                        </link>
                        <comments/>
                    </clipitem>
                    <clipitem id="Interstaller.mp4 269">
                        <name>Interstaller.mp4</name>
                        <duration>243353</duration>
                        <rate>
                            <timebase>24</timebase>
                            <ntsc>FALSE</ntsc>
                        </rate>
                        <start>1613</start>
                        <end>1625</end>
                        <enabled>TRUE</enabled>
                        <in>165585</in>
                        <out>165597</out>
                        <file id="Interstaller.mp4 2"/>
                        <sourcetrack>
                            <mediatype>audio</mediatype>
                            <trackindex>1</trackindex>
                        </sourcetrack>
                        <link>
                            <linkclipref>Interstaller.mp4 49</linkclipref>
                            <mediatype>video</mediatype>
                        </link>
                        <link>
                            <linkclipref>Interstaller.mp4 269</linkclipref>
                        </link>
                        <comments/>
                    </clipitem>
                    <clipitem id="Interstaller.mp4 270">
                        <name>Interstaller.mp4</name>
                        <duration>243353</duration>
                        <rate>
                            <timebase>24</timebase>
                            <ntsc>FALSE</ntsc>
                        </rate>
                        <start>1625</start>
                        <end>1637</end>
                        <enabled>TRUE</enabled>
                        <in>165597</in>
                        <out>165609</out>
                        <file id="Interstaller.mp4 2"/>
                        <sourcetrack>
                            <mediatype>audio</mediatype>
                            <trackindex>1</trackindex>
                        </sourcetrack>
                        <link>
                            <linkclipref>Interstaller.mp4 51</linkclipref>
                            <mediatype>video</mediatype>
                        </link>
                        <link>
                            <linkclipref>Interstaller.mp4 270</linkclipref>
                        </link>
                        <comments/>
                    </clipitem>
                    <clipitem id="Interstaller.mp4 271">
                        <name>Interstaller.mp4</name>
                        <duration>243353</duration>
                        <rate>
                            <timebase>24</timebase>
                            <ntsc>FALSE</ntsc>
                        </rate>
                        <start>1637</start>
                        <end>1657</end>
                        <enabled>TRUE</enabled>
                        <in>165609</in>
                        <out>165629</out>
                        <file id="Interstaller.mp4 2"/>
                        <sourcetrack>
                            <mediatype>audio</mediatype>
                            <trackindex>1</trackindex>
                        </sourcetrack>
                        <link>
                            <linkclipref>Interstaller.mp4 53</linkclipref>
                            <mediatype>video</mediatype>
                        </link>
                        <link>
                            <linkclipref>Interstaller.mp4 271</linkclipref>
                        </link>
                        <comments/>
                    </clipitem>
                    <clipitem id="Interstaller.mp4 272">
                        <name>Interstaller.mp4</name>
                        <duration>243353</duration>
                        <rate>
                            <timebase>24</timebase>
                            <ntsc>FALSE</ntsc>
                        </rate>
                        <start>1657</start>
                        <end>1683</end>
                        <enabled>TRUE</enabled>
                        <in>165629</in>
                        <out>165655</out>
                        <file id="Interstaller.mp4 2"/>
                        <sourcetrack>
                            <mediatype>audio</mediatype>
                            <trackindex>1</trackindex>
                        </sourcetrack>
                        <link>
                            <linkclipref>Interstaller.mp4 55</linkclipref>
                            <mediatype>video</mediatype>
                        </link>
                        <link>
                            <linkclipref>Interstaller.mp4 272</linkclipref>
                        </link>
                        <comments/>
                    </clipitem>
                    <clipitem id="Interstaller.mp4 273">
                        <name>Interstaller.mp4</name>
                        <duration>243353</duration>
                        <rate>
                            <timebase>24</timebase>
                            <ntsc>FALSE</ntsc>
                        </rate>
                        <start>1683</start>
                        <end>1755</end>
                        <enabled>TRUE</enabled>
                        <in>165655</in>
                        <out>165727</out>
                        <file id="Interstaller.mp4 2"/>
                        <sourcetrack>
                            <mediatype>audio</mediatype>
                            <trackindex>1</trackindex>
                        </sourcetrack>
                        <link>
                            <linkclipref>Interstaller.mp4 57</linkclipref>
                            <mediatype>video</mediatype>
                        </link>
                        <link>
                            <linkclipref>Interstaller.mp4 273</linkclipref>
                        </link>
                        <comments/>
                    </clipitem>
                    <clipitem id="Interstaller.mp4 274">
                        <name>Interstaller.mp4</name>
                        <duration>243353</duration>
                        <rate>
                            <timebase>24</timebase>
                            <ntsc>FALSE</ntsc>
                        </rate>
                        <start>1755</start>
                        <end>1782</end>
                        <enabled>TRUE</enabled>
                        <in>165727</in>
                        <out>165754</out>
                        <file id="Interstaller.mp4 2"/>
                        <sourcetrack>
                            <mediatype>audio</mediatype>
                            <trackindex>1</trackindex>
                        </sourcetrack>
                        <link>
                            <linkclipref>Interstaller.mp4 59</linkclipref>
                            <mediatype>video</mediatype>
                        </link>
                        <link>
                            <linkclipref>Interstaller.mp4 274</linkclipref>
                        </link>
                        <comments/>
                    </clipitem>
                    <clipitem id="Interstaller.mp4 275">
                        <name>Interstaller.mp4</name>
                        <duration>243353</duration>
                        <rate>
                            <timebase>24</timebase>
                            <ntsc>FALSE</ntsc>
                        </rate>
                        <start>1782</start>
                        <end>2020</end>
                        <enabled>TRUE</enabled>
                        <in>165754</in>
                        <out>165992</out>
                        <file id="Interstaller.mp4 2"/>
                        <sourcetrack>
                            <mediatype>audio</mediatype>
                            <trackindex>1</trackindex>
                        </sourcetrack>
                        <link>
                            <linkclipref>Interstaller.mp4 61</linkclipref>
                            <mediatype>video</mediatype>
                        </link>
                        <link>
                            <linkclipref>Interstaller.mp4 275</linkclipref>
                        </link>
                        <comments/>
                    </clipitem>
                    <clipitem id="Interstaller.mp4 276">
                        <name>Interstaller.mp4</name>
                        <duration>243353</duration>
                        <rate>
                            <timebase>24</timebase>
                            <ntsc>FALSE</ntsc>
                        </rate>
                        <start>2020</start>
                        <end>2155</end>
                        <enabled>TRUE</enabled>
                        <in>165992</in>
                        <out>166127</out>
                        <file id="Interstaller.mp4 2"/>
                        <sourcetrack>
                            <mediatype>audio</mediatype>
                            <trackindex>1</trackindex>
                        </sourcetrack>
                        <link>
                            <linkclipref>Interstaller.mp4 63</linkclipref>
                            <mediatype>video</mediatype>
                        </link>
                        <link>
                            <linkclipref>Interstaller.mp4 276</linkclipref>
                        </link>
                        <comments/>
                    </clipitem>
                    <clipitem id="Interstaller.mp4 277">
                        <name>Interstaller.mp4</name>
                        <duration>243353</duration>
                        <rate>
                            <timebase>24</timebase>
                            <ntsc>FALSE</ntsc>
                        </rate>
                        <start>2155</start>
                        <end>2212</end>
                        <enabled>TRUE</enabled>
                        <in>166127</in>
                        <out>166184</out>
                        <file id="Interstaller.mp4 2"/>
                        <sourcetrack>
                            <mediatype>audio</mediatype>
                            <trackindex>1</trackindex>
                        </sourcetrack>
                        <link>
                            <linkclipref>Interstaller.mp4 65</linkclipref>
                            <mediatype>video</mediatype>
                        </link>
                        <link>
                            <linkclipref>Interstaller.mp4 277</linkclipref>
                        </link>
                        <comments/>
                    </clipitem>
                    <clipitem id="Interstaller.mp4 278">
                        <name>Interstaller.mp4</name>
                        <duration>243353</duration>
                        <rate>
                            <timebase>24</timebase>
                            <ntsc>FALSE</ntsc>
                        </rate>
                        <start>2212</start>
                        <end>2409</end>
                        <enabled>TRUE</enabled>
                        <in>166184</in>
                        <out>166381</out>
                        <file id="Interstaller.mp4 2"/>
                        <sourcetrack>
                            <mediatype>audio</mediatype>
                            <trackindex>1</trackindex>
                        </sourcetrack>
                        <link>
                            <linkclipref>Interstaller.mp4 67</linkclipref>
                            <mediatype>video</mediatype>
                        </link>
                        <link>
                            <linkclipref>Interstaller.mp4 278</linkclipref>
                        </link>
                        <comments/>
                    </clipitem>
                    <clipitem id="Interstaller.mp4 279">
                        <name>Interstaller.mp4</name>
                        <duration>243353</duration>
                        <rate>
                            <timebase>24</timebase>
                            <ntsc>FALSE</ntsc>
                        </rate>
                        <start>2409</start>
                        <end>2479</end>
                        <enabled>TRUE</enabled>
                        <in>166381</in>
                        <out>166451</out>
                        <file id="Interstaller.mp4 2"/>
                        <sourcetrack>
                            <mediatype>audio</mediatype>
                            <trackindex>1</trackindex>
                        </sourcetrack>
                        <link>
                            <linkclipref>Interstaller.mp4 69</linkclipref>
                            <mediatype>video</mediatype>
                        </link>
                        <link>
                            <linkclipref>Interstaller.mp4 279</linkclipref>
                        </link>
                        <comments/>
                    </clipitem>
                    <clipitem id="Interstaller.mp4 280">
                        <name>Interstaller.mp4</name>
                        <duration>243353</duration>
                        <rate>
                            <timebase>24</timebase>
                            <ntsc>FALSE</ntsc>
                        </rate>
                        <start>2479</start>
                        <end>2561</end>
                        <enabled>TRUE</enabled>
                        <in>166451</in>
                        <out>166533</out>
                        <file id="Interstaller.mp4 2"/>
                        <sourcetrack>
                            <mediatype>audio</mediatype>
                            <trackindex>1</trackindex>
                        </sourcetrack>
                        <link>
                            <linkclipref>Interstaller.mp4 71</linkclipref>
                            <mediatype>video</mediatype>
                        </link>
                        <link>
                            <linkclipref>Interstaller.mp4 280</linkclipref>
                        </link>
                        <comments/>
                    </clipitem>
                    <clipitem id="Interstaller.mp4 281">
                        <name>Interstaller.mp4</name>
                        <duration>243353</duration>
                        <rate>
                            <timebase>24</timebase>
                            <ntsc>FALSE</ntsc>
                        </rate>
                        <start>2561</start>
                        <end>2640</end>
                        <enabled>TRUE</enabled>
                        <in>166533</in>
                        <out>166612</out>
                        <file id="Interstaller.mp4 2"/>
                        <sourcetrack>
                            <mediatype>audio</mediatype>
                            <trackindex>1</trackindex>
                        </sourcetrack>
                        <link>
                            <linkclipref>Interstaller.mp4 73</linkclipref>
                            <mediatype>video</mediatype>
                        </link>
                        <link>
                            <linkclipref>Interstaller.mp4 281</linkclipref>
                        </link>
                        <comments/>
                    </clipitem>
                    <clipitem id="Interstaller.mp4 282">
                        <name>Interstaller.mp4</name>
                        <duration>243353</duration>
                        <rate>
                            <timebase>24</timebase>
                            <ntsc>FALSE</ntsc>
                        </rate>
                        <start>2640</start>
                        <end>2734</end>
                        <enabled>TRUE</enabled>
                        <in>166612</in>
                        <out>166706</out>
                        <file id="Interstaller.mp4 2"/>
                        <sourcetrack>
                            <mediatype>audio</mediatype>
                            <trackindex>1</trackindex>
                        </sourcetrack>
                        <link>
                            <linkclipref>Interstaller.mp4 75</linkclipref>
                            <mediatype>video</mediatype>
                        </link>
                        <link>
                            <linkclipref>Interstaller.mp4 282</linkclipref>
                        </link>
                        <comments/>
                    </clipitem>
                    <clipitem id="Interstaller.mp4 283">
                        <name>Interstaller.mp4</name>
                        <duration>243353</duration>
                        <rate>
                            <timebase>24</timebase>
                            <ntsc>FALSE</ntsc>
                        </rate>
                        <start>2734</start>
                        <end>2841</end>
                        <enabled>TRUE</enabled>
                        <in>166706</in>
                        <out>166813</out>
                        <file id="Interstaller.mp4 2"/>
                        <sourcetrack>
                            <mediatype>audio</mediatype>
                            <trackindex>1</trackindex>
                        </sourcetrack>
                        <link>
                            <linkclipref>Interstaller.mp4 77</linkclipref>
                            <mediatype>video</mediatype>
                        </link>
                        <link>
                            <linkclipref>Interstaller.mp4 283</linkclipref>
                        </link>
                        <comments/>
                    </clipitem>
                    <clipitem id="Interstaller.mp4 284">
                        <name>Interstaller.mp4</name>
                        <duration>243353</duration>
                        <rate>
                            <timebase>24</timebase>
                            <ntsc>FALSE</ntsc>
                        </rate>
                        <start>2841</start>
                        <end>3026</end>
                        <enabled>TRUE</enabled>
                        <in>166813</in>
                        <out>166998</out>
                        <file id="Interstaller.mp4 2"/>
                        <sourcetrack>
                            <mediatype>audio</mediatype>
                            <trackindex>1</trackindex>
                        </sourcetrack>
                        <link>
                            <linkclipref>Interstaller.mp4 79</linkclipref>
                            <mediatype>video</mediatype>
                        </link>
                        <link>
                            <linkclipref>Interstaller.mp4 284</linkclipref>
                        </link>
                        <comments/>
                    </clipitem>
                    <clipitem id="Interstaller.mp4 285">
                        <name>Interstaller.mp4</name>
                        <duration>243353</duration>
                        <rate>
                            <timebase>24</timebase>
                            <ntsc>FALSE</ntsc>
                        </rate>
                        <start>3026</start>
                        <end>3108</end>
                        <enabled>TRUE</enabled>
                        <in>166998</in>
                        <out>167080</out>
                        <file id="Interstaller.mp4 2"/>
                        <sourcetrack>
                            <mediatype>audio</mediatype>
                            <trackindex>1</trackindex>
                        </sourcetrack>
                        <link>
                            <linkclipref>Interstaller.mp4 81</linkclipref>
                            <mediatype>video</mediatype>
                        </link>
                        <link>
                            <linkclipref>Interstaller.mp4 285</linkclipref>
                        </link>
                        <comments/>
                    </clipitem>
                    <clipitem id="Interstaller.mp4 286">
                        <name>Interstaller.mp4</name>
                        <duration>243353</duration>
                        <rate>
                            <timebase>24</timebase>
                            <ntsc>FALSE</ntsc>
                        </rate>
                        <start>3108</start>
                        <end>3266</end>
                        <enabled>TRUE</enabled>
                        <in>167080</in>
                        <out>167238</out>
                        <file id="Interstaller.mp4 2"/>
                        <sourcetrack>
                            <mediatype>audio</mediatype>
                            <trackindex>1</trackindex>
                        </sourcetrack>
                        <link>
                            <linkclipref>Interstaller.mp4 83</linkclipref>
                            <mediatype>video</mediatype>
                        </link>
                        <link>
                            <linkclipref>Interstaller.mp4 286</linkclipref>
                        </link>
                        <comments/>
                    </clipitem>
                    <clipitem id="Interstaller.mp4 287">
                        <name>Interstaller.mp4</name>
                        <duration>243353</duration>
                        <rate>
                            <timebase>24</timebase>
                            <ntsc>FALSE</ntsc>
                        </rate>
                        <start>3266</start>
                        <end>3323</end>
                        <enabled>TRUE</enabled>
                        <in>167238</in>
                        <out>167295</out>
                        <file id="Interstaller.mp4 2"/>
                        <sourcetrack>
                            <mediatype>audio</mediatype>
                            <trackindex>1</trackindex>
                        </sourcetrack>
                        <link>
                            <linkclipref>Interstaller.mp4 85</linkclipref>
                            <mediatype>video</mediatype>
                        </link>
                        <link>
                            <linkclipref>Interstaller.mp4 287</linkclipref>
                        </link>
                        <comments/>
                    </clipitem>
                    <clipitem id="Interstaller.mp4 288">
                        <name>Interstaller.mp4</name>
                        <duration>243353</duration>
                        <rate>
                            <timebase>24</timebase>
                            <ntsc>FALSE</ntsc>
                        </rate>
                        <start>3323</start>
                        <end>3582</end>
                        <enabled>TRUE</enabled>
                        <in>167295</in>
                        <out>167554</out>
                        <file id="Interstaller.mp4 2"/>
                        <sourcetrack>
                            <mediatype>audio</mediatype>
                            <trackindex>1</trackindex>
                        </sourcetrack>
                        <link>
                            <linkclipref>Interstaller.mp4 87</linkclipref>
                            <mediatype>video</mediatype>
                        </link>
                        <link>
                            <linkclipref>Interstaller.mp4 288</linkclipref>
                        </link>
                        <comments/>
                    </clipitem>
                    <clipitem id="Interstaller.mp4 289">
                        <name>Interstaller.mp4</name>
                        <duration>243353</duration>
                        <rate>
                            <timebase>24</timebase>
                            <ntsc>FALSE</ntsc>
                        </rate>
                        <start>3582</start>
                        <end>3845</end>
                        <enabled>TRUE</enabled>
                        <in>167554</in>
                        <out>167817</out>
                        <file id="Interstaller.mp4 2"/>
                        <sourcetrack>
                            <mediatype>audio</mediatype>
                            <trackindex>1</trackindex>
                        </sourcetrack>
                        <link>
                            <linkclipref>Interstaller.mp4 89</linkclipref>
                            <mediatype>video</mediatype>
                        </link>
                        <link>
                            <linkclipref>Interstaller.mp4 289</linkclipref>
                        </link>
                        <comments/>
                    </clipitem>
                    <clipitem id="Interstaller.mp4 290">
                        <name>Interstaller.mp4</name>
                        <duration>243353</duration>
                        <rate>
                            <timebase>24</timebase>
                            <ntsc>FALSE</ntsc>
                        </rate>
                        <start>3845</start>
                        <end>4032</end>
                        <enabled>TRUE</enabled>
                        <in>167817</in>
                        <out>168004</out>
                        <file id="Interstaller.mp4 2"/>
                        <sourcetrack>
                            <mediatype>audio</mediatype>
                            <trackindex>1</trackindex>
                        </sourcetrack>
                        <link>
                            <linkclipref>Interstaller.mp4 91</linkclipref>
                            <mediatype>video</mediatype>
                        </link>
                        <link>
                            <linkclipref>Interstaller.mp4 290</linkclipref>
                        </link>
                        <comments/>
                    </clipitem>
                    <clipitem id="Interstaller.mp4 291">
                        <name>Interstaller.mp4</name>
                        <duration>243353</duration>
                        <rate>
                            <timebase>24</timebase>
                            <ntsc>FALSE</ntsc>
                        </rate>
                        <start>4032</start>
                        <end>4098</end>
                        <enabled>TRUE</enabled>
                        <in>168004</in>
                        <out>168070</out>
                        <file id="Interstaller.mp4 2"/>
                        <sourcetrack>
                            <mediatype>audio</mediatype>
                            <trackindex>1</trackindex>
                        </sourcetrack>
                        <link>
                            <linkclipref>Interstaller.mp4 93</linkclipref>
                            <mediatype>video</mediatype>
                        </link>
                        <link>
                            <linkclipref>Interstaller.mp4 291</linkclipref>
                        </link>
                        <comments/>
                    </clipitem>
                    <clipitem id="Interstaller.mp4 292">
                        <name>Interstaller.mp4</name>
                        <duration>243353</duration>
                        <rate>
                            <timebase>24</timebase>
                            <ntsc>FALSE</ntsc>
                        </rate>
                        <start>4098</start>
                        <end>4161</end>
                        <enabled>TRUE</enabled>
                        <in>168070</in>
                        <out>168133</out>
                        <file id="Interstaller.mp4 2"/>
                        <sourcetrack>
                            <mediatype>audio</mediatype>
                            <trackindex>1</trackindex>
                        </sourcetrack>
                        <link>
                            <linkclipref>Interstaller.mp4 95</linkclipref>
                            <mediatype>video</mediatype>
                        </link>
                        <link>
                            <linkclipref>Interstaller.mp4 292</linkclipref>
                        </link>
                        <comments/>
                    </clipitem>
                    <clipitem id="Interstaller.mp4 293">
                        <name>Interstaller.mp4</name>
                        <duration>243353</duration>
                        <rate>
                            <timebase>24</timebase>
                            <ntsc>FALSE</ntsc>
                        </rate>
                        <start>4161</start>
                        <end>4362</end>
                        <enabled>TRUE</enabled>
                        <in>168133</in>
                        <out>168334</out>
                        <file id="Interstaller.mp4 2"/>
                        <sourcetrack>
                            <mediatype>audio</mediatype>
                            <trackindex>1</trackindex>
                        </sourcetrack>
                        <link>
                            <linkclipref>Interstaller.mp4 97</linkclipref>
                            <mediatype>video</mediatype>
                        </link>
                        <link>
                            <linkclipref>Interstaller.mp4 293</linkclipref>
                        </link>
                        <comments/>
                    </clipitem>
                    <clipitem id="Interstaller.mp4 294">
                        <name>Interstaller.mp4</name>
                        <duration>243353</duration>
                        <rate>
                            <timebase>24</timebase>
                            <ntsc>FALSE</ntsc>
                        </rate>
                        <start>4362</start>
                        <end>4501</end>
                        <enabled>TRUE</enabled>
                        <in>168334</in>
                        <out>168473</out>
                        <file id="Interstaller.mp4 2"/>
                        <sourcetrack>
                            <mediatype>audio</mediatype>
                            <trackindex>1</trackindex>
                        </sourcetrack>
                        <link>
                            <linkclipref>Interstaller.mp4 99</linkclipref>
                            <mediatype>video</mediatype>
                        </link>
                        <link>
                            <linkclipref>Interstaller.mp4 294</linkclipref>
                        </link>
                        <comments/>
                    </clipitem>
                    <clipitem id="Interstaller.mp4 295">
                        <name>Interstaller.mp4</name>
                        <duration>243353</duration>
                        <rate>
                            <timebase>24</timebase>
                            <ntsc>FALSE</ntsc>
                        </rate>
                        <start>4501</start>
                        <end>4652</end>
                        <enabled>TRUE</enabled>
                        <in>168473</in>
                        <out>168624</out>
                        <file id="Interstaller.mp4 2"/>
                        <sourcetrack>
                            <mediatype>audio</mediatype>
                            <trackindex>1</trackindex>
                        </sourcetrack>
                        <link>
                            <linkclipref>Interstaller.mp4 101</linkclipref>
                            <mediatype>video</mediatype>
                        </link>
                        <link>
                            <linkclipref>Interstaller.mp4 295</linkclipref>
                        </link>
                        <comments/>
                    </clipitem>
                    <clipitem id="Interstaller.mp4 296">
                        <name>Interstaller.mp4</name>
                        <duration>243353</duration>
                        <rate>
                            <timebase>24</timebase>
                            <ntsc>FALSE</ntsc>
                        </rate>
                        <start>4652</start>
                        <end>4700</end>
                        <enabled>TRUE</enabled>
                        <in>168624</in>
                        <out>168672</out>
                        <file id="Interstaller.mp4 2"/>
                        <sourcetrack>
                            <mediatype>audio</mediatype>
                            <trackindex>1</trackindex>
                        </sourcetrack>
                        <link>
                            <linkclipref>Interstaller.mp4 103</linkclipref>
                            <mediatype>video</mediatype>
                        </link>
                        <link>
                            <linkclipref>Interstaller.mp4 296</linkclipref>
                        </link>
                        <comments/>
                    </clipitem>
                    <clipitem id="Interstaller.mp4 297">
                        <name>Interstaller.mp4</name>
                        <duration>243353</duration>
                        <rate>
                            <timebase>24</timebase>
                            <ntsc>FALSE</ntsc>
                        </rate>
                        <start>4700</start>
                        <end>4790</end>
                        <enabled>TRUE</enabled>
                        <in>168672</in>
                        <out>168762</out>
                        <file id="Interstaller.mp4 2"/>
                        <sourcetrack>
                            <mediatype>audio</mediatype>
                            <trackindex>1</trackindex>
                        </sourcetrack>
                        <link>
                            <linkclipref>Interstaller.mp4 105</linkclipref>
                            <mediatype>video</mediatype>
                        </link>
                        <link>
                            <linkclipref>Interstaller.mp4 297</linkclipref>
                        </link>
                        <comments/>
                    </clipitem>
                    <clipitem id="Interstaller.mp4 298">
                        <name>Interstaller.mp4</name>
                        <duration>243353</duration>
                        <rate>
                            <timebase>24</timebase>
                            <ntsc>FALSE</ntsc>
                        </rate>
                        <start>4790</start>
                        <end>5018</end>
                        <enabled>TRUE</enabled>
                        <in>168762</in>
                        <out>168990</out>
                        <file id="Interstaller.mp4 2"/>
                        <sourcetrack>
                            <mediatype>audio</mediatype>
                            <trackindex>1</trackindex>
                        </sourcetrack>
                        <link>
                            <linkclipref>Interstaller.mp4 107</linkclipref>
                            <mediatype>video</mediatype>
                        </link>
                        <link>
                            <linkclipref>Interstaller.mp4 298</linkclipref>
                        </link>
                        <comments/>
                    </clipitem>
                    <clipitem id="Interstaller.mp4 299">
                        <name>Interstaller.mp4</name>
                        <duration>243353</duration>
                        <rate>
                            <timebase>24</timebase>
                            <ntsc>FALSE</ntsc>
                        </rate>
                        <start>5018</start>
                        <end>5125</end>
                        <enabled>TRUE</enabled>
                        <in>168990</in>
                        <out>169097</out>
                        <file id="Interstaller.mp4 2"/>
                        <sourcetrack>
                            <mediatype>audio</mediatype>
                            <trackindex>1</trackindex>
                        </sourcetrack>
                        <link>
                            <linkclipref>Interstaller.mp4 109</linkclipref>
                            <mediatype>video</mediatype>
                        </link>
                        <link>
                            <linkclipref>Interstaller.mp4 299</linkclipref>
                        </link>
                        <comments/>
                    </clipitem>
                    <clipitem id="Interstaller.mp4 300">
                        <name>Interstaller.mp4</name>
                        <duration>243353</duration>
                        <rate>
                            <timebase>24</timebase>
                            <ntsc>FALSE</ntsc>
                        </rate>
                        <start>5125</start>
                        <end>5188</end>
                        <enabled>TRUE</enabled>
                        <in>169097</in>
                        <out>169160</out>
                        <file id="Interstaller.mp4 2"/>
                        <sourcetrack>
                            <mediatype>audio</mediatype>
                            <trackindex>1</trackindex>
                        </sourcetrack>
                        <link>
                            <linkclipref>Interstaller.mp4 111</linkclipref>
                            <mediatype>video</mediatype>
                        </link>
                        <link>
                            <linkclipref>Interstaller.mp4 300</linkclipref>
                        </link>
                        <comments/>
                    </clipitem>
                    <clipitem id="Interstaller.mp4 301">
                        <name>Interstaller.mp4</name>
                        <duration>243353</duration>
                        <rate>
                            <timebase>24</timebase>
                            <ntsc>FALSE</ntsc>
                        </rate>
                        <start>5188</start>
                        <end>5217</end>
                        <enabled>TRUE</enabled>
                        <in>169160</in>
                        <out>169189</out>
                        <file id="Interstaller.mp4 2"/>
                        <sourcetrack>
                            <mediatype>audio</mediatype>
                            <trackindex>1</trackindex>
                        </sourcetrack>
                        <link>
                            <linkclipref>Interstaller.mp4 113</linkclipref>
                            <mediatype>video</mediatype>
                        </link>
                        <link>
                            <linkclipref>Interstaller.mp4 301</linkclipref>
                        </link>
                        <comments/>
                    </clipitem>
                    <clipitem id="Interstaller.mp4 302">
                        <name>Interstaller.mp4</name>
                        <duration>243353</duration>
                        <rate>
                            <timebase>24</timebase>
                            <ntsc>FALSE</ntsc>
                        </rate>
                        <start>5217</start>
                        <end>5259</end>
                        <enabled>TRUE</enabled>
                        <in>169189</in>
                        <out>169231</out>
                        <file id="Interstaller.mp4 2"/>
                        <sourcetrack>
                            <mediatype>audio</mediatype>
                            <trackindex>1</trackindex>
                        </sourcetrack>
                        <link>
                            <linkclipref>Interstaller.mp4 115</linkclipref>
                            <mediatype>video</mediatype>
                        </link>
                        <link>
                            <linkclipref>Interstaller.mp4 302</linkclipref>
                        </link>
                        <comments/>
                    </clipitem>
                    <clipitem id="Interstaller.mp4 303">
                        <name>Interstaller.mp4</name>
                        <duration>243353</duration>
                        <rate>
                            <timebase>24</timebase>
                            <ntsc>FALSE</ntsc>
                        </rate>
                        <start>5259</start>
                        <end>5359</end>
                        <enabled>TRUE</enabled>
                        <in>169231</in>
                        <out>169331</out>
                        <file id="Interstaller.mp4 2"/>
                        <sourcetrack>
                            <mediatype>audio</mediatype>
                            <trackindex>1</trackindex>
                        </sourcetrack>
                        <link>
                            <linkclipref>Interstaller.mp4 117</linkclipref>
                            <mediatype>video</mediatype>
                        </link>
                        <link>
                            <linkclipref>Interstaller.mp4 303</linkclipref>
                        </link>
                        <comments/>
                    </clipitem>
                    <clipitem id="Interstaller.mp4 304">
                        <name>Interstaller.mp4</name>
                        <duration>243353</duration>
                        <rate>
                            <timebase>24</timebase>
                            <ntsc>FALSE</ntsc>
                        </rate>
                        <start>5359</start>
                        <end>5421</end>
                        <enabled>TRUE</enabled>
                        <in>169331</in>
                        <out>169393</out>
                        <file id="Interstaller.mp4 2"/>
                        <sourcetrack>
                            <mediatype>audio</mediatype>
                            <trackindex>1</trackindex>
                        </sourcetrack>
                        <link>
                            <linkclipref>Interstaller.mp4 119</linkclipref>
                            <mediatype>video</mediatype>
                        </link>
                        <link>
                            <linkclipref>Interstaller.mp4 304</linkclipref>
                        </link>
                        <comments/>
                    </clipitem>
                    <clipitem id="Interstaller.mp4 305">
                        <name>Interstaller.mp4</name>
                        <duration>243353</duration>
                        <rate>
                            <timebase>24</timebase>
                            <ntsc>FALSE</ntsc>
                        </rate>
                        <start>5421</start>
                        <end>5468</end>
                        <enabled>TRUE</enabled>
                        <in>169393</in>
                        <out>169440</out>
                        <file id="Interstaller.mp4 2"/>
                        <sourcetrack>
                            <mediatype>audio</mediatype>
                            <trackindex>1</trackindex>
                        </sourcetrack>
                        <link>
                            <linkclipref>Interstaller.mp4 121</linkclipref>
                            <mediatype>video</mediatype>
                        </link>
                        <link>
                            <linkclipref>Interstaller.mp4 305</linkclipref>
                        </link>
                        <comments/>
                    </clipitem>
                    <clipitem id="Interstaller.mp4 306">
                        <name>Interstaller.mp4</name>
                        <duration>243353</duration>
                        <rate>
                            <timebase>24</timebase>
                            <ntsc>FALSE</ntsc>
                        </rate>
                        <start>5468</start>
                        <end>5540</end>
                        <enabled>TRUE</enabled>
                        <in>169440</in>
                        <out>169512</out>
                        <file id="Interstaller.mp4 2"/>
                        <sourcetrack>
                            <mediatype>audio</mediatype>
                            <trackindex>1</trackindex>
                        </sourcetrack>
                        <link>
                            <linkclipref>Interstaller.mp4 123</linkclipref>
                            <mediatype>video</mediatype>
                        </link>
                        <link>
                            <linkclipref>Interstaller.mp4 306</linkclipref>
                        </link>
                        <comments/>
                    </clipitem>
                    <clipitem id="Interstaller.mp4 307">
                        <name>Interstaller.mp4</name>
                        <duration>243353</duration>
                        <rate>
                            <timebase>24</timebase>
                            <ntsc>FALSE</ntsc>
                        </rate>
                        <start>5540</start>
                        <end>5582</end>
                        <enabled>TRUE</enabled>
                        <in>169512</in>
                        <out>169554</out>
                        <file id="Interstaller.mp4 2"/>
                        <sourcetrack>
                            <mediatype>audio</mediatype>
                            <trackindex>1</trackindex>
                        </sourcetrack>
                        <link>
                            <linkclipref>Interstaller.mp4 125</linkclipref>
                            <mediatype>video</mediatype>
                        </link>
                        <link>
                            <linkclipref>Interstaller.mp4 307</linkclipref>
                        </link>
                        <comments/>
                    </clipitem>
                    <clipitem id="Interstaller.mp4 308">
                        <name>Interstaller.mp4</name>
                        <duration>243353</duration>
                        <rate>
                            <timebase>24</timebase>
                            <ntsc>FALSE</ntsc>
                        </rate>
                        <start>5582</start>
                        <end>5619</end>
                        <enabled>TRUE</enabled>
                        <in>169554</in>
                        <out>169591</out>
                        <file id="Interstaller.mp4 2"/>
                        <sourcetrack>
                            <mediatype>audio</mediatype>
                            <trackindex>1</trackindex>
                        </sourcetrack>
                        <link>
                            <linkclipref>Interstaller.mp4 127</linkclipref>
                            <mediatype>video</mediatype>
                        </link>
                        <link>
                            <linkclipref>Interstaller.mp4 308</linkclipref>
                        </link>
                        <comments/>
                    </clipitem>
                    <clipitem id="Interstaller.mp4 309">
                        <name>Interstaller.mp4</name>
                        <duration>243353</duration>
                        <rate>
                            <timebase>24</timebase>
                            <ntsc>FALSE</ntsc>
                        </rate>
                        <start>5619</start>
                        <end>5662</end>
                        <enabled>TRUE</enabled>
                        <in>169591</in>
                        <out>169634</out>
                        <file id="Interstaller.mp4 2"/>
                        <sourcetrack>
                            <mediatype>audio</mediatype>
                            <trackindex>1</trackindex>
                        </sourcetrack>
                        <link>
                            <linkclipref>Interstaller.mp4 129</linkclipref>
                            <mediatype>video</mediatype>
                        </link>
                        <link>
                            <linkclipref>Interstaller.mp4 309</linkclipref>
                        </link>
                        <comments/>
                    </clipitem>
                    <clipitem id="Interstaller.mp4 310">
                        <name>Interstaller.mp4</name>
                        <duration>243353</duration>
                        <rate>
                            <timebase>24</timebase>
                            <ntsc>FALSE</ntsc>
                        </rate>
                        <start>5662</start>
                        <end>5763</end>
                        <enabled>TRUE</enabled>
                        <in>169634</in>
                        <out>169735</out>
                        <file id="Interstaller.mp4 2"/>
                        <sourcetrack>
                            <mediatype>audio</mediatype>
                            <trackindex>1</trackindex>
                        </sourcetrack>
                        <link>
                            <linkclipref>Interstaller.mp4 131</linkclipref>
                            <mediatype>video</mediatype>
                        </link>
                        <link>
                            <linkclipref>Interstaller.mp4 310</linkclipref>
                        </link>
                        <comments/>
                    </clipitem>
                    <clipitem id="Interstaller.mp4 311">
                        <name>Interstaller.mp4</name>
                        <duration>243353</duration>
                        <rate>
                            <timebase>24</timebase>
                            <ntsc>FALSE</ntsc>
                        </rate>
                        <start>5763</start>
                        <end>5942</end>
                        <enabled>TRUE</enabled>
                        <in>169735</in>
                        <out>169914</out>
                        <file id="Interstaller.mp4 2"/>
                        <sourcetrack>
                            <mediatype>audio</mediatype>
                            <trackindex>1</trackindex>
                        </sourcetrack>
                        <link>
                            <linkclipref>Interstaller.mp4 133</linkclipref>
                            <mediatype>video</mediatype>
                        </link>
                        <link>
                            <linkclipref>Interstaller.mp4 311</linkclipref>
                        </link>
                        <comments/>
                    </clipitem>
                    <clipitem id="Interstaller.mp4 312">
                        <name>Interstaller.mp4</name>
                        <duration>243353</duration>
                        <rate>
                            <timebase>24</timebase>
                            <ntsc>FALSE</ntsc>
                        </rate>
                        <start>5942</start>
                        <end>6008</end>
                        <enabled>TRUE</enabled>
                        <in>169914</in>
                        <out>169980</out>
                        <file id="Interstaller.mp4 2"/>
                        <sourcetrack>
                            <mediatype>audio</mediatype>
                            <trackindex>1</trackindex>
                        </sourcetrack>
                        <link>
                            <linkclipref>Interstaller.mp4 135</linkclipref>
                            <mediatype>video</mediatype>
                        </link>
                        <link>
                            <linkclipref>Interstaller.mp4 312</linkclipref>
                        </link>
                        <comments/>
                    </clipitem>
                    <clipitem id="Interstaller.mp4 313">
                        <name>Interstaller.mp4</name>
                        <duration>243353</duration>
                        <rate>
                            <timebase>24</timebase>
                            <ntsc>FALSE</ntsc>
                        </rate>
                        <start>6008</start>
                        <end>6030</end>
                        <enabled>TRUE</enabled>
                        <in>169980</in>
                        <out>170002</out>
                        <file id="Interstaller.mp4 2"/>
                        <sourcetrack>
                            <mediatype>audio</mediatype>
                            <trackindex>1</trackindex>
                        </sourcetrack>
                        <link>
                            <linkclipref>Interstaller.mp4 137</linkclipref>
                            <mediatype>video</mediatype>
                        </link>
                        <link>
                            <linkclipref>Interstaller.mp4 313</linkclipref>
                        </link>
                        <comments/>
                    </clipitem>
                    <clipitem id="Interstaller.mp4 314">
                        <name>Interstaller.mp4</name>
                        <duration>243353</duration>
                        <rate>
                            <timebase>24</timebase>
                            <ntsc>FALSE</ntsc>
                        </rate>
                        <start>6030</start>
                        <end>6092</end>
                        <enabled>TRUE</enabled>
                        <in>170002</in>
                        <out>170064</out>
                        <file id="Interstaller.mp4 2"/>
                        <sourcetrack>
                            <mediatype>audio</mediatype>
                            <trackindex>1</trackindex>
                        </sourcetrack>
                        <link>
                            <linkclipref>Interstaller.mp4 139</linkclipref>
                            <mediatype>video</mediatype>
                        </link>
                        <link>
                            <linkclipref>Interstaller.mp4 314</linkclipref>
                        </link>
                        <comments/>
                    </clipitem>
                    <clipitem id="Interstaller.mp4 315">
                        <name>Interstaller.mp4</name>
                        <duration>243353</duration>
                        <rate>
                            <timebase>24</timebase>
                            <ntsc>FALSE</ntsc>
                        </rate>
                        <start>6092</start>
                        <end>6103</end>
                        <enabled>TRUE</enabled>
                        <in>170064</in>
                        <out>170075</out>
                        <file id="Interstaller.mp4 2"/>
                        <sourcetrack>
                            <mediatype>audio</mediatype>
                            <trackindex>1</trackindex>
                        </sourcetrack>
                        <link>
                            <linkclipref>Interstaller.mp4 141</linkclipref>
                            <mediatype>video</mediatype>
                        </link>
                        <link>
                            <linkclipref>Interstaller.mp4 315</linkclipref>
                        </link>
                        <comments/>
                    </clipitem>
                    <clipitem id="Interstaller.mp4 316">
                        <name>Interstaller.mp4</name>
                        <duration>243353</duration>
                        <rate>
                            <timebase>24</timebase>
                            <ntsc>FALSE</ntsc>
                        </rate>
                        <start>6103</start>
                        <end>6216</end>
                        <enabled>TRUE</enabled>
                        <in>170075</in>
                        <out>170188</out>
                        <file id="Interstaller.mp4 2"/>
                        <sourcetrack>
                            <mediatype>audio</mediatype>
                            <trackindex>1</trackindex>
                        </sourcetrack>
                        <link>
                            <linkclipref>Interstaller.mp4 143</linkclipref>
                            <mediatype>video</mediatype>
                        </link>
                        <link>
                            <linkclipref>Interstaller.mp4 316</linkclipref>
                        </link>
                        <comments/>
                    </clipitem>
                    <clipitem id="Interstaller.mp4 317">
                        <name>Interstaller.mp4</name>
                        <duration>243353</duration>
                        <rate>
                            <timebase>24</timebase>
                            <ntsc>FALSE</ntsc>
                        </rate>
                        <start>6216</start>
                        <end>6332</end>
                        <enabled>TRUE</enabled>
                        <in>170188</in>
                        <out>170304</out>
                        <file id="Interstaller.mp4 2"/>
                        <sourcetrack>
                            <mediatype>audio</mediatype>
                            <trackindex>1</trackindex>
                        </sourcetrack>
                        <link>
                            <linkclipref>Interstaller.mp4 145</linkclipref>
                            <mediatype>video</mediatype>
                        </link>
                        <link>
                            <linkclipref>Interstaller.mp4 317</linkclipref>
                        </link>
                        <comments/>
                    </clipitem>
                    <clipitem id="Interstaller.mp4 318">
                        <name>Interstaller.mp4</name>
                        <duration>243353</duration>
                        <rate>
                            <timebase>24</timebase>
                            <ntsc>FALSE</ntsc>
                        </rate>
                        <start>6332</start>
                        <end>6416</end>
                        <enabled>TRUE</enabled>
                        <in>170304</in>
                        <out>170388</out>
                        <file id="Interstaller.mp4 2"/>
                        <sourcetrack>
                            <mediatype>audio</mediatype>
                            <trackindex>1</trackindex>
                        </sourcetrack>
                        <link>
                            <linkclipref>Interstaller.mp4 147</linkclipref>
                            <mediatype>video</mediatype>
                        </link>
                        <link>
                            <linkclipref>Interstaller.mp4 318</linkclipref>
                        </link>
                        <comments/>
                    </clipitem>
                    <clipitem id="Interstaller.mp4 319">
                        <name>Interstaller.mp4</name>
                        <duration>243353</duration>
                        <rate>
                            <timebase>24</timebase>
                            <ntsc>FALSE</ntsc>
                        </rate>
                        <start>6416</start>
                        <end>6468</end>
                        <enabled>TRUE</enabled>
                        <in>170388</in>
                        <out>170440</out>
                        <file id="Interstaller.mp4 2"/>
                        <sourcetrack>
                            <mediatype>audio</mediatype>
                            <trackindex>1</trackindex>
                        </sourcetrack>
                        <link>
                            <linkclipref>Interstaller.mp4 149</linkclipref>
                            <mediatype>video</mediatype>
                        </link>
                        <link>
                            <linkclipref>Interstaller.mp4 319</linkclipref>
                        </link>
                        <comments/>
                    </clipitem>
                    <clipitem id="Interstaller.mp4 320">
                        <name>Interstaller.mp4</name>
                        <duration>243353</duration>
                        <rate>
                            <timebase>24</timebase>
                            <ntsc>FALSE</ntsc>
                        </rate>
                        <start>6468</start>
                        <end>6571</end>
                        <enabled>TRUE</enabled>
                        <in>170440</in>
                        <out>170543</out>
                        <file id="Interstaller.mp4 2"/>
                        <sourcetrack>
                            <mediatype>audio</mediatype>
                            <trackindex>1</trackindex>
                        </sourcetrack>
                        <link>
                            <linkclipref>Interstaller.mp4 151</linkclipref>
                            <mediatype>video</mediatype>
                        </link>
                        <link>
                            <linkclipref>Interstaller.mp4 320</linkclipref>
                        </link>
                        <comments/>
                    </clipitem>
                    <clipitem id="Interstaller.mp4 321">
                        <name>Interstaller.mp4</name>
                        <duration>243353</duration>
                        <rate>
                            <timebase>24</timebase>
                            <ntsc>FALSE</ntsc>
                        </rate>
                        <start>6571</start>
                        <end>6688</end>
                        <enabled>TRUE</enabled>
                        <in>170543</in>
                        <out>170660</out>
                        <file id="Interstaller.mp4 2"/>
                        <sourcetrack>
                            <mediatype>audio</mediatype>
                            <trackindex>1</trackindex>
                        </sourcetrack>
                        <link>
                            <linkclipref>Interstaller.mp4 153</linkclipref>
                            <mediatype>video</mediatype>
                        </link>
                        <link>
                            <linkclipref>Interstaller.mp4 321</linkclipref>
                        </link>
                        <comments/>
                    </clipitem>
                    <clipitem id="Interstaller.mp4 322">
                        <name>Interstaller.mp4</name>
                        <duration>243353</duration>
                        <rate>
                            <timebase>24</timebase>
                            <ntsc>FALSE</ntsc>
                        </rate>
                        <start>6688</start>
                        <end>6725</end>
                        <enabled>TRUE</enabled>
                        <in>170660</in>
                        <out>170697</out>
                        <file id="Interstaller.mp4 2"/>
                        <sourcetrack>
                            <mediatype>audio</mediatype>
                            <trackindex>1</trackindex>
                        </sourcetrack>
                        <link>
                            <linkclipref>Interstaller.mp4 155</linkclipref>
                            <mediatype>video</mediatype>
                        </link>
                        <link>
                            <linkclipref>Interstaller.mp4 322</linkclipref>
                        </link>
                        <comments/>
                    </clipitem>
                    <clipitem id="Interstaller.mp4 323">
                        <name>Interstaller.mp4</name>
                        <duration>243353</duration>
                        <rate>
                            <timebase>24</timebase>
                            <ntsc>FALSE</ntsc>
                        </rate>
                        <start>6725</start>
                        <end>6775</end>
                        <enabled>TRUE</enabled>
                        <in>170697</in>
                        <out>170747</out>
                        <file id="Interstaller.mp4 2"/>
                        <sourcetrack>
                            <mediatype>audio</mediatype>
                            <trackindex>1</trackindex>
                        </sourcetrack>
                        <link>
                            <linkclipref>Interstaller.mp4 157</linkclipref>
                            <mediatype>video</mediatype>
                        </link>
                        <link>
                            <linkclipref>Interstaller.mp4 323</linkclipref>
                        </link>
                        <comments/>
                    </clipitem>
                    <clipitem id="Interstaller.mp4 324">
                        <name>Interstaller.mp4</name>
                        <duration>243353</duration>
                        <rate>
                            <timebase>24</timebase>
                            <ntsc>FALSE</ntsc>
                        </rate>
                        <start>6775</start>
                        <end>6900</end>
                        <enabled>TRUE</enabled>
                        <in>170747</in>
                        <out>170872</out>
                        <file id="Interstaller.mp4 2"/>
                        <sourcetrack>
                            <mediatype>audio</mediatype>
                            <trackindex>1</trackindex>
                        </sourcetrack>
                        <link>
                            <linkclipref>Interstaller.mp4 159</linkclipref>
                            <mediatype>video</mediatype>
                        </link>
                        <link>
                            <linkclipref>Interstaller.mp4 324</linkclipref>
                        </link>
                        <comments/>
                    </clipitem>
                    <clipitem id="Interstaller.mp4 325">
                        <name>Interstaller.mp4</name>
                        <duration>243353</duration>
                        <rate>
                            <timebase>24</timebase>
                            <ntsc>FALSE</ntsc>
                        </rate>
                        <start>6900</start>
                        <end>6958</end>
                        <enabled>TRUE</enabled>
                        <in>170872</in>
                        <out>170930</out>
                        <file id="Interstaller.mp4 2"/>
                        <sourcetrack>
                            <mediatype>audio</mediatype>
                            <trackindex>1</trackindex>
                        </sourcetrack>
                        <link>
                            <linkclipref>Interstaller.mp4 161</linkclipref>
                            <mediatype>video</mediatype>
                        </link>
                        <link>
                            <linkclipref>Interstaller.mp4 325</linkclipref>
                        </link>
                        <comments/>
                    </clipitem>
                    <clipitem id="Interstaller.mp4 326">
                        <name>Interstaller.mp4</name>
                        <duration>243353</duration>
                        <rate>
                            <timebase>24</timebase>
                            <ntsc>FALSE</ntsc>
                        </rate>
                        <start>6958</start>
                        <end>6998</end>
                        <enabled>TRUE</enabled>
                        <in>170930</in>
                        <out>170970</out>
                        <file id="Interstaller.mp4 2"/>
                        <sourcetrack>
                            <mediatype>audio</mediatype>
                            <trackindex>1</trackindex>
                        </sourcetrack>
                        <link>
                            <linkclipref>Interstaller.mp4 163</linkclipref>
                            <mediatype>video</mediatype>
                        </link>
                        <link>
                            <linkclipref>Interstaller.mp4 326</linkclipref>
                        </link>
                        <comments/>
                    </clipitem>
                    <clipitem id="Interstaller.mp4 327">
                        <name>Interstaller.mp4</name>
                        <duration>243353</duration>
                        <rate>
                            <timebase>24</timebase>
                            <ntsc>FALSE</ntsc>
                        </rate>
                        <start>6998</start>
                        <end>7058</end>
                        <enabled>TRUE</enabled>
                        <in>170970</in>
                        <out>171030</out>
                        <file id="Interstaller.mp4 2"/>
                        <sourcetrack>
                            <mediatype>audio</mediatype>
                            <trackindex>1</trackindex>
                        </sourcetrack>
                        <link>
                            <linkclipref>Interstaller.mp4 165</linkclipref>
                            <mediatype>video</mediatype>
                        </link>
                        <link>
                            <linkclipref>Interstaller.mp4 327</linkclipref>
                        </link>
                        <comments/>
                    </clipitem>
                    <clipitem id="Interstaller.mp4 328">
                        <name>Interstaller.mp4</name>
                        <duration>243353</duration>
                        <rate>
                            <timebase>24</timebase>
                            <ntsc>FALSE</ntsc>
                        </rate>
                        <start>7058</start>
                        <end>7078</end>
                        <enabled>TRUE</enabled>
                        <in>171030</in>
                        <out>171050</out>
                        <file id="Interstaller.mp4 2"/>
                        <sourcetrack>
                            <mediatype>audio</mediatype>
                            <trackindex>1</trackindex>
                        </sourcetrack>
                        <link>
                            <linkclipref>Interstaller.mp4 167</linkclipref>
                            <mediatype>video</mediatype>
                        </link>
                        <link>
                            <linkclipref>Interstaller.mp4 328</linkclipref>
                        </link>
                        <comments/>
                    </clipitem>
                    <clipitem id="Interstaller.mp4 329">
                        <name>Interstaller.mp4</name>
                        <duration>243353</duration>
                        <rate>
                            <timebase>24</timebase>
                            <ntsc>FALSE</ntsc>
                        </rate>
                        <start>7078</start>
                        <end>7127</end>
                        <enabled>TRUE</enabled>
                        <in>171050</in>
                        <out>171099</out>
                        <file id="Interstaller.mp4 2"/>
                        <sourcetrack>
                            <mediatype>audio</mediatype>
                            <trackindex>1</trackindex>
                        </sourcetrack>
                        <link>
                            <linkclipref>Interstaller.mp4 169</linkclipref>
                            <mediatype>video</mediatype>
                        </link>
                        <link>
                            <linkclipref>Interstaller.mp4 329</linkclipref>
                        </link>
                        <comments/>
                    </clipitem>
                    <clipitem id="Interstaller.mp4 330">
                        <name>Interstaller.mp4</name>
                        <duration>243353</duration>
                        <rate>
                            <timebase>24</timebase>
                            <ntsc>FALSE</ntsc>
                        </rate>
                        <start>7127</start>
                        <end>7225</end>
                        <enabled>TRUE</enabled>
                        <in>171099</in>
                        <out>171197</out>
                        <file id="Interstaller.mp4 2"/>
                        <sourcetrack>
                            <mediatype>audio</mediatype>
                            <trackindex>1</trackindex>
                        </sourcetrack>
                        <link>
                            <linkclipref>Interstaller.mp4 171</linkclipref>
                            <mediatype>video</mediatype>
                        </link>
                        <link>
                            <linkclipref>Interstaller.mp4 330</linkclipref>
                        </link>
                        <comments/>
                    </clipitem>
                    <clipitem id="Interstaller.mp4 331">
                        <name>Interstaller.mp4</name>
                        <duration>243353</duration>
                        <rate>
                            <timebase>24</timebase>
                            <ntsc>FALSE</ntsc>
                        </rate>
                        <start>7225</start>
                        <end>7289</end>
                        <enabled>TRUE</enabled>
                        <in>171197</in>
                        <out>171261</out>
                        <file id="Interstaller.mp4 2"/>
                        <sourcetrack>
                            <mediatype>audio</mediatype>
                            <trackindex>1</trackindex>
                        </sourcetrack>
                        <link>
                            <linkclipref>Interstaller.mp4 173</linkclipref>
                            <mediatype>video</mediatype>
                        </link>
                        <link>
                            <linkclipref>Interstaller.mp4 331</linkclipref>
                        </link>
                        <comments/>
                    </clipitem>
                    <clipitem id="Interstaller.mp4 332">
                        <name>Interstaller.mp4</name>
                        <duration>243353</duration>
                        <rate>
                            <timebase>24</timebase>
                            <ntsc>FALSE</ntsc>
                        </rate>
                        <start>7289</start>
                        <end>7376</end>
                        <enabled>TRUE</enabled>
                        <in>171261</in>
                        <out>171348</out>
                        <file id="Interstaller.mp4 2"/>
                        <sourcetrack>
                            <mediatype>audio</mediatype>
                            <trackindex>1</trackindex>
                        </sourcetrack>
                        <link>
                            <linkclipref>Interstaller.mp4 175</linkclipref>
                            <mediatype>video</mediatype>
                        </link>
                        <link>
                            <linkclipref>Interstaller.mp4 332</linkclipref>
                        </link>
                        <comments/>
                    </clipitem>
                    <clipitem id="Interstaller.mp4 333">
                        <name>Interstaller.mp4</name>
                        <duration>243353</duration>
                        <rate>
                            <timebase>24</timebase>
                            <ntsc>FALSE</ntsc>
                        </rate>
                        <start>7376</start>
                        <end>7428</end>
                        <enabled>TRUE</enabled>
                        <in>171348</in>
                        <out>171400</out>
                        <file id="Interstaller.mp4 2"/>
                        <sourcetrack>
                            <mediatype>audio</mediatype>
                            <trackindex>1</trackindex>
                        </sourcetrack>
                        <link>
                            <linkclipref>Interstaller.mp4 177</linkclipref>
                            <mediatype>video</mediatype>
                        </link>
                        <link>
                            <linkclipref>Interstaller.mp4 333</linkclipref>
                        </link>
                        <comments/>
                    </clipitem>
                    <clipitem id="Interstaller.mp4 334">
                        <name>Interstaller.mp4</name>
                        <duration>243353</duration>
                        <rate>
                            <timebase>24</timebase>
                            <ntsc>FALSE</ntsc>
                        </rate>
                        <start>7428</start>
                        <end>7509</end>
                        <enabled>TRUE</enabled>
                        <in>171400</in>
                        <out>171481</out>
                        <file id="Interstaller.mp4 2"/>
                        <sourcetrack>
                            <mediatype>audio</mediatype>
                            <trackindex>1</trackindex>
                        </sourcetrack>
                        <link>
                            <linkclipref>Interstaller.mp4 179</linkclipref>
                            <mediatype>video</mediatype>
                        </link>
                        <link>
                            <linkclipref>Interstaller.mp4 334</linkclipref>
                        </link>
                        <comments/>
                    </clipitem>
                    <clipitem id="Interstaller.mp4 335">
                        <name>Interstaller.mp4</name>
                        <duration>243353</duration>
                        <rate>
                            <timebase>24</timebase>
                            <ntsc>FALSE</ntsc>
                        </rate>
                        <start>7509</start>
                        <end>7610</end>
                        <enabled>TRUE</enabled>
                        <in>171481</in>
                        <out>171582</out>
                        <file id="Interstaller.mp4 2"/>
                        <sourcetrack>
                            <mediatype>audio</mediatype>
                            <trackindex>1</trackindex>
                        </sourcetrack>
                        <link>
                            <linkclipref>Interstaller.mp4 181</linkclipref>
                            <mediatype>video</mediatype>
                        </link>
                        <link>
                            <linkclipref>Interstaller.mp4 335</linkclipref>
                        </link>
                        <comments/>
                    </clipitem>
                    <clipitem id="Interstaller.mp4 336">
                        <name>Interstaller.mp4</name>
                        <duration>243353</duration>
                        <rate>
                            <timebase>24</timebase>
                            <ntsc>FALSE</ntsc>
                        </rate>
                        <start>7610</start>
                        <end>7665</end>
                        <enabled>TRUE</enabled>
                        <in>171582</in>
                        <out>171637</out>
                        <file id="Interstaller.mp4 2"/>
                        <sourcetrack>
                            <mediatype>audio</mediatype>
                            <trackindex>1</trackindex>
                        </sourcetrack>
                        <link>
                            <linkclipref>Interstaller.mp4 183</linkclipref>
                            <mediatype>video</mediatype>
                        </link>
                        <link>
                            <linkclipref>Interstaller.mp4 336</linkclipref>
                        </link>
                        <comments/>
                    </clipitem>
                    <clipitem id="Interstaller.mp4 337">
                        <name>Interstaller.mp4</name>
                        <duration>243353</duration>
                        <rate>
                            <timebase>24</timebase>
                            <ntsc>FALSE</ntsc>
                        </rate>
                        <start>7665</start>
                        <end>7835</end>
                        <enabled>TRUE</enabled>
                        <in>171637</in>
                        <out>171807</out>
                        <file id="Interstaller.mp4 2"/>
                        <sourcetrack>
                            <mediatype>audio</mediatype>
                            <trackindex>1</trackindex>
                        </sourcetrack>
                        <link>
                            <linkclipref>Interstaller.mp4 185</linkclipref>
                            <mediatype>video</mediatype>
                        </link>
                        <link>
                            <linkclipref>Interstaller.mp4 337</linkclipref>
                        </link>
                        <comments/>
                    </clipitem>
                    <clipitem id="Interstaller.mp4 338">
                        <name>Interstaller.mp4</name>
                        <duration>243353</duration>
                        <rate>
                            <timebase>24</timebase>
                            <ntsc>FALSE</ntsc>
                        </rate>
                        <start>7835</start>
                        <end>7956</end>
                        <enabled>TRUE</enabled>
                        <in>171807</in>
                        <out>171928</out>
                        <file id="Interstaller.mp4 2"/>
                        <sourcetrack>
                            <mediatype>audio</mediatype>
                            <trackindex>1</trackindex>
                        </sourcetrack>
                        <link>
                            <linkclipref>Interstaller.mp4 187</linkclipref>
                            <mediatype>video</mediatype>
                        </link>
                        <link>
                            <linkclipref>Interstaller.mp4 338</linkclipref>
                        </link>
                        <comments/>
                    </clipitem>
                    <clipitem id="Interstaller.mp4 339">
                        <name>Interstaller.mp4</name>
                        <duration>243353</duration>
                        <rate>
                            <timebase>24</timebase>
                            <ntsc>FALSE</ntsc>
                        </rate>
                        <start>7956</start>
                        <end>7976</end>
                        <enabled>TRUE</enabled>
                        <in>171928</in>
                        <out>171948</out>
                        <file id="Interstaller.mp4 2"/>
                        <sourcetrack>
                            <mediatype>audio</mediatype>
                            <trackindex>1</trackindex>
                        </sourcetrack>
                        <link>
                            <linkclipref>Interstaller.mp4 189</linkclipref>
                            <mediatype>video</mediatype>
                        </link>
                        <link>
                            <linkclipref>Interstaller.mp4 339</linkclipref>
                        </link>
                        <comments/>
                    </clipitem>
                    <clipitem id="Interstaller.mp4 340">
                        <name>Interstaller.mp4</name>
                        <duration>243353</duration>
                        <rate>
                            <timebase>24</timebase>
                            <ntsc>FALSE</ntsc>
                        </rate>
                        <start>7976</start>
                        <end>8010</end>
                        <enabled>TRUE</enabled>
                        <in>171948</in>
                        <out>171982</out>
                        <file id="Interstaller.mp4 2"/>
                        <sourcetrack>
                            <mediatype>audio</mediatype>
                            <trackindex>1</trackindex>
                        </sourcetrack>
                        <link>
                            <linkclipref>Interstaller.mp4 191</linkclipref>
                            <mediatype>video</mediatype>
                        </link>
                        <link>
                            <linkclipref>Interstaller.mp4 340</linkclipref>
                        </link>
                        <comments/>
                    </clipitem>
                    <clipitem id="Interstaller.mp4 341">
                        <name>Interstaller.mp4</name>
                        <duration>243353</duration>
                        <rate>
                            <timebase>24</timebase>
                            <ntsc>FALSE</ntsc>
                        </rate>
                        <start>8010</start>
                        <end>8038</end>
                        <enabled>TRUE</enabled>
                        <in>171982</in>
                        <out>172010</out>
                        <file id="Interstaller.mp4 2"/>
                        <sourcetrack>
                            <mediatype>audio</mediatype>
                            <trackindex>1</trackindex>
                        </sourcetrack>
                        <link>
                            <linkclipref>Interstaller.mp4 193</linkclipref>
                            <mediatype>video</mediatype>
                        </link>
                        <link>
                            <linkclipref>Interstaller.mp4 341</linkclipref>
                        </link>
                        <comments/>
                    </clipitem>
                    <clipitem id="Interstaller.mp4 342">
                        <name>Interstaller.mp4</name>
                        <duration>243353</duration>
                        <rate>
                            <timebase>24</timebase>
                            <ntsc>FALSE</ntsc>
                        </rate>
                        <start>8038</start>
                        <end>8244</end>
                        <enabled>TRUE</enabled>
                        <in>172010</in>
                        <out>172216</out>
                        <file id="Interstaller.mp4 2"/>
                        <sourcetrack>
                            <mediatype>audio</mediatype>
                            <trackindex>1</trackindex>
                        </sourcetrack>
                        <link>
                            <linkclipref>Interstaller.mp4 195</linkclipref>
                            <mediatype>video</mediatype>
                        </link>
                        <link>
                            <linkclipref>Interstaller.mp4 342</linkclipref>
                        </link>
                        <comments/>
                    </clipitem>
                    <clipitem id="Interstaller.mp4 343">
                        <name>Interstaller.mp4</name>
                        <duration>243353</duration>
                        <rate>
                            <timebase>24</timebase>
                            <ntsc>FALSE</ntsc>
                        </rate>
                        <start>8244</start>
                        <end>8329</end>
                        <enabled>TRUE</enabled>
                        <in>172216</in>
                        <out>172301</out>
                        <file id="Interstaller.mp4 2"/>
                        <sourcetrack>
                            <mediatype>audio</mediatype>
                            <trackindex>1</trackindex>
                        </sourcetrack>
                        <link>
                            <linkclipref>Interstaller.mp4 197</linkclipref>
                            <mediatype>video</mediatype>
                        </link>
                        <link>
                            <linkclipref>Interstaller.mp4 343</linkclipref>
                        </link>
                        <comments/>
                    </clipitem>
                    <clipitem id="Interstaller.mp4 344">
                        <name>Interstaller.mp4</name>
                        <duration>243353</duration>
                        <rate>
                            <timebase>24</timebase>
                            <ntsc>FALSE</ntsc>
                        </rate>
                        <start>8329</start>
                        <end>8414</end>
                        <enabled>TRUE</enabled>
                        <in>172301</in>
                        <out>172386</out>
                        <file id="Interstaller.mp4 2"/>
                        <sourcetrack>
                            <mediatype>audio</mediatype>
                            <trackindex>1</trackindex>
                        </sourcetrack>
                        <link>
                            <linkclipref>Interstaller.mp4 199</linkclipref>
                            <mediatype>video</mediatype>
                        </link>
                        <link>
                            <linkclipref>Interstaller.mp4 344</linkclipref>
                        </link>
                        <comments/>
                    </clipitem>
                    <clipitem id="Interstaller.mp4 345">
                        <name>Interstaller.mp4</name>
                        <duration>243353</duration>
                        <rate>
                            <timebase>24</timebase>
                            <ntsc>FALSE</ntsc>
                        </rate>
                        <start>8414</start>
                        <end>8535</end>
                        <enabled>TRUE</enabled>
                        <in>172386</in>
                        <out>172507</out>
                        <file id="Interstaller.mp4 2"/>
                        <sourcetrack>
                            <mediatype>audio</mediatype>
                            <trackindex>1</trackindex>
                        </sourcetrack>
                        <link>
                            <linkclipref>Interstaller.mp4 201</linkclipref>
                            <mediatype>video</mediatype>
                        </link>
                        <link>
                            <linkclipref>Interstaller.mp4 345</linkclipref>
                        </link>
                        <comments/>
                    </clipitem>
                    <clipitem id="Interstaller.mp4 346">
                        <name>Interstaller.mp4</name>
                        <duration>243353</duration>
                        <rate>
                            <timebase>24</timebase>
                            <ntsc>FALSE</ntsc>
                        </rate>
                        <start>8535</start>
                        <end>8644</end>
                        <enabled>TRUE</enabled>
                        <in>172507</in>
                        <out>172616</out>
                        <file id="Interstaller.mp4 2"/>
                        <sourcetrack>
                            <mediatype>audio</mediatype>
                            <trackindex>1</trackindex>
                        </sourcetrack>
                        <link>
                            <linkclipref>Interstaller.mp4 203</linkclipref>
                            <mediatype>video</mediatype>
                        </link>
                        <link>
                            <linkclipref>Interstaller.mp4 346</linkclipref>
                        </link>
                        <comments/>
                    </clipitem>
                    <clipitem id="Interstaller.mp4 347">
                        <name>Interstaller.mp4</name>
                        <duration>243353</duration>
                        <rate>
                            <timebase>24</timebase>
                            <ntsc>FALSE</ntsc>
                        </rate>
                        <start>8644</start>
                        <end>8699</end>
                        <enabled>TRUE</enabled>
                        <in>172616</in>
                        <out>172671</out>
                        <file id="Interstaller.mp4 2"/>
                        <sourcetrack>
                            <mediatype>audio</mediatype>
                            <trackindex>1</trackindex>
                        </sourcetrack>
                        <link>
                            <linkclipref>Interstaller.mp4 205</linkclipref>
                            <mediatype>video</mediatype>
                        </link>
                        <link>
                            <linkclipref>Interstaller.mp4 347</linkclipref>
                        </link>
                        <comments/>
                    </clipitem>
                    <clipitem id="Interstaller.mp4 348">
                        <name>Interstaller.mp4</name>
                        <duration>243353</duration>
                        <rate>
                            <timebase>24</timebase>
                            <ntsc>FALSE</ntsc>
                        </rate>
                        <start>8699</start>
                        <end>8804</end>
                        <enabled>TRUE</enabled>
                        <in>172671</in>
                        <out>172776</out>
                        <file id="Interstaller.mp4 2"/>
                        <sourcetrack>
                            <mediatype>audio</mediatype>
                            <trackindex>1</trackindex>
                        </sourcetrack>
                        <link>
                            <linkclipref>Interstaller.mp4 207</linkclipref>
                            <mediatype>video</mediatype>
                        </link>
                        <link>
                            <linkclipref>Interstaller.mp4 348</linkclipref>
                        </link>
                        <comments/>
                    </clipitem>
                    <clipitem id="Interstaller.mp4 349">
                        <name>Interstaller.mp4</name>
                        <duration>243353</duration>
                        <rate>
                            <timebase>24</timebase>
                            <ntsc>FALSE</ntsc>
                        </rate>
                        <start>8804</start>
                        <end>8853</end>
                        <enabled>TRUE</enabled>
                        <in>172776</in>
                        <out>172825</out>
                        <file id="Interstaller.mp4 2"/>
                        <sourcetrack>
                            <mediatype>audio</mediatype>
                            <trackindex>1</trackindex>
                        </sourcetrack>
                        <link>
                            <linkclipref>Interstaller.mp4 209</linkclipref>
                            <mediatype>video</mediatype>
                        </link>
                        <link>
                            <linkclipref>Interstaller.mp4 349</linkclipref>
                        </link>
                        <comments/>
                    </clipitem>
                    <clipitem id="Interstaller.mp4 350">
                        <name>Interstaller.mp4</name>
                        <duration>243353</duration>
                        <rate>
                            <timebase>24</timebase>
                            <ntsc>FALSE</ntsc>
                        </rate>
                        <start>8853</start>
                        <end>8902</end>
                        <enabled>TRUE</enabled>
                        <in>172825</in>
                        <out>172874</out>
                        <file id="Interstaller.mp4 2"/>
                        <sourcetrack>
                            <mediatype>audio</mediatype>
                            <trackindex>1</trackindex>
                        </sourcetrack>
                        <link>
                            <linkclipref>Interstaller.mp4 211</linkclipref>
                            <mediatype>video</mediatype>
                        </link>
                        <link>
                            <linkclipref>Interstaller.mp4 350</linkclipref>
                        </link>
                        <comments/>
                    </clipitem>
                    <clipitem id="Interstaller.mp4 351">
                        <name>Interstaller.mp4</name>
                        <duration>243353</duration>
                        <rate>
                            <timebase>24</timebase>
                            <ntsc>FALSE</ntsc>
                        </rate>
                        <start>8902</start>
                        <end>8948</end>
                        <enabled>TRUE</enabled>
                        <in>172874</in>
                        <out>172920</out>
                        <file id="Interstaller.mp4 2"/>
                        <sourcetrack>
                            <mediatype>audio</mediatype>
                            <trackindex>1</trackindex>
                        </sourcetrack>
                        <link>
                            <linkclipref>Interstaller.mp4 213</linkclipref>
                            <mediatype>video</mediatype>
                        </link>
                        <link>
                            <linkclipref>Interstaller.mp4 351</linkclipref>
                        </link>
                        <comments/>
                    </clipitem>
                    <clipitem id="Interstaller.mp4 352">
                        <name>Interstaller.mp4</name>
                        <duration>243353</duration>
                        <rate>
                            <timebase>24</timebase>
                            <ntsc>FALSE</ntsc>
                        </rate>
                        <start>8948</start>
                        <end>8982</end>
                        <enabled>TRUE</enabled>
                        <in>172920</in>
                        <out>172954</out>
                        <file id="Interstaller.mp4 2"/>
                        <sourcetrack>
                            <mediatype>audio</mediatype>
                            <trackindex>1</trackindex>
                        </sourcetrack>
                        <link>
                            <linkclipref>Interstaller.mp4 215</linkclipref>
                            <mediatype>video</mediatype>
                        </link>
                        <link>
                            <linkclipref>Interstaller.mp4 352</linkclipref>
                        </link>
                        <comments/>
                    </clipitem>
                    <clipitem id="Interstaller.mp4 353">
                        <name>Interstaller.mp4</name>
                        <duration>243353</duration>
                        <rate>
                            <timebase>24</timebase>
                            <ntsc>FALSE</ntsc>
                        </rate>
                        <start>8982</start>
                        <end>9102</end>
                        <enabled>TRUE</enabled>
                        <in>172954</in>
                        <out>173074</out>
                        <file id="Interstaller.mp4 2"/>
                        <sourcetrack>
                            <mediatype>audio</mediatype>
                            <trackindex>1</trackindex>
                        </sourcetrack>
                        <link>
                            <linkclipref>Interstaller.mp4 217</linkclipref>
                            <mediatype>video</mediatype>
                        </link>
                        <link>
                            <linkclipref>Interstaller.mp4 353</linkclipref>
                        </link>
                        <comments/>
                    </clipitem>
                    <clipitem id="Interstaller.mp4 354">
                        <name>Interstaller.mp4</name>
                        <duration>243353</duration>
                        <rate>
                            <timebase>24</timebase>
                            <ntsc>FALSE</ntsc>
                        </rate>
                        <start>9102</start>
                        <end>9143</end>
                        <enabled>TRUE</enabled>
                        <in>173074</in>
                        <out>173115</out>
                        <file id="Interstaller.mp4 2"/>
                        <sourcetrack>
                            <mediatype>audio</mediatype>
                            <trackindex>1</trackindex>
                        </sourcetrack>
                        <link>
                            <linkclipref>Interstaller.mp4 219</linkclipref>
                            <mediatype>video</mediatype>
                        </link>
                        <link>
                            <linkclipref>Interstaller.mp4 354</linkclipref>
                        </link>
                        <comments/>
                    </clipitem>
                    <clipitem id="Interstaller.mp4 355">
                        <name>Interstaller.mp4</name>
                        <duration>243353</duration>
                        <rate>
                            <timebase>24</timebase>
                            <ntsc>FALSE</ntsc>
                        </rate>
                        <start>9143</start>
                        <end>9226</end>
                        <enabled>TRUE</enabled>
                        <in>173115</in>
                        <out>173198</out>
                        <file id="Interstaller.mp4 2"/>
                        <sourcetrack>
                            <mediatype>audio</mediatype>
                            <trackindex>1</trackindex>
                        </sourcetrack>
                        <link>
                            <linkclipref>Interstaller.mp4 221</linkclipref>
                            <mediatype>video</mediatype>
                        </link>
                        <link>
                            <linkclipref>Interstaller.mp4 355</linkclipref>
                        </link>
                        <comments/>
                    </clipitem>
                    <clipitem id="Interstaller.mp4 356">
                        <name>Interstaller.mp4</name>
                        <duration>243353</duration>
                        <rate>
                            <timebase>24</timebase>
                            <ntsc>FALSE</ntsc>
                        </rate>
                        <start>9226</start>
                        <end>9276</end>
                        <enabled>TRUE</enabled>
                        <in>173198</in>
                        <out>173248</out>
                        <file id="Interstaller.mp4 2"/>
                        <sourcetrack>
                            <mediatype>audio</mediatype>
                            <trackindex>1</trackindex>
                        </sourcetrack>
                        <link>
                            <linkclipref>Interstaller.mp4 223</linkclipref>
                            <mediatype>video</mediatype>
                        </link>
                        <link>
                            <linkclipref>Interstaller.mp4 356</linkclipref>
                        </link>
                        <comments/>
                    </clipitem>
                    <clipitem id="Interstaller.mp4 357">
                        <name>Interstaller.mp4</name>
                        <duration>243353</duration>
                        <rate>
                            <timebase>24</timebase>
                            <ntsc>FALSE</ntsc>
                        </rate>
                        <start>9276</start>
                        <end>9328</end>
                        <enabled>TRUE</enabled>
                        <in>173248</in>
                        <out>173300</out>
                        <file id="Interstaller.mp4 2"/>
                        <sourcetrack>
                            <mediatype>audio</mediatype>
                            <trackindex>1</trackindex>
                        </sourcetrack>
                        <link>
                            <linkclipref>Interstaller.mp4 225</linkclipref>
                            <mediatype>video</mediatype>
                        </link>
                        <link>
                            <linkclipref>Interstaller.mp4 357</linkclipref>
                        </link>
                        <comments/>
                    </clipitem>
                    <clipitem id="Interstaller.mp4 358">
                        <name>Interstaller.mp4</name>
                        <duration>243353</duration>
                        <rate>
                            <timebase>24</timebase>
                            <ntsc>FALSE</ntsc>
                        </rate>
                        <start>9328</start>
                        <end>9388</end>
                        <enabled>TRUE</enabled>
                        <in>173300</in>
                        <out>173360</out>
                        <file id="Interstaller.mp4 2"/>
                        <sourcetrack>
                            <mediatype>audio</mediatype>
                            <trackindex>1</trackindex>
                        </sourcetrack>
                        <link>
                            <linkclipref>Interstaller.mp4 227</linkclipref>
                            <mediatype>video</mediatype>
                        </link>
                        <link>
                            <linkclipref>Interstaller.mp4 358</linkclipref>
                        </link>
                        <comments/>
                    </clipitem>
                    <clipitem id="Interstaller.mp4 359">
                        <name>Interstaller.mp4</name>
                        <duration>243353</duration>
                        <rate>
                            <timebase>24</timebase>
                            <ntsc>FALSE</ntsc>
                        </rate>
                        <start>9388</start>
                        <end>9644</end>
                        <enabled>TRUE</enabled>
                        <in>173360</in>
                        <out>173616</out>
                        <file id="Interstaller.mp4 2"/>
                        <sourcetrack>
                            <mediatype>audio</mediatype>
                            <trackindex>1</trackindex>
                        </sourcetrack>
                        <link>
                            <linkclipref>Interstaller.mp4 229</linkclipref>
                            <mediatype>video</mediatype>
                        </link>
                        <link>
                            <linkclipref>Interstaller.mp4 359</linkclipref>
                        </link>
                        <comments/>
                    </clipitem>
                    <clipitem id="Interstaller.mp4 360">
                        <name>Interstaller.mp4</name>
                        <duration>243353</duration>
                        <rate>
                            <timebase>24</timebase>
                            <ntsc>FALSE</ntsc>
                        </rate>
                        <start>9644</start>
                        <end>9800</end>
                        <enabled>TRUE</enabled>
                        <in>173616</in>
                        <out>173772</out>
                        <file id="Interstaller.mp4 2"/>
                        <sourcetrack>
                            <mediatype>audio</mediatype>
                            <trackindex>1</trackindex>
                        </sourcetrack>
                        <link>
                            <linkclipref>Interstaller.mp4 231</linkclipref>
                            <mediatype>video</mediatype>
                        </link>
                        <link>
                            <linkclipref>Interstaller.mp4 360</linkclipref>
                        </link>
                        <comments/>
                    </clipitem>
                    <clipitem id="Interstaller.mp4 361">
                        <name>Interstaller.mp4</name>
                        <duration>243353</duration>
                        <rate>
                            <timebase>24</timebase>
                            <ntsc>FALSE</ntsc>
                        </rate>
                        <start>9800</start>
                        <end>9873</end>
                        <enabled>TRUE</enabled>
                        <in>173772</in>
                        <out>173845</out>
                        <file id="Interstaller.mp4 2"/>
                        <sourcetrack>
                            <mediatype>audio</mediatype>
                            <trackindex>1</trackindex>
                        </sourcetrack>
                        <link>
                            <linkclipref>Interstaller.mp4 233</linkclipref>
                            <mediatype>video</mediatype>
                        </link>
                        <link>
                            <linkclipref>Interstaller.mp4 361</linkclipref>
                        </link>
                        <comments/>
                    </clipitem>
                    <clipitem id="Interstaller.mp4 362">
                        <name>Interstaller.mp4</name>
                        <duration>243353</duration>
                        <rate>
                            <timebase>24</timebase>
                            <ntsc>FALSE</ntsc>
                        </rate>
                        <start>9873</start>
                        <end>9920</end>
                        <enabled>TRUE</enabled>
                        <in>173845</in>
                        <out>173892</out>
                        <file id="Interstaller.mp4 2"/>
                        <sourcetrack>
                            <mediatype>audio</mediatype>
                            <trackindex>1</trackindex>
                        </sourcetrack>
                        <link>
                            <linkclipref>Interstaller.mp4 235</linkclipref>
                            <mediatype>video</mediatype>
                        </link>
                        <link>
                            <linkclipref>Interstaller.mp4 362</linkclipref>
                        </link>
                        <comments/>
                    </clipitem>
                    <clipitem id="Interstaller.mp4 363">
                        <name>Interstaller.mp4</name>
                        <duration>243353</duration>
                        <rate>
                            <timebase>24</timebase>
                            <ntsc>FALSE</ntsc>
                        </rate>
                        <start>9920</start>
                        <end>9988</end>
                        <enabled>TRUE</enabled>
                        <in>173892</in>
                        <out>173960</out>
                        <file id="Interstaller.mp4 2"/>
                        <sourcetrack>
                            <mediatype>audio</mediatype>
                            <trackindex>1</trackindex>
                        </sourcetrack>
                        <link>
                            <linkclipref>Interstaller.mp4 237</linkclipref>
                            <mediatype>video</mediatype>
                        </link>
                        <link>
                            <linkclipref>Interstaller.mp4 363</linkclipref>
                        </link>
                        <comments/>
                    </clipitem>
                    <clipitem id="Interstaller.mp4 364">
                        <name>Interstaller.mp4</name>
                        <duration>243353</duration>
                        <rate>
                            <timebase>24</timebase>
                            <ntsc>FALSE</ntsc>
                        </rate>
                        <start>9988</start>
                        <end>10054</end>
                        <enabled>TRUE</enabled>
                        <in>173960</in>
                        <out>174026</out>
                        <file id="Interstaller.mp4 2"/>
                        <sourcetrack>
                            <mediatype>audio</mediatype>
                            <trackindex>1</trackindex>
                        </sourcetrack>
                        <link>
                            <linkclipref>Interstaller.mp4 239</linkclipref>
                            <mediatype>video</mediatype>
                        </link>
                        <link>
                            <linkclipref>Interstaller.mp4 364</linkclipref>
                        </link>
                        <comments/>
                    </clipitem>
                    <clipitem id="Interstaller.mp4 365">
                        <name>Interstaller.mp4</name>
                        <duration>243353</duration>
                        <rate>
                            <timebase>24</timebase>
                            <ntsc>FALSE</ntsc>
                        </rate>
                        <start>10054</start>
                        <end>10147</end>
                        <enabled>TRUE</enabled>
                        <in>174026</in>
                        <out>174119</out>
                        <file id="Interstaller.mp4 2"/>
                        <sourcetrack>
                            <mediatype>audio</mediatype>
                            <trackindex>1</trackindex>
                        </sourcetrack>
                        <link>
                            <linkclipref>Interstaller.mp4 241</linkclipref>
                            <mediatype>video</mediatype>
                        </link>
                        <link>
                            <linkclipref>Interstaller.mp4 365</linkclipref>
                        </link>
                        <comments/>
                    </clipitem>
                    <clipitem id="Interstaller.mp4 366">
                        <name>Interstaller.mp4</name>
                        <duration>243353</duration>
                        <rate>
                            <timebase>24</timebase>
                            <ntsc>FALSE</ntsc>
                        </rate>
                        <start>10147</start>
                        <end>10167</end>
                        <enabled>TRUE</enabled>
                        <in>174119</in>
                        <out>174139</out>
                        <file id="Interstaller.mp4 2"/>
                        <sourcetrack>
                            <mediatype>audio</mediatype>
                            <trackindex>1</trackindex>
                        </sourcetrack>
                        <link>
                            <linkclipref>Interstaller.mp4 243</linkclipref>
                            <mediatype>video</mediatype>
                        </link>
                        <link>
                            <linkclipref>Interstaller.mp4 366</linkclipref>
                        </link>
                        <comments/>
                    </clipitem>
                    <enabled>TRUE</enabled>
                    <locked>FALSE</locked>
                </track>
            </audio>
        </media>
    </sequence>
</xmeml>
